<svg width="255" height="235" viewBox="0 0 255 235" fill="none" xmlns="http://www.w3.org/2000/svg">
<path d="M211.754 111.661C210.053 111.661 208.441 111.661 206.829 111.571C207.725 111.571 208.62 111.571 209.515 111.571C210.321 111.571 212.291 111.93 212.739 110.852C213.186 109.864 212.022 107.978 211.933 106.81C211.933 106.181 212.291 105.373 212.112 104.744C212.022 104.115 211.485 103.666 211.217 103.127C210.59 101.69 210.5 100.073 210.053 98.5455C209.605 96.8387 209.605 96.4794 210.232 94.9523C210.858 93.5149 210.232 91.9878 209.694 90.5505C209.157 89.0234 209.068 87.4962 208.62 86.0589C208.083 84.4419 207.367 82.9148 207.008 81.208C206.74 79.8605 206.203 78.513 205.307 77.4351C204.68 76.6266 202.711 75.1893 202.979 73.9316C203.069 73.5723 203.516 73.3926 203.606 73.0333C203.696 72.4045 202.621 70.8773 202.353 70.3383C201.547 68.8112 200.472 67.1942 200.114 65.4874C199.845 64.14 200.741 62.6128 199.666 61.6247C199.219 61.1755 198.502 61.2653 198.234 60.6365C197.965 60.0077 198.413 59.1992 198.682 58.6602C200.651 60.0077 202.621 62.8823 203.875 64.9484C204.591 66.0264 204.949 67.7332 205.934 68.5417C207.367 69.6197 207.277 68.0926 206.829 67.1044C205.039 63.2416 202.89 59.7382 200.651 56.1449C200.114 55.2466 199.487 54.3483 198.95 53.45C198.502 52.6415 197.159 50.5754 198.502 49.8567C199.398 49.4075 199.845 50.3059 200.383 50.755C200.92 51.294 201.636 51.6533 201.905 52.4618C202.173 53.0906 201.905 53.5398 202.263 54.2585C202.532 54.7076 203.158 55.2466 203.516 55.6059C204.501 56.6839 205.755 57.7619 206.471 59.1094C207.277 60.4569 207.546 61.7145 208.71 62.7925C208.889 62.0738 209.247 61.0857 208.978 60.367C208.799 59.828 208.262 59.7382 207.904 59.289C207.546 58.75 207.725 58.2111 207.456 57.5822C207.008 56.5941 205.486 56.0551 204.68 55.3364C203.427 54.1686 203.337 53.2703 203.337 51.6533C203.248 49.9465 202.621 50.6652 201.547 49.8567C200.651 49.138 201.189 47.7007 200.562 46.7126C198.682 43.4786 195.816 40.5142 193.13 37.9091C190.713 35.3938 188.295 32.9683 185.52 30.8124C184.177 29.8242 182.744 28.8361 181.311 27.8479C179.789 26.7699 177.909 25.9614 176.476 24.7038C175.402 23.7156 174.596 22.6377 173.343 21.7393C172.179 20.841 171.104 20.0325 169.851 19.2241C168.508 18.4156 167.165 17.6071 165.822 16.7986C165.374 16.5291 164.837 16.0799 164.299 15.9003C162.867 15.2715 162.151 16.5291 161.345 15.002C160.002 12.5765 156.241 12.0375 153.734 10.8697C148.272 8.44424 142.811 6.73743 136.901 5.83911C136.095 5.74928 135.379 5.56962 134.573 5.47979C133.32 5.30012 132.514 4.76113 131.35 4.31197C130.097 3.86281 128.574 3.95265 127.231 3.95265C125.441 3.95265 124.008 3.77298 122.217 3.32382C118.904 2.60517 115.502 3.23399 112.189 2.4255C110.578 2.06618 109.235 2.15601 107.623 2.33567C105.832 2.51534 103.952 2.4255 102.161 2.78483C100.818 3.05433 99.5646 4.31197 98.2215 4.04248C97.4157 3.95264 96.6994 3.41365 95.8041 3.32382C94.9087 3.23399 94.0133 3.32382 93.0284 3.50349C91.0586 3.77298 88.6411 3.95264 86.4027 4.49164C84.612 4.94079 82.9108 5.30012 81.1201 5.74928C80.7619 5.83911 80.3142 5.92894 79.9561 6.01878C78.7921 6.3781 77.6282 7.99508 78.8817 8.89339C79.1503 9.07306 81.7468 9.79171 82.105 9.70188C82.6422 9.52222 82.8213 8.71373 83.0899 8.3544C83.5376 7.90524 83.9852 7.63575 84.612 7.45609C86.0446 7.09676 87.2981 7.54592 88.6411 6.82726C89.2679 6.46794 89.5365 6.10861 90.3423 6.19844C91.0586 6.28827 91.5958 7.18659 92.3121 7.09676C92.7598 7.00693 93.0284 6.3781 93.3866 6.10861C93.8343 5.83911 94.2819 5.83911 94.8192 5.74928C95.625 5.65945 97.2366 5.21029 98.0425 5.65945C98.6692 6.01878 99.296 7.45609 99.0274 8.08491C98.6692 9.16289 96.2517 8.98323 95.2668 9.43238C93.7447 10.151 93.4761 10.5104 91.8645 10.0612C91.0586 9.79171 90.4319 9.97138 89.5365 10.0612C87.8353 10.3307 86.2237 10.69 84.612 11.1392C82.9108 11.5883 81.3887 12.0375 79.777 12.6663C78.2549 13.2053 76.7328 13.0257 75.3897 13.924C74.2258 14.7325 73.2409 16.6189 71.9874 17.1579C70.6443 17.6969 70.8234 15.9003 70.5548 14.9121C70.2862 13.8341 70.0175 12.6663 70.8234 11.8578C71.092 11.5883 72.1664 11.1392 72.256 10.7799C72.3455 10.4205 71.1815 9.34255 70.9129 9.16289C68.4059 7.99508 64.1081 11.6782 63.3918 13.924C62.8546 15.9003 64.1977 14.5528 65.0035 14.1036C66.1675 13.4748 67.8687 13.6545 68.585 14.8223C69.6594 16.5291 68.1373 17.6071 66.9733 18.5952C65.8989 19.4935 64.6454 21.0207 63.3023 21.5597C61.8697 22.1885 60.8848 21.0207 59.5418 20.841C58.915 20.7512 58.3778 21.2004 57.751 21.0207C56.9452 20.841 57.3034 20.2122 57.572 19.4935C57.8406 18.7749 58.1092 18.0562 58.3778 17.4274C58.7359 16.6189 60.079 15.8104 59.6313 14.9121C58.4673 12.5765 53.7219 18.2359 53.0056 18.9546C51.9312 20.0325 50.6777 21.4698 49.066 21.7393C47.3648 22.0088 46.559 21.7393 45.0369 22.9072C44.052 23.7156 42.7984 24.4343 41.8135 25.2428C40.6496 26.3208 41.4554 27.0394 41.0972 28.3869C40.8286 29.2852 39.217 31.6208 38.2321 31.9802C36.6204 32.5192 35.9937 30.2734 34.5611 30.6327C33.4866 30.9022 32.0541 32.7887 31.3378 33.5971C30.1738 34.9446 29.0994 36.4718 28.0249 37.9091C27.3086 38.8972 25.697 40.2447 25.4284 41.5023C25.2493 42.3108 25.5179 42.6702 25.1597 43.4786C24.8911 44.0176 24.4435 44.5566 24.1748 45.0956C24.1748 45.9041 21.5783 45.0058 21.2201 45.1854C20.5934 45.3651 19.7876 46.8923 19.4294 47.3414C18.8027 48.1499 18.1759 48.9584 17.6387 49.7669C16.9224 50.9347 16.2061 52.1025 15.4898 53.2703C12.4456 58.2111 9.75947 63.5111 7.25245 68.7214C5.73033 71.8655 5.37218 75.3689 4.20821 78.6927C3.13377 82.1961 1.70118 85.3403 1.16396 88.8437C0.895355 90.6403 0.716282 92.437 0.537209 94.2336C0.358136 95.6709 -1.03116e-05 97.3777 0.268599 98.9049C0.447672 99.7133 2.05933 100.971 1.96979 101.6C1.79072 102.498 0.358136 102.139 0.0895262 103.217C-0.26862 104.474 -1.03116e-05 106.181 0.716282 107.259C1.70118 108.876 2.2384 108.247 3.76052 108.158C4.65589 108.068 5.10357 108.786 5.55125 107.619C5.73033 107.08 5.64079 106.271 5.73033 105.642C5.81986 104.924 5.81986 104.205 5.9094 103.486C5.9094 102.857 5.81986 101.151 6.17801 100.612C7.34198 98.815 7.34198 102.857 7.34198 103.307C7.34198 105.013 7.34198 106.72 7.34198 108.427C7.34198 110.224 6.98384 111.661 6.62569 113.368C5.99894 116.602 6.62569 120.734 7.07337 123.968C7.43152 127.292 8.5955 130.346 9.22225 133.58C10.3862 139.958 13.2514 145.707 15.6689 151.726C16.5642 153.882 17.9073 155.858 18.7131 158.014C19.2503 159.362 19.8771 159.901 20.7725 160.889C21.6678 161.967 22.5632 163.494 23.369 164.662C24.1748 165.74 24.2644 166.908 24.6225 168.165C25.0702 169.782 25.876 170.052 26.9505 171.04C27.6668 171.758 27.9354 172.836 28.4726 173.735C29.1889 175.082 30.4424 175.621 31.4273 176.789C32.3227 177.867 32.8599 179.125 33.6657 180.292C34.5611 181.55 35.8146 182.089 36.889 183.077C39.3065 185.323 41.5449 187.749 44.1415 189.815C46.6485 191.881 49.3346 193.677 52.0207 195.564C54.08 197.001 56.3185 198.169 58.5569 199.337C59.8999 200.145 61.3325 200.864 62.7651 201.583C65.8093 203.02 68.8536 204.727 71.9874 205.805C73.5095 206.344 75.0316 207.152 76.5537 207.871C77.6282 208.41 80.0456 209.128 80.3142 210.566C80.4933 211.464 80.5829 210.745 80.0456 211.374C79.8666 211.554 79.2398 211.913 78.9712 212.003C78.2549 212.273 77.8072 212.273 77.0014 212.003C75.3897 211.554 73.7781 210.835 72.256 210.296C69.2117 209.308 66.5256 207.512 63.75 205.984C62.4069 205.266 61.0639 204.817 59.7208 204.098C58.3778 203.469 57.751 202.032 56.5871 201.223C56.1394 200.864 55.6917 200.594 55.0649 200.505C54.5277 200.415 53.901 200.774 53.4533 200.505C52.9161 200.145 53.1847 199.696 53.0056 199.157C52.737 198.528 52.0207 197.989 51.4835 197.63C49.2451 196.013 46.1113 196.462 44.1415 194.396C43.2461 193.408 43.0671 191.881 41.9031 191.162C41.3659 190.803 40.56 190.713 39.9333 190.443C39.1274 189.994 38.5007 189.365 37.7844 188.826C36.6204 187.838 35.2774 186.94 34.2029 185.772C33.039 184.515 32.1436 182.987 31.1587 181.64C29.0994 178.945 26.6819 176.34 24.0853 174.094C23.1004 173.286 22.4737 172.297 21.9364 171.13C21.5783 170.321 21.7574 169.513 21.4888 168.614C21.1306 167.447 20.3248 167.896 19.6085 167.267C19.1608 166.908 18.7131 165.65 18.355 165.111C17.1015 163.135 16.1166 161.158 15.0421 159.002C14.5049 157.924 13.6095 156.936 13.1619 155.768C12.6246 154.421 13.6991 153.523 12.6246 152.624C10.5653 150.648 10.1176 148.492 9.66993 145.707C9.40132 144.18 9.31179 142.563 8.68503 141.126C7.96874 139.419 7.96874 137.622 7.52106 135.826C6.71523 132.682 5.64079 129.717 5.01403 126.483C4.29774 122.89 3.58145 119.207 3.13377 115.524C3.04423 114.895 3.13377 113.278 2.05933 113.727C1.07443 114.176 1.70118 115.883 1.88026 116.512C2.32794 118.039 1.52211 118.937 1.34304 120.375C1.2535 122.081 2.2384 123.519 2.68608 125.136C3.58145 128.28 2.95469 131.783 3.67099 134.748C5.01403 139.958 6.98384 144.989 9.04318 149.929C10.9234 154.601 11.9979 159.631 14.3258 164.033C16.5642 168.165 18.8922 172.387 21.7574 176.07C23.9062 178.765 26.4133 181.101 29.0098 183.347C30.2633 184.425 31.4273 185.503 32.6808 186.581C33.218 187.03 33.6657 187.569 34.2029 187.838C34.8297 188.108 35.546 188.018 36.0832 188.467C36.889 189.096 37.2472 191.342 37.8739 192.24C38.6798 193.588 39.7542 194.935 41.0077 195.923C43.2461 197.81 45.8427 199.157 48.1706 200.954C50.7672 202.93 53.7219 204.547 56.4975 206.344C59.1836 207.961 62.2279 208.949 64.5558 211.105C65.1826 211.644 65.4512 212.183 66.3465 212.273C66.8838 212.362 67.421 212.003 68.0477 212.093C69.6594 212.362 71.6292 213.62 73.0618 214.429C74.3153 215.147 75.6583 216.135 77.0909 216.495C77.8072 216.674 78.5235 216.585 79.2398 216.674C80.2247 216.944 81.0305 217.483 81.9259 217.932C82.4631 218.202 83.0003 218.471 83.6271 218.561C84.5225 218.74 85.2388 218.381 86.0446 218.471C87.5667 218.651 89.3574 219.639 90.79 220.178C91.8645 220.537 93.118 220.537 94.1029 220.986C95.3564 221.615 95.4459 222.603 96.968 221.974C98.132 221.525 98.5797 221.256 99.9227 221.256C100.729 221.256 101.534 221.256 102.34 221.166C103.952 221.076 105.653 221.166 107.265 220.986C107.981 220.896 108.697 220.627 109.503 220.627C110.488 220.537 111.115 221.166 112.01 221.166C112.547 221.166 113.353 220.627 113.801 220.447C114.517 220.178 115.323 219.998 116.129 219.818C117.74 219.459 119.442 219.369 121.143 219.19C124.187 218.83 127.231 218.381 130.186 217.932C134.932 217.213 140.035 215.776 144.333 213.89C147.646 212.452 150.69 210.925 154.182 209.937C157.047 209.128 159.823 207.062 162.33 205.445C166.269 203.02 170.119 200.415 173.701 197.45C176.656 194.935 179.073 192.15 181.759 189.365C183.818 187.299 186.146 185.503 188.295 183.437C189.728 182.089 192.593 178.855 194.652 179.394C193.936 176.879 195.816 174.004 197.428 172.208C198.413 171.04 199.308 170.591 200.651 170.141C201.815 169.782 201.278 169.782 201.278 168.525C201.278 167.267 201.905 166.189 202.621 165.201C203.516 164.033 204.77 163.584 205.486 162.416C206.113 161.338 206.292 160.08 206.65 158.913C206.919 158.284 207.367 157.655 207.635 157.026C207.814 156.397 207.725 155.948 207.725 155.14C207.814 153.702 208.71 152.445 209.247 151.097C209.874 149.48 210.411 147.773 210.948 146.156C211.217 145.528 211.396 144.899 211.754 144.36C212.202 143.731 212.739 143.641 213.276 143.192C214.44 142.114 213.007 142.114 213.365 141.216C213.634 140.497 214.977 141.216 215.335 140.317C215.514 139.958 214.977 139.329 214.977 138.88C214.888 138.161 215.156 137.353 215.514 136.724C216.231 135.466 217.216 134.658 217.036 133.041C216.857 130.975 216.947 129.807 217.574 127.831C218.111 126.214 218.29 124.417 217.842 122.8C217.484 121.363 216.32 120.375 216.947 118.937C217.216 118.219 217.753 117.68 217.932 116.871C218.111 115.883 217.932 115.075 218.2 114.086C218.738 112.559 218.469 112.739 217.126 112.02C215.246 111.571 213.455 111.571 211.754 111.661ZM208.351 106.99C208.441 107.08 208.531 107.259 208.62 107.349C208.083 107.708 207.725 107.349 208.351 106.99ZM81.1201 9.16289C80.8515 9.43238 81.2096 8.98323 81.2096 8.89339C81.1201 9.07306 81.1201 9.16289 81.1201 9.16289ZM127.231 205.535C125.709 205.805 124.187 206.254 122.575 206.164C122.038 206.164 121.322 206.164 120.964 205.715C125.888 205.266 130.544 204.278 135.2 203.11C134.305 203.559 133.051 203.828 132.604 204.008C130.813 204.547 129.112 205.176 127.231 205.535ZM130.276 208.051C129.828 208.769 124.277 210.656 123.919 209.039C123.471 207.422 129.47 207.512 130.276 208.051ZM120.695 209.847C120.516 210.206 118.994 210.206 118.636 210.117C118.278 210.027 117.651 210.117 117.83 209.578C117.92 209.308 120.158 209.218 120.516 209.128C120.874 209.128 120.785 209.667 120.695 209.847ZM118.009 206.434C117.472 206.883 116.845 206.434 116.308 205.984C116.935 205.984 117.561 205.895 118.188 205.895C118.099 206.074 118.099 206.254 118.009 206.434ZM111.383 206.164C111.831 206.164 112.368 206.074 112.816 206.074C112.637 206.344 112.547 206.613 112.1 207.062C110.936 208.051 109.951 207.062 109.772 206.074C110.399 206.074 110.846 206.164 111.383 206.164ZM193.578 42.4905C193.578 42.4905 193.488 42.5803 193.488 42.6702C193.936 42.3108 194.563 42.6702 194.742 43.1193C195.19 43.9278 194.831 44.1973 195.369 44.9159C195.995 45.6346 197.428 46.1736 197.518 47.2516C197.607 48.2397 196.622 48.8685 195.727 48.7787C193.667 48.5991 192.862 45.7244 191.519 44.4668C190.802 43.7481 186.684 42.3108 187.221 41.143C188.206 39.526 192.593 42.0413 193.578 42.4905ZM186.236 42.4007C186.773 42.8498 185.878 43.1193 185.52 43.0295C184.982 42.8498 183.908 41.5023 183.639 41.143C183.281 40.6939 182.744 40.065 182.296 39.526C183.102 39.2565 183.192 39.9752 183.639 40.4244C184.445 41.143 185.43 41.682 186.236 42.4007ZM178.894 29.8242C179.521 30.6327 180.327 31.0819 181.222 31.531C182.296 32.07 185.251 33.0582 185.43 34.4955C185.609 35.4836 184.535 36.0226 183.729 35.8429C182.475 35.5734 181.49 34.226 180.595 33.4175C179.968 32.7887 176.029 30.2734 177.014 29.1954C177.909 28.2072 178.536 29.2852 178.894 29.8242ZM168.418 22.1885C169.314 20.5715 173.611 24.614 170.925 25.6919C169.493 26.3208 167.702 23.3563 168.418 22.1885ZM160.091 16.7088C160.27 16.7088 160.539 17.4274 160.539 17.6071C160.539 17.7867 159.285 18.2359 159.196 18.2359C158.927 17.4274 158.659 16.4393 160.091 16.7088ZM148.989 18.0562C149.795 18.4156 151.138 18.7749 151.496 19.6732C150.69 19.8529 148.81 18.9546 148.452 18.1461C148.631 18.0562 148.81 18.0562 148.989 18.0562ZM139.766 15.002C140.751 15.3613 141.826 15.5409 142.811 15.9901C143.706 16.3494 143.796 16.6189 142.811 16.7088C140.93 16.8884 137.528 15.8104 136.006 14.8223C137.259 14.463 138.513 14.6426 139.766 15.002ZM133.588 7.54592C134.036 8.17474 133.857 8.26457 133.32 8.53407C133.32 8.44423 133.23 7.09676 133.588 7.54592ZM120.068 5.47979C119.531 6.3781 116.218 6.91709 117.024 5.47979C117.561 4.4018 121.053 3.86281 120.068 5.47979ZM119.173 7.81541C119.889 7.63575 119.71 8.53407 119.173 8.80356C118.725 9.07306 117.203 8.6239 116.666 8.6239C117.472 8.26457 118.278 7.99508 119.173 7.81541ZM102.161 7.27642C103.325 6.19844 105.564 4.04248 107.265 4.49164C108.25 4.76113 108.16 5.56962 108.876 6.19844C109.772 7.00693 109.682 6.3781 110.578 5.56962C111.742 4.49164 113.98 4.58147 114.786 5.92894C115.054 6.3781 115.144 6.91709 115.502 7.36625C115.771 7.72558 116.129 7.99508 116.308 8.3544C116.756 9.25272 116.039 10.2409 115.502 11.0494C117.472 11.4087 119.442 11.4087 121.411 11.5883C123.113 11.768 125.62 12.6663 127.142 11.8578C125.888 10.9595 123.56 11.1392 122.038 11.0494C121.411 10.9595 118.278 11.3189 117.92 10.69C117.114 9.34255 121.053 9.61205 121.411 9.52222C122.844 9.25272 122.396 7.81541 123.56 7.09676C124.545 6.46794 126.246 6.28827 126.873 7.45609C127.5 8.6239 126.515 9.79171 127.948 10.6002C129.112 11.229 130.634 11.0494 131.887 11.8578C133.23 12.7562 134.394 13.924 135.737 14.8223C133.857 16.6189 129.649 14.9121 127.231 14.6426C124.814 14.3731 122.307 14.1036 119.889 13.8341C116.935 13.5646 114.07 13.385 111.115 13.2053C109.414 13.1155 106.369 13.7443 105.384 12.0375C104.847 11.0494 104.937 9.70188 103.952 8.98323C103.594 8.6239 101.087 8.3544 102.161 7.27642ZM75.4793 14.6426C76.1956 14.5528 76.5537 13.924 77.1805 13.7443C78.1654 13.385 78.3444 13.924 79.1503 14.1935C80.3142 14.6426 80.3142 14.1935 81.1201 13.385C81.9259 12.5765 82.284 12.846 83.3585 13.1155C84.0748 13.2952 84.7015 13.2952 85.3283 12.9358C86.0446 12.5765 86.7609 11.4985 87.5667 11.4985C88.6411 11.4985 89.1784 12.5765 90.3423 12.3968C91.5063 12.2172 92.2226 11.6782 93.3866 12.2172C96.1622 13.2952 91.6854 14.0138 90.79 14.1935C88.6411 14.5528 86.5818 15.1816 84.4329 15.8104C82.105 16.4393 79.6875 17.3376 77.1805 17.3376C76.5537 17.3376 75.5688 17.4274 75.2107 16.7986C75.2107 16.5291 75.1211 14.6426 75.4793 14.6426ZM58.3778 22.1885C59.7208 21.919 59.7208 24.3445 58.4673 24.2546C57.3034 24.075 57.3034 22.3682 58.3778 22.1885ZM58.1987 28.7462C58.0197 30.0937 57.3034 30.0937 57.2138 28.6564C57.572 28.7462 57.9301 28.7462 58.1987 28.7462ZM53.3638 21.0207C53.5428 21.2004 53.6324 22.1885 53.7219 22.458C53.901 22.9072 54.1696 23.3563 54.4382 23.7156C55.0649 24.614 55.7812 25.3326 54.8859 26.2309C54.2591 26.8598 52.8265 26.8598 52.2893 27.1293C51.4835 27.5784 50.23 29.2852 49.2451 28.6564C48.0811 27.8479 49.1555 27.4886 49.6032 27.1293C49.9614 26.8598 50.23 27.0394 50.6777 26.6801C51.2149 26.1411 51.573 25.3326 52.1102 24.7936C50.8567 23.8953 50.5881 24.7936 49.5137 25.0631C49.2451 25.153 47.9916 25.0631 48.6183 24.4343C49.4241 23.536 52.2893 20.2122 53.3638 21.0207ZM41.9926 33.148C42.5298 32.1598 42.7089 30.7225 43.9624 30.6327C44.5892 30.5429 46.2008 30.9022 46.0218 31.8005C45.9322 32.2497 43.6938 34.0463 43.5147 33.7768C42.7089 34.765 41.9031 36.2921 40.9182 37.1006C40.6496 37.2802 40.1123 37.8192 39.6647 37.5497C39.5751 37.4599 39.3961 36.5616 39.4856 36.4718C40.56 35.4836 41.3659 34.3158 41.9926 33.148ZM34.1134 33.687C33.9343 34.0463 33.7553 34.6751 33.3076 34.6751C32.7704 34.5853 32.6808 34.0463 33.039 33.687C33.218 33.5971 34.0239 33.687 34.1134 33.687ZM15.6689 58.2111C16.3852 56.8636 16.8329 55.9653 17.9073 54.8873C18.8922 53.8093 18.2654 53.2703 18.1759 51.9228C17.9073 49.2279 21.0411 51.294 21.2201 49.4075C21.3992 48.0601 20.6829 47.7906 22.2946 47.7007C23.369 47.6109 23.9062 47.5211 24.1748 46.3533C24.1748 46.0838 24.2644 45.8143 24.2644 45.6346C24.1748 45.2753 24.3539 45.0956 24.8016 45.0956C25.3388 44.6465 25.7865 44.4668 26.2342 43.838C26.7714 43.1193 27.4877 41.3227 28.5621 41.4125C29.2784 41.4125 30.1738 43.1193 30.6215 43.7481C31.6064 45.0956 30.711 45.9041 29.9052 47.0719C28.8307 48.5991 27.6668 50.0364 26.5028 51.4737C25.6074 52.6415 24.8016 53.0906 23.6376 53.989C23.2795 54.3483 22.9213 54.6178 22.7423 55.1568C22.4737 56.0551 22.5632 56.5043 22.026 57.4026C21.4888 58.3907 20.6829 60.5467 19.698 61.1755C18.8922 61.6247 17.5491 60.906 16.7433 60.5467C15.6689 60.0975 14.9526 59.3789 15.6689 58.2111ZM11.1025 71.1468C11.013 70.4282 10.7444 69.7095 11.5502 69.2604C12.0874 68.9909 13.3409 69.3502 13.1619 70.0688C12.9828 70.9672 11.8188 70.9672 11.1025 71.1468ZM14.5049 68.2722C14.3258 68.7214 12.8037 68.362 12.7142 68.2722C12.177 67.6434 12.9828 66.0264 13.1619 65.3976C13.6095 63.9603 13.9677 61.445 16.1166 61.8043C17.0119 61.984 18.6236 63.3315 18.1759 64.3196C17.9073 64.9484 16.6538 65.4874 16.2061 66.0264C15.4898 66.6552 14.8631 67.3739 14.5049 68.2722ZM43.0671 177.148C43.1566 177.238 43.1566 177.238 43.2461 177.328C43.2461 177.328 43.2461 177.328 43.1566 177.328C43.1566 177.238 43.1566 177.238 43.0671 177.148ZM49.6928 183.347C50.3195 183.886 50.9463 184.425 51.6626 184.964C50.8567 184.604 50.0509 184.245 49.7823 183.706C49.6032 183.616 49.6928 183.437 49.6928 183.347ZM65.9884 194.666C66.0779 194.666 66.0779 194.755 66.1675 194.755C66.0779 194.666 66.0779 194.666 65.9884 194.666ZM154.003 206.164C150.69 207.422 147.825 209.488 144.512 210.835C141.199 212.183 137.707 213.351 134.305 214.249C132.872 214.608 131.887 214.069 130.455 214.069C128.753 214.069 128.843 215.507 127.769 216.315C126.605 217.213 124.366 217.034 123.113 217.213C121.143 217.483 119.263 217.663 117.293 217.573C115.592 217.483 113.89 217.213 112.189 217.303C110.488 217.393 109.055 217.752 107.444 217.213C106.728 216.944 106.19 216.495 105.564 216.135C104.668 215.686 104.22 215.866 103.236 215.956C101.445 216.046 99.6541 215.507 97.9529 215.417C97.1471 215.327 96.3413 215.417 95.625 215.237C94.9087 215.057 94.1924 214.788 93.4761 214.608C91.7749 214.339 90.0737 214.339 88.3725 213.89C86.6713 213.44 85.2387 213.171 83.448 213.62C82.6422 213.8 81.6573 214.339 81.0305 213.62C80.3142 212.901 80.4933 211.284 81.0305 210.656C82.284 209.488 84.1643 210.656 85.5074 211.105C87.0295 211.644 88.4621 211.823 90.0737 212.093C91.5063 212.362 92.7598 213.081 94.2819 213.171C100.46 213.62 106.638 213.171 112.816 212.632C118.994 212.093 125.262 211.464 131.35 209.937C133.051 209.488 134.842 209.128 136.633 209.039C137.886 208.949 138.244 208.679 139.319 208.23C139.677 208.051 140.214 207.512 140.393 208.23C140.483 208.769 139.766 209.398 139.856 210.117C139.946 210.925 140.125 211.374 141.02 210.925C142.721 210.117 142.274 207.512 143.796 206.793C144.512 206.434 145.676 206.164 146.482 206.074C147.108 205.984 148.72 206.434 149.257 206.164C150.332 205.715 149.526 204.098 150.242 203.289C152.302 200.594 156.51 205.176 154.003 206.164ZM172.268 193.138C170.298 194.755 168.15 196.822 166.269 197.989C165.374 198.528 164.479 199.247 163.673 199.876C162.777 200.505 157.137 205.445 156.51 202.661C156.331 201.762 157.405 200.774 158.032 200.235C158.48 199.876 159.106 199.786 159.375 199.337C159.733 198.798 159.375 197.989 159.733 197.54C160.36 196.552 160.808 197.45 161.613 197.271C162.688 197.001 162.777 195.564 163.494 194.755C164.389 193.588 165.822 192.779 166.986 191.881C168.06 190.982 169.134 189.904 170.388 189.276C172.268 188.288 173.701 191.881 172.268 193.138ZM196.891 165.201C194.742 168.794 192.145 172.118 189.817 175.621C187.848 178.586 185.43 181.281 183.013 183.976C181.311 185.862 179.342 186.85 177.282 188.377C176.387 189.096 174.686 191.971 173.432 190.443C173.074 190.084 172.895 188.737 172.805 188.288C172.626 187.21 172.985 186.491 173.701 185.682C177.014 182.089 180.595 178.945 183.639 175.082C186.684 171.219 189.728 167.267 192.414 163.045C193.847 160.799 195.279 158.553 196.264 156.128C196.712 154.96 197.338 153.972 198.055 152.894C198.592 152.085 199.308 150.199 200.204 149.839C200.83 149.57 201.099 149.75 201.189 150.378C201.368 150.917 200.83 151.187 200.562 151.546C200.025 152.175 199.129 152.894 199.756 153.792C201.009 155.768 202.979 150.648 203.696 149.929C203.696 150.199 203.785 150.468 203.696 150.738C201.636 155.768 199.666 160.619 196.891 165.201ZM203.875 147.773C203.606 147.234 203.337 147.145 203.964 146.785C204.591 146.426 204.591 146.875 204.949 147.414C204.591 147.594 204.233 147.684 203.875 147.773ZM204.501 142.653C204.233 143.731 203.069 142.563 203.069 141.934C202.979 141.126 203.516 139.509 203.964 138.79C204.322 138.251 204.68 137.712 205.128 138.521C205.486 139.239 204.68 141.934 204.501 142.653ZM207.187 129.268C206.829 130.076 206.74 130.885 206.829 131.783C206.919 132.322 207.456 132.951 207.187 133.49C206.919 133.939 205.844 134.209 205.397 134.029C204.68 133.76 204.77 133.31 204.77 132.592C204.949 130.615 205.665 128.729 205.755 126.753C205.755 125.944 205.844 125.315 206.113 124.237C206.292 123.429 206.74 119.117 207.367 118.937C208.441 118.578 208.262 122.351 208.262 123.07C208.172 125.136 207.993 127.292 207.187 129.268Z" fill="#94002D"/>
<path d="M221.424 94.1438C221.334 92.7065 221.066 91.2691 220.708 89.8318C219.991 86.9572 219.006 85.7894 216.32 84.7114C217.126 88.4844 218.827 92.2573 220.708 95.5811C221.424 97.0184 221.424 94.3234 221.424 94.1438Z" fill="#94002D"/>
<path d="M221.424 106.271C220.439 105.732 220.528 103.846 219.454 104.205C218.469 104.474 218.469 105.912 218.648 106.63C218.917 107.708 219.633 108.337 220.618 108.786C221.603 109.325 222.23 109.775 223.125 110.493C223.215 108.876 223.035 107.08 221.424 106.271Z" fill="#94002D"/>
<path d="M212.381 90.8199C212.739 92.1674 212.828 94.0539 213.724 95.042C214.171 94.4132 213.813 93.5149 214.171 92.9759C214.619 92.3471 215.693 92.7064 216.41 92.5268C216.141 91.9878 215.873 90.9098 215.425 90.5505C214.44 90.0115 214.888 90.9098 214.261 91.0894C213.455 91.2691 212.918 89.742 212.381 90.8199Z" fill="#94002D"/>
<path d="M179.7 196.462C179.521 196.642 178.894 197.181 179.073 197.54C179.163 197.81 180.147 198.079 180.416 197.989C180.595 197.9 180.864 196.911 181.132 196.642C181.401 196.283 181.849 196.013 182.207 195.744C182.475 195.564 184.087 193.588 182.565 193.767C181.311 193.857 180.327 195.744 179.7 196.462Z" fill="#94002D"/>
<path d="M208.799 75.6384C208.799 75.7283 208.71 76.5368 208.978 76.6266C210.679 77.3452 211.575 78.8724 212.56 80.3995C211.843 78.3334 211.306 75.6384 208.799 75.6384Z" fill="#94002D"/>
<path d="M74.9421 10.7798C75.2107 10.151 75.927 7.72556 74.5839 7.99506C73.8676 8.17472 72.7037 10.151 72.256 10.69C72.8827 10.8697 74.5839 11.4985 74.9421 10.7798Z" fill="#94002D"/>
<path d="M211.127 67.6434C210.858 66.206 209.963 66.745 209.247 67.5535C209.605 67.6434 211.485 68.9908 211.127 67.6434Z" fill="#94002D"/>
<path d="M172.358 203.828C173.701 203.2 173.701 203.289 173.969 201.762C172.626 202.032 172.805 202.571 172.358 203.828Z" fill="#94002D"/>
<path d="M197.518 175.262C197.786 175.891 197.965 176.699 198.771 175.981C198.323 175.262 198.323 174.992 197.518 175.262Z" fill="#94002D"/>
<path d="M215.783 107.439C215.962 107.08 215.962 106.72 215.693 106.451C215.604 106.541 215.514 106.72 215.514 106.9C215.604 107.08 215.693 107.259 215.783 107.439Z" fill="#94002D"/>
<path d="M147.288 3.95269C147.467 3.95269 147.646 3.86286 147.735 3.86286C147.467 3.32387 147.198 3.23404 147.288 3.95269Z" fill="#94002D"/>
<path d="M193.22 181.909C194.026 181.999 193.936 181.73 193.309 181.46C193.309 181.64 193.309 181.73 193.22 181.909Z" fill="#94002D"/>
<path d="M167.523 206.883C167.612 206.883 167.702 206.972 167.791 206.972C167.881 206.523 167.971 206.703 167.702 206.433C167.702 206.613 167.612 206.703 167.523 206.883Z" fill="#94002D"/>
<path d="M120.516 214.878C120.248 215.237 119.979 215.596 119.71 215.956C120.874 215.506 120.874 215.057 121.232 213.89C121.143 213.89 121.053 213.8 121.053 213.8C120.874 214.249 120.695 214.518 120.516 214.878Z" fill="#94002D"/>
<path d="M134.932 210.476C134.932 210.745 135.111 210.745 135.29 210.656C135.2 210.566 135.2 210.386 135.111 210.296C135.021 210.296 135.021 210.386 134.932 210.476Z" fill="#94002D"/>
<path d="M128.127 212.452C128.216 212.632 128.306 212.722 128.485 212.632C128.306 212.183 128.306 212.452 128.127 212.452Z" fill="#94002D"/>
<path d="M197.697 160.35C198.592 160.17 199.219 157.565 197.876 157.385C196.174 157.116 195.995 160.709 197.697 160.35Z" fill="#94002D"/>
<path d="M192.414 168.075C193.22 168.794 194.563 165.111 193.847 164.482C192.951 163.763 191.698 167.447 192.414 168.075Z" fill="#94002D"/>
<path d="M181.311 181.999C181.401 181.191 181.491 180.472 181.67 179.664C180.864 179.933 180.864 180.831 180.595 181.55C180.864 181.64 181.132 181.82 181.311 181.999Z" fill="#94002D"/>
<path d="M185.967 175.262C185.52 175.891 186.594 176.43 187.042 175.981C187.489 175.531 186.415 174.633 185.967 175.262Z" fill="#94002D"/>
<path d="M175.044 186.94C175.044 187.569 175.312 187.659 175.85 188.108C175.85 187.749 175.85 187.479 175.76 187.12C175.581 187.03 175.312 186.94 175.044 186.94Z" fill="#94002D"/>
<path d="M177.014 185.054C176.835 185.143 176.476 185.143 176.297 185.233C176.476 186.042 177.103 185.772 177.014 185.054Z" fill="#94002D"/>
<path d="M194.921 163.045C195.727 163.045 195.548 162.775 194.921 162.596C194.921 162.775 194.921 162.865 194.921 163.045Z" fill="#94002D"/>
<path d="M110.04 8.8934C109.414 8.17475 108.16 8.26458 107.265 8.62391C106.459 8.98323 106.369 9.1629 106.459 9.79172C106.548 10.0612 106.907 10.69 107.175 10.7799C108.429 11.229 112.01 11.0494 110.04 8.8934Z" fill="#94002D"/>
<path d="M209.157 42.5803C213.366 37.1904 218.29 32.6089 224.11 28.7462C229.93 24.8834 236.914 21.9189 244.793 20.9308L245.33 20.841C249.986 20.2121 254.284 23.6257 254.91 28.297C255.537 32.9683 252.135 37.2802 247.479 37.909C246.404 37.9988 245.42 37.9988 244.435 37.7293C239.6 36.5615 233.959 36.6514 228.318 38.0887C222.677 39.4361 216.857 41.9514 211.664 45.1854L211.575 45.2752C210.679 45.8142 209.605 45.5447 209.068 44.7362C208.62 44.0176 208.71 43.2091 209.157 42.5803Z" fill="#94002D"/>
<path d="M211.664 52.7313C216.678 50.4855 221.961 49.0482 227.691 48.5092C233.332 47.9702 239.421 48.5092 245.42 50.6652L245.867 50.8448C249.449 52.1025 251.329 56.0551 250.075 59.6484C248.822 63.2416 244.882 65.1281 241.301 63.8705C240.495 63.601 239.779 63.1518 239.152 62.6128C232.795 57.2229 222.498 54.7076 212.56 55.6059H212.47C211.664 55.6958 210.948 55.0669 210.858 54.2585C210.769 53.5398 211.127 53.0008 211.664 52.7313Z" fill="#94002D"/>
<path d="M203.069 35.8429C207.993 27.2191 210.142 16.7986 207.904 8.71371C206.919 5.0306 209.068 1.25767 212.739 0.269517C216.41 -0.718633 220.17 1.43733 221.155 5.12043C221.424 5.92892 221.424 6.82724 221.334 7.63573L221.245 8.08488C220.618 14.3731 218.559 20.2122 215.693 25.0631C212.828 30.0038 209.336 34.2259 205.128 37.8192C204.501 38.3582 203.606 38.2684 203.069 37.6395C202.621 37.1904 202.621 36.4717 202.89 35.9327L203.069 35.8429Z" fill="#94002D"/>
<path d="M34.5611 201.223C32.4122 206.164 29.547 210.656 25.876 214.788C22.205 218.92 17.4596 222.513 11.6397 224.849L11.2816 225.029C7.78967 226.376 3.85006 224.759 2.50701 221.256C1.16397 217.752 2.77562 213.8 6.26755 212.452C7.07338 212.183 7.87921 212.003 8.5955 212.003C12.4456 211.913 16.7433 210.745 20.862 208.5C24.8911 206.344 28.8307 203.289 32.1436 199.786L32.2331 199.696C32.7704 199.157 33.6657 199.067 34.2925 199.606C34.6506 199.966 34.8297 200.684 34.5611 201.223Z" fill="#94002D"/>
<path d="M30.6215 193.947C27.2191 196.732 23.4586 198.798 19.2503 200.415C15.0421 201.942 10.2967 202.75 5.28264 202.301H4.9245C1.96979 202.032 -0.268622 199.427 -1.28709e-05 196.462C0.268597 193.498 2.86516 191.252 5.81986 191.521C6.53615 191.611 7.16291 191.791 7.70013 192.06C13.6095 194.935 21.9364 194.755 29.368 192.15H29.4575C30.0843 191.971 30.711 192.24 30.8901 192.869C31.1587 193.138 30.9796 193.677 30.6215 193.947Z" fill="#94002D"/>
<path d="M40.56 205.176C38.5007 212.812 38.9484 221.166 42.1717 226.825C43.6938 229.43 42.7985 232.754 40.2019 234.281C37.6053 235.809 34.2925 234.91 32.7704 232.305C32.4122 231.676 32.2331 231.047 32.1436 230.419L32.0541 230.059C31.2482 225.119 31.6959 220.268 32.9494 215.956C34.2029 211.644 35.9937 207.691 38.5007 204.098C38.8588 203.559 39.5751 203.469 40.1124 203.828C40.56 204.098 40.6496 204.637 40.56 205.086V205.176Z" fill="#94002D"/>
</svg>
