<svg width="98" height="86" viewBox="0 0 98 86" fill="none" xmlns="http://www.w3.org/2000/svg">
<g clip-path="url(#clip0_32_2125)">
<path d="M81.3799 43.1562C80.7261 43.1562 80.1068 43.1562 79.4874 43.1215C79.8315 43.1215 80.1756 43.1215 80.5197 43.1215C80.8294 43.1215 81.5864 43.2604 81.7584 42.8437C81.9305 42.4618 81.4832 41.7327 81.4487 41.2814C81.4487 41.0383 81.5864 40.7258 81.5176 40.4828C81.4832 40.2398 81.2767 40.0662 81.1735 39.8579C80.9326 39.3024 80.8982 38.6774 80.7261 38.0872C80.5541 37.4275 80.5541 37.2886 80.795 36.6984C81.0358 36.1429 80.795 35.5527 80.5885 34.9971C80.382 34.4069 80.3476 33.8167 80.1756 33.2612C79.9691 32.6362 79.6938 32.046 79.5562 31.3863C79.453 30.8655 79.2465 30.3447 78.9024 29.9281C78.6615 29.6156 77.9045 29.0601 78.0077 28.5741C78.0421 28.4352 78.2142 28.3657 78.2486 28.2269C78.283 27.9838 77.8701 27.3936 77.7669 27.1853C77.4572 26.595 77.0443 25.9701 76.9066 25.3104C76.8034 24.7896 77.1475 24.1994 76.7346 23.8175C76.5625 23.6439 76.2872 23.6786 76.184 23.4356C76.0808 23.1925 76.2528 22.8801 76.356 22.6718C77.1131 23.1925 77.8701 24.3036 78.3518 25.1021C78.6271 25.5187 78.7648 26.1784 79.1433 26.4909C79.6938 26.9075 79.6594 26.3173 79.4874 25.9354C78.7992 24.4424 77.9733 23.0884 77.1131 21.6996C76.9066 21.3524 76.6657 21.0052 76.4593 20.658C76.2872 20.3456 75.7711 19.547 76.2872 19.2693C76.6313 19.0957 76.8034 19.4428 77.0098 19.6164C77.2163 19.8248 77.4916 19.9636 77.5948 20.2761C77.698 20.5191 77.5948 20.6927 77.7325 20.9705C77.8357 21.1441 78.0766 21.3524 78.2142 21.4913C78.5927 21.9079 79.0744 22.3246 79.3497 22.8454C79.6594 23.3661 79.7626 23.8522 80.21 24.2688C80.2788 23.9911 80.4164 23.6092 80.3132 23.3314C80.2444 23.1231 80.0379 23.0884 79.9003 22.9148C79.7626 22.7065 79.8315 22.4982 79.7282 22.2551C79.5562 21.8732 78.9712 21.6649 78.6615 21.3871C78.1798 20.9358 78.1454 20.5886 78.1454 19.9636C78.111 19.304 77.8701 19.5817 77.4572 19.2693C77.1131 18.9915 77.3195 18.436 77.0787 18.0541C76.356 16.8042 75.2549 15.6584 74.2226 14.6516C73.2935 13.6794 72.3645 12.742 71.2978 11.9087C70.7816 11.5268 70.231 11.1449 69.6805 10.763C69.0955 10.3464 68.3729 10.0339 67.8223 9.54781C67.4094 9.1659 67.0997 8.74927 66.618 8.40207C66.1707 8.05488 65.7577 7.7424 65.276 7.42993C64.7598 7.11745 64.2437 6.80498 63.7275 6.49251C63.5555 6.38835 63.349 6.21475 63.1426 6.14531C62.592 5.90227 62.3167 6.38835 62.007 5.79812C61.4909 4.86069 60.0457 4.65238 59.0822 4.20102C56.9832 3.2636 54.8841 2.60393 52.6131 2.25674C52.3034 2.22202 52.0281 2.15258 51.7184 2.11786C51.2367 2.04842 50.927 1.8401 50.4796 1.66651C49.9979 1.49291 49.4129 1.52763 48.8968 1.52763C48.2086 1.52763 47.658 1.45819 46.9698 1.28459C45.6966 1.00684 44.3891 1.24987 43.1159 0.937397C42.4965 0.79852 41.9803 0.833239 41.361 0.902678C40.6728 0.972117 39.9501 0.937397 39.2619 1.07628C38.7458 1.18043 38.264 1.66651 37.7479 1.56235C37.4382 1.52763 37.1629 1.31931 36.8188 1.28459C36.4747 1.24987 36.1306 1.28459 35.7521 1.35403C34.9951 1.45819 34.066 1.52763 33.2058 1.73594C32.5176 1.90954 31.8638 2.04842 31.1756 2.22202C31.0379 2.25674 30.8659 2.29145 30.7282 2.32617C30.2809 2.46505 29.8336 3.09 30.3153 3.4372C30.4185 3.50663 31.4164 3.78439 31.5541 3.74967C31.7605 3.68023 31.8294 3.36776 31.9326 3.22888C32.1046 3.05528 32.2767 2.95112 32.5176 2.88168C33.0681 2.74281 33.5499 2.9164 34.066 2.63865C34.3069 2.49977 34.4101 2.36089 34.7198 2.39561C34.9951 2.43033 35.2015 2.77753 35.4768 2.74281C35.6489 2.70809 35.7521 2.46505 35.8898 2.36089C36.0618 2.25674 36.2339 2.25674 36.4403 2.22202C36.75 2.1873 37.3694 2.0137 37.6791 2.1873C37.9199 2.32617 38.1608 2.88168 38.0576 3.12472C37.9199 3.54135 36.9909 3.47192 36.6124 3.64551C36.0274 3.92327 35.9242 4.06214 35.3048 3.88855C34.9951 3.78439 34.7542 3.85383 34.4101 3.88855C33.7563 3.99271 33.1369 4.13158 32.5176 4.30518C31.8638 4.47878 31.2788 4.65238 30.6594 4.89541C30.0744 5.10373 29.4895 5.03429 28.9733 5.38148C28.526 5.69396 28.1475 6.42307 27.6657 6.63138C27.1496 6.8397 27.2184 6.14531 27.1152 5.7634C27.0119 5.34676 26.9087 4.89541 27.2184 4.58294C27.3216 4.47878 27.7346 4.30518 27.769 4.1663C27.8034 4.02743 27.356 3.61079 27.2528 3.54135C26.2893 3.09 24.6376 4.5135 24.3624 5.38148C24.1559 6.14531 24.6721 5.62452 24.9817 5.45092C25.4291 5.20789 26.0829 5.27732 26.3582 5.72868C26.7711 6.38835 26.1861 6.80498 25.7388 7.18689C25.3258 7.53409 24.8441 8.12432 24.328 8.33263C23.7774 8.57567 23.3989 8.12432 22.8827 8.05488C22.6419 8.02016 22.4354 8.19376 22.1945 8.12432C21.8848 8.05488 22.0225 7.81184 22.1257 7.53409C22.2289 7.25633 22.3322 6.97858 22.4354 6.73554C22.573 6.42307 23.0892 6.11059 22.9171 5.7634C22.4698 4.86069 20.6461 7.04802 20.3708 7.32577C19.9579 7.7424 19.4761 8.29791 18.8567 8.40207C18.203 8.50623 17.8933 8.40207 17.3083 8.85343C16.9298 9.1659 16.448 9.44366 16.0695 9.75613C15.6222 10.1728 15.9319 10.4505 15.7942 10.9713C15.691 11.3185 15.0716 12.2212 14.6931 12.3601C14.0737 12.5684 13.8329 11.7004 13.2823 11.8393C12.8694 11.9435 12.3188 12.6726 12.0435 12.985C11.5962 13.5058 11.1833 14.0961 10.7704 14.6516C10.4951 15.0335 9.8757 15.5543 9.77247 16.0403C9.70365 16.3528 9.80688 16.4917 9.66924 16.8042C9.56601 17.0125 9.39396 17.2208 9.29073 17.4291C9.29073 17.7416 8.29284 17.3944 8.1552 17.4638C7.91433 17.5333 7.60464 18.1235 7.467 18.2971C7.22612 18.6096 6.98525 18.9221 6.77879 19.2345C6.50351 19.6859 6.22823 20.1372 5.95295 20.5886C4.78301 22.4982 3.7507 24.5466 2.78722 26.5603C2.20225 27.7755 2.06461 29.1296 1.61728 30.4142C1.20435 31.7682 0.653792 32.9834 0.447332 34.3375C0.344101 35.0319 0.275281 35.7263 0.206461 36.4206C0.137641 36.9762 4.84288e-08 37.6358 0.10323 38.2261C0.172051 38.5385 0.791433 39.0246 0.757023 39.2676C0.688202 39.6148 0.137641 39.476 0.0344102 39.8926C-0.10323 40.3787 4.84288e-08 41.0383 0.275281 41.455C0.653792 42.0799 0.860253 41.8369 1.44522 41.8022C1.78933 41.7674 1.96138 42.0452 2.13343 41.5938C2.20225 41.3855 2.16784 41.073 2.20225 40.83C2.23666 40.5523 2.23666 40.2745 2.27107 39.9967C2.27107 39.7537 2.23666 39.094 2.3743 38.8857C2.82163 38.1913 2.82163 39.7537 2.82163 39.9273C2.82163 40.587 2.82163 41.2466 2.82163 41.9063C2.82163 42.6007 2.68399 43.1562 2.54635 43.8159C2.30548 45.0658 2.54635 46.6629 2.7184 47.9128C2.85604 49.1974 3.30337 50.3778 3.54424 51.6277C3.99157 54.0928 5.0927 56.3149 6.02177 58.6411C6.36587 59.4743 6.88202 60.2382 7.19171 61.0714C7.39817 61.5922 7.63905 61.8005 7.98315 62.1825C8.32725 62.5991 8.67135 63.1893 8.98104 63.6407C9.29073 64.0573 9.32514 64.5087 9.46278 64.9947C9.63483 65.6197 9.94452 65.7238 10.3574 66.1057C10.6327 66.3835 10.736 66.8001 10.9424 67.1473C11.2177 67.6681 11.6994 67.8764 12.078 68.3278C12.4221 68.7444 12.6285 69.2305 12.9382 69.6818C13.2823 70.1679 13.764 70.3762 14.177 70.7581C15.106 71.6261 15.9663 72.5636 16.9642 73.3621C17.9277 74.1607 18.96 74.855 19.9923 75.5841C20.7837 76.1397 21.644 76.591 22.5042 77.0424C23.0204 77.3548 23.5709 77.6326 24.1215 77.9103C25.2914 78.4659 26.4614 79.1255 27.6657 79.5422C28.2507 79.7505 28.8357 80.063 29.4207 80.3407C29.8336 80.549 30.7626 80.8268 30.8659 81.3823C30.9347 81.7295 30.9691 81.4517 30.7626 81.6948C30.6938 81.7642 30.453 81.9031 30.3497 81.9378C30.0744 82.042 29.9024 82.042 29.5927 81.9378C28.9733 81.7642 28.3539 81.4865 27.769 81.2781C26.599 80.8962 25.5667 80.2018 24.5 79.6116C23.9839 79.3338 23.4677 79.1602 22.9515 78.8825C22.4354 78.6395 22.1945 78.0839 21.7472 77.7715C21.5751 77.6326 21.4031 77.5284 21.1622 77.4937C20.9558 77.459 20.7149 77.5979 20.5428 77.4937C20.3364 77.3548 20.4396 77.1812 20.3708 76.9729C20.2676 76.7299 19.9923 76.5216 19.7858 76.3827C18.9256 75.7577 17.7212 75.9313 16.9642 75.1328C16.6201 74.7509 16.5513 74.1607 16.1039 73.8829C15.8975 73.744 15.5878 73.7093 15.3469 73.6051C15.0372 73.4315 14.7964 73.1885 14.5211 72.9802C14.0737 72.5983 13.5576 72.2511 13.1447 71.7997C12.6973 71.3137 12.3532 70.7234 11.9747 70.2026C11.1833 69.1611 10.2542 68.1542 9.25632 67.2862C8.87781 66.9737 8.63694 66.5918 8.43048 66.1405C8.29284 65.828 8.36166 65.5155 8.25843 65.1683C8.12079 64.717 7.8111 64.8906 7.53582 64.6475C7.36376 64.5087 7.19171 64.0226 7.05407 63.8143C6.57233 63.0504 6.19382 62.2866 5.7809 61.4533C5.57444 61.0367 5.23034 60.6548 5.05829 60.2034C4.85183 59.6827 5.26475 59.3355 4.85183 58.9883C4.06039 58.2244 3.88834 57.3912 3.71629 56.3149C3.61306 55.7246 3.57865 55.0997 3.33778 54.5442C3.0625 53.8845 3.0625 53.1901 2.89045 52.4957C2.58076 51.2806 2.16784 50.1348 1.92697 48.8849C1.65169 47.4961 1.3764 46.0726 1.20435 44.6491C1.16994 44.4061 1.20435 43.7812 0.791433 43.9548C0.412921 44.1284 0.653792 44.788 0.722612 45.0311C0.894663 45.6213 0.584972 45.9685 0.516152 46.524C0.481742 47.1837 0.860253 47.7392 1.0323 48.3641C1.3764 49.5793 1.13553 50.9334 1.41081 52.0791C1.92697 54.0928 2.68399 56.0371 3.47542 57.9467C4.19803 59.7521 4.61096 61.6964 5.50562 63.3976C6.36587 64.9947 7.26053 66.6265 8.36166 68.05C9.1875 69.0916 10.151 69.9943 11.1489 70.8623C11.6306 71.2789 12.078 71.6956 12.5597 72.1122C12.7662 72.2858 12.9382 72.4941 13.1447 72.5983C13.3855 72.7024 13.6608 72.6677 13.8673 72.8413C14.177 73.0844 14.3146 73.9523 14.5555 74.2995C14.8652 74.8203 15.2781 75.3411 15.7598 75.723C16.6201 76.4521 17.618 76.9729 18.5126 77.6673C19.5105 78.4311 20.6461 79.0561 21.7128 79.7505C22.7451 80.3754 23.915 80.7573 24.8097 81.5906C25.0506 81.7989 25.1538 82.0072 25.4979 82.042C25.7044 82.0767 25.9108 81.9378 26.1517 81.9725C26.7711 82.0767 27.5281 82.5628 28.0787 82.8752C28.5604 83.153 29.0765 83.5349 29.6271 83.6738C29.9024 83.7432 30.1777 83.7085 30.453 83.7432C30.8315 83.8474 31.1412 84.0557 31.4853 84.2293C31.6917 84.3334 31.8982 84.4376 32.139 84.4723C32.4832 84.5418 32.7584 84.4029 33.0681 84.4376C33.6531 84.507 34.3413 84.889 34.8919 85.0973C35.3048 85.2362 35.7865 85.2361 36.165 85.4097C36.6468 85.6528 36.6812 86.0347 37.2662 85.7917C37.7135 85.6181 37.8855 85.5139 38.4017 85.5139C38.7114 85.5139 39.0211 85.5139 39.3308 85.4792C39.9501 85.4445 40.6039 85.4792 41.2233 85.4097C41.4986 85.375 41.7739 85.2709 42.0836 85.2709C42.4621 85.2362 42.703 85.4792 43.0471 85.4792C43.2535 85.4792 43.5632 85.2709 43.7353 85.2014C44.0105 85.0973 44.3202 85.0278 44.6299 84.9584C45.2493 84.8195 45.9031 84.7848 46.5569 84.7154C47.7268 84.5765 48.8968 84.4029 50.0323 84.2293C51.856 83.9515 53.8174 83.396 55.4691 82.6669C56.7423 82.1114 57.9122 81.5212 59.2542 81.1393C60.3553 80.8268 61.4221 80.0282 62.3855 79.4033C63.8996 78.4659 65.3792 77.459 66.7556 76.3133C67.8912 75.3411 68.8202 74.2648 69.8525 73.1885C70.644 72.39 71.5386 71.6956 72.3645 70.897C72.915 70.3762 74.0162 69.1263 74.8076 69.3346C74.5323 68.3625 75.2549 67.2515 75.8743 66.5571C76.2528 66.1057 76.5969 65.9321 77.1131 65.7586C77.5604 65.6197 77.3539 65.6197 77.3539 65.1336C77.3539 64.6475 77.5948 64.2309 77.8701 63.849C78.2142 63.3976 78.6959 63.224 78.9712 62.7727C79.2121 62.356 79.2809 61.87 79.4185 61.4186C79.5218 61.1756 79.6938 60.9326 79.7971 60.6895C79.8659 60.4465 79.8315 60.2729 79.8315 59.9604C79.8659 59.4049 80.21 58.9188 80.4164 58.398C80.6573 57.7731 80.8638 57.1134 81.0702 56.4885C81.1735 56.2454 81.2423 56.0024 81.3799 55.7941C81.552 55.551 81.7584 55.5163 81.9649 55.3427C82.4122 54.9261 81.8617 54.9261 81.9993 54.5789C82.1025 54.3011 82.6187 54.5789 82.7563 54.2317C82.8251 54.0928 82.6187 53.8498 82.6187 53.6762C82.5843 53.3984 82.6875 53.086 82.8251 52.8429C83.1004 52.3569 83.4789 52.0444 83.4101 51.4194C83.3413 50.6209 83.3757 50.1695 83.6166 49.4057C83.823 48.7808 83.8919 48.0864 83.7198 47.4614C83.5822 46.9059 83.1348 46.524 83.3757 45.9685C83.4789 45.6907 83.6854 45.4824 83.7542 45.1699C83.823 44.788 83.7542 44.4755 83.8575 44.0936C84.0639 43.5034 83.9607 43.5728 83.4445 43.2951C82.7219 43.1215 82.0337 43.1215 81.3799 43.1562ZM80.0723 41.3508C80.1068 41.3855 80.1412 41.455 80.1756 41.4897C79.9691 41.6286 79.8315 41.4897 80.0723 41.3508ZM31.1756 3.54135C31.0723 3.64551 31.21 3.47191 31.21 3.4372C31.1756 3.50663 31.1756 3.54135 31.1756 3.54135ZM48.8968 79.438C48.3118 79.5422 47.7268 79.7158 47.1074 79.681C46.901 79.681 46.6257 79.681 46.4881 79.5074C48.3806 79.3338 50.1699 78.9519 51.9593 78.5006C51.6152 78.6742 51.1334 78.7783 50.9614 78.8478C50.2732 79.0561 49.6194 79.2991 48.8968 79.438ZM50.0667 80.4101C49.8947 80.6879 47.7612 81.417 47.6236 80.7921C47.4515 80.1671 49.757 80.2018 50.0667 80.4101ZM46.3848 81.1045C46.316 81.2434 45.731 81.2434 45.5934 81.2087C45.4558 81.174 45.2149 81.2087 45.2837 81.0004C45.3181 80.8962 46.1784 80.8615 46.316 80.8268C46.4537 80.8268 46.4192 81.0351 46.3848 81.1045ZM45.3525 79.7852C45.1461 79.9588 44.9052 79.7852 44.6987 79.6116C44.9396 79.6116 45.1805 79.5769 45.4214 79.5769C45.3869 79.6463 45.3869 79.7158 45.3525 79.7852ZM42.8062 79.681C42.9782 79.681 43.1847 79.6463 43.3567 79.6463C43.2879 79.7505 43.2535 79.8546 43.0815 80.0282C42.6341 80.4101 42.2556 80.0282 42.1868 79.6463C42.4277 79.6463 42.5997 79.681 42.8062 79.681ZM74.3947 16.4223C74.3947 16.4223 74.3603 16.457 74.3603 16.4917C74.5323 16.3528 74.7732 16.4917 74.842 16.6653C75.0141 16.9778 74.8764 17.0819 75.0829 17.3597C75.3237 17.6374 75.8743 17.8458 75.9087 18.2624C75.9431 18.6443 75.5646 18.8873 75.2205 18.8526C74.4291 18.7832 74.1194 17.6722 73.6032 17.1861C73.328 16.9083 71.7451 16.3528 71.9516 15.9015C72.3301 15.2765 74.0162 16.2487 74.3947 16.4223ZM71.573 16.3875C71.7795 16.5611 71.4354 16.6653 71.2978 16.6306C71.0913 16.5611 70.6784 16.0403 70.5751 15.9015C70.4375 15.7279 70.231 15.4848 70.059 15.2765C70.3687 15.1724 70.4031 15.4501 70.5751 15.6237C70.8848 15.9015 71.2634 16.1098 71.573 16.3875ZM68.7514 11.5268C68.9923 11.8393 69.302 12.0129 69.6461 12.1865C70.059 12.3948 71.1945 12.7767 71.2634 13.3322C71.3322 13.7141 70.9193 13.9225 70.6096 13.853C70.1278 13.7489 69.7493 13.2281 69.4052 12.9156C69.1643 12.6726 67.6503 11.7004 68.0288 11.2838C68.3729 10.9019 68.6138 11.3185 68.7514 11.5268ZM64.7254 8.57567C65.0695 7.95072 66.7212 9.51309 65.6889 9.92973C65.1383 10.1728 64.4501 9.02702 64.7254 8.57567ZM61.5253 6.45779C61.5941 6.45779 61.6973 6.73554 61.6973 6.80498C61.6973 6.87442 61.2156 7.04802 61.1812 7.04802C61.078 6.73554 60.9747 6.35363 61.5253 6.45779ZM57.2584 6.97858C57.5681 7.11745 58.0843 7.25633 58.2219 7.60353C57.9122 7.67297 57.1896 7.32577 57.052 7.0133C57.1208 6.97858 57.1896 6.97858 57.2584 6.97858ZM53.7142 5.79812C54.0927 5.93699 54.5056 6.00643 54.8841 6.18003C55.2282 6.31891 55.2626 6.42307 54.8841 6.45779C54.1615 6.52722 52.8539 6.11059 52.269 5.72868C52.7507 5.5898 53.2324 5.65924 53.7142 5.79812ZM51.3399 2.9164C51.5119 3.15944 51.4431 3.19416 51.2367 3.29832C51.2367 3.2636 51.2023 2.74281 51.3399 2.9164ZM46.144 2.11786C45.9375 2.46505 44.6643 2.67337 44.974 2.11786C45.1805 1.70122 46.5225 1.49291 46.144 2.11786ZM45.7999 3.02056C46.0751 2.95112 46.0063 3.29832 45.7999 3.40248C45.6278 3.50663 45.0428 3.33304 44.8364 3.33304C45.1461 3.19416 45.4558 3.09 45.7999 3.02056ZM39.2619 2.81225C39.7093 2.39561 40.5695 1.56235 41.2233 1.73594C41.6018 1.8401 41.5674 2.15258 41.8427 2.39561C42.1868 2.70809 42.1524 2.46505 42.4965 2.15258C42.9438 1.73594 43.8041 1.77066 44.1138 2.29145C44.217 2.46505 44.2514 2.67337 44.389 2.84697C44.4923 2.98584 44.6299 3.09 44.6987 3.22888C44.8708 3.57607 44.5955 3.95799 44.389 4.27046C45.1461 4.40934 45.9031 4.40934 46.6601 4.47878C47.3139 4.54822 48.2774 4.89541 48.8624 4.58294C48.3806 4.23574 47.486 4.30518 46.901 4.27046C46.6601 4.23574 45.4558 4.37462 45.3181 4.13158C45.0084 3.61079 46.5225 3.71495 46.6601 3.68023C47.2107 3.57607 47.0386 3.02056 47.486 2.74281C47.8645 2.49977 48.5183 2.43033 48.7591 2.88168C49 3.33304 48.6215 3.78439 49.1721 4.09686C49.6194 4.3399 50.2044 4.27046 50.6861 4.58294C51.2023 4.93013 51.6496 5.38148 52.1657 5.72868C51.4431 6.42307 49.8258 5.7634 48.8968 5.65924C47.9677 5.55508 47.0042 5.45092 46.0751 5.34676C44.9396 5.24261 43.8385 5.17317 42.703 5.10373C42.0492 5.06901 40.8792 5.31204 40.5007 4.65237C40.2942 4.27046 40.3287 3.74967 39.9501 3.47192C39.8125 3.33304 38.849 3.22888 39.2619 2.81225ZM29.0077 5.65924C29.283 5.62452 29.4206 5.38148 29.6615 5.31204C30.04 5.17317 30.1089 5.38148 30.4185 5.48564C30.8659 5.65924 30.8659 5.48564 31.1756 5.17317C31.4853 4.86069 31.6229 4.96485 32.0358 5.06901C32.3111 5.13845 32.552 5.13845 32.7928 4.99957C33.0681 4.86069 33.3434 4.44406 33.6531 4.44406C34.066 4.44406 34.2725 4.86069 34.7198 4.79125C35.1671 4.72181 35.4424 4.5135 35.8898 4.72181C36.9565 5.13845 35.236 5.4162 34.8919 5.48564C34.066 5.62452 33.2746 5.86756 32.4487 6.11059C31.5541 6.35363 30.625 6.70082 29.6615 6.70082C29.4206 6.70082 29.0421 6.73554 28.9045 6.49251C28.9045 6.38835 28.8701 5.65924 29.0077 5.65924ZM22.4354 8.57567C22.9515 8.47151 22.9515 9.40894 22.4698 9.37422C22.0225 9.30478 22.0225 8.64511 22.4354 8.57567ZM22.3666 11.1102C22.2978 11.631 22.0225 11.631 21.9881 11.0755C22.1257 11.1102 22.2633 11.1102 22.3666 11.1102ZM20.5084 8.12432C20.5772 8.19376 20.6117 8.57567 20.6461 8.67983C20.7149 8.85343 20.8181 9.02702 20.9214 9.1659C21.1622 9.51309 21.4375 9.79085 21.0934 10.138C20.8525 10.3811 20.302 10.3811 20.0955 10.4852C19.7858 10.6588 19.3041 11.3185 18.9256 11.0755C18.4782 10.763 18.8912 10.6241 19.0632 10.4852C19.2008 10.3811 19.3041 10.4505 19.4761 10.3116C19.6826 10.1033 19.8202 9.79085 20.0267 9.58253C19.5449 9.23534 19.4417 9.58253 19.0288 9.68669C18.9256 9.72141 18.4438 9.68669 18.6847 9.44366C18.9944 9.09646 20.0955 7.81184 20.5084 8.12432ZM16.1383 12.8114C16.3448 12.4295 16.4136 11.874 16.8954 11.8393C17.1362 11.8046 17.7556 11.9435 17.6868 12.2906C17.6524 12.4642 16.7921 13.1586 16.7233 13.0545C16.4136 13.4364 16.1039 14.0266 15.7254 14.3391C15.6222 14.4085 15.4157 14.6168 15.2437 14.5127C15.2093 14.478 15.1405 14.1308 15.1749 14.0961C15.5878 13.7141 15.8975 13.2628 16.1383 12.8114ZM13.1103 13.0198C13.0414 13.1586 12.9726 13.4017 12.8006 13.4017C12.5941 13.3669 12.5597 13.1586 12.6973 13.0198C12.7662 12.985 13.0758 13.0198 13.1103 13.0198ZM6.02177 22.4982C6.29705 21.9774 6.4691 21.6302 6.88202 21.2135C7.26053 20.7969 7.01966 20.5886 6.98525 20.0678C6.88202 19.0262 8.08638 19.8248 8.1552 19.0957C8.22402 18.5749 7.94874 18.4707 8.56812 18.436C8.98104 18.4013 9.1875 18.3665 9.29073 17.9152C9.29073 17.811 9.32514 17.7069 9.32514 17.6374C9.29073 17.4986 9.35955 17.4291 9.5316 17.4291C9.73806 17.2555 9.91011 17.1861 10.0822 16.9431C10.2886 16.6653 10.5639 15.9709 10.9768 16.0056C11.2521 16.0056 11.5962 16.6653 11.7683 16.9083C12.1468 17.4291 11.8027 17.7416 11.493 18.1929C11.0801 18.7832 10.6327 19.3387 10.1854 19.8942C9.84129 20.3456 9.5316 20.5191 9.08427 20.8663C8.94663 21.0052 8.80899 21.1094 8.74017 21.3177C8.63694 21.6649 8.67135 21.8385 8.46489 22.1857C8.25843 22.5676 7.94874 23.4009 7.57023 23.6439C7.26053 23.8175 6.74438 23.5397 6.43469 23.4009C6.02177 23.2273 5.74649 22.9495 6.02177 22.4982ZM4.26685 27.4978C4.23244 27.22 4.12921 26.9422 4.4389 26.7686C4.64537 26.6645 5.12711 26.8034 5.05829 27.0811C4.98947 27.4283 4.54214 27.4283 4.26685 27.4978ZM5.57444 26.3867C5.50562 26.5603 4.92065 26.4214 4.88624 26.3867C4.67978 26.1437 4.98947 25.5187 5.05829 25.2757C5.23034 24.7202 5.36798 23.7481 6.19382 23.8869C6.53792 23.9564 7.1573 24.4772 6.98525 24.8591C6.88202 25.1021 6.40028 25.3104 6.22823 25.5187C5.95295 25.7618 5.71208 26.0395 5.57444 26.3867ZM16.5513 68.4667C16.5857 68.5014 16.5857 68.5014 16.6201 68.5361C16.6201 68.5361 16.6201 68.5361 16.5857 68.5361C16.5857 68.5014 16.5857 68.5014 16.5513 68.4667ZM19.0976 70.8623C19.3385 71.0706 19.5794 71.2789 19.8546 71.4873C19.5449 71.3484 19.2353 71.2095 19.132 71.0012C19.0632 70.9665 19.0976 70.897 19.0976 70.8623ZM25.3603 75.237C25.3947 75.237 25.3947 75.2717 25.4291 75.2717C25.3947 75.237 25.3947 75.237 25.3603 75.237ZM59.1854 79.681C57.9122 80.1671 56.8111 80.9657 55.5379 81.4865C54.2648 82.0072 52.9228 82.4586 51.6152 82.8058C51.0646 82.9447 50.6861 82.7364 50.1355 82.7364C49.4817 82.7364 49.5162 83.2919 49.1032 83.6043C48.6559 83.9515 47.7957 83.8821 47.3139 83.9515C46.5569 84.0557 45.8343 84.1251 45.0773 84.0904C44.4235 84.0557 43.7697 83.9515 43.1159 83.9862C42.4621 84.021 41.9115 84.1598 41.2921 83.9515C41.0169 83.8474 40.8104 83.6738 40.5695 83.5349C40.2254 83.3613 40.0534 83.4307 39.6749 83.4655C38.9867 83.5002 38.2985 83.2919 37.6447 83.2571C37.335 83.2224 37.0253 83.2571 36.75 83.1877C36.4747 83.1183 36.1994 83.0141 35.9242 82.9447C35.2704 82.8405 34.6166 82.8405 33.9628 82.6669C33.309 82.4933 32.7584 82.3892 32.0702 82.5628C31.7605 82.6322 31.382 82.8405 31.1412 82.5628C30.8659 82.285 30.9347 81.66 31.1412 81.417C31.6229 80.9657 32.3455 81.417 32.8617 81.5906C33.4466 81.7989 33.9972 81.8684 34.6166 81.9725C35.1671 82.0767 35.6489 82.3544 36.2339 82.3892C38.6082 82.5628 40.9824 82.3892 43.3567 82.1808C45.731 81.9725 48.1398 81.7295 50.4796 81.1393C51.1334 80.9657 51.8216 80.8268 52.5098 80.7921C52.9916 80.7573 53.1292 80.6532 53.5421 80.4796C53.6798 80.4101 53.8862 80.2018 53.9551 80.4796C53.9895 80.6879 53.7142 80.9309 53.7486 81.2087C53.783 81.5212 53.8518 81.6948 54.1959 81.5212C54.8497 81.2087 54.6777 80.2018 55.2626 79.9241C55.5379 79.7852 55.9853 79.681 56.295 79.6463C56.5358 79.6116 57.1552 79.7852 57.3617 79.681C57.7746 79.5074 57.4649 78.8825 57.7402 78.57C58.5316 77.5284 60.1489 79.2991 59.1854 79.681ZM66.2051 74.6467C65.448 75.2717 64.6222 76.0702 63.8996 76.5216C63.5555 76.7299 63.2114 77.0076 62.9017 77.2507C62.5576 77.4937 60.3898 79.4033 60.1489 78.327C60.0801 77.9798 60.493 77.5979 60.7339 77.3896C60.9059 77.2507 61.1468 77.216 61.25 77.0424C61.3876 76.834 61.25 76.5216 61.3876 76.348C61.6285 75.9661 61.8006 76.3133 62.1103 76.2438C62.5232 76.1397 62.5576 75.5842 62.8329 75.2717C63.177 74.8203 63.7275 74.5079 64.1749 74.1607C64.5878 73.8135 65.0007 73.3968 65.4825 73.1538C66.2051 72.7719 66.7556 74.1607 66.2051 74.6467ZM75.6678 63.849C74.842 65.2378 73.8441 66.5224 72.9494 67.8764C72.1924 69.0222 71.2633 70.0638 70.3343 71.1053C69.6805 71.8344 68.9235 72.2164 68.132 72.8066C67.7879 73.0844 67.1341 74.1954 66.6524 73.6051C66.5148 73.4663 66.4459 72.9455 66.4115 72.7719C66.3427 72.3552 66.4803 72.0775 66.7556 71.765C68.0288 70.3762 69.4052 69.1611 70.5751 67.6681C71.7451 66.1752 72.915 64.6475 73.9473 63.0157C74.4979 62.1477 75.0485 61.2797 75.427 60.3423C75.599 59.891 75.8399 59.5091 76.1152 59.0924C76.3216 58.7799 76.5969 58.0508 76.941 57.912C77.1819 57.8078 77.2851 57.8772 77.3195 58.1203C77.3884 58.3286 77.1819 58.4328 77.0787 58.5716C76.8722 58.8147 76.5281 59.0924 76.769 59.4396C77.2507 60.2034 78.0077 58.2244 78.283 57.9467C78.283 58.0508 78.3174 58.155 78.283 58.2592C77.4916 60.2034 76.7346 62.0783 75.6678 63.849ZM78.3518 57.1134C78.2486 56.9051 78.1454 56.8704 78.3862 56.7315C78.6271 56.5926 78.6271 56.7662 78.7648 56.9745C78.6271 57.044 78.4895 57.0787 78.3518 57.1134ZM78.5927 55.1344C78.4895 55.551 78.0421 55.0997 78.0421 54.8567C78.0077 54.5442 78.2142 53.9192 78.3862 53.6415C78.5239 53.4332 78.6615 53.2248 78.8336 53.5373C78.9712 53.8151 78.6615 54.8567 78.5927 55.1344ZM79.625 49.9612C79.4874 50.2737 79.453 50.5862 79.4874 50.9334C79.5218 51.1417 79.7282 51.3847 79.625 51.593C79.5218 51.7666 79.1089 51.8708 78.9368 51.8013C78.6615 51.6972 78.6959 51.5236 78.6959 51.2458C78.7648 50.482 79.04 49.7529 79.0744 48.9891C79.0744 48.6766 79.1089 48.4336 79.2121 48.0169C79.2809 47.7045 79.453 46.0379 79.6938 45.9685C80.1068 45.8296 80.0379 47.2878 80.0379 47.5656C80.0035 48.3641 79.9347 49.1974 79.625 49.9612Z" fill="#94002D"/>
<path d="M85.0962 36.3859C85.0618 35.8304 84.9586 35.2749 84.8209 34.7194C84.5456 33.6083 84.1671 33.157 83.1348 32.7404C83.4445 34.1986 84.0983 35.6568 84.8209 36.9414C85.0962 37.4969 85.0962 36.4553 85.0962 36.3859Z" fill="#94002D"/>
<path d="M85.0962 41.0731C84.7177 40.8648 84.7521 40.1357 84.3392 40.2745C83.9607 40.3787 83.9607 40.9342 84.0295 41.212C84.1327 41.6286 84.408 41.8716 84.7865 42.0452C85.165 42.2535 85.4059 42.4271 85.75 42.7049C85.7844 42.0799 85.7156 41.3856 85.0962 41.0731Z" fill="#94002D"/>
<path d="M81.6208 35.1013C81.7584 35.6221 81.7928 36.3512 82.1369 36.7331C82.309 36.4901 82.1714 36.1429 82.309 35.9346C82.481 35.6915 82.894 35.8304 83.1692 35.761C83.066 35.5526 82.9628 35.136 82.7907 34.9971C82.4122 34.7888 82.5843 35.136 82.3434 35.2054C82.0337 35.2749 81.8272 34.6847 81.6208 35.1013Z" fill="#94002D"/>
<path d="M69.0611 75.9313C68.9923 76.0007 68.7514 76.209 68.8202 76.3479C68.8546 76.4521 69.2331 76.5562 69.3364 76.5215C69.4052 76.4868 69.5084 76.1049 69.6117 76.0007C69.7149 75.8619 69.8869 75.7577 70.0246 75.6535C70.1278 75.5841 70.7472 74.8203 70.1622 74.8897C69.6805 74.9244 69.302 75.6535 69.0611 75.9313Z" fill="#94002D"/>
<path d="M80.2444 29.2338C80.2444 29.2685 80.21 29.581 80.3132 29.6157C80.967 29.8934 81.3111 30.4837 81.6896 31.0739C81.4143 30.2753 81.2079 29.2338 80.2444 29.2338Z" fill="#94002D"/>
<path d="M28.8013 4.16625C28.9045 3.92322 29.1798 2.98579 28.6636 3.08995C28.3883 3.15939 27.941 3.92322 27.769 4.13154C28.0098 4.20097 28.6636 4.44401 28.8013 4.16625Z" fill="#94002D"/>
<path d="M81.1391 26.1436C81.0358 25.5881 80.6917 25.7964 80.4164 26.1089C80.5541 26.1436 81.2767 26.6644 81.1391 26.1436Z" fill="#94002D"/>
<path d="M66.2395 78.7783C66.7556 78.5352 66.7556 78.57 66.8589 77.9797C66.3427 78.0839 66.4115 78.2922 66.2395 78.7783Z" fill="#94002D"/>
<path d="M75.9087 67.7376C76.012 67.9807 76.0808 68.2931 76.3905 68.0154C76.2184 67.7376 76.2184 67.6335 75.9087 67.7376Z" fill="#94002D"/>
<path d="M82.9284 41.5244C82.9972 41.3855 82.9972 41.2466 82.894 41.1425C82.8595 41.1772 82.8251 41.2466 82.8251 41.3161C82.8595 41.3855 82.894 41.4549 82.9284 41.5244Z" fill="#94002D"/>
<path d="M56.6047 1.52764C56.6735 1.52764 56.7423 1.49292 56.7767 1.49292C56.6735 1.2846 56.5702 1.24988 56.6047 1.52764Z" fill="#94002D"/>
<path d="M74.257 70.3068C74.5667 70.3415 74.5323 70.2373 74.2914 70.1332C74.2914 70.2026 74.2914 70.2373 74.257 70.3068Z" fill="#94002D"/>
<path d="M64.3813 79.9588C64.4157 79.9588 64.4501 79.9935 64.4845 79.9935C64.519 79.8199 64.5534 79.8893 64.4501 79.7852C64.4501 79.8546 64.4157 79.8893 64.3813 79.9588Z" fill="#94002D"/>
<path d="M46.316 83.0488C46.2128 83.1877 46.1095 83.3266 46.0063 83.4655C46.4536 83.2919 46.4536 83.1183 46.5913 82.6669C46.5569 82.6669 46.5225 82.6322 46.5225 82.6322C46.4536 82.8058 46.3848 82.91 46.316 83.0488Z" fill="#94002D"/>
<path d="M51.856 81.3475C51.856 81.4517 51.9249 81.4517 51.9937 81.417C51.9593 81.3822 51.9593 81.3128 51.9249 81.2781C51.8905 81.2781 51.8905 81.3128 51.856 81.3475Z" fill="#94002D"/>
<path d="M49.2409 82.1114C49.2753 82.1809 49.3097 82.2156 49.3785 82.1809C49.3097 82.0073 49.3097 82.1114 49.2409 82.1114Z" fill="#94002D"/>
<path d="M75.9775 61.9741C76.3216 61.9046 76.5625 60.8978 76.0463 60.8283C75.3926 60.7242 75.3237 62.113 75.9775 61.9741Z" fill="#94002D"/>
<path d="M73.9473 64.9599C74.257 65.2377 74.7732 63.8142 74.4979 63.5712C74.1538 63.2934 73.672 64.7169 73.9473 64.9599Z" fill="#94002D"/>
<path d="M69.6805 70.3415C69.7149 70.0291 69.7493 69.7513 69.8181 69.4388C69.5084 69.543 69.5084 69.8902 69.4052 70.168C69.5084 70.2027 69.6117 70.2721 69.6805 70.3415Z" fill="#94002D"/>
<path d="M71.4698 67.7375C71.2978 67.9805 71.7107 68.1889 71.8827 68.0153C72.0548 67.8417 71.6419 67.4945 71.4698 67.7375Z" fill="#94002D"/>
<path d="M67.2718 72.2511C67.2718 72.4941 67.375 72.5288 67.5814 72.7024C67.5814 72.5636 67.5815 72.4594 67.547 72.3205C67.4782 72.2858 67.375 72.2511 67.2718 72.2511Z" fill="#94002D"/>
<path d="M68.0288 71.522C67.96 71.5567 67.8223 71.5567 67.7535 71.5914C67.8223 71.9039 68.0632 71.7997 68.0288 71.522Z" fill="#94002D"/>
<path d="M74.9108 63.0158C75.2205 63.0158 75.1517 62.9116 74.9108 62.8422C74.9108 62.9116 74.9108 62.9463 74.9108 63.0158Z" fill="#94002D"/>
<path d="M42.29 3.4372C42.0492 3.15944 41.5674 3.19416 41.2233 3.33304C40.9136 3.47192 40.8792 3.54136 40.9136 3.78439C40.9481 3.88855 41.0857 4.13159 41.1889 4.16631C41.6707 4.33991 43.0471 4.27047 42.29 3.4372Z" fill="#94002D"/>
<path d="M80.382 16.4571C81.9993 14.3739 83.8919 12.6032 86.1285 11.1103C88.3652 9.61738 91.0492 8.47164 94.0772 8.08972L94.2837 8.05501C96.073 7.81197 97.7247 9.13131 97.9656 10.9367C98.2065 12.7421 96.8989 14.4087 95.1095 14.6517C94.6966 14.6864 94.3181 14.6864 93.9396 14.5823C92.0815 14.1309 89.9136 14.1656 87.7458 14.7211C85.5779 15.2419 83.3413 16.2141 81.3455 17.464L81.3111 17.4987C80.967 17.707 80.5541 17.6028 80.3476 17.2904C80.1756 17.0126 80.21 16.7001 80.382 16.4571Z" fill="#94002D"/>
<path d="M81.3455 20.3803C83.2725 19.5123 85.3027 18.9568 87.5049 18.7485C89.6728 18.5402 92.0126 18.7485 94.3181 19.5817L94.4902 19.6512C95.8666 20.1373 96.5892 21.6649 96.1074 23.0537C95.6257 24.4425 94.1117 25.1716 92.7353 24.6855C92.4256 24.5813 92.1503 24.4077 91.9094 24.1994C89.4663 22.1163 85.5091 21.1441 81.6896 21.4913H81.6552C81.3455 21.526 81.0702 21.283 81.0358 20.9705C81.0014 20.6928 81.139 20.4844 81.3455 20.3803Z" fill="#94002D"/>
<path d="M78.0421 13.8531C79.9347 10.52 80.7605 6.49258 79.9003 3.36783C79.5218 1.94433 80.3476 0.486118 81.7584 0.104204C83.1692 -0.277709 84.6145 0.555557 84.993 1.97905C85.0962 2.29153 85.0962 2.63872 85.0618 2.9512L85.0274 3.12479C84.7865 5.55515 83.9951 7.81192 82.894 9.68676C81.7928 11.5963 80.4508 13.2281 78.8336 14.6169C78.5927 14.8252 78.2486 14.7905 78.0421 14.5475C77.8701 14.3739 77.8701 14.0961 77.9733 13.8878L78.0421 13.8531Z" fill="#94002D"/>
</g>
<defs>
<clipPath id="clip0_32_2125">
<rect width="98" height="86" fill="white"/>
</clipPath>
</defs>
</svg>
