<svg width="125" height="125" viewBox="0 0 125 125" fill="none" xmlns="http://www.w3.org/2000/svg">
<g clip-path="url(#clip0_77_65)">
<path d="M125 37.1094C125 37.9883 125 38.8998 125 39.7787C124.219 41.1459 123.633 42.6433 122.656 43.8151C121.842 44.7592 120.573 45.2474 119.434 45.9636C119.434 67.3177 119.434 88.7696 119.434 110.254C122.493 111.133 124.154 113.281 125.033 116.178C125.033 117.057 125.033 117.969 125.033 118.848C124.512 119.889 124.121 120.996 123.503 121.973C122.461 123.633 120.703 124.316 118.945 124.967C81.3476 124.967 43.75 124.967 6.15233 124.967C5.43619 124.675 4.72004 124.447 4.069 124.089C1.92056 122.982 0.78124 121.094 0.065094 118.88C0.065094 118.001 0.065094 117.09 0.065094 116.211C0.390615 115.365 0.716136 114.518 1.07421 113.672C0.748688 113.314 0.390615 112.923 0.065094 112.565C0.065094 112.175 0.065094 111.751 0.065094 111.361C0.618479 110.352 1.49739 110.091 2.60416 110.091C20.2474 110.124 37.9232 110.124 55.5664 110.124C56.0872 110.124 56.5755 110.124 57.0963 110.124C57.0963 103.711 57.0963 97.461 57.0963 91.1133C56.5755 91.1133 56.1198 91.1133 55.6966 91.1133C48.4049 91.1133 41.1458 91.1459 33.8542 91.1133C27.3437 91.0808 22.7864 86.556 22.7864 80.0782C22.7864 75.3907 22.7864 70.7357 22.7864 66.0482C22.7864 65.625 22.7864 65.1693 22.7864 64.6159C22.168 64.6159 21.6797 64.6159 21.1914 64.6159C15.1042 64.6159 8.98436 64.5834 2.89713 64.6485C1.79035 64.6485 0.846344 64.4532 0.0976461 63.5743C0.0976461 63.086 0.0976461 62.5977 0.0976461 62.1094C0.78124 61.1329 1.72525 60.9375 2.86457 60.9701C5.66405 61.0026 8.43098 60.9701 11.263 60.9701C11.263 45.6055 11.263 30.3711 11.263 15.0717C10.8398 15.0391 10.4818 15.0391 10.1237 15.0066C7.06379 14.9089 4.45963 13.0534 3.35285 10.2539C2.27864 7.45447 2.89713 4.19926 5.20832 2.21358C6.31509 1.26957 7.77994 0.781291 9.11457 0.0976969C13.9974 4.06876e-05 18.9453 4.06951e-05 23.9258 4.06951e-05C24.2838 0.520874 24.8372 0.976603 25 1.52999C25.3255 2.70186 24.3489 3.64587 22.8841 3.64587C18.75 3.64587 14.5833 3.64587 10.4492 3.64587C7.71483 3.67843 5.89192 6.08728 6.67317 8.62634C7.194 10.3191 8.65884 11.2305 10.8724 11.2305C38.9974 11.2305 67.0898 11.2305 95.2148 11.2305C95.5729 11.2305 95.9635 11.2305 96.3216 11.198C98.112 11.0352 99.5768 9.50525 99.6745 7.71489C99.8372 5.24093 98.112 3.61332 95.345 3.61332C73.9909 3.61332 52.6367 3.61332 31.2825 3.61332C30.2409 3.61332 29.2969 3.45056 28.9062 2.34379C28.5482 1.23702 29.1667 0.488322 30.0781 -0.0650635C52.4088 4.06951e-05 74.7721 4.06951e-05 97.1679 4.06951e-05C97.4284 0.0976969 97.6888 0.195353 97.9492 0.293009C101.302 1.33468 103.418 4.29692 103.288 7.84509C103.19 11.1654 100.781 13.9974 97.4284 14.7461C96.6471 14.9089 95.8333 14.9089 94.987 15.0066C94.987 20.3451 94.987 25.6185 94.987 30.9245C99.8047 30.9245 104.557 30.9245 109.31 30.9245C109.31 27.767 109.31 24.7071 109.31 21.5821C108.887 21.5495 108.529 21.517 108.171 21.517C106.575 21.517 105.013 21.5495 103.418 21.517C102.311 21.4844 101.595 20.8334 101.53 19.8568C101.465 18.8151 102.148 18.0339 103.288 17.9037C103.776 17.8386 104.264 17.8711 104.753 17.8711C106.283 17.8711 107.812 17.8711 109.408 17.8711C109.375 17.2526 109.342 16.8295 109.342 16.3412C108.789 16.3412 108.333 16.3412 107.91 16.3412C107.454 16.3412 106.999 16.3737 106.576 16.3412C105.371 16.2761 104.557 15.5274 104.557 14.4857C104.557 13.4441 105.371 12.7279 106.608 12.6954C107.52 12.6628 108.431 12.6954 109.44 12.6954C109.44 11.8164 109.408 11.1329 109.44 10.4493C109.538 9.34249 110.352 8.59379 111.361 8.62634C112.337 8.69145 113.021 9.40759 113.086 10.4818C113.118 11.198 113.086 11.9141 113.086 12.5326C113.314 12.5977 113.346 12.6302 113.411 12.6302C114.225 12.6302 115.039 12.6628 115.853 12.6628C117.187 12.6954 117.969 13.3789 117.969 14.4857C117.969 15.5925 117.187 16.2761 115.853 16.3086C114.974 16.3412 114.095 16.3086 113.216 16.3086C113.216 16.8946 113.216 17.3177 113.216 17.8386C115.202 17.8386 117.09 17.806 119.01 17.8386C120.605 17.8711 121.582 19.2709 120.801 20.4427C120.443 20.9636 119.564 21.3868 118.913 21.4193C117.025 21.5495 115.137 21.4519 113.216 21.4519C113.216 24.7071 113.216 27.767 113.216 30.9245C114.779 30.9245 116.276 30.8594 117.773 30.9245C120.801 31.0547 122.982 32.5196 124.349 35.2214C124.544 35.905 124.74 36.5235 125 37.1094ZM94.8893 78.2878C94.8893 81.0873 94.8893 83.7891 94.8893 86.4584C94.8893 86.9467 94.9219 87.4349 94.8242 87.9232C94.6289 88.9323 93.9453 89.4857 92.9036 89.3881C91.9271 89.323 91.3411 88.737 91.276 87.7605C91.2435 87.2722 91.2435 86.7839 91.2435 86.2956C91.2435 63.0534 91.2435 39.8438 91.2435 16.6016C91.2435 16.0808 91.2435 15.5599 91.2435 14.974C65.7226 14.974 40.3646 14.974 14.9739 14.974C14.9739 30.2735 14.9739 45.5079 14.9739 60.7748C16.0156 60.7748 16.9596 60.7748 18.0338 60.7748C18.0338 58.5612 18.0013 56.4128 18.0338 54.2644C18.0664 51.3347 20.1172 49.3164 23.0469 49.2839C26.9531 49.2513 30.8594 49.2513 34.7656 49.2839C37.7279 49.3164 39.7461 51.3347 39.7786 54.2644C39.8112 56.5756 39.7786 58.8868 39.7786 61.2305C39.7786 63.1185 40.0716 63.4115 42.1224 63.6394C42.1224 63.1836 42.1224 62.7605 42.1224 62.3047C42.1224 59.6355 42.0898 56.9336 42.1224 54.2644C42.1875 51.3021 44.2057 49.3164 47.168 49.3164C51.0417 49.2839 54.8828 49.2839 58.7565 49.3164C61.8489 49.3164 63.8997 51.3672 63.8997 54.4271C63.9323 60.2539 63.8997 66.0482 63.8997 71.875C63.8997 75 61.8489 77.0183 58.6914 77.0834C58.0078 77.0834 57.3568 77.0834 56.5104 77.0834C56.7057 77.5066 56.8034 77.767 56.9336 77.9948C59.5377 82.9102 60.7747 88.1511 60.7422 93.6849C60.7096 98.698 60.7422 103.678 60.7422 108.691C60.7422 109.115 60.7422 109.538 60.7422 109.961C70.9635 109.961 80.9896 109.961 91.1784 109.961C91.1784 109.473 91.1784 109.017 91.1784 108.594C91.1784 105.794 91.1784 102.995 91.1784 100.163C91.1784 98.405 91.1458 96.6797 91.2109 94.9219C91.2435 93.8152 91.9596 93.1316 92.9362 93.099C93.9127 93.0665 94.6614 93.7501 94.8242 94.7917C94.8893 95.1498 94.8568 95.5079 94.8568 95.8985C94.8568 100.13 94.8568 104.362 94.8568 108.594C94.8568 109.017 94.8568 109.473 94.8568 109.961C101.855 109.961 108.691 109.961 115.592 109.961C115.592 88.6068 115.592 67.2852 115.592 45.9961C108.659 45.9961 101.823 45.9961 94.9544 45.9961C94.9544 47.5261 94.9544 48.9584 94.9544 50.5209C97.9166 50.5209 100.814 50.5209 103.678 50.5209C107.161 50.5209 109.115 52.4414 109.115 55.9571C109.115 61.556 109.115 67.1875 109.115 72.7865C109.115 76.3347 107.161 78.2878 103.613 78.2878C100.814 78.2878 97.9492 78.2878 94.8893 78.2878ZM62.5 113.737C47.3958 113.737 32.3242 113.737 17.22 113.737C13.9648 113.737 10.7096 113.704 7.45442 113.737C5.43619 113.77 3.84114 115.267 3.67838 117.188C3.51561 119.043 4.78515 120.833 6.67317 121.224C7.22655 121.354 7.81249 121.322 8.36587 121.322C44.4661 121.322 80.5338 121.322 116.634 121.322C117.025 121.322 117.448 121.354 117.839 121.289C119.629 121.126 121.126 119.662 121.289 117.904C121.484 116.146 120.345 114.356 118.587 113.9C117.969 113.737 117.318 113.737 116.667 113.737C98.6002 113.737 80.5664 113.737 62.5 113.737ZM56.3802 87.3698C55.664 75.1303 38.0859 61.9141 26.3346 64.7136C26.3346 65.1042 26.3346 65.4948 26.3346 65.918C26.3346 70.5404 26.3346 75.1954 26.3346 79.8177C26.3346 84.4727 29.2318 87.3698 33.8542 87.3698C39.3555 87.3698 44.8242 87.3698 50.3255 87.3698C52.3112 87.3698 54.2969 87.3698 56.3802 87.3698ZM94.9544 42.155C95.1172 42.1875 95.2474 42.2526 95.345 42.2526C102.799 42.2526 110.221 42.2852 117.676 42.1875C118.555 42.1875 119.629 41.569 120.312 40.918C121.452 39.8763 121.647 38.4115 120.996 36.9792C120.345 35.4818 119.108 34.668 117.448 34.668C110.156 34.668 102.897 34.668 95.6055 34.668C95.3776 34.668 95.1497 34.7331 94.9544 34.7982C94.9544 37.2722 94.9544 39.7136 94.9544 42.155ZM45.8333 59.1472C45.8333 61.1654 45.7682 63.086 45.8659 64.974C45.8984 65.4623 46.2239 66.0808 46.6146 66.4388C48.2096 67.8711 50.2279 68.9779 51.4648 70.6706C53.3203 73.2097 55.6315 73.7631 58.4961 73.4375C59.8958 73.2748 60.2864 73.0144 60.2864 71.6146C60.2864 67.7409 60.2864 63.8998 60.2864 60.0261C60.2864 59.7657 60.2539 59.4727 60.2213 59.1797C55.4362 59.1472 50.7161 59.1472 45.8333 59.1472ZM105.501 60.3842C101.921 60.3842 98.47 60.3842 94.987 60.3842C94.987 65.1368 94.987 69.8243 94.987 74.6094C98.112 74.6094 101.139 74.642 104.199 74.6094C104.98 74.6094 105.501 74.1537 105.501 73.3073C105.501 69.043 105.501 64.7787 105.501 60.3842ZM60.2213 55.4037C60.4167 53.2878 60.1237 52.9623 58.2031 52.9623C54.7526 52.9623 51.3021 52.9623 47.819 52.9623C45.9961 52.9623 45.5729 53.5157 46.0286 55.4037C50.7161 55.4037 55.4036 55.4037 60.2213 55.4037ZM21.7773 55.3711C26.595 55.3711 31.3476 55.3711 36.0677 55.3711C36.263 53.2553 36.0026 52.9623 34.0495 52.9623C30.6315 52.9623 27.2135 52.9623 23.7956 52.9623C21.8424 52.9623 21.582 53.2553 21.7773 55.3711ZM36.1003 59.2123C31.2174 59.2123 26.4974 59.2123 21.8099 59.2123C21.8099 59.7982 21.8099 60.319 21.8099 60.6771C26.6276 60.9375 31.3476 61.198 36.1003 61.4258C36.1003 60.8399 36.1003 60.0586 36.1003 59.2123ZM94.9544 56.6081C98.5351 56.6081 101.953 56.6081 105.371 56.6081C105.664 54.5573 105.371 54.1993 103.45 54.1993C102.409 54.1993 101.335 54.1993 100.293 54.1993C98.5351 54.1993 96.7448 54.1993 94.9544 54.1993C94.9544 55.0782 94.9544 55.7943 94.9544 56.6081Z" fill="#F9F9F9"/>
<path d="M0 88.6068C0.585937 87.6302 1.43229 87.3372 2.53906 87.3698C5.27344 87.4349 7.97526 87.4023 10.7096 87.4023C13.3138 87.4023 14.8763 85.8398 14.9089 83.2357C14.9089 80.7617 14.9089 78.2878 14.9089 75.8138C14.9089 73.3073 13.3789 71.7773 10.9049 71.7448C8.13802 71.7122 5.37109 71.7122 2.63672 71.7448C1.52995 71.7773 0.651042 71.4844 0.0325521 70.5729C0.0325521 70.1823 0.0325521 69.7591 0.0325521 69.3685C0.553385 68.3919 1.33464 68.0664 2.44141 68.0664C5.24089 68.1315 8.04036 68.0664 10.8398 68.099C15.5273 68.1641 18.5872 71.2565 18.5872 75.944C18.5872 78.4505 18.6198 80.9896 18.5872 83.4961C18.5547 87.7604 15.3971 90.9831 11.1328 91.0482C8.17057 91.1133 5.20833 91.0482 2.24609 91.0807C1.23698 91.0807 0.585938 90.625 0.0325521 89.8437C0 89.4206 0 89.0299 0 88.6068Z" fill="#F9F9F9"/>
<path d="M54.3294 100.065C54.2643 101.009 54.2969 101.953 54.069 102.832C53.4831 105.176 51.2695 106.869 48.8607 106.836C46.3867 106.836 44.0755 105.111 43.6849 102.669C43.4245 100.944 43.3919 99.0886 43.6523 97.3634C44.0755 94.6941 46.582 92.9363 49.2513 93.1316C52.0182 93.3595 54.069 95.4428 54.2318 98.2097C54.2643 98.8282 54.2318 99.4141 54.2318 100.033C54.2969 100.065 54.3294 100.065 54.3294 100.065ZM50.5859 99.935C50.5859 99.4467 50.6185 98.9584 50.5859 98.4701C50.5208 97.3959 49.9023 96.81 48.8607 96.81C47.8841 96.81 47.2331 97.3959 47.168 98.3725C47.0703 99.4467 47.0703 100.553 47.168 101.66C47.2656 102.637 47.9492 103.19 48.9258 103.158C49.8698 103.125 50.4883 102.539 50.5534 101.53C50.6185 101.009 50.5859 100.456 50.5859 99.935Z" fill="#F9F9F9"/>
<path d="M66.2435 30.8919C66.2435 28.0924 66.2435 25.293 66.2435 22.4935C66.276 19.0104 68.1966 17.0898 71.7122 17.0898C75.4232 17.0898 79.1015 17.0898 82.8125 17.0898C86.0351 17.0898 88.0534 19.1081 88.0859 22.3307C88.1185 28.0599 88.0859 33.7891 88.0859 39.5182C88.0859 42.7409 86.1002 44.7917 82.845 44.8242C79.069 44.8568 75.2929 44.8568 71.5169 44.8242C68.2617 44.7917 66.3086 42.8385 66.2435 39.5508C66.2435 36.6536 66.2435 33.7565 66.2435 30.8919ZM84.4401 26.9206C79.5573 26.9206 74.8372 26.9206 70.1172 26.9206C70.0521 27.0182 69.987 27.0833 69.987 27.1484C69.9544 31.3802 69.9544 35.5794 69.9544 39.8112C69.9544 40.625 70.4427 41.1133 71.2565 41.1133C75.1953 41.1458 79.1341 41.1458 83.0729 41.1133C83.9518 41.1133 84.4401 40.5924 84.4401 39.7135C84.4401 35.5143 84.4401 31.2826 84.4401 26.9206ZM84.375 23.1445C84.5052 20.9961 84.2448 20.7357 82.2591 20.7357C78.8086 20.7357 75.3581 20.7357 71.9075 20.7357C70.0846 20.7357 69.6289 21.3216 70.1172 23.1445C74.8372 23.1445 79.5898 23.1445 84.375 23.1445Z" fill="#F9F9F9"/>
<path d="M66.2435 63.2161C66.2435 60.3841 66.2109 57.5195 66.2435 54.6875C66.276 51.2695 68.2292 49.3164 71.6471 49.3164C75.3581 49.3164 79.0364 49.3164 82.7474 49.3164C86.0677 49.3164 88.0859 51.3346 88.0859 54.6224C88.0859 60.3516 88.1185 66.0807 88.0859 71.8099C88.0859 75.0326 86.0351 77.0508 82.8125 77.0833C79.069 77.1159 75.3255 77.0833 71.582 77.0833C68.2943 77.0833 66.276 75.0651 66.2435 71.7448C66.2435 68.9128 66.2435 66.0482 66.2435 63.2161ZM70.0521 59.1797C70.0195 59.375 69.9219 59.5052 69.9219 59.668C69.9219 63.7695 69.8893 67.8711 69.9219 71.9727C69.9219 73.1445 70.7031 73.4375 71.7448 73.4375C75.3581 73.405 78.9713 73.4375 82.5846 73.4375C84.0495 73.4375 84.4401 73.0469 84.4401 71.5169C84.4401 69.1081 84.4401 66.7318 84.4401 64.3229C84.4401 62.6302 84.4401 60.9375 84.4401 59.1797C79.5573 59.1797 74.8372 59.1797 70.0521 59.1797ZM84.3424 55.3711C84.5703 53.3529 84.2448 52.9622 82.3242 52.9622C78.8737 52.9622 75.4232 52.9622 71.9726 52.9622C70.0846 52.9622 69.7265 53.4505 70.0521 55.3711C74.8047 55.3711 79.5247 55.3711 84.3424 55.3711Z" fill="#F9F9F9"/>
<path d="M42.155 30.8269C42.155 27.9949 42.1224 25.1303 42.155 22.2983C42.1875 19.0105 44.1406 17.0899 47.3958 17.0574C51.1719 17.0574 54.9479 17.0574 58.724 17.0574C61.8815 17.0574 63.9323 19.0756 63.9323 22.2332C63.9323 28.06 63.9323 33.8542 63.9323 39.6811C63.9323 42.7084 61.9466 44.7592 58.9193 44.7917C55.013 44.8569 51.1068 44.8569 47.2005 44.7917C44.0755 44.7592 42.155 42.741 42.1224 39.616C42.155 36.6863 42.155 33.7566 42.155 30.8269ZM45.8333 26.8881C45.8333 31.3152 45.8333 35.6121 45.8333 39.9089C45.8333 40.9181 46.582 41.1459 47.461 41.1459C51.2044 41.1459 54.9154 41.1459 58.6589 41.1459C59.9284 41.1459 60.2865 40.7227 60.2865 39.4207C60.2865 35.5144 60.2865 31.6407 60.2865 27.7345C60.2865 27.474 60.2214 27.2136 60.1888 26.9207C55.4037 26.8881 50.7162 26.8881 45.8333 26.8881ZM60.2539 23.1446C60.3516 20.9636 60.1237 20.7032 58.1706 20.7032C54.7526 20.7032 51.3672 20.7032 47.9492 20.7032C45.9636 20.7032 45.6055 21.1264 45.9961 23.1446C50.7162 23.1446 55.4362 23.1446 60.2539 23.1446Z" fill="#F9F9F9"/>
<path d="M39.8112 30.9896C39.8112 33.8867 39.8112 36.7513 39.8112 39.6485C39.7786 42.7084 37.8581 44.7266 34.8307 44.7917C30.8919 44.8568 26.9531 44.8568 23.0143 44.7917C19.987 44.7266 18.0664 42.7084 18.0664 39.6159C18.0664 33.7891 18.0339 27.9948 18.0664 22.168C18.0664 19.0755 20.0846 17.0573 23.1771 17.0573C26.9857 17.0248 30.8268 17.0573 34.6354 17.0573C37.8255 17.0573 39.8112 19.043 39.8438 22.2005C39.8438 25.1302 39.8112 28.0599 39.8112 30.9896ZM21.7122 26.9206C21.7122 31.1524 21.7122 35.2865 21.7122 39.388C21.7122 40.8203 22.0378 41.1459 23.5352 41.1459C27.1159 41.1459 30.6966 41.1459 34.2773 41.1459C35.8398 41.1459 36.1654 40.8203 36.1654 39.2904C36.1654 35.5143 36.1654 31.7383 36.1654 27.9297C36.1654 27.5716 36.1003 27.2461 36.1003 26.888C31.25 26.9206 26.5299 26.9206 21.7122 26.9206ZM21.8099 23.112C26.5625 23.112 31.3151 23.112 36.0677 23.112C36.263 20.9961 36.0352 20.7031 34.082 20.7031C30.6315 20.7031 27.181 20.7031 23.7305 20.7031C21.8099 20.7357 21.5495 21.0287 21.8099 23.112Z" fill="#F9F9F9"/>
</g>
<defs>
<clipPath id="clip0_77_65">
<rect width="125" height="125" fill="white"/>
</clipPath>
</defs>
</svg>
