<svg width="118" height="118" viewBox="0 0 118 118" fill="none" xmlns="http://www.w3.org/2000/svg">
<path d="M8.8476 35.0953C0.917576 32.5065 -1.34346 24.9042 0.819271 19.3663C2.13002 16.0239 4.48936 13.6973 7.8973 12.4849C11.2397 11.2724 14.4838 11.6657 17.6951 13.3041C17.8262 10.2566 18.6454 7.56957 20.4477 5.21023C23.0364 1.93336 26.4116 0.131082 30.606 0.0655444C32.736 0.0327757 34.997 0.0655444 37.0287 0.688149C42.3372 2.32658 45.3847 6.09498 46.2039 11.5673C46.9576 16.712 49.9395 19.7267 55.117 20.2838C58.2628 20.6115 61.4413 20.8737 64.7837 21.1686C64.8165 20.9064 64.9148 20.4149 64.9148 19.9234C64.9476 16.9414 64.9148 13.9595 64.9476 10.9447C64.9476 8.25771 66.2255 6.29159 68.4538 5.40684C70.7149 4.52208 72.9104 5.11192 74.7782 7.07804C77.1047 9.53569 78.7104 12.3866 79.7918 15.7945C84.8382 10.5515 90.5399 6.4882 97.1919 3.7684C103.811 1.0486 110.725 -0.163836 118.033 0.0655444C118.295 15.0736 113.052 27.7223 102.304 38.241C102.73 38.4049 103.058 38.5032 103.352 38.6343C106.334 39.7156 108.956 41.3213 111.217 43.5496C112.986 45.2863 113.511 47.6129 112.593 49.7429C111.61 52.0039 109.808 53.118 107.383 53.1508C104.532 53.1836 101.648 53.1508 98.7976 53.1508C93.8823 53.1508 89.6879 54.8875 86.1817 58.3282C82.1511 62.2933 78.1206 66.291 74.09 70.256C78.0878 68.8142 82.2167 67.3069 86.3127 65.8323C88.7376 64.9475 91.1297 64.0628 93.5874 63.2435C94.1117 63.0797 94.7998 63.0469 95.3241 63.2435C102.599 65.8323 109.841 68.4865 117.115 71.1408C117.672 71.3374 118.098 71.5013 118.066 72.2877C117.935 77.0719 118.295 81.9217 117.738 86.6404C116.001 101.19 108.268 111.61 95.0948 117.967C94.7343 118.131 94.1117 118.098 93.7512 117.902C80.4799 111.446 72.8776 100.928 71.1081 86.2799C70.8787 84.5104 70.9115 82.6754 70.8787 80.8731C70.8459 78.0878 70.8787 75.3024 70.8787 72.5498C67.6674 74.0572 64.4888 75.499 61.3102 77.0064C61.4741 77.1375 61.769 77.3341 62.0312 77.5307C66.4549 80.7093 68.8143 85.0019 68.8798 90.4415C68.9126 93.9478 69.0764 97.5196 68.6177 100.993C67.3725 110.398 56.7226 116.656 48.2355 113.183C47.2853 112.79 46.4005 112.265 45.5813 111.676C41.4852 108.759 37.7168 108.989 34.0467 112.397C26.7393 119.245 15.6962 119.999 7.93007 114.035C2.81816 110.103 0.163897 104.893 0.065591 98.5026C5.36516e-05 94.9309 0.065591 91.3918 0.294972 87.8201C0.491584 84.6415 1.76956 81.7906 3.60461 79.2019C3.96506 78.6776 4.16168 78.3171 3.70291 77.7273C-1.47454 71.0753 -0.851932 62.0639 3.70291 55.8706C6.71763 51.7745 8.22499 47.449 7.96284 42.4027C7.799 39.945 7.66792 37.4218 8.8476 35.0953ZM76.646 37.3891C76.646 31.5562 76.8098 25.8217 76.5804 20.12C76.4166 16.1222 74.6471 12.6159 71.829 9.76507C71.403 9.33908 70.551 9.04416 69.9284 9.1097C69.0436 9.208 68.847 10.0928 68.847 10.912C68.847 13.5662 68.847 16.2205 68.847 18.9075C68.8798 25.1991 66.6515 30.5732 62.195 34.997C59.3114 37.8478 56.3949 40.6659 53.6096 43.6151C46.8593 50.7259 43.4513 59.2458 43.2875 69.0436C43.2219 72.4515 45.5485 74.7453 48.9892 74.7126C57.8695 74.5815 65.8323 71.7962 72.5499 65.9633C76.2855 62.7192 79.6607 59.0819 83.1997 55.6084C86.7715 52.1022 90.9659 49.8084 95.9467 49.3824C99.5513 49.0875 103.221 49.2186 106.859 49.153C107.711 49.153 108.53 49.0875 108.89 48.1372C109.284 47.2197 108.759 46.5971 108.104 46.0072C104.794 42.9925 100.895 41.3541 96.4383 41.2885C90.4744 41.223 84.4777 41.2885 78.5138 41.2558C64.9148 41.1902 54.0356 52.2988 51.8729 62.7192C51.4469 64.6854 51.2503 66.717 50.9553 68.7159C49.7429 68.7159 48.5305 68.7159 47.2197 68.7159C47.2853 62.3916 48.9892 56.5915 52.6265 51.5124C58.5249 43.2874 66.3566 38.2083 76.646 37.3891ZM114.068 80.4471C114.068 78.2188 114.035 76.6459 114.068 75.1058C114.101 74.3849 113.904 74.0244 113.183 73.7623C107.186 71.6323 101.19 69.4041 95.1931 67.2741C94.6688 67.0775 93.9806 67.143 93.4563 67.3069C87.5252 69.4041 81.6268 71.5996 75.6957 73.6967C74.9748 73.9589 74.6799 74.2866 74.7126 75.073C74.7782 77.6618 74.6471 80.2177 74.7454 82.8064C75.3025 96.4382 81.5613 106.597 93.4235 113.281C94.1117 113.675 94.636 113.642 95.3241 113.281C101.026 110.234 105.548 105.974 108.923 100.469C112.855 94.1444 114.396 87.1974 114.068 80.4471ZM37.3563 86.5093C37.5202 90.5726 38.6671 94.1444 41.1903 97.1591C41.5507 97.5851 42.1733 98.0439 42.6649 98.0111C45.0897 97.9456 47.5802 97.9783 49.9395 97.4868C54.4944 96.5037 57.1486 91.3591 55.1825 87.0991C53.8718 84.281 52.0039 81.6923 50.2672 78.8742C49.2841 79.464 48.3994 79.89 47.6129 80.4471C42.2061 84.3138 36.2094 83.9206 31.3924 79.3985C27.3947 75.6629 22.7087 74.1555 17.3019 74.9092C10.1583 75.925 4.65321 81.7906 3.99783 89.098C3.34246 96.045 7.66792 102.828 14.2872 105.187C14.877 105.384 15.4996 105.548 16.1222 105.745C12.1572 101.386 9.92896 96.4382 9.86343 90.5398C11.2725 90.5398 12.5177 90.5398 13.7629 90.5398C13.8612 94.341 14.877 97.749 17.2364 100.665C18.6782 102.435 20.3494 104.008 21.9551 105.646C22.1189 105.81 22.4794 105.974 22.7087 105.908C24.6749 105.581 26.5427 104.958 28.3122 103.811C24.0195 99.5512 21.7585 94.5376 21.6929 88.5737C23.102 88.5737 24.3472 88.5737 25.5924 88.5737C25.789 93.7184 27.6896 97.9783 31.3269 101.19C33.293 100.043 35.0625 99.0269 36.832 98.0111C34.2106 92.8337 33.2275 89.4257 33.6207 86.5748C33.8173 86.5748 34.0139 86.5421 34.2106 86.5421C35.1936 86.5093 36.2094 86.5093 37.3563 86.5093ZM15.6307 33.9156C13.2714 34.8659 11.9279 36.7992 11.8295 39.1258C11.7968 40.6659 11.764 42.2388 11.8295 43.779C11.9606 48.8581 10.486 53.3802 7.37301 57.378C5.47242 59.8028 4.39106 62.5226 4.06337 65.5701C3.67015 69.2074 4.5549 72.5171 6.84871 75.4663C14.1561 69.8628 21.8568 69.3713 30.0162 73.3363C31.032 71.4685 31.4907 69.5024 31.5235 67.4379C31.5563 63.4402 30.1472 59.9339 27.6896 56.7881C25.5269 54.0028 24.1833 50.857 23.8884 47.3507C23.659 44.6637 23.7246 41.9439 23.659 39.2569C23.5935 36.6026 21.8895 34.3743 19.5957 33.85C19.5957 36.3077 19.5957 38.7653 19.5957 41.223C18.3177 41.223 17.1053 41.223 15.6635 41.223C15.6307 38.7981 15.6307 36.4388 15.6307 33.9156ZM11.0431 20.0872C13.9923 22.2827 16.155 24.9697 17.5968 28.1811C18.0228 29.1314 18.5144 29.5246 19.4974 29.6884C23.6263 30.4421 26.7065 33.4568 27.3291 37.6184C27.6568 39.8139 27.5585 42.1077 27.5257 44.3688C27.5257 48.17 28.6399 51.6107 30.9009 54.6582C31.7529 55.8051 32.4083 57.083 33.2603 58.2299C33.5224 58.5904 34.0467 58.9181 34.4727 58.9508C36.6354 59.0164 38.6999 58.4266 40.5677 57.378C41.649 56.7881 41.6818 56.2638 40.8298 55.4118C37.553 52.135 34.2761 48.8581 30.9992 45.5812C30.7043 45.2863 30.4094 44.9586 30.2128 44.7292C31.1303 43.7134 31.9823 42.8287 32.867 41.8784C35.1281 44.1722 37.3563 46.3677 39.814 48.8581C39.4208 47.5146 38.962 46.4988 38.8309 45.4829C38.4705 42.6321 38.2083 39.7812 37.9134 36.9631C37.3891 32.2771 34.145 29.0986 29.4591 28.476C24.1178 27.7878 20.4805 24.8387 18.4488 19.8578C18.1539 19.1369 17.6951 18.3832 17.1381 17.8589C14.746 15.6634 11.8951 15.0736 8.8476 16.3516C5.86565 17.5968 4.16168 19.9234 3.99783 23.1675C3.83399 26.4443 5.27581 28.9347 8.15945 30.5404C10.2239 31.6873 12.2228 31.8184 14.1234 29.9506C13.7629 29.2952 13.468 28.5743 13.0092 27.9517C11.6985 26.2805 10.3222 24.7076 8.88037 22.9708C9.4702 22.1516 10.2239 21.1686 11.0431 20.0872ZM43.2547 22.7087C43.2875 22.2172 43.2875 22.0206 43.2875 21.8239C43.4841 18.5471 42.9598 15.3357 42.37 12.1244C41.6163 8.0611 38.8965 4.84977 34.8004 4.12886C33.4896 3.89948 32.1134 3.93225 30.7698 3.93225C28.1811 3.96502 26.0512 5.01361 24.2161 6.81589C20.972 9.92892 21.2342 16.3188 22.4794 19.0386C22.6104 19.3335 23.233 19.5957 23.6263 19.6284C26.5427 19.6612 29.4263 19.6612 32.3427 19.6612C32.9981 19.6612 33.6863 19.6612 34.3416 19.6612C34.4072 19.5301 34.4727 19.3991 34.5382 19.268C33.0964 17.8917 31.6546 16.5154 30.4094 15.3357C31.2941 14.3527 32.1134 13.4352 33.0309 12.4193C36.3733 15.8273 39.7157 19.1697 43.2547 22.7087ZM4.98089 103.483C6.55379 109.218 12.7471 113.773 18.9731 114.002C23.8556 114.199 28.0173 112.56 31.5563 109.218C36.1767 104.827 42.37 104.434 47.4491 108.202C49.9067 110.037 52.561 110.398 55.4774 109.841C59.7046 109.021 63.5713 105.417 64.325 101.55C63.7024 102.074 63.1125 102.566 62.5227 103.025C57.4108 106.891 50.3983 107.219 45.6468 103.844C41.2886 100.764 37.7823 100.993 33.8501 104.598C29.0986 108.923 23.4952 110.693 17.1053 109.906C12.3538 109.284 8.4216 107.121 4.98089 103.483ZM63.8662 25.1008C61.5069 24.8387 59.3114 24.4782 57.0831 24.3799C53.6424 24.2488 50.3327 23.6918 47.4819 21.5618C47.4491 21.529 47.3508 21.5946 47.2197 21.6601C47.2197 23.1347 47.1542 24.6093 47.2525 26.0511C47.2853 26.5099 47.5802 27.0342 47.9079 27.3946C50.2672 29.7867 52.6265 32.1461 55.0187 34.5382C55.3463 34.8659 55.7068 35.1936 56.0345 35.5212C60.3927 31.7201 62.8831 28.476 63.8662 25.1008ZM55.0187 79.0708C56.0673 80.7093 57.1486 82.3477 58.1317 84.0189C61.9001 90.5071 58.7871 98.7648 51.6763 101.157C51.1847 101.321 50.6604 101.452 50.1361 101.616C54.265 102.828 57.9351 101.976 61.0153 99.1252C64.7182 95.6845 65.8323 91.3918 64.1939 86.6076C62.7521 82.2821 59.6063 79.7917 55.0187 79.0708ZM27.1653 23.5935C27.1325 23.6918 27.1325 23.8228 27.0997 23.9211C28.0828 24.1505 29.0331 24.4454 30.0162 24.5765C35.8162 25.363 40.0106 28.9347 41.518 34.5382C41.7146 35.2591 42.0095 35.4229 42.6976 35.3902C44.8931 35.3574 47.1214 35.3902 49.3169 35.3574C49.5791 35.3574 49.8084 35.2919 50.2344 35.2263C46.8265 31.8184 43.4841 28.6398 40.3055 25.2647C39.0603 23.9539 37.8151 23.4296 36.0456 23.5279C33.0964 23.6918 30.1145 23.5935 27.1653 23.5935ZM113.937 4.06332C111.184 3.89948 110.856 4.03055 109.087 5.76729C106.629 8.22494 104.172 10.6826 101.714 13.1402C101.419 13.4352 101.157 13.7301 100.895 14.025C101.911 15.1064 102.861 16.1222 103.844 17.1708C104.303 16.7448 104.598 16.4827 104.893 16.1877C107.285 13.8284 109.546 11.338 112.069 9.1097C113.642 7.73341 114.068 6.09498 113.937 4.06332ZM80.8404 37.4874C81.889 37.3563 83.3308 37.5857 84.0189 36.9631C86.706 34.6037 89.1636 31.9495 91.5885 29.5246C90.5727 28.4104 89.5896 27.3946 88.5738 26.3133C86.5421 28.3449 84.6088 30.4749 82.4788 32.3755C80.9387 33.719 80.185 35.1608 80.8404 37.4874ZM51.8401 39.388C48.6943 39.388 45.4174 39.388 42.1406 39.388C42.0423 42.927 43.0253 47.4163 44.5327 48.7926C46.9248 45.6795 49.3824 42.5337 51.8401 39.388ZM93.5874 9.66677C91.4247 11.2069 89.3602 12.6487 87.3613 14.1561C87.132 14.3527 86.9681 14.9753 87.0992 15.2702C87.689 16.8759 88.3444 18.4488 88.967 19.9889C91.228 17.7279 93.358 15.5651 95.5535 13.3696C94.9637 12.3538 94.3411 11.1741 93.5874 9.66677ZM97.9128 29.0331C99.5513 29.6884 101.124 30.3438 102.73 30.9336C103.025 31.0319 103.582 30.9336 103.746 30.7043C105.286 28.6398 106.76 26.5426 108.268 24.4127C106.826 23.659 105.581 23.0036 104.467 22.4138C102.337 24.6093 100.207 26.7392 97.9128 29.0331ZM33.4241 76.0889C34.8332 74.6143 35.9473 73.238 37.258 72.1239C38.7982 70.7803 39.6829 69.3385 39.4535 67.1758C39.3225 66.0289 39.6502 64.8164 39.7812 63.6368C39.8468 63.1452 39.8795 62.6209 39.9451 62.1294C38.1756 62.4571 36.6027 62.752 35.2591 62.9814C35.2591 65.2752 35.4885 67.5035 35.1936 69.6334C34.8659 71.7634 34.0467 73.8278 33.4241 76.0889ZM91.4902 23.5279C92.4733 24.5437 93.4563 25.5596 94.3083 26.4443C96.6021 24.1505 98.7648 21.9878 100.731 20.0217C99.8134 19.1041 98.8304 18.0883 97.8801 17.1053C95.8812 19.1369 93.7185 21.2669 91.4902 23.5279ZM83.5602 17.6951C80.7093 19.9561 80.6438 20.0544 80.6438 23.4624C80.6438 24.0194 80.6438 24.6093 80.6438 25.1663C80.6438 26.2477 80.6438 27.2963 80.6438 28.2466C82.4788 26.4116 84.3139 24.6093 86.0834 22.8398C85.2969 21.2013 84.4449 19.4974 83.5602 17.6951ZM89.4913 37.3563C91.5557 37.3563 93.4891 37.1597 95.3569 37.4218C97.9456 37.7823 98.8632 35.8162 100.338 34.4726C98.4372 33.5551 96.7004 32.7031 94.9964 31.8512C93.2269 33.6534 91.4247 35.4229 89.4913 37.3563ZM40.5677 74.4177C38.6999 75.8267 37.4547 77.3341 37.1925 78.481C39.4208 79.5623 42.37 79.2674 44.3361 77.8256C43.1236 76.7115 41.8457 75.5646 40.5677 74.4177ZM103.254 5.66899C101.124 6.45544 99.1908 7.20912 97.1592 7.96279C97.6835 8.97862 98.1095 9.79784 98.4371 10.486C100.043 8.91309 101.55 7.37296 103.254 5.66899ZM110.07 20.8409C110.824 18.7437 111.545 16.8431 112.233 14.9753C110.693 16.5154 109.153 18.0555 107.612 19.5957C108.235 19.9234 109.021 20.3166 110.07 20.8409Z" fill="white"/>
<path d="M90.4416 95.75C96.0778 90.1138 101.452 84.707 106.826 79.3002C107.678 80.1849 108.53 81.0369 109.284 81.7906C102.959 88.1149 96.6676 94.4065 90.4088 100.665C88.1805 98.4371 85.7884 96.045 83.3635 93.6201C84.15 92.8664 85.0347 92.0472 85.9522 91.1624C87.3613 92.6043 88.8031 94.0788 90.4416 95.75Z" fill="white"/>
</svg>
