<svg width="147" height="88" viewBox="0 0 147 88" fill="none" xmlns="http://www.w3.org/2000/svg">
<path d="M147 74.2895C146.928 74.3978 146.785 74.4699 146.749 74.5782C145.708 77.7532 143.411 79.5212 140.145 79.2686C135.516 78.8717 131.819 80.0624 128.194 83.2014C123.995 86.8455 118.612 88.0001 113.049 88.0001C97.1865 88.0001 81.2878 88.0001 65.425 88.0001C64.8867 88.0001 64.2407 88.0722 63.8818 87.8196C63.2717 87.3145 62.4463 86.5568 62.4822 85.9074C62.5181 85.1858 63.2358 84.3559 63.8818 83.8869C64.3484 83.5622 65.1738 83.6704 65.8557 83.6704C77.7349 83.6704 89.5781 83.6704 101.457 83.6704C101.996 83.6704 102.57 83.6704 103.108 83.6704C103.18 83.5261 103.252 83.4178 103.323 83.2735C102.067 82.0468 100.847 80.8201 99.5193 79.6655C99.1963 79.4129 98.6221 79.3768 98.1914 79.3768C82.4004 79.3768 66.6094 79.3408 50.8542 79.4129C50.2441 79.4129 49.4905 79.7737 48.988 80.2067C47.8396 81.1809 46.7988 82.2994 45.7222 83.3457C45.7939 83.4539 45.8298 83.5983 45.9016 83.7065C47.8396 83.7065 49.7776 83.7065 51.7156 83.7065C53.0076 83.7065 54.2996 83.7065 55.5915 83.8147C56.7759 83.923 57.386 84.7167 57.4219 85.8713C57.4219 86.9898 56.8118 87.7475 55.6274 87.964C55.3762 88.0001 55.1609 88.0361 54.9097 88.0361C47.6243 88.0361 40.3748 88.0722 33.0894 88.0001C26.45 87.9279 20.6719 85.4744 15.8269 81.0005C14.499 79.7737 13.1353 79.2325 11.3408 79.3768C9.68994 79.4851 8.00317 79.449 6.31641 79.3408C3.37354 79.1964 1.43555 77.6811 0.358887 74.9029C0.287109 74.6864 0.143555 74.506 0.0358887 74.3256C0.0358887 73.3514 0.0358887 72.4133 0.0358887 71.4392C0.322998 70.8619 0.574219 70.2485 0.933105 69.6712C2.29688 67.326 4.41431 66.3879 7.07007 66.3879C10.946 66.3879 14.822 66.3879 18.698 66.3879C19.2004 66.3879 19.7388 66.3879 20.313 66.3879C20.6001 65.0169 21.0667 63.8623 22.6458 63.8984C24.1531 63.9345 24.5837 65.0529 24.8709 66.3879C27.9214 66.3879 30.9001 66.3879 33.9148 66.3879C36.8936 66.3879 39.8364 66.424 42.8152 66.3518C43.3894 66.3518 44.0713 66.1354 44.4661 65.7385C51.4285 58.811 58.355 51.8115 65.2815 44.8479C65.3892 44.7397 65.425 44.5954 65.5686 44.3789C64.0613 42.8635 62.554 41.3121 61.0107 39.8689C60.7595 39.6524 60.2212 39.6163 59.8264 39.6884C55.3762 40.4101 51.6438 39.0029 48.5215 35.8279C45.6863 32.9053 42.7793 30.055 39.8723 27.1325C35.3503 30.7044 31.8333 34.9258 29.2134 39.941C26.5576 45.0283 25.158 50.4765 24.7632 56.2133C24.6196 58.1977 23.7583 59.1358 22.3586 58.9554C20.9949 58.775 20.313 57.7286 20.4565 55.7803C21.3179 43.549 26.2705 33.3383 35.458 25.1841C35.8528 24.8233 36.2476 24.4986 36.8577 23.9213C36.0681 23.1636 35.2786 22.5142 34.5608 21.7565C32.551 19.6999 32.4792 17.4269 34.4531 15.4064C37.9343 11.8344 41.4514 8.29853 45.0044 4.79874C47.0142 2.81432 49.311 2.8504 51.3208 4.8709C53.9048 7.4326 56.4529 10.0304 59.0369 12.6282C61.262 14.8652 61.5132 14.9373 65.102 14.2518C65.102 12.1591 64.9944 9.99431 65.1379 7.86557C65.4609 3.28336 69.1216 -0.0360332 73.5718 4.71561e-05C77.9861 0.0361275 81.575 3.31944 81.8621 7.75733C82.0056 9.88607 81.8979 12.0509 81.8979 14.2157C83.8359 14.6126 85.2715 14.5044 86.7788 13.2776C91.3008 9.66959 96.397 7.36044 102.283 7.36044C108.025 7.36044 111.901 11.185 111.937 16.9217C111.937 18.9062 111.542 20.9267 111.111 22.875C110.896 23.9213 110.968 24.5347 111.793 25.3645C114.198 27.818 116.495 30.4158 118.72 33.0497C119.868 34.4207 119.725 35.7557 118.576 36.5855C117.535 37.3071 116.351 36.9463 115.274 35.6114C113.301 33.2301 111.291 30.8488 109.317 28.5035C107.487 30.8488 106.051 33.0497 104.257 34.9619C101.35 38.1009 97.9402 40.4822 93.49 40.6265C92.0903 40.6626 90.6548 40.4101 89.2551 40.1214C88.3938 39.941 87.8555 40.0132 87.2454 40.6626C86.0251 41.9254 84.6973 43.1161 83.3694 44.415C83.8359 44.9201 84.1589 45.2809 84.4819 45.6056C91.0854 52.2444 97.6531 58.8832 104.292 65.4859C104.687 65.8828 105.297 66.3879 105.8 66.3879C111.255 66.4601 116.71 66.424 122.524 66.424C122.309 61.7696 122.344 57.2235 121.842 52.7135C121.519 49.827 120.514 47.0488 119.76 44.1985C119.294 42.5388 119.653 41.3481 120.837 40.9152C122.165 40.4101 123.206 41.0956 123.816 42.7914C125.79 48.023 126.651 53.4351 126.651 59.0275C126.651 61.4088 126.651 63.8262 126.651 66.3518C127.261 66.3879 127.764 66.424 128.266 66.424C131.676 66.424 135.085 66.5683 138.458 66.3879C142.514 66.1714 145.564 67.4342 147.036 71.4753C147 72.3773 147 73.3153 147 74.2895ZM107.666 18.6536C107.738 13.5663 105.764 11.4014 101.637 11.7262C94.459 12.3035 88.7168 15.7311 84.6973 21.6843C82.0774 25.581 82.7952 29.8385 86.1328 33.2301C89.4346 36.5855 93.5618 37.3432 97.4736 34.8537C103.646 30.9209 106.733 24.9316 107.666 18.6536ZM37.396 18.4732C40.8772 21.973 44.179 25.2924 47.4807 28.6118C49.2393 30.3797 50.926 32.2198 52.8281 33.8073C55.2686 35.8278 58.0679 36.0804 60.9031 34.6733C65.7122 32.292 66.5017 26.1944 62.554 22.1895C58.032 17.5712 53.4382 12.989 48.8445 8.40677C48.6292 8.19029 48.342 8.00989 48.1985 7.90165C47.6243 8.33461 47.1577 8.69541 46.4399 9.20054C47.0859 9.70566 47.5166 9.99431 47.9114 10.3912C50.3877 12.8807 52.864 15.3342 55.3044 17.8237C56.6323 19.1948 56.5605 20.8545 55.1609 21.5761C54.0124 22.1895 53.0435 21.7204 52.218 20.8545C49.7058 18.2928 47.1577 15.7672 44.6096 13.2055C44.2866 12.8807 43.9277 12.5921 43.7842 12.4117C43.0664 12.9529 42.5281 13.3859 41.7026 14.0353C42.2769 14.5044 42.7434 14.793 43.1023 15.1538C45.6145 17.6433 48.1267 20.169 50.603 22.6946C51.6797 23.8131 51.7515 25.112 50.8901 26.014C49.9929 26.916 48.7368 26.8438 47.5884 25.7614C45.4709 23.6688 43.3894 21.5761 41.3079 19.4474C40.5183 18.6536 39.7646 17.8237 39.0469 17.0661C38.4009 17.6073 37.9702 17.9681 37.396 18.4732ZM42.7793 79.8459C52.2539 70.3207 61.8003 60.7233 71.0955 51.3785C70.1982 50.3322 69.2292 49.1776 68.332 48.1673C58.7498 57.8008 49.2751 67.326 39.7288 76.9234C40.6978 77.8615 41.7744 78.8717 42.7793 79.8459ZM77.7708 51.0538C87.353 60.6872 96.8994 70.2846 106.302 79.7376C107.235 78.8717 108.312 77.8615 109.245 76.9595C99.6987 67.3621 90.1523 57.7647 80.606 48.1673C79.7087 49.1415 78.668 50.1878 77.7708 51.0538ZM80.8572 18.8701C75.9404 18.8701 70.8083 18.8701 65.5686 18.8701C69.2651 23.9574 69.2651 23.9574 69.1216 30.6323C69.1216 30.8848 69.1934 31.2456 69.3728 31.39C71.0596 33.1218 72.7822 34.8537 74.5767 36.6938C76.2275 34.998 77.7708 33.5187 79.2063 31.8951C79.4934 31.5704 79.4575 30.8848 79.4216 30.3797C79.314 28.7561 78.7756 27.0964 79.0269 25.5449C79.3499 23.2719 80.2112 21.071 80.8572 18.8701ZM94.4949 74.939C94.5666 74.8307 94.6384 74.6864 94.7102 74.5782C93.6335 73.5679 92.6287 72.4855 91.4802 71.5474C90.9419 71.1144 90.1523 70.7536 89.5063 70.7176C79.5293 70.6815 69.5163 70.6815 59.5393 70.6815C59.1086 70.6815 58.5703 70.6454 58.2832 70.8619C56.9553 72.0886 55.6633 73.4236 54.156 74.9029C67.8655 74.939 81.1802 74.939 94.4949 74.939ZM63.0564 66.1714C70.7007 66.1714 78.3091 66.1714 85.6304 66.1714C81.8979 62.383 78.0938 58.5585 74.3613 54.77C70.7007 58.4863 66.9324 62.2748 63.0564 66.1714ZM39.4417 70.6815C38.5444 70.6815 38.0061 70.6815 37.4678 70.6815C27.8137 70.6815 18.1597 70.6815 8.50562 70.6815C7.68018 70.6815 6.85474 70.6815 6.06519 70.7897C4.80908 71.0062 4.05542 72.1969 4.37842 73.3514C4.77319 74.7225 5.81396 75.0111 7.07007 75.0111C16.1858 75.0111 25.3374 75.0111 34.4531 75.0111C34.8479 75.0111 35.3862 74.939 35.6375 74.6864C36.8577 73.4958 38.0061 72.2329 39.4417 70.6815ZM109.963 70.6815C109.891 70.8258 109.783 70.9701 109.712 71.1505C110.752 72.1247 111.865 73.0267 112.798 74.1091C113.408 74.7946 113.982 75.0472 114.88 75.0472C123.062 75.0111 131.209 75.0472 139.392 75.0111C141.617 75.0111 142.657 74.3256 142.693 72.8824C142.729 71.4031 141.653 70.6815 139.356 70.6815C130.025 70.6815 120.729 70.6815 111.398 70.6815C110.896 70.6815 110.429 70.6815 109.963 70.6815ZM77.5554 14.324C77.5554 12.0148 77.699 9.84999 77.5195 7.72124C77.376 5.84507 75.6892 4.47401 73.7871 4.36577C71.8132 4.25753 69.8035 5.4121 69.5881 7.32436C69.3369 9.6335 69.5164 11.9787 69.5164 14.36C72.208 14.324 74.8279 14.324 77.5554 14.324ZM40.2312 83.5622C38.9392 82.2994 37.8625 81.3613 36.9294 80.3149C36.2476 79.5573 35.5298 79.3047 34.5608 79.3408C30.5413 79.3768 26.5217 79.3408 22.5022 79.3768C22.0715 79.3768 21.6409 79.449 20.959 79.4851C26.8088 83.923 33.2329 83.8869 40.2312 83.5622ZM126.041 79.5212C125.61 79.449 125.395 79.3768 125.18 79.3768C121.411 79.3768 117.643 79.3768 113.875 79.3768C113.516 79.3768 113.085 79.449 112.834 79.7016C111.578 80.8922 110.358 82.155 108.886 83.5983C115.167 83.9591 120.873 83.3818 126.041 79.5212ZM82.1133 35.5392C78.8115 38.8586 75.4739 42.2141 72.2798 45.3891C72.854 46.0025 73.5 46.7241 74.0383 47.3375C77.3401 44.0181 80.6777 40.6626 83.9436 37.3793C83.3694 36.802 82.6875 36.1165 82.1133 35.5392ZM71.2749 39.8689C69.7317 38.3174 68.2961 36.8742 67.1477 35.7196C66.4299 36.2247 65.6404 36.8381 65.1379 37.1989C66.6094 38.6782 68.0808 40.1214 69.5522 41.6368C70.0188 41.1317 70.6648 40.4822 71.2749 39.8689Z" fill="white"/>
</svg>
