<svg width="123" height="124" viewBox="0 0 123 124" fill="none" xmlns="http://www.w3.org/2000/svg">
<g clip-path="url(#clip0_77_220)">
<path d="M67.501 63.7841L63.1481 68.2404C63.1481 68.2404 62.6277 69.747 63.637 70.6668C64.6464 71.5867 66.0185 71.2219 66.0185 71.2219L70.4502 66.5594C70.4502 66.5594 70.9391 65.3066 69.9928 64.3709C69.0466 63.4352 67.501 63.7841 67.501 63.7841Z" fill="white"/>
<path d="M109.957 55.7913C108.743 55.712 107.923 56.8856 107.923 56.8856L107.86 62.6265C107.86 62.6265 108.475 63.9903 109.705 64.022C110.935 64.0538 111.629 62.9754 111.629 62.9754V57.0442C111.645 57.0442 111.172 55.8706 109.957 55.7913Z" fill="white"/>
<path d="M122.779 88.6825C122.416 85.6693 120.808 80.4676 119.467 78.0888C118.127 75.71 116.833 73.6166 114.137 70.7937C111.424 67.9709 107.15 65.1639 103.333 63.5463C99.5166 61.9287 93.9967 61.3578 93.9967 61.3578V59.4071H96.8828C96.8828 59.4071 98.6176 58.8203 98.6492 57.1869C98.6807 55.5534 96.867 55.1252 96.867 55.1252H86.5842C86.5842 55.1252 84.8493 55.9499 84.9597 57.3772C85.0701 58.8045 86.6946 59.5181 86.6946 59.5181L89.7227 59.5657L89.6911 61.5163C89.6911 61.5163 85.5117 61.9445 79.5975 63.9269C73.6833 65.9092 68.605 71.1744 65.1984 76.3285C61.776 81.4826 60.2777 89.5706 60.7036 95.0736C61.1294 100.577 63.2585 106.302 66.4601 110.901C69.6616 115.5 75.7651 120.257 81.3166 122.208C86.8681 124.159 94.1386 124.793 100.684 122.731C107.229 120.67 110.73 117.625 113.111 115.563C115.509 113.502 116.77 111.519 118.899 108.268C121.029 105.017 122.259 99.9739 122.637 97.7696C123 95.5811 123.158 91.6956 122.779 88.6825ZM91.8675 119.718C77.0268 119.718 65.0091 107.697 65.0091 92.8692C65.0091 78.0412 77.0426 66.0202 91.8675 66.0202C106.708 66.0202 118.726 78.0412 118.726 92.8692C118.742 107.681 106.708 119.718 91.8675 119.718Z" fill="white"/>
<path d="M91.8834 77.3275C93.0941 77.3275 94.0756 76.2838 94.0756 74.9963C94.0756 73.7088 93.0941 72.665 91.8834 72.665C90.6726 72.665 89.6912 73.7088 89.6912 74.9963C89.6912 76.2838 90.6726 77.3275 91.8834 77.3275Z" fill="white"/>
<path d="M79.4083 82.5292C80.619 82.5292 81.6005 81.4855 81.6005 80.1979C81.6005 78.9104 80.619 77.8667 79.4083 77.8667C78.1975 77.8667 77.2161 78.9104 77.2161 80.1979C77.2161 81.4855 78.1975 82.5292 79.4083 82.5292Z" fill="white"/>
<path d="M74.2038 94.9784C75.4145 94.9784 76.396 93.9347 76.396 92.6472C76.396 91.3597 75.4145 90.3159 74.2038 90.3159C72.9931 90.3159 72.0116 91.3597 72.0116 92.6472C72.0116 93.9347 72.9931 94.9784 74.2038 94.9784Z" fill="white"/>
<path d="M79.4083 107.428C80.619 107.428 81.6005 106.384 81.6005 105.096C81.6005 103.809 80.619 102.765 79.4083 102.765C78.1975 102.765 77.2161 103.809 77.2161 105.096C77.2161 106.384 78.1975 107.428 79.4083 107.428Z" fill="white"/>
<path d="M91.8045 112.819C93.0152 112.819 93.9967 111.776 93.9967 110.488C93.9967 109.201 93.0152 108.157 91.8045 108.157C90.5938 108.157 89.6123 109.201 89.6123 110.488C89.6123 111.776 90.5938 112.819 91.8045 112.819Z" fill="white"/>
<path d="M104.185 107.428C105.396 107.428 106.377 106.384 106.377 105.096C106.377 103.809 105.396 102.765 104.185 102.765C102.974 102.765 101.993 103.809 101.993 105.096C101.993 106.384 102.974 107.428 104.185 107.428Z" fill="white"/>
<path d="M109.074 94.9784C110.285 94.9784 111.266 93.9347 111.266 92.6472C111.266 91.3597 110.285 90.3159 109.074 90.3159C107.863 90.3159 106.882 91.3597 106.882 92.6472C106.882 93.9347 107.863 94.9784 109.074 94.9784Z" fill="white"/>
<path d="M90.2904 94.2647C91.3156 95.2479 92.9242 94.6612 92.9242 94.6612L106.219 81.1494C106.219 81.1494 106.771 79.8332 105.667 78.723C104.563 77.6129 102.939 78.4852 102.939 78.4852L89.9277 91.6163C89.9277 91.6163 89.2653 93.2814 90.2904 94.2647Z" fill="white"/>
<path d="M57.9121 103.193L44.9796 103.177C44.9796 103.177 24.5716 103.193 23.3099 103.177C22.0482 103.162 21.0231 102.939 19.856 102.321C18.689 101.702 17.6008 101.639 15.4401 98.7528C13.2794 95.8665 13.3741 92.7264 13.3741 92.7264L13.3898 66.6545L13.2479 57.2344C13.2479 57.2344 12.6801 55.823 11.0715 55.9023C9.46279 55.9816 8.98965 57.4723 8.98965 57.4723V93.4876C8.98965 93.4876 8.83194 93.6621 9.5101 96.4374C10.1883 99.2127 11.9704 101.56 14.7777 104.287C17.585 107.015 23.2311 107.475 23.2311 107.475H57.707C57.707 107.475 59.6154 106.761 59.5996 105.239C59.5838 103.717 57.9121 103.193 57.9121 103.193Z" fill="white"/>
<path d="M9.65204 29.4181C10.4091 30.1 11.6234 30.1634 12.207 29.7828C12.7905 29.4181 14.415 27.8481 16.4652 26.7221C18.5155 25.5961 20.4869 23.9468 28.2937 21.8059C36.1004 19.6649 41.1788 18.9037 47.4873 18.1266C53.7958 17.3654 62.2649 17.5716 68.4157 17.7619C74.5665 17.9522 79.7237 18.8403 85.6379 20.0138C91.5521 21.1715 98.0184 23.2173 101.535 25.0886C105.052 26.96 107.024 28.1811 107.954 29.085C108.869 29.989 109.484 29.9573 110.162 29.9256C110.84 29.8938 111.708 29.0533 111.944 28.2921C112.181 27.5309 111.66 26.5794 111.124 26.0719C110.604 25.5644 107.292 23.1856 104.611 21.7107C101.93 20.2358 95.1007 17.7936 89.8646 16.5249C84.6286 15.2562 79.8026 14.5108 77.4053 14.1936C75.0081 13.8765 67.9426 13.5117 67.9426 13.5117C67.9426 13.5117 68.2896 12.8456 68.6996 12.132C69.1254 11.4183 69.2989 9.48356 69.2989 7.88182C69.2989 6.26423 67.5641 1.41143 63.5109 0.396467C59.4577 -0.618496 56.6504 0.348891 53.9693 2.8863C51.2881 5.42371 51.7613 9.94347 52.0452 11.0853C52.329 12.2271 53.0387 13.591 53.0387 13.591C53.0387 13.591 47.6292 13.7813 43.5287 14.2729C39.4282 14.7645 34.886 15.494 30.0758 16.7628C25.2656 18.0315 17.8215 21.0129 15.8344 22.1072C13.8314 23.1856 9.2893 25.945 9.05273 27.3089C8.81616 28.6727 9.65204 29.4181 9.65204 29.4181ZM60.5301 4.25016C62.9746 4.25016 64.9618 6.23251 64.9618 8.67476C64.9618 11.117 62.9746 13.0994 60.5301 13.0994C58.0856 13.0994 56.0984 11.117 56.0984 8.67476C56.0984 6.23251 58.0856 4.25016 60.5301 4.25016Z" fill="white"/>
<path d="M15.5978 51.779L18.6732 51.8424C18.6732 51.8424 20.3134 51.3667 20.2188 49.5588C20.1241 47.7509 18.6259 47.4654 18.6259 47.4654H8.37456C8.37456 47.4654 6.59241 46.9421 5.58305 45.7209C4.57369 44.4998 4.22672 43.4056 4.27403 42.1369C4.32135 40.8681 5.14145 39.0285 6.29275 38.1246C7.44406 37.2206 8.5165 37.1413 9.63626 37.1413C10.756 37.1413 29.3346 37.1413 29.3346 37.1413H112.623C112.623 37.1413 114.657 37.5695 115.903 39.1713C117.149 40.773 116.96 42.232 116.96 42.8822C116.96 43.5483 116.36 45.1976 115.209 46.1016C114.058 47.0055 112.796 47.4654 112.796 47.4654H102.907C102.907 47.4654 101.441 47.9095 101.031 48.9403C100.605 49.987 101.441 51.0495 101.74 51.3032C102.04 51.557 102.292 51.779 103.065 51.7631C103.838 51.7473 113.127 51.7631 113.127 51.7631C113.127 51.7631 116.045 51.1605 117.512 49.8918C118.978 48.6231 120.019 47.7191 120.824 45.0866C121.628 42.454 121.234 39.9483 120.209 37.9818C119.183 36.0154 117.133 34.0647 115.114 33.3828C113.096 32.7009 111.455 32.8119 109.058 32.8119C106.661 32.8119 95.0534 32.8119 95.0534 32.8119H8.45341C8.45341 32.8119 5.8827 33.2242 4.47906 34.144C3.07542 35.0638 1.81372 36.6338 1.18287 37.6171C0.552018 38.6003 0.20505 40.2814 0.0315662 41.8831C-0.141918 43.4849 0.315449 45.0707 0.757044 46.0064C1.19864 46.9421 2.30263 48.8768 3.42239 49.6856C4.54214 50.4944 6.40315 51.7473 7.98028 51.779C9.57317 51.7949 15.5978 51.779 15.5978 51.779Z" fill="white"/>
<path d="M28.4198 47.4496H27.5366C27.5366 47.4496 25.8964 47.7668 25.9279 49.5747C25.9753 51.3826 27.5208 51.779 27.5208 51.779H29.6184C29.6184 51.779 31.1009 51.1922 31.0851 49.6064C31.0536 48.0205 29.303 47.4337 29.303 47.4337H28.4198V47.4496Z" fill="white"/>
<path d="M38.6711 47.4496H37.788C37.788 47.4496 36.1477 47.7668 36.1793 49.5747C36.2266 51.3826 37.7722 51.779 37.7722 51.779H39.8698C39.8698 51.779 41.3523 51.1922 41.3365 49.6064C41.3049 48.0205 39.5543 47.4337 39.5543 47.4337H38.6711V47.4496Z" fill="white"/>
<path d="M48.7648 47.4496H47.8816C47.8816 47.4496 46.2414 47.7668 46.2729 49.5747C46.3202 51.3826 47.8658 51.779 47.8658 51.779H49.9634C49.9634 51.779 51.4459 51.1922 51.4301 49.6064C51.3986 48.0205 49.648 47.4337 49.648 47.4337H48.7648V47.4496Z" fill="white"/>
</g>
<defs>
<clipPath id="clip0_77_220">
<rect width="123" height="124" fill="white"/>
</clipPath>
</defs>
</svg>
