<svg width="465" height="167" viewBox="0 0 465 167" fill="none" xmlns="http://www.w3.org/2000/svg">
<g clip-path="url(#clip0_146_2)">
<path d="M465 0H0.492996V115.815H465V0Z" fill="#94002D"/>
<path d="M464.704 121.769H0.394409V166.616H464.704V121.769Z" fill="#0072BC"/>
<path d="M464.408 122.057H0.0986023V166.904H464.408V122.057Z" stroke="#0072BC" stroke-width="0.25"/>
<path d="M286.434 69.1431H281.011V60.9804H284.758C289.491 60.9804 292.942 61.2685 292.942 65.1098C292.844 68.3749 290.083 69.1431 286.434 69.1431ZM288.012 50.705H281.011V35.3398H266.221V79.4186H287.913C299.647 79.4186 306.746 74.809 306.746 65.3019C306.746 55.6986 299.45 50.705 288.012 50.705ZM218.302 58.0034C218.302 68.3749 216.625 69.5273 213.667 69.5273C211.991 69.5273 211.202 69.4312 210.315 69.1431V79.4186C213.273 80.0908 215.245 80.3789 218.302 80.3789C226.781 80.3789 232.5 75.9614 232.5 58.1955V45.6153H243.149V79.4186H257.939V35.3398H218.302V58.0034ZM400.022 64.3415L404.656 48.5922L409.389 64.3415H400.022ZM412.249 35.3398H397.163L380.992 79.4186H395.487L397.163 73.5606H411.953L413.728 79.4186H428.518L412.249 35.3398ZM310.789 79.3226H325.579V35.3398H310.789V79.3226ZM360.483 50.9931C359.202 51.4732 356.638 51.7613 353.779 51.7613C350.229 51.7613 348.158 50.1288 348.158 46.6716V35.3398H333.368V48.9764C333.368 58.4836 341.552 62.5169 348.158 62.5169C356.046 62.5169 357.92 62.1328 360.483 61.5566V79.3226H375.274V35.3398H360.483V50.9931ZM110.137 79.3226H124.927V45.6153H139.027V79.4186H153.817V35.3398H110.137V79.3226ZM61.0337 52.7216L53.8359 35.3398H37.0738L53.7373 67.3185C52.8499 69.1431 51.7653 69.7193 50.1877 69.7193C48.5115 69.7193 48.0184 69.4312 47.131 69.1431V79.1305C48.8073 79.8027 51.6667 80.4749 54.1317 80.4749C59.7519 80.4749 63.5973 77.594 67.4428 69.6233L84.1062 35.2438H68.133L61.0337 52.7216ZM178.566 64.3415L183.2 48.5922L187.933 64.3415H178.566ZM175.706 35.3398L159.536 79.4186H174.03L175.706 73.5606H190.496L192.271 79.4186H207.061L190.891 35.3398H175.706Z" fill="white"/>
<path d="M47.0324 154.996H42.9898V133.869H47.0324V142.032H49.4975L56.0051 133.869H60.8365L52.6527 143.76L61.0337 154.996H56.3995L49.3003 145.681H47.0324V154.996Z" fill="white"/>
<path d="M86.6698 149.618L78.7818 133.869H83.1202L88.6418 145.201L93.9663 133.869H98.0089L88.2474 154.996H84.1062L86.6698 149.618Z" fill="white" stroke="white" stroke-width="0.2"/>
<path d="M125.518 141.263L130.35 133.869H134.787L127.688 144.432L135.083 154.996H130.448L125.124 147.313L120.293 154.996H115.954L122.955 144.144L115.856 133.869H120.49L125.518 141.263Z" fill="white"/>
<path d="M155.296 133.869H159.24V142.032H169.691V133.869H173.636V154.996H169.691V145.681H159.24V154.996H155.296V133.869Z" fill="white"/>
<path d="M196.116 133.869H199.863V149.138L210.808 133.869H214.357V154.996H210.512V139.727L199.666 154.996H196.116V133.869Z" fill="white"/>
<path d="M283.181 133.869H287.42L293.928 142.224L300.337 133.869H304.577V154.996H300.83V139.055L294.323 147.409H293.435L287.026 139.247V154.996H283.181V133.869Z" fill="white"/>
<path d="M327.058 133.869H330.903V149.138L341.749 133.869H345.299V154.996H341.454V139.727L330.608 154.996H327.058V133.869Z" fill="white"/>
<path d="M367.78 133.869H376.358C380.795 133.869 383.852 136.654 383.852 140.591C383.852 144.432 380.894 147.313 376.358 147.313H371.724V154.996H367.78V133.869ZM371.724 137.326V143.856H376.26C378.429 143.856 379.809 142.608 379.809 140.591C379.809 138.574 378.429 137.326 376.26 137.326H371.724Z" fill="white" stroke="white" stroke-width="0.2"/>
<path d="M408.995 133.869H413.333L421.616 155.092H417.376L415.01 148.754H407.121L404.755 155.092H400.712L408.995 133.869ZM413.728 145.297L411.066 138.286L408.403 145.297H413.728Z" fill="white"/>
</g>
<defs>
<clipPath id="clip0_146_2">
<rect width="465" height="167" fill="white"/>
</clipPath>
</defs>
</svg>
