<svg width="1461" height="899" viewBox="0 0 1461 899" fill="none" xmlns="http://www.w3.org/2000/svg">
<path fill-rule="evenodd" clip-rule="evenodd" d="M464.496 783.307C459.995 780.883 455.494 778.46 450.992 776.036C453.416 775.343 456.532 775.343 457.917 773.612C458.61 772.573 456.879 769.456 456.186 766.686C454.109 770.495 452.724 773.265 451.339 776.036C448.569 772.919 445.452 769.456 442.336 765.993C444.414 764.608 445.452 763.569 445.799 763.223C440.951 759.414 439.566 754.566 440.259 749.372C439.22 749.718 438.181 750.064 437.142 750.411C437.142 749.372 436.45 747.987 437.142 747.294C438.527 744.87 440.259 742.792 442.336 740.368C440.951 738.291 439.22 735.867 437.142 733.443C436.45 733.096 435.411 732.75 434.719 732.75C436.104 731.019 437.489 729.287 438.874 727.902C439.566 728.595 440.259 728.941 440.951 729.634C441.644 730.672 441.99 731.365 443.029 733.096C444.067 731.019 445.799 728.941 445.452 727.902C443.375 722.362 447.184 717.514 447.53 712.666C447.53 711.973 447.53 710.934 447.53 710.242C442.336 708.857 441.297 705.74 443.375 700.892C444.067 699.507 445.106 697.429 444.414 696.39C442.682 691.196 444.76 687.041 446.837 682.539C450.3 674.921 452.031 667.303 451.339 658.299C450.992 651.374 453.762 644.448 454.801 637.522C455.84 630.25 456.879 622.632 457.225 615.36C457.917 604.625 455.494 601.509 445.799 596.661C441.644 594.583 437.489 591.813 434.372 588.35C431.949 585.58 431.602 581.078 429.525 577.962C424.677 569.997 419.484 562.033 413.944 554.068C411.866 550.952 411.52 546.104 414.29 543.333C415.329 542.295 416.714 541.602 419.137 539.524C412.905 538.832 412.905 536.061 414.29 532.945C415.675 529.482 416.021 526.019 420.176 523.595C423.292 521.864 426.409 518.401 427.447 514.938C428.832 509.744 429.179 504.203 425.716 499.355C425.024 498.317 424.331 496.931 423.292 496.239C422.254 495.2 420.869 492.776 420.176 493.122C418.445 493.815 417.406 495.2 416.021 496.239C414.982 497.278 414.29 498.317 413.251 497.624C410.481 496.585 406.673 496.239 404.941 494.507C400.786 490.698 394.554 490.006 392.476 483.08C391.438 478.925 387.283 474.423 380.704 473.73C374.471 473.038 367.893 471.999 363.738 466.112C361.314 462.649 357.851 460.918 353.35 462.996C352.658 463.342 351.619 463.342 350.926 463.342C337.769 462.303 326.343 457.109 316.302 448.452C314.57 447.067 314.224 443.604 313.185 441.18C312.839 440.141 312.493 438.756 311.8 438.063C307.299 432.523 301.413 427.675 298.297 421.442C293.795 412.785 283.408 409.668 281.33 399.28C280.984 397.548 278.56 396.509 276.829 395.124C276.137 395.817 275.444 396.163 274.752 396.856C281.677 408.629 288.602 420.057 295.873 431.83C292.064 428.714 284.447 429.753 285.485 421.788C285.485 421.095 283.754 419.71 282.715 419.018C279.945 416.94 277.175 415.209 274.405 413.131C275.444 411.4 276.137 410.014 276.829 408.629C276.483 408.629 275.79 408.976 275.444 408.976C271.982 403.089 268.865 396.856 265.403 391.315C263.672 388.545 261.248 385.082 258.132 384.043C250.168 381.619 247.052 375.386 243.936 368.807C243.243 367.075 241.512 366.037 240.819 364.305C239.088 359.457 236.318 354.955 235.972 350.107C235.279 344.567 236.664 338.334 236.318 332.793C236.318 326.56 235.626 320.673 234.933 314.44C239.088 313.401 240.473 314.094 243.243 318.249C242.897 314.094 243.936 309.592 238.049 307.515C235.626 306.822 233.894 304.052 232.163 302.32C231.817 302.667 231.471 302.667 231.124 303.013C233.894 306.13 236.318 308.9 239.088 312.016C238.742 312.363 238.396 312.709 238.049 313.055C230.432 311.67 225.931 304.744 218.659 301.628C220.391 300.243 221.429 299.55 222.468 298.511C220.391 294.01 217.967 289.508 215.543 284.314C208.272 286.391 211.388 275.657 205.502 274.618C204.809 275.657 204.117 277.042 203.424 277.388C202.386 277.734 199.962 277.388 199.962 277.388C199.616 271.501 196.153 269.077 191.306 266.653C190.267 265.961 189.921 263.883 188.882 262.498C187.151 259.728 184.727 257.996 181.611 255.919C173.647 250.724 166.03 246.915 156.335 246.915C152.18 246.915 148.025 243.452 143.87 242.067C141.792 241.375 139.715 241.721 136.945 241.375C138.676 245.53 137.637 247.261 133.482 247.954C130.366 248.647 127.25 250.724 123.441 252.802C123.787 249.339 124.134 246.569 124.48 243.106C121.017 245.876 116.17 248.3 115.824 251.071C115.131 258.689 108.899 259.381 105.09 263.537C97.1261 271.501 87.4311 274.618 77.0437 277.734C76.6974 277.734 76.3512 277.734 74.9662 277.388C76.3512 276.349 77.0437 275.657 78.0824 274.964C83.6224 272.54 88.4699 268.731 93.6636 265.614C97.4724 263.19 99.8961 260.42 100.589 255.226C95.3949 255.572 90.2011 256.265 85.3537 256.265C83.9687 256.265 82.5837 253.841 81.5449 252.456C80.1599 250.032 79.1212 248.3 76.0049 248.647C74.2737 248.647 72.1962 247.261 70.8112 246.223C68.7337 244.491 67.3487 242.067 65.9637 239.643C65.6175 238.951 65.9637 237.219 66.31 236.527C67.0025 235.142 68.3875 233.756 68.7337 232.371C69.4262 228.216 71.85 227.87 75.6587 227.87C78.7749 227.87 81.8912 226.484 84.6612 225.446C85.3537 225.099 85.6999 223.714 85.6999 223.022C85.6999 221.29 85.0074 219.559 84.6612 217.481C74.9662 221.983 65.6175 222.329 58 212.287C63.1937 209.17 67.695 204.669 74.6199 208.824C76.3512 209.863 79.1212 208.131 81.5449 207.785C80.1599 206.054 78.7749 203.976 77.0437 202.591C72.5424 199.128 67.695 196.358 61.8087 192.549C65.2712 190.125 67.695 189.086 69.7725 188.047C71.5037 187.354 74.6199 187.354 74.9662 185.969C77.3899 180.775 81.5449 178.005 87.0849 176.62C89.5086 176.273 91.9324 175.235 94.3561 174.888C95.0486 174.542 96.4336 174.888 96.7799 174.542C101.281 169.694 106.475 171.772 111.669 173.157C126.557 177.312 141.792 179.044 157.027 180.083C164.645 180.775 172.262 182.16 179.187 185.623C182.996 187.701 187.151 188.047 190.96 184.584C191.998 183.545 193.383 183.199 195.807 181.814C194.768 183.892 194.422 184.931 194.076 185.623C200.308 183.199 206.541 180.775 213.119 178.697C213.466 179.39 213.466 179.736 213.812 180.429C211.734 181.468 209.657 182.853 207.579 183.892C207.926 184.238 208.272 184.93 208.272 185.277C212.773 182.853 217.274 180.429 222.814 177.659C224.546 179.39 227.316 182.16 230.432 184.931C231.817 183.199 232.856 181.121 234.587 178.697C235.626 181.121 235.972 182.507 237.011 184.584C242.204 179.39 247.744 182.507 252.938 183.545C258.824 184.93 264.364 186.316 270.25 187.701C273.02 188.393 276.829 188.393 275.79 193.588C275.79 193.934 278.56 195.665 279.945 196.012C285.139 196.358 290.333 196.012 295.18 196.704C298.297 197.05 300.72 199.821 304.183 201.552C303.837 200.167 303.144 198.436 302.452 196.358C305.914 191.51 310.415 190.471 315.609 193.588C323.919 198.782 338.808 196.704 344.001 189.778C341.578 189.086 339.5 188.74 337.423 188.047C339.5 185.623 341.231 183.892 343.309 181.468C345.04 182.16 347.464 182.507 349.541 183.892C354.735 186.662 354.389 188.74 348.849 191.856C350.234 194.28 351.619 197.05 353.004 199.474C353.696 199.474 354.043 199.821 354.735 199.821C350.926 192.202 359.236 194.626 359.929 191.856C359.583 189.086 359.583 187.008 359.236 184.238C357.159 183.199 353.35 182.853 351.273 180.429C349.541 178.351 349.888 174.542 349.541 171.425C356.466 167.27 356.813 166.231 354.389 159.306C352.311 153.072 356.12 147.532 362.699 148.571C366.508 149.263 370.663 149.61 374.471 149.956C374.125 155.15 368.931 159.306 362.699 159.998C362.006 161.73 360.968 163.807 360.275 165.885C363.045 169.694 366.161 173.157 368.585 176.966C369.624 178.351 368.931 180.775 368.931 182.853C375.856 181.121 373.433 188.74 376.203 192.202C376.895 190.817 377.241 189.086 378.28 188.74C379.665 187.701 381.743 186.662 382.435 187.354C383.82 188.393 385.898 190.471 385.551 192.202C384.859 197.05 384.513 197.05 389.014 200.513C391.438 196.358 393.861 192.202 396.285 188.393C396.285 188.393 395.939 188.393 395.939 188.047C396.978 186.316 397.324 183.199 399.055 182.507C403.556 180.429 410.827 184.584 412.905 189.778C407.711 193.934 407.711 194.28 413.597 199.821C409.443 203.283 405.288 206.4 401.479 209.863C400.786 209.517 399.401 208.824 398.016 208.478C396.631 208.478 395.246 208.478 393.861 208.478C391.784 210.555 389.706 212.633 387.283 214.711C389.014 217.827 386.59 221.636 381.05 222.329C377.588 222.675 374.125 223.022 374.125 227.87C374.125 228.562 372.74 229.255 372.048 229.947C368.239 233.756 363.391 236.873 360.275 241.028C358.198 244.145 358.89 248.647 358.544 252.802C358.544 253.495 359.929 254.533 360.621 254.533C365.123 254.533 365.815 257.65 366.508 261.113C366.854 263.19 367.546 264.576 370.663 264.576C375.51 264.922 381.05 265.961 384.859 268.731C390.399 272.54 395.593 274.272 401.825 274.964C409.442 275.657 410.135 276.003 409.789 283.621C409.096 290.201 413.944 292.624 417.406 296.087C418.099 296.78 420.869 296.087 421.907 295.049C422.946 294.356 423.639 292.624 423.639 291.239C423.639 290.201 422.6 288.815 422.254 287.43C419.484 279.812 419.83 279.812 426.062 274.618C432.295 269.077 432.987 264.229 427.794 258.689C425.024 255.572 425.024 253.495 426.409 249.339C427.794 245.53 426.755 240.682 426.409 236.527C426.062 231.332 427.101 230.64 432.295 231.679C436.104 232.718 439.566 234.103 443.721 231.679C445.106 230.986 449.261 234.795 452.031 236.873C453.762 238.258 455.84 239.643 457.225 241.028C458.61 242.413 459.995 244.145 460.341 245.876C460.687 252.802 463.457 256.611 470.036 256.265C472.806 256.265 475.23 252.802 477.654 250.378C479.038 248.993 479.731 246.569 480.423 245.184C483.193 248.993 485.963 252.802 488.387 256.611C490.465 260.074 491.157 264.229 493.235 267.346C495.658 270.462 498.775 274.964 501.891 275.657C508.123 277.042 510.893 282.236 515.395 285.006C519.203 287.43 517.472 292.624 513.663 294.702C509.162 297.126 505.007 299.896 500.852 302.667C500.16 303.013 499.121 303.359 498.082 303.359C494.273 303.359 490.811 303.359 487.002 303.359C473.499 302.32 470.036 303.706 460.687 314.787C468.305 310.978 474.537 306.13 483.886 311.324C481.116 313.055 479.731 314.094 478 315.133C478.692 316.518 479.731 318.249 480.423 319.981C482.155 324.483 485.617 326.56 490.465 325.868C491.85 325.521 493.235 326.56 494.62 327.253C494.273 328.292 493.927 329.677 493.235 330.023C488.041 332.447 482.847 334.871 477.654 337.295C477.307 337.641 476.268 337.295 473.845 336.949C476.268 333.14 478.346 330.023 480.423 326.56C473.152 330.023 465.881 333.14 458.61 336.949C455.147 338.68 455.147 343.528 458.956 346.298C454.801 346.991 450.992 347.337 445.799 348.03C447.876 349.069 448.569 349.415 449.261 349.761C448.915 350.107 448.915 350.454 448.569 350.454C441.297 350.8 439.912 357.379 437.142 362.227C436.45 363.613 435.065 364.305 434.026 365.344C433.68 364.998 433.334 364.998 432.987 364.651C433.334 367.422 433.68 370.538 434.026 373.308C434.372 376.425 432.987 378.156 430.217 379.888C423.985 384.389 418.099 389.237 412.905 394.778C411.52 396.163 412.559 400.319 413.597 402.742C416.367 409.322 416.714 415.555 414.29 422.827C410.135 418.325 406.672 414.17 405.98 408.283C405.98 407.244 405.634 405.859 404.941 405.513C396.978 401.704 389.014 397.202 379.319 400.318C379.319 401.704 379.665 403.089 379.665 404.474C377.241 404.474 374.818 404.474 372.74 403.781C365.815 402.05 359.236 402.742 353.004 406.205C348.156 408.976 346.425 411.4 347.118 417.286C347.118 418.325 347.118 419.364 346.771 420.057C343.309 425.597 345.04 431.138 347.118 436.332C348.503 440.141 349.888 443.95 351.965 447.067C353.35 448.798 356.12 450.876 358.198 450.876C365.469 450.876 372.394 450.53 375.51 441.872C376.895 437.717 382.781 436.678 389.36 438.41C387.629 444.296 386.244 450.53 384.166 456.416C383.128 459.879 383.82 461.264 387.629 461.264C391.091 460.918 394.208 461.264 397.67 461.264C402.518 461.264 404.941 464.035 404.249 468.883C403.902 471.999 403.556 475.116 402.864 478.232C401.825 484.812 408.057 491.045 414.636 490.006C419.137 489.313 423.985 485.85 428.486 491.045C428.832 491.391 432.641 488.621 434.372 487.236C436.45 485.504 438.181 483.426 440.605 482.388C443.721 481.002 447.53 481.002 448.915 477.193C449.261 476.501 450.992 476.501 452.724 476.154C452.031 478.232 451.339 479.271 450.646 481.349C453.07 481.002 454.455 480.31 456.186 480.656C459.302 480.656 462.419 479.964 465.881 482.388C469.69 484.812 475.23 484.119 480.077 484.119C480.77 484.119 481.462 482.388 482.155 481.349C485.271 482.734 488.387 484.119 491.157 485.85C492.196 486.543 493.581 487.236 493.927 487.928C494.62 493.122 498.775 493.469 502.583 494.507C502.93 494.507 503.622 494.854 503.968 495.2C508.123 501.779 514.702 502.126 521.627 503.165C528.206 504.203 535.131 507.32 536.516 515.631C537.208 518.747 540.671 521.171 539.286 524.98C539.286 525.327 541.71 526.712 542.748 527.751C543.787 528.789 545.172 529.828 546.557 530.867C551.058 528.097 555.906 531.213 560.753 533.637C565.947 536.408 571.487 538.832 577.719 537.793C578.758 537.447 580.143 537.793 580.836 538.139C586.722 541.256 591.223 546.104 598.148 547.835C602.303 548.874 602.649 559.955 598.841 565.149C595.378 569.997 591.223 574.153 588.107 579.001C586.376 581.078 584.644 584.195 584.991 586.619C586.722 598.392 580.143 607.742 575.642 617.784C574.257 620.901 571.833 622.286 567.678 622.978C560.061 624.017 552.789 627.134 547.249 633.021C546.211 634.06 545.172 635.791 545.518 636.83C546.903 646.526 540.671 652.759 535.131 659.338C532.707 662.108 530.63 664.532 528.898 667.649C525.436 673.882 520.242 676.306 513.317 674.921C511.24 674.575 509.162 674.228 506.738 674.228C513.663 683.578 511.932 689.119 500.852 693.274C499.121 693.966 497.043 694.659 494.966 695.005C488.733 696.044 487.695 697.776 489.772 704.009C485.271 704.701 481.116 705.047 476.615 705.74C476.615 706.433 476.268 706.779 476.268 707.471C478.346 708.857 480.77 710.242 483.54 711.973C482.155 712.666 480.77 713.012 479.731 713.358C480.77 720.284 474.537 722.708 470.729 726.517C467.612 729.634 467.959 732.058 471.767 734.482C475.576 737.252 475.23 738.983 472.114 742.1C467.959 746.255 464.496 750.757 461.034 755.259C460.341 755.951 461.726 758.029 461.726 759.068C462.072 760.453 462.072 761.492 462.072 762.877C461.726 762.877 461.034 763.223 460.687 763.223C465.535 767.725 470.382 772.573 475.23 777.074C472.806 777.421 470.036 777.767 467.266 778.806C466.574 779.152 466.227 780.537 465.881 781.576C465.535 783.307 464.842 783.307 464.496 783.307Z" fill="#ADE0F1" stroke="#6DCFF6" stroke-width="0.4252"/>
<path fill-rule="evenodd" clip-rule="evenodd" d="M615.807 62.6926C621 63.3851 626.194 63.3851 631.042 64.7703C639.352 67.1942 647.662 70.3108 655.972 73.0811C655.972 73.4273 655.972 74.1199 656.318 74.4662C650.085 75.505 643.853 77.2365 637.62 76.8902C630.003 76.5439 618.23 77.5827 610.959 81.0456C620.654 80.353 630.003 79.6604 639.352 79.3141C639.352 79.6604 639.698 80.353 639.698 80.6993C638.659 81.7381 637.274 82.4307 636.235 83.4695C636.235 83.8158 636.582 83.8158 636.582 84.1621C639.005 83.1233 641.775 82.0844 644.199 81.0456C644.892 80.6993 645.584 79.6604 646.277 79.6604C649.047 79.3141 651.47 79.3141 654.24 78.9679C653.202 81.0456 652.509 83.4695 651.47 85.5472C651.124 86.2398 650.778 86.5861 649.393 87.9712C652.509 86.5861 654.587 85.201 657.01 84.5084C659.434 83.8158 661.858 83.8158 664.628 83.4695C666.359 83.1233 668.437 82.777 669.822 82.0844C678.478 77.2365 686.788 79.3141 696.136 83.1233C687.134 85.8935 680.902 93.1655 670.168 91.0878C672.938 92.8192 674.669 93.858 677.785 95.5894C671.899 96.6283 667.052 97.3209 662.55 98.0134C662.55 98.3597 662.55 98.706 662.55 98.706C665.667 98.3597 669.129 98.0134 672.245 97.6671C671.899 101.476 671.899 101.476 666.359 100.091C662.897 105.632 659.088 111.172 655.625 116.713C659.78 117.405 663.243 117.752 667.052 118.098C665.667 119.829 664.974 120.522 664.282 121.561C664.628 121.907 664.974 122.253 665.32 122.6C667.052 123.638 668.783 124.331 670.514 125.37C668.437 125.716 666.359 126.062 664.628 126.062C661.165 126.409 657.703 126.755 654.24 127.101C654.24 127.794 653.894 128.486 653.894 129.179C657.357 130.218 660.473 131.603 664.282 132.642C666.359 139.914 666.359 139.914 660.473 140.26C662.897 142.684 664.974 144.415 667.052 146.493C663.589 151.341 657.703 142.338 654.933 148.917C657.357 149.61 659.78 150.302 662.55 151.341C659.088 156.189 653.548 157.228 648.7 154.804C647.315 154.111 645.584 153.765 643.853 153.765C640.737 153.765 640.044 155.843 642.122 157.92C644.545 160.344 647.315 162.768 650.085 164.846C651.47 166.231 654.24 166.924 654.587 168.655C655.279 171.079 654.933 173.849 654.933 176.62C652.163 176.273 649.393 176.966 646.969 175.927C644.892 174.888 643.507 171.425 641.429 170.733C639.698 170.387 637.274 172.811 635.197 173.849C636.928 174.196 638.659 174.542 641.429 174.888C639.352 176.273 637.967 176.966 636.582 178.005C642.122 178.351 646.969 179.044 652.163 179.39C642.468 187.701 632.427 194.626 620.308 193.934C613.037 193.588 610.267 197.05 607.151 201.552C603.688 206.4 598.494 208.824 592.954 210.209C592.262 210.555 590.877 209.17 589.838 208.478C587.068 210.209 583.606 212.287 580.489 214.711C577.373 216.788 577.027 219.212 578.412 222.675C578.758 223.368 578.066 224.753 577.719 225.099C575.642 227.177 573.218 229.255 570.448 231.332C574.257 236.873 567.678 240.682 567.678 245.876C565.601 245.53 563.177 245.876 561.099 245.184C559.714 244.491 558.676 242.413 557.637 241.028C549.673 242.413 543.787 240.682 540.671 232.371C539.286 228.908 535.477 227.523 535.131 223.714C536.516 221.983 537.901 220.251 539.286 218.52C538.94 218.174 538.593 217.827 538.247 217.135C536.17 218.174 534.438 218.866 533.053 219.559C530.976 215.057 528.552 210.555 526.128 205.361C526.128 205.015 527.167 204.322 527.86 203.63C526.821 202.937 525.782 202.591 524.743 201.898C525.436 196.012 528.552 192.895 533.746 190.817C535.131 190.471 536.516 188.393 537.208 187.008C537.555 185.969 536.516 184.238 535.477 183.545C531.322 180.775 527.167 178.005 523.012 175.581C527.86 172.811 531.668 175.927 536.17 178.351C535.477 173.849 532.361 171.425 528.206 172.118C528.552 170.733 528.552 169.694 528.898 168.309C525.436 168.655 521.973 169.001 517.818 169.348C518.511 166.231 519.55 164.5 519.55 162.422C519.55 160.691 518.857 158.959 518.165 157.228C516.78 154.111 515.395 150.995 513.663 147.878C512.625 145.8 511.24 143.723 509.508 141.991C506.738 139.221 504.315 136.105 501.198 134.719C498.082 132.988 493.927 132.295 490.118 132.295C483.193 132.295 476.268 133.334 469.344 133.681C468.305 133.681 466.92 133.681 465.881 133.334C461.726 130.564 457.917 127.447 452.724 123.985C456.879 123.292 460.687 122.6 465.535 121.561C458.264 118.79 450.992 119.137 447.184 112.211C455.84 109.787 464.15 108.056 472.46 105.285C475.23 104.247 476.961 101.13 479.731 98.706C475.23 97.6671 472.114 96.9746 468.651 96.282C468.651 95.9357 468.651 95.2432 468.651 94.8969C476.615 92.1266 483.54 86.2398 493.581 87.2787C492.888 78.2753 500.852 79.3141 505.7 77.5827C509.508 76.1976 513.663 76.1976 517.472 75.505C520.935 74.8125 524.051 74.8125 526.128 78.6216C526.475 78.9679 527.513 79.3141 529.245 79.6604C528.206 77.929 527.513 76.8902 527.167 75.8513C527.513 75.505 527.513 75.1588 527.86 74.8125C531.668 76.5439 535.823 78.2753 539.632 80.0067C539.978 79.6604 540.325 78.9679 541.017 78.6216C540.325 78.2753 538.94 78.2753 538.593 77.5827C537.901 76.5439 537.901 75.1588 537.555 74.1199C538.593 73.7736 539.632 73.4273 540.671 73.4273C546.211 75.1588 551.751 76.8902 557.291 78.6216C558.676 78.9679 560.061 79.6604 562.484 80.6993C562.484 77.2365 562.484 74.1199 562.484 71.0034C562.831 71.0034 563.869 70.6571 565.254 70.6571C563.177 69.9645 561.446 69.6182 559.368 68.9257C564.562 66.1554 569.409 64.424 574.949 66.848C577.719 67.8868 580.836 68.5794 583.606 68.5794C584.991 68.5794 586.029 66.5017 587.414 65.8091C588.453 65.1165 589.838 64.0777 591.223 63.7314C595.378 63.0388 599.187 62.3463 603.342 62C607.151 62.6926 611.652 62.6926 615.807 62.6926Z" fill="#ADE0F1" stroke="#6DCFF6" stroke-width="0.4252"/>
<path fill-rule="evenodd" clip-rule="evenodd" d="M662.204 375.732C664.628 376.425 667.052 376.771 669.129 377.464C679.517 379.195 687.134 370.884 697.175 370.538C707.909 370.192 718.643 369.153 728.684 368.46C728.684 372.27 728.684 374.694 728.684 377.118C729.03 377.118 729.723 377.118 730.069 377.464C728.684 379.195 727.299 381.273 725.568 384.043C731.108 386.121 735.955 387.852 741.149 389.584C743.573 390.623 745.65 392.354 748.074 393.393C752.921 395.471 757.769 397.548 762.616 399.28C763.309 399.626 765.732 396.856 766.079 395.471C767.117 389.93 769.541 388.199 775.081 389.237C783.391 391.315 791.355 393.393 799.665 395.124C802.089 395.471 804.512 395.124 806.936 395.124C810.052 395.124 813.169 394.778 816.285 395.471C820.44 396.509 823.556 395.471 825.633 391.661C829.442 385.428 832.558 379.195 830.135 370.884C828.403 371.231 825.98 371.577 823.556 371.923C821.132 372.27 819.055 372.962 816.977 372.616C813.515 371.923 810.745 370.538 806.936 372.962C803.127 375.386 793.086 366.729 793.086 361.881C793.086 358.765 791.701 355.302 790.662 352.185C789.624 350.107 784.084 350.454 782.699 352.878C782.006 353.917 781.314 354.955 780.275 356.341C781.314 358.418 783.045 360.842 784.43 363.612C781.314 365.344 777.851 367.075 779.236 371.577C774.389 372.27 772.657 369.499 771.272 365.344C770.58 362.92 768.849 361.189 767.81 359.111C766.425 356.687 764.001 354.263 764.001 351.493C763.655 346.645 760.885 344.221 757.076 341.797C752.921 339.026 749.459 335.564 745.65 332.447C743.573 330.716 740.803 329.33 738.379 327.945C738.033 327.599 736.301 328.638 735.955 328.984C735.609 330.716 735.609 333.14 736.301 334.178C741.495 340.412 747.035 346.991 754.999 350.454C756.73 351.146 758.115 352.531 759.846 353.224C759.846 353.57 759.5 353.917 759.5 354.263C758.461 354.263 757.422 354.263 756.384 353.917C753.614 353.224 751.883 352.878 753.268 357.033C753.96 358.765 752.229 361.535 750.844 363.612C749.459 354.609 742.88 351.146 736.648 347.337C732.839 344.913 729.376 341.104 726.953 337.295C724.529 333.832 721.759 333.14 718.643 335.217C713.795 338.334 709.294 340.758 703.408 337.295C702.369 336.949 698.214 339.719 698.214 341.104C697.868 344.567 696.483 345.952 693.713 347.683C688.865 350.454 684.364 353.917 684.71 360.842C685.056 364.651 678.132 369.846 673.977 370.192C670.86 370.538 668.09 370.884 664.974 371.577C662.204 372.27 659.088 373.655 657.357 369.499C657.01 368.807 654.587 368.807 652.855 369.153C650.085 369.846 649.047 369.153 648.354 366.383C646.969 361.881 646.277 358.072 648.354 353.57C649.393 351.146 648.7 347.683 648.354 344.567C647.662 339.026 650.085 336.256 655.625 336.602C660.819 336.949 666.359 337.295 671.553 337.641C676.747 337.988 679.17 336.256 679.517 331.062C680.209 325.868 676.4 319.635 671.553 317.557C669.475 316.518 667.398 315.479 664.628 313.748C667.052 312.363 668.09 311.324 669.475 310.977C673.63 309.939 678.132 309.246 682.287 308.207C684.018 307.861 686.441 307.515 687.134 306.13C691.289 298.858 700.638 297.126 703.754 288.815C704.446 287.084 707.909 286.045 710.333 285.699C720.374 284.314 720.374 284.66 718.989 275.657C717.258 265.961 717.258 265.961 726.953 261.805C727.299 266.653 727.645 271.155 727.991 276.349C727.299 276.349 725.914 276.695 724.183 277.042C727.645 280.851 730.761 283.967 735.955 280.505C737.686 279.119 740.11 278.081 741.149 281.89C741.149 282.236 743.919 282.582 745.304 282.236C748.42 281.543 751.19 279.812 754.306 279.119C756.384 278.773 758.808 278.427 760.539 278.773C766.079 280.505 770.58 277.734 770.926 271.847C770.926 270.462 770.926 269.077 770.926 267.692C771.619 262.498 775.081 260.766 779.582 263.19C780.621 263.883 781.66 264.229 783.391 264.922C783.391 262.498 783.737 260.42 783.391 258.689C782.352 253.494 784.084 250.724 789.277 250.378C793.086 250.032 797.241 250.378 801.396 250.378C802.781 245.876 800.704 244.145 796.895 244.837C792.394 245.53 787.892 246.569 783.737 247.261C779.929 247.954 776.12 247.954 774.735 243.799C773.004 239.297 771.965 234.795 771.272 229.947C770.926 228.562 773.004 226.484 774.735 225.446C778.197 222.329 782.352 219.905 785.815 217.135C788.585 214.711 788.239 212.633 784.776 211.248C778.89 209.17 773.35 212.979 771.965 218.866C771.272 221.29 768.156 223.714 765.732 225.099C761.577 227.87 756.73 230.294 755.691 236.18C754.999 239.989 754.653 243.106 758.808 244.837C760.193 245.53 760.885 246.915 762.616 248.647C760.192 251.071 757.422 252.802 755.691 255.226C753.96 257.996 752.575 261.459 752.229 264.922C751.536 268.385 750.151 270.462 746.689 270.462C745.65 270.462 744.265 271.155 743.919 271.847C741.841 276.003 739.418 274.618 737.686 272.54C735.955 273.925 734.224 275.31 731.454 277.388C732.493 271.501 734.57 267 733.878 263.19C733.185 258.689 730.761 254.533 729.03 250.724C725.221 253.494 721.759 256.957 717.604 258.689C715.18 259.728 711.371 257.996 707.563 257.304C708.948 254.533 709.64 253.494 710.679 251.763C709.294 251.763 708.255 251.763 706.178 251.763C707.563 250.032 708.601 248.993 709.294 248.3C704.446 241.375 705.831 236.527 713.103 232.718C715.873 231.332 717.604 228.562 720.028 226.484C720.72 225.792 721.413 225.446 722.105 224.753C723.49 223.714 724.875 222.329 726.26 221.29C726.953 220.598 727.645 219.559 728.338 219.559C734.916 218.866 735.955 212.979 738.725 208.824C740.803 205.361 743.573 202.245 746.343 199.474C748.766 197.05 751.883 194.626 754.306 191.51C752.575 191.856 750.498 192.549 748.42 193.241C747.728 192.549 746.343 191.856 745.304 190.817C746.689 189.432 749.113 189.432 756.384 189.778C755.691 185.969 756.73 184.93 760.885 184.584C765.732 183.892 770.58 181.468 775.081 179.736C776.12 179.39 776.812 178.005 778.197 176.62C780.967 179.736 786.161 171.772 790.316 177.659C791.355 176.966 792.394 175.927 793.779 174.542C794.471 175.581 794.817 176.273 795.51 177.312C802.089 169.001 806.244 179.044 812.13 178.697C811.091 179.736 810.052 180.775 808.321 182.16C815.246 183.892 821.825 184.93 827.711 187.008C836.021 190.125 843.985 193.588 851.948 197.397C854.718 198.782 855.411 201.552 852.295 204.669C847.793 209.17 843.292 210.209 837.406 208.478C832.558 207.093 827.365 206.054 822.171 205.707C822.863 206.4 823.556 207.093 824.248 207.785C825.633 209.863 827.365 211.594 827.711 213.672C828.75 219.559 833.597 223.368 839.83 222.675C838.445 220.598 836.713 218.52 835.328 216.442C835.675 216.096 836.021 215.75 836.367 215.403C840.868 216.788 845.023 217.827 849.525 219.212C849.871 218.866 849.871 218.174 850.217 217.827C849.525 216.442 848.832 215.057 847.793 212.979C852.641 210.555 856.45 205.707 863.375 207.439C866.837 208.478 867.876 206.4 866.491 203.283C866.145 202.245 865.452 200.859 865.452 199.821C865.452 197.397 865.452 194.973 865.452 191.51C868.222 192.202 871.685 192.895 874.455 194.28C874.801 194.28 873.762 197.397 874.108 198.782C874.108 200.859 874.455 202.591 874.801 204.669C876.532 204.322 879.302 204.322 879.995 203.283C883.803 196.012 891.767 195.665 897.999 192.549C898.692 192.202 899.731 192.549 900.423 192.202C905.617 189.778 905.617 189.778 908.041 194.28C913.234 192.895 918.082 191.856 923.276 190.125C926.738 189.086 928.816 189.086 928.816 193.241C935.048 192.202 932.278 187.701 932.971 183.545C936.433 183.545 940.242 182.506 943.704 183.892C951.322 186.316 958.939 190.125 966.557 193.241C969.673 190.125 966.21 188.047 964.479 186.662C961.363 184.584 958.939 182.506 960.67 178.351C961.017 177.312 959.632 175.927 959.632 175.581C962.748 170.733 964.826 164.846 968.634 162.422C972.097 160.344 977.637 161.73 982.138 161.383C982.138 164.5 982.138 167.616 982.138 170.733H982.484C982.83 174.196 983.177 177.659 983.869 181.121C984.562 184.584 984.908 188.047 986.293 191.51C988.024 195.665 985.947 198.435 983.177 200.513C979.714 202.937 975.559 204.669 970.712 207.093C974.52 207.439 978.675 209.17 980.753 207.785C985.6 205.015 991.833 202.245 990.448 194.626C989.755 189.086 994.603 191.164 997.719 188.393C995.642 188.393 994.257 188.393 992.872 188.393C988.024 188.74 986.293 186.662 986.985 181.814C987.332 179.044 986.639 176.273 986.639 173.503C986.985 171.425 987.678 169.348 988.717 167.616C990.102 165.539 991.833 163.807 993.564 161.383C993.91 162.422 994.603 164.153 994.603 165.539C993.91 171.772 995.295 173.157 1002.57 172.811C1000.49 171.772 998.758 170.733 997.027 169.694C997.027 169.348 997.027 169.001 997.027 168.309C999.104 167.963 1001.18 167.616 1003.26 167.27C1002.57 164.5 1005.68 163.115 1011.22 164.846C1014.69 165.885 1018.15 167.27 1021.61 168.309C1022.3 167.27 1023 166.577 1023.69 165.539C1022.3 165.192 1020.92 164.5 1019.88 164.5C1015.72 164.5 1015.72 161.729 1014.69 158.613C1013.3 154.804 1014.69 154.111 1018.15 153.765C1024.03 153.419 1029.92 152.38 1036.15 151.687C1037.19 151.687 1037.88 151.341 1038.92 150.995C1038.23 146.493 1040.31 143.377 1044.46 141.645C1051.39 138.875 1058.31 136.105 1065.24 134.027C1068.35 132.988 1071.82 134.027 1075.28 133.681C1080.47 132.988 1085.67 131.949 1090.86 130.91C1093.28 130.564 1095.71 129.871 1098.13 129.525C1100.56 121.561 1110.6 117.752 1119.6 121.907C1118.56 122.6 1117.52 123.292 1116.48 123.985C1119.25 125.37 1122.02 126.755 1124.79 128.14C1124.45 128.486 1124.45 128.833 1124.1 129.179C1128.6 128.486 1133.1 127.794 1137.95 127.447C1143.49 126.755 1146.26 132.295 1150.41 134.373C1151.11 134.719 1149.72 138.529 1149.03 140.606C1148.68 141.299 1147.3 141.991 1146.26 142.338C1137.95 146.839 1129.64 150.995 1121.68 155.496C1120.98 155.843 1119.94 156.535 1119.6 157.92C1122.37 157.574 1125.48 157.574 1127.91 156.882C1130.68 156.189 1133.45 154.458 1136.22 153.419C1135.53 153.072 1135.18 152.726 1133.1 151.687C1136.22 151.341 1138.3 150.648 1140.37 150.995C1150.07 152.034 1160.11 152.726 1169.46 155.15C1173.96 156.535 1178.11 158.959 1183.31 158.959C1186.42 158.959 1190.58 160.344 1191.27 154.458C1191.27 153.765 1195.77 152.726 1197.85 153.072C1201.31 153.419 1204.78 155.15 1208.24 156.189C1213.43 157.574 1215.51 160.344 1215.51 165.539C1215.51 168.309 1214.47 171.425 1218.63 172.811C1222.78 174.542 1224.86 172.811 1226.94 169.694C1227.63 169.001 1228.32 168.309 1228.32 167.963C1238.02 171.425 1247.36 171.425 1257.06 169.694C1256.71 167.963 1256.37 165.885 1256.02 164.153C1265.37 157.228 1275.41 161.037 1285.11 163.807C1288.22 164.5 1291.68 164.153 1294.8 164.846C1296.19 165.192 1297.22 166.577 1297.57 167.963C1301.38 170.04 1304.5 173.157 1308.65 174.196C1312.11 175.235 1316.27 174.542 1320.08 174.542C1323.54 174.542 1327 173.849 1330.46 173.849C1334.62 173.849 1338.43 175.235 1340.16 179.39C1341.54 182.506 1343.62 183.892 1347.08 183.545C1355.05 183.199 1363.01 183.199 1370.98 183.545C1373.05 183.545 1374.78 185.969 1376.86 187.008C1378.59 187.701 1380.67 188.047 1382.4 188.74C1382.75 186.662 1382.75 184.93 1383.09 182.16C1384.83 181.814 1386.9 181.468 1388.63 181.468C1391.4 181.468 1393.83 182.16 1396.6 181.814C1402.83 181.121 1408.37 182.853 1413.91 185.277C1420.14 188.047 1426.72 189.778 1432.61 192.895C1436.07 194.626 1438.84 198.089 1441.61 201.206C1442.65 202.245 1443.34 204.322 1443.69 205.015C1446.11 203.976 1448.19 201.898 1449.57 202.245C1453.73 203.283 1458.58 203.976 1460.31 209.17C1460.65 209.863 1458.58 211.941 1457.54 211.941C1452 212.633 1451.3 216.442 1450.96 221.636C1447.84 220.598 1445.07 219.559 1442.3 218.174C1438.15 216.442 1433.65 214.365 1429.49 212.287C1428.11 211.594 1427.07 209.517 1425.34 207.785C1423.95 210.555 1423.26 214.018 1420.84 215.75C1418.41 217.827 1414.95 218.174 1411.83 219.559C1414.26 222.675 1416.68 225.099 1418.41 228.216C1420.14 231.332 1418.41 234.103 1415.3 233.064C1407.33 230.64 1401.79 236.18 1395.21 238.604C1392.1 239.643 1389.67 242.067 1386.9 244.145C1383.44 246.569 1379.98 248.3 1375.82 246.569C1375.48 246.223 1374.78 246.223 1374.44 246.569C1369.94 247.261 1365.09 247.608 1360.59 248.993C1353.32 250.724 1352.62 251.417 1349.85 257.65C1351.24 262.844 1352.28 267 1353.66 271.501C1348.47 270.809 1346.74 273.233 1347.78 277.734C1348.12 278.773 1346.39 280.851 1345.01 281.197C1342.58 282.236 1340.16 283.275 1340.16 286.738V287.084C1335.66 291.239 1331.16 295.395 1327 299.204C1326.31 299.204 1325.96 298.858 1325.27 298.858C1324.23 290.547 1322.5 281.89 1322.5 273.579C1322.5 267.692 1326.31 263.537 1332.2 260.42C1337.04 257.996 1340.85 253.148 1345.35 249.685C1347.78 247.608 1350.55 245.876 1352.97 244.145C1357.47 241.375 1356.09 236.873 1356.78 232.718C1355.39 233.064 1354.7 233.064 1354.7 233.064C1354.01 238.604 1349.16 239.643 1345.7 242.413C1344.31 243.452 1342.58 243.799 1340.85 244.491C1340.51 242.413 1339.81 240.682 1339.47 238.258C1339.81 238.258 1339.47 238.258 1339.12 238.258C1328.73 234.795 1323.89 242.413 1318.69 248.993C1318 250.032 1319.04 251.763 1319.04 253.494C1315.92 254.187 1312.46 255.572 1308.65 256.265C1307.61 256.611 1305.53 256.265 1305.19 255.226C1302.42 249.685 1298.61 251.071 1293.76 252.456C1289.95 253.841 1285.11 254.187 1280.95 253.494C1275.06 252.456 1269.87 253.494 1265.37 256.957C1261.21 260.42 1257.41 264.229 1252.9 268.038C1248.4 271.847 1243.56 275.31 1239.4 278.773C1241.82 280.158 1243.9 281.543 1246.33 282.929C1246.33 282.929 1246.33 282.582 1246.67 282.582C1247.71 283.275 1249.1 283.967 1250.48 285.006C1259.14 281.89 1259.48 281.89 1264.68 292.971C1266.06 289.854 1267.45 286.045 1269.52 281.197C1271.95 291.932 1274.03 301.628 1275.76 310.977C1274.72 310.977 1271.95 310.631 1271.26 311.67C1268.14 316.172 1270.56 320.327 1272.99 324.483C1270.91 324.829 1268.49 325.175 1265.72 325.521C1265.72 316.172 1265.72 306.13 1265.72 296.087C1265.02 296.087 1263.98 295.741 1263.29 295.741C1262.25 298.858 1261.56 301.974 1260.52 305.091C1259.14 308.9 1258.44 313.401 1256.37 316.518C1251.17 323.79 1245.29 330.716 1239.75 337.641C1236.28 341.45 1232.48 343.874 1226.59 342.836C1223.82 342.489 1218.97 345.952 1217.59 348.722C1215.86 351.839 1214.12 354.263 1211.35 355.648C1207.89 357.379 1206.85 359.457 1209.97 362.574C1211.7 364.305 1212.74 366.383 1213.78 368.46C1217.59 376.079 1213.78 381.965 1205.12 382.312C1204.43 382.312 1203.39 382.312 1202.35 381.965C1202.7 378.156 1203.04 374.694 1203.39 371.231C1203.39 370.538 1204.08 369.499 1203.74 369.499C1199.58 366.729 1197.5 361.881 1194.04 358.765C1192.66 357.379 1187.81 360.15 1184.35 360.842C1183.31 361.189 1182.62 361.535 1181.58 361.881C1184 359.111 1186.77 356.687 1182.96 352.531C1180.88 353.917 1178.46 355.648 1176.38 357.033C1174.31 358.418 1172.23 359.457 1170.15 360.496C1169.11 361.189 1168.07 361.881 1167.73 362.574C1167.73 363.266 1168.77 364.651 1169.46 364.998C1171.19 366.383 1173.27 367.422 1175 368.807C1178.46 368.807 1182.62 368.807 1187.46 368.807C1182.96 372.27 1179.5 374.694 1176.38 377.464C1175.34 378.156 1175 380.58 1175.69 381.619C1177.42 384.736 1179.85 387.506 1181.58 390.969C1182.62 392.7 1182.62 394.778 1183.31 396.856C1184 399.28 1181.23 402.396 1184.35 404.82C1185.04 405.166 1183.31 408.629 1182.27 410.361C1179.85 414.17 1177.42 417.979 1175 421.788C1169.8 429.406 1162.53 433.562 1153.88 435.986C1148.68 437.371 1143.49 439.448 1138.64 441.526C1137.6 441.872 1137.26 443.95 1136.56 445.335C1136.56 445.335 1136.22 445.335 1135.87 444.989C1132.06 439.102 1129.99 438.756 1125.48 442.219C1118.91 447.067 1117.52 451.568 1121.68 456.416C1123.75 458.84 1126.18 460.918 1128.25 463.342C1132.41 467.151 1133.1 471.999 1133.1 476.847C1133.1 479.271 1132.06 482.041 1130.68 483.426C1125.83 487.582 1120.29 491.045 1115.1 494.854C1113.37 484.119 1104.02 480.656 1097.44 474.769C1092.59 479.964 1091.55 487.928 1095.02 493.469C1097.79 497.278 1100.9 501.087 1104.36 504.55C1107.13 507.32 1109.56 509.398 1109.56 514.246C1109.56 517.362 1111.63 520.479 1112.67 523.595C1107.83 523.942 1101.25 520.132 1099.17 515.631C1096.75 510.09 1095.36 503.857 1091.55 499.702C1087.74 494.854 1087.74 490.698 1088.78 485.504C1089.82 479.964 1086.36 467.151 1082.2 460.918C1081.86 460.918 1081.51 460.918 1081.17 460.918C1073.89 466.112 1073.2 465.766 1071.47 457.109C1070.78 452.953 1070.09 448.452 1065.24 446.028C1063.51 444.989 1062.81 441.872 1061.43 439.795C1060.39 438.063 1059.01 435.986 1057.27 433.562C1055.2 439.102 1051.04 440.141 1046.89 439.795C1043.42 439.448 1042.04 440.834 1040.65 443.604C1039.96 445.335 1037.88 446.72 1036.15 448.106C1032.34 451.222 1028.54 454.339 1024.73 457.455C1023.34 458.84 1022.3 460.572 1020.57 462.996C1014.34 465.073 1012.61 464.035 1012.61 474.077C1012.61 479.617 1010.53 485.85 1008.8 491.045C1008.11 493.122 1004.64 495.2 1001.87 495.546C1000.84 495.893 998.412 492.43 997.373 490.352C992.525 478.578 987.678 466.805 983.523 454.685C981.792 449.837 982.138 444.296 981.445 438.756C975.213 445.335 973.828 445.335 967.595 437.371C968.634 436.678 969.673 435.986 970.712 435.293C970.712 435.293 970.712 434.947 970.366 434.947C966.903 432.523 963.094 430.445 959.632 427.675C956.516 425.251 953.745 424.212 949.937 424.212C940.588 424.212 931.239 423.173 921.891 422.481C920.852 422.481 919.813 421.788 919.467 421.095C917.389 416.247 913.581 417.633 909.426 417.633C902.847 417.633 896.268 415.555 892.806 408.629C891.421 405.859 890.382 402.742 886.227 403.089C884.842 403.435 883.111 403.089 882.418 403.781C881.726 404.474 881.726 406.552 882.418 407.59C884.496 410.707 886.919 413.477 888.997 416.248C890.036 417.633 890.728 419.018 891.767 421.095C892.46 421.095 893.844 420.749 895.922 420.749C896.268 423.519 896.268 426.29 896.614 428.714C905.617 431.484 910.118 424.905 915.658 419.018C915.658 425.597 918.774 429.06 923.968 431.138C926.738 432.177 928.816 434.6 931.586 436.332C923.622 444.643 919.467 453.646 910.811 458.494C910.811 458.494 910.464 458.494 910.464 458.84C897.999 464.035 885.535 469.229 873.416 474.423C872.377 474.769 871.338 475.462 869.953 476.154C866.491 478.232 862.682 476.847 861.643 473.038C859.566 465.42 859.22 456.763 852.987 450.53C844.677 442.219 842.946 429.753 834.982 421.095C831.173 416.94 829.788 410.361 821.825 411.746C823.902 415.901 826.672 420.403 828.057 424.905C830.481 433.215 838.445 438.756 837.752 448.106C837.752 449.144 839.137 450.53 840.176 451.568C842.946 454.685 846.062 457.455 845.716 462.303C845.716 463.342 847.793 464.727 848.832 465.766C852.641 469.229 856.796 472.345 860.605 475.808C861.297 476.501 862.336 477.54 862.682 478.578C865.106 485.85 865.452 486.197 872.723 484.465C879.648 483.08 886.227 481.695 894.537 479.964C893.845 483.426 893.844 486.543 893.152 489.313C888.651 501.779 881.38 512.514 870.646 520.479C861.99 527.404 854.026 535.023 848.486 544.718C846.062 548.874 842.946 552.683 846.408 558.224C847.101 559.609 848.832 561.34 846.755 563.418C846.062 564.11 847.101 567.227 848.14 568.266C853.333 574.499 851.256 582.463 851.948 589.389C852.295 594.237 847.101 596.661 842.946 599.431C838.445 602.548 833.597 606.011 829.442 609.82C828.403 610.859 828.057 613.629 828.403 615.706C828.75 619.862 829.788 624.017 829.442 627.826C829.096 629.904 826.326 631.982 824.248 633.021C821.132 634.752 818.709 636.137 819.055 640.639C819.055 643.063 818.362 645.833 816.631 647.565C810.745 654.49 804.859 661.416 798.28 667.995C794.471 672.151 788.931 673.536 783.391 673.536C779.582 673.536 775.427 674.575 771.619 674.921C768.849 675.267 765.386 675.613 762.962 674.575C761.231 674.228 759.154 671.112 759.5 669.727C761.231 661.762 756.384 655.875 752.575 649.989C748.074 643.063 745.996 636.137 744.265 628.173C742.88 621.94 740.11 615.707 736.994 610.166C730.761 598.739 732.493 588.696 739.764 578.654C740.456 577.615 740.803 576.23 740.803 574.845C738.379 561.686 737.34 547.835 725.568 538.485C722.451 535.715 719.335 532.599 722.451 527.404C723.49 525.673 723.49 523.249 723.836 521.171C726.26 513.207 722.798 508.705 714.834 509.051C713.103 509.051 711.371 509.744 708.948 510.09C703.408 498.663 694.751 500.741 685.403 504.896C684.71 505.242 683.671 505.589 682.979 505.935C678.478 507.666 673.977 508.705 668.783 507.666C665.32 506.974 661.165 507.32 658.049 508.705C653.548 510.436 649.739 509.051 646.277 506.627C642.468 504.203 638.659 501.433 635.197 498.317C633.465 496.585 632.773 493.815 631.042 491.737C627.579 487.236 623.424 483.426 619.615 478.925C618.577 477.886 617.192 476.501 617.192 475.116C616.845 464.727 617.192 454.339 617.192 443.95C617.538 443.95 618.231 443.604 618.577 443.604C617.192 442.911 615.807 441.872 613.729 440.487C616.153 435.986 618.577 431.484 621 426.982C622.732 423.519 624.117 419.71 626.54 416.94C630.003 413.131 634.158 410.361 637.967 406.898C641.083 404.128 644.545 401.704 644.199 396.163C643.853 392.354 645.584 388.545 649.393 386.467C653.894 383.697 657.357 380.58 659.434 375.732C659.78 374.694 661.165 374.001 662.204 372.962C662.204 374.347 662.204 375.04 662.204 375.732ZM796.895 351.839C797.241 352.531 797.587 353.224 797.587 353.917C799.319 352.878 801.396 352.185 803.127 351.146C804.166 350.8 804.859 349.761 805.897 349.761C809.014 349.069 812.13 348.722 814.9 347.683C821.132 345.259 826.672 345.26 832.212 349.069C837.752 352.878 848.832 351.493 853.68 346.645C849.871 338.334 841.907 334.525 833.943 330.023C838.098 328.292 840.868 326.56 839.137 321.366C834.982 322.751 831.52 324.483 826.672 326.214C829.442 327.599 831.173 328.638 833.597 329.677C829.788 331.062 826.326 332.447 823.21 333.832C821.479 331.754 820.093 330.023 818.708 328.292C819.055 327.599 819.401 326.56 820.44 325.175C816.977 324.829 813.515 323.444 811.091 324.483C808.321 325.868 806.936 329.33 805.205 332.101C803.474 334.871 804.512 339.373 799.665 340.412C799.319 340.412 799.319 343.874 800.011 345.26C800.704 346.991 801.742 348.376 802.781 349.761C800.357 350.454 798.626 351.146 796.895 351.839Z" fill="#ADE0F1" stroke="#6DCFF6" stroke-width="0.4252"/>
<path fill-rule="evenodd" clip-rule="evenodd" d="M1154.57 673.882C1156.99 661.07 1156.99 661.07 1146.61 635.791C1150.07 636.83 1150.76 636.483 1150.07 632.674C1149.03 629.212 1150.07 625.056 1150.07 621.247C1150.07 620.554 1150.76 619.862 1151.11 619.862C1157.69 617.092 1163.92 613.975 1170.5 611.897C1177.08 609.82 1181.92 607.049 1184.69 600.47C1185.39 598.739 1186.08 596.661 1189.19 598.046C1189.89 598.392 1192.31 595.276 1193.7 593.544C1196.12 591.12 1198.54 587.658 1201.66 585.926C1203.04 585.234 1206.51 586.619 1208.58 587.658C1211.01 589.043 1212.74 589.389 1213.78 586.272C1215.86 580.386 1220.36 577.962 1226.59 577.615C1225.55 575.884 1224.86 574.845 1224.17 573.806C1230.74 575.191 1237.32 576.577 1244.59 578.308C1243.56 580.039 1242.86 581.424 1241.82 582.463C1239.4 586.272 1239.75 590.082 1243.56 592.506C1248.06 595.276 1252.9 597.7 1257.41 600.47C1261.21 597.353 1262.95 593.891 1263.29 589.043C1263.64 583.502 1264.68 577.962 1265.72 572.075C1266.41 572.075 1267.1 572.075 1267.79 572.075C1268.83 574.845 1269.87 577.269 1271.26 580.039C1274.37 585.926 1278.87 591.12 1280.6 597.353C1282.68 604.625 1287.53 608.435 1292.72 612.59C1294.11 613.629 1294.8 616.053 1295.84 617.438C1296.88 618.823 1298.26 620.208 1300.34 621.247C1301.73 623.671 1302.42 626.441 1304.15 627.826C1312.81 636.137 1313.5 646.179 1310.73 656.914C1309.69 661.07 1306.92 664.879 1305.19 669.034C1302.76 674.575 1300.69 680.115 1297.92 685.309C1296.88 687.387 1295.15 689.811 1293.07 690.85C1287.53 693.62 1282.34 695.005 1275.76 694.313C1269.87 693.966 1264.68 693.274 1259.48 690.85C1258.44 690.504 1257.06 689.811 1256.71 689.118C1254.29 684.963 1252.21 680.461 1250.13 675.96C1248.06 676.999 1246.67 677.345 1244.94 678.037C1245.63 675.613 1246.33 673.536 1247.02 671.458C1246.67 671.112 1246.33 671.112 1245.98 670.765C1244.59 672.151 1243.21 673.882 1241.48 674.921C1240.44 675.613 1238.02 675.267 1237.67 674.921C1232.13 662.801 1224.86 661.762 1214.12 662.801C1208.58 663.147 1202.35 664.186 1197.85 666.956C1190.93 671.112 1183.65 673.189 1175.69 674.228C1175 674.228 1174.31 674.921 1173.27 675.267C1164.61 678.384 1163.23 678.384 1154.57 673.882Z" fill="#ADE0F1" stroke="#6DCFF6" stroke-width="0.4252"/>
<path fill-rule="evenodd" clip-rule="evenodd" d="M407.711 72.3884C435.757 66.5016 463.804 66.8479 492.196 74.4661C490.465 78.9678 485.963 78.9678 482.501 80.0067C478.692 81.0455 474.883 82.0844 471.421 83.8158C474.191 83.8158 476.961 83.8158 479.731 83.8158C479.731 84.1621 479.731 84.1621 480.077 84.5083C477.653 85.5472 474.883 86.586 472.46 87.6249C466.574 90.3952 458.956 92.4729 455.147 96.9745C450.992 101.822 447.876 100.437 443.721 99.7448C441.99 105.285 436.796 102.515 432.295 104.246C434.372 104.939 435.757 104.939 438.181 105.632C436.104 106.324 434.719 106.67 433.68 106.67C435.411 107.709 436.796 108.748 440.259 110.48C435.757 113.25 431.949 114.981 428.832 117.059C426.062 118.79 423.292 121.214 420.522 123.292C420.869 123.638 420.869 123.985 421.215 124.677C422.946 125.023 424.677 125.023 426.409 125.37C425.024 128.833 416.021 133.334 414.29 130.91C409.789 125.716 404.595 129.871 399.748 129.179C394.208 128.14 388.321 128.486 382.781 128.486C381.743 128.486 381.05 128.486 379.665 128.486C380.011 126.409 380.358 125.023 380.704 123.292C382.781 123.292 384.859 122.946 386.59 122.946C386.59 121.214 386.59 119.483 386.59 117.752C388.668 118.098 391.438 117.405 392.823 118.79C396.978 122.253 400.44 121.907 405.288 118.444C401.133 118.79 397.324 120.522 395.593 115.674C395.246 114.635 392.13 114.981 390.399 114.635C389.014 114.289 387.629 114.289 385.898 113.942C391.784 107.017 399.055 108.056 406.326 109.094C406.326 108.748 406.326 108.056 405.98 107.709C403.902 107.709 401.479 107.363 399.748 107.363C398.709 105.632 398.016 103.9 397.324 102.515C394.554 104.593 392.823 106.324 390.745 107.363C387.975 108.748 385.205 110.133 382.435 112.557C380.011 114.635 375.164 114.289 371.355 114.289C369.97 114.289 368.239 113.25 366.854 112.557C360.968 109.787 360.621 108.056 366.161 103.554C363.738 103.9 362.353 103.9 360.968 104.593C355.774 106.324 353.004 103.208 350.926 99.3985C350.234 98.0134 350.926 94.8968 351.965 93.858C354.043 91.7803 356.813 90.3952 359.236 88.6637C365.815 82.7769 369.278 86.9323 373.433 91.7803C373.779 93.1654 375.856 93.1654 377.241 93.858C378.626 94.5506 380.011 95.2431 381.396 95.9357C388.321 90.3952 386.244 103.208 391.091 101.822C390.745 100.091 390.053 98.3597 389.36 95.9357C401.133 96.9745 412.212 95.9357 422.254 90.7414C415.329 89.01 409.096 97.3208 402.171 91.7803C397.67 94.8968 393.861 94.8968 388.668 92.1266C384.859 89.7026 379.665 89.3563 375.856 85.8935C374.125 84.1621 371.701 83.4695 369.278 82.0844C369.278 82.0844 369.624 81.3918 370.316 81.3918C374.818 80.353 379.319 77.929 383.474 78.6215C388.321 79.3141 391.438 76.5438 395.246 75.8513C397.67 75.1587 400.786 76.1976 403.556 76.8901C406.672 77.5827 409.442 78.6215 412.905 78.6215C411.174 77.2364 409.442 75.8513 407.711 74.8124C407.711 73.7736 407.711 73.081 407.711 72.3884Z" fill="#ADE0F1" stroke="#6DCFF6" stroke-width="0.4252"/>
<path fill-rule="evenodd" clip-rule="evenodd" d="M463.457 225.446C466.92 228.216 470.382 230.986 473.499 233.756C473.152 234.449 473.152 235.141 472.806 235.488C468.997 234.103 464.842 232.717 461.034 231.332C459.995 230.986 458.61 229.601 457.917 229.947C452.724 232.717 452.031 227.523 450.646 225.446C448.222 222.675 442.682 217.827 439.22 218.52C436.796 218.866 434.719 219.212 432.295 219.905C428.832 220.598 426.062 219.559 424.677 216.096C429.179 210.209 436.45 213.326 441.99 210.555C439.912 207.439 441.297 205.707 444.414 203.976C445.799 203.283 447.184 199.821 446.837 199.128C444.414 195.665 441.644 192.202 438.527 189.432C437.142 188.393 434.372 189.432 431.256 189.778C432.641 188.393 433.334 187.354 434.719 186.316C431.256 183.892 427.447 181.121 423.639 178.351C422.946 182.853 419.83 183.892 416.021 183.199C412.559 182.506 409.442 180.775 405.98 180.429C402.171 180.082 398.016 180.775 393.515 180.775C392.13 175.927 381.743 182.853 380.704 173.503C382.435 173.157 384.166 173.157 385.551 172.811C385.551 172.464 385.551 172.464 385.205 172.118C380.704 170.733 375.51 170.387 377.588 162.768C379.319 156.189 382.435 152.38 389.36 151.687C391.784 151.341 393.861 151.687 395.939 151.687C394.554 155.15 393.515 158.613 392.13 162.076C390.399 167.27 396.285 167.963 397.67 172.811C397.67 170.733 398.016 169.694 397.67 169.348C393.515 166.231 394.208 159.998 395.593 158.267C398.363 154.804 403.556 153.072 408.058 151.341C409.443 150.995 411.52 153.419 413.597 154.804C417.752 149.263 428.832 151.341 434.026 158.613C432.641 158.959 431.256 158.959 429.179 159.305C434.719 160.691 439.912 161.037 441.297 167.27C441.644 168.309 445.452 168.655 447.876 169.001C449.261 169.348 452.031 168.655 452.377 169.694C454.801 173.503 458.956 173.157 462.072 174.888C463.111 175.234 464.15 175.927 465.189 176.273C464.842 177.312 464.496 178.351 463.804 179.736C471.767 176.62 469.69 181.814 470.036 185.969C468.651 185.969 467.612 186.316 466.227 186.316C466.227 187.701 465.881 189.086 465.881 190.471C475.23 194.626 484.578 199.128 493.927 203.283C492.196 206.054 490.811 208.131 489.772 210.555C488.387 211.594 487.002 212.633 485.617 213.672C483.54 215.403 479.731 214.018 478.692 210.902C477.653 207.093 473.499 207.785 471.421 205.361C470.729 207.439 468.997 210.209 469.69 211.594C471.075 214.364 473.499 216.442 476.269 218.174C480.077 220.944 482.155 224.407 479.731 227.869C479.038 228.908 476.961 229.601 475.576 229.255C472.114 228.216 468.651 226.484 465.189 224.753C463.804 224.753 463.804 225.099 463.457 225.446ZM425.024 161.037C420.522 159.305 417.406 158.267 414.636 157.228C414.636 159.652 414.636 162.422 414.636 165.192C418.099 163.807 421.215 162.768 425.024 161.037Z" fill="#ADE0F1" stroke="#6DCFF6" stroke-width="0.4252"/>
<path fill-rule="evenodd" clip-rule="evenodd" d="M269.558 156.535C276.483 154.111 276.483 154.111 278.56 160.344C281.677 157.228 284.793 158.267 287.909 160.691C291.718 163.461 292.757 163.115 293.103 157.92C298.643 158.613 300.72 163.461 302.452 168.309C303.144 167.963 303.49 167.616 304.183 167.27C303.49 165.192 302.798 163.115 302.105 161.383C300.374 156.189 301.067 155.496 306.26 156.189C306.953 156.189 307.645 156.189 308.338 156.189C307.992 154.804 307.992 153.765 307.299 151.341C310.762 152.38 313.532 153.072 316.302 153.765C315.263 155.496 313.878 157.228 312.493 159.652C313.878 163.115 315.609 167.963 318.379 172.464C319.418 174.542 322.188 175.581 324.612 176.966C326.689 178.351 329.113 179.736 331.19 181.121C330.844 181.468 330.844 182.16 330.498 182.506C329.113 182.506 327.728 182.506 326.343 182.506C325.304 188.393 321.842 190.817 316.648 188.74C311.454 186.662 306.953 186.316 301.413 188.74C295.873 191.164 289.294 191.164 283.408 191.856C282.369 191.856 280.638 191.51 280.292 190.817C279.253 186.316 275.444 187.354 272.328 186.316C269.212 185.277 266.442 183.892 263.672 182.506C263.672 181.814 264.018 180.775 264.018 180.082C270.597 179.39 277.175 178.697 283.754 178.005C283.754 177.658 283.754 177.312 283.754 176.966C280.292 176.966 276.483 176.966 273.02 176.966C270.943 176.966 268.519 177.658 266.442 176.966C263.326 176.273 260.209 174.888 262.979 170.387C260.902 169.348 259.171 167.963 256.747 166.924C258.132 164.846 259.171 163.461 260.556 161.383C259.517 160.691 258.132 159.998 257.786 159.998C255.362 162.076 252.592 164.153 251.207 166.577C248.783 171.079 242.204 173.503 238.049 170.04C230.778 164.5 230.432 161.383 234.587 153.072C236.318 149.61 235.972 144.762 241.512 145.108C244.282 145.108 247.052 145.454 249.822 145.8C253.284 146.147 256.747 145.8 260.209 146.839C263.672 147.878 266.788 149.956 269.558 152.034C270.597 152.726 269.904 155.15 269.558 156.535Z" fill="#ADE0F1" stroke="#6DCFF6" stroke-width="0.4252"/>
<path fill-rule="evenodd" clip-rule="evenodd" d="M1247.71 560.301C1249.1 559.262 1250.13 557.877 1251.87 556.492C1250.83 552.337 1248.75 549.22 1244.25 547.835C1240.79 546.796 1237.67 545.411 1234.55 544.026C1233.51 543.68 1232.13 542.987 1231.44 543.333C1226.24 545.757 1226.94 541.602 1226.24 538.485C1228.32 538.139 1230.05 537.793 1231.78 537.447C1231.78 537.1 1231.78 536.408 1231.78 536.061C1229.71 536.061 1227.63 536.408 1224.86 536.408C1224.51 535.023 1223.82 533.291 1223.13 531.214C1225.55 530.867 1228.32 529.482 1230.74 530.175C1232.13 530.521 1233.17 532.945 1233.86 534.676C1234.55 536.408 1234.21 536.408 1239.05 540.563C1243.9 533.984 1249.79 532.599 1257.06 536.408C1260.87 538.485 1265.37 538.485 1269.18 540.563C1276.1 544.026 1282.34 548.181 1289.26 552.337C1288.22 554.068 1287.18 555.107 1286.14 556.838C1290.99 561.34 1295.84 565.842 1301.38 570.69C1293.76 569.651 1287.53 568.612 1283.37 562.379C1280.6 558.224 1274.72 558.224 1271.26 562.033C1268.49 565.149 1265.37 565.149 1261.91 564.11C1259.83 563.418 1257.75 562.033 1255.33 561.34C1253.25 560.994 1251.17 561.34 1248.75 561.34C1248.06 561.34 1248.06 560.994 1247.71 560.301Z" fill="#ADE0F1" stroke="#6DCFF6" stroke-width="0.4252"/>
<path fill-rule="evenodd" clip-rule="evenodd" d="M1170.15 507.32C1164.96 511.822 1162.88 517.708 1168.77 522.556C1165.65 528.443 1162.19 533.984 1159.76 539.524C1158.03 543.68 1157.34 544.372 1153.18 542.987C1151.11 541.948 1148.34 541.948 1145.91 541.602C1142.8 541.256 1139.33 540.909 1136.22 540.563C1135.87 540.563 1135.18 540.217 1134.83 539.871C1131.37 536.408 1129.64 524.98 1131.72 520.132C1138.64 522.21 1141.76 515.977 1146.61 513.207C1151.8 510.437 1155.61 505.589 1160.46 501.779C1161.49 501.087 1163.92 500.741 1164.96 501.433C1167.03 502.818 1168.42 504.896 1170.15 507.32Z" fill="#ADE0F1" stroke="#6DCFF6" stroke-width="0.4252"/>
<path fill-rule="evenodd" clip-rule="evenodd" d="M884.496 579C888.997 580.386 891.421 586.619 889.689 592.159C888.651 595.276 887.612 598.739 886.573 601.855C884.15 609.82 881.726 617.784 879.302 625.749C877.917 630.943 873.762 633.367 868.915 633.713C867.183 633.713 864.76 632.674 864.067 631.289C861.643 626.441 859.566 621.247 862.682 616.399C865.452 612.244 865.798 608.088 864.067 603.24C862.682 598.739 865.106 595.276 869.607 593.544C872.377 592.506 875.493 591.12 877.225 589.043C880.341 585.926 882.072 582.463 884.496 579Z" fill="#ADE0F1" stroke="#6DCFF6" stroke-width="0.4252"/>
<path fill-rule="evenodd" clip-rule="evenodd" d="M666.013 295.395C666.013 291.932 666.013 288.815 666.013 287.084C668.437 285.699 671.553 284.66 671.207 283.967C670.168 280.158 668.09 277.388 662.897 278.773C663.589 276.349 663.935 274.618 664.628 272.194C662.55 273.579 661.512 274.271 661.165 274.618C660.127 273.925 659.434 273.233 658.395 272.54C659.088 269.077 660.127 265.268 661.165 261.113C662.55 254.88 667.744 256.957 671.899 255.226C670.86 257.304 670.168 258.689 669.129 260.42C671.899 260.766 674.323 261.459 677.093 261.805C675.708 264.575 674.323 267.346 673.284 269.077C677.439 274.618 681.248 279.812 684.71 285.006C685.749 286.391 686.442 287.776 687.827 288.469C690.943 289.854 690.25 291.239 689.558 294.356C687.827 300.935 682.979 300.589 678.132 301.281C672.938 301.974 667.744 303.013 661.858 303.013C664.282 301.281 666.705 299.204 669.475 297.472C668.09 296.434 667.052 295.741 666.013 295.395Z" fill="#ADE0F1" stroke="#6DCFF6" stroke-width="0.4252"/>
<path fill-rule="evenodd" clip-rule="evenodd" d="M1244.94 369.153C1246.67 368.46 1249.1 368.46 1250.13 367.422C1252.56 363.959 1254.64 360.15 1256.02 356.341C1257.06 352.878 1258.1 349.761 1262.25 348.722C1265.02 353.917 1266.75 358.764 1262.6 363.959C1260.87 366.036 1260.18 369.153 1260.52 371.923C1260.87 378.503 1256.37 379.195 1252.21 379.888C1248.06 380.58 1243.9 380.234 1241.48 384.389C1241.13 384.736 1240.09 385.428 1239.75 385.082C1235.59 383.004 1233.17 386.813 1229.71 387.852C1228.32 388.199 1226.94 387.852 1225.55 387.852C1225.55 387.506 1225.55 386.813 1225.2 386.467C1226.59 385.428 1227.97 384.043 1230.05 381.965C1226.59 383.004 1224.17 383.697 1221.74 384.389C1224.86 387.852 1224.17 393.393 1220.36 395.47C1220.01 395.817 1218.63 395.817 1218.63 395.47C1217.59 392.354 1214.82 387.506 1215.51 386.813C1220.36 382.312 1224.86 376.771 1232.13 375.732C1232.48 375.732 1232.82 375.386 1233.17 375.386C1240.09 377.464 1242.17 372.616 1244.94 369.153Z" fill="#ADE0F1" stroke="#6DCFF6" stroke-width="0.4252"/>
<path fill-rule="evenodd" clip-rule="evenodd" d="M1073.2 506.627C1083.24 504.55 1087.74 511.475 1093.28 516.323C1094.32 517.362 1095.36 518.401 1096.75 518.747C1099.86 520.479 1103.32 522.21 1106.44 523.941C1106.79 523.941 1107.13 524.634 1107.13 524.98C1107.83 531.213 1112.33 534.33 1116.48 538.832C1118.56 541.256 1116.83 546.45 1117.17 550.605C1114.4 550.259 1110.6 550.952 1109.21 549.22C1104.02 544.026 1099.52 538.485 1095.02 532.599C1090.51 526.712 1087.05 520.479 1082.9 514.592C1081.86 513.207 1080.13 512.86 1079.09 511.822C1076.66 510.09 1075.28 508.359 1073.2 506.627Z" fill="#ADE0F1" stroke="#6DCFF6" stroke-width="0.4252"/>
<path fill-rule="evenodd" clip-rule="evenodd" d="M347.81 128.486C350.58 124.677 356.466 124.331 361.314 126.409C363.738 127.447 366.508 127.447 368.931 128.14C371.701 128.833 374.471 130.218 377.588 131.257C376.549 131.603 376.203 131.949 375.164 132.295C377.588 135.066 379.319 138.182 384.166 137.49C387.629 136.797 390.745 138.875 394.554 137.143C402.171 134.027 410.481 134.373 418.099 138.182C415.329 146.493 414.636 146.839 406.326 145.454C403.21 145.108 399.748 146.147 396.631 145.8C388.321 145.454 380.011 145.108 371.701 144.762C367.2 144.762 365.815 142.338 366.161 138.875C366.854 134.027 364.084 132.642 360.621 131.603C356.813 130.91 352.658 129.525 347.81 128.486Z" fill="#ADE0F1" stroke="#6DCFF6" stroke-width="0.4252"/>
<path fill-rule="evenodd" clip-rule="evenodd" d="M646.969 216.442C649.047 215.75 650.778 215.403 652.855 214.711C652.855 209.17 648.354 213.672 645.93 211.594C648.008 209.863 649.739 208.131 652.163 206.054C654.24 207.785 656.318 209.863 658.742 211.94C662.204 206.4 667.744 207.785 673.284 207.785C676.054 207.785 678.824 202.937 681.94 206.4C684.364 208.478 687.134 211.248 687.827 214.018C688.173 215.75 684.364 218.52 681.94 220.251C678.132 222.675 673.63 224.753 669.475 226.484C668.437 226.831 667.398 227.177 666.359 226.831C661.512 225.446 656.664 223.714 651.817 222.329C652.163 221.983 652.855 220.944 654.24 219.559C651.817 218.174 649.739 217.481 646.969 216.442Z" fill="#ADE0F1" stroke="#6DCFF6" stroke-width="0.4252"/>
<path fill-rule="evenodd" clip-rule="evenodd" d="M297.258 136.797C293.449 130.91 293.795 129.525 299.335 126.062C299.682 127.101 300.374 128.14 300.72 129.179C301.759 132.988 304.183 134.719 307.992 134.027C309.377 133.681 311.108 135.066 312.493 135.412C311.454 137.143 310.415 139.914 309.03 140.606C306.953 141.645 303.837 141.299 301.067 141.991C296.565 142.684 291.718 143.723 287.217 144.762C284.793 145.108 282.369 145.801 279.945 146.147C279.599 145.454 279.599 144.762 279.253 144.069C281.33 143.03 283.754 142.338 285.832 141.299C282.023 141.645 278.56 139.221 274.059 141.645C271.289 143.03 266.788 141.299 262.633 140.606C264.71 137.49 266.095 134.373 268.519 132.295C271.982 129.179 280.638 130.218 285.485 133.334C288.948 135.412 292.757 136.451 296.219 138.182C296.565 137.836 296.912 137.143 297.258 136.797Z" fill="#ADE0F1" stroke="#6DCFF6" stroke-width="0.4252"/>
<path fill-rule="evenodd" clip-rule="evenodd" d="M1365.78 728.941C1368.21 726.171 1370.28 721.669 1373.4 720.284C1381.02 716.475 1385.52 709.895 1390.02 704.009C1392.44 704.701 1394.52 705.394 1396.94 706.086C1395.56 711.973 1393.83 717.86 1387.25 721.323C1385.52 722.362 1384.48 724.786 1383.44 726.863C1378.94 735.174 1373.05 736.213 1365.78 728.941Z" fill="#ADE0F1" stroke="#6DCFF6" stroke-width="0.4252"/>
<path fill-rule="evenodd" clip-rule="evenodd" d="M514.01 302.667C515.741 305.091 516.433 306.476 517.818 308.207C521.281 307.515 524.743 306.129 525.436 311.67C525.782 313.748 528.206 315.825 529.591 317.903C526.475 323.444 526.128 323.444 522.32 319.288C520.588 319.981 519.203 320.327 517.472 321.02C514.01 313.748 506.738 319.634 501.545 315.479C505.353 309.592 508.816 303.705 512.625 297.819C512.971 297.126 514.356 297.472 515.048 297.126C515.048 298.165 515.741 298.857 515.395 299.896C515.048 300.935 514.356 302.32 514.01 302.667Z" fill="#ADE0F1" stroke="#6DCFF6" stroke-width="0.4252"/>
<path fill-rule="evenodd" clip-rule="evenodd" d="M324.958 157.92C326.343 157.92 327.728 158.267 329.113 158.267C330.152 158.267 331.537 158.613 332.575 158.613C332.229 157.574 331.537 156.535 331.19 155.496C330.844 155.15 330.498 154.804 330.498 154.458C334.307 149.956 344.694 149.61 347.81 154.458C346.425 155.496 345.387 156.189 344.002 157.228C344.348 157.574 344.348 157.92 344.694 158.267C346.771 159.998 349.888 161.383 350.234 163.115C350.58 167.27 347.118 169.001 343.655 170.04C341.578 170.387 339.154 169.694 337.077 169.001C334.999 167.963 332.922 166.231 330.844 164.846C328.767 163.461 327.035 162.076 324.958 160.344C324.612 158.959 324.612 158.267 324.958 157.92Z" fill="#ADE0F1" stroke="#6DCFF6" stroke-width="0.4252"/>
<path fill-rule="evenodd" clip-rule="evenodd" d="M1189.19 534.33C1183.31 533.637 1183.31 533.637 1184.69 539.524C1185.39 541.602 1185.73 544.026 1187.12 547.835C1184.69 547.142 1182.27 546.796 1181.23 545.757C1179.85 544.372 1179.5 541.948 1177.42 540.217C1177.08 543.68 1176.73 547.489 1176.38 551.298C1175 550.952 1173.61 550.605 1173.61 550.259C1171.19 541.948 1169.8 533.637 1175 526.019C1176.04 524.288 1179.85 523.595 1182.27 523.595C1186.42 523.249 1190.23 523.942 1195.77 524.288C1191.96 525.327 1188.85 526.019 1185.73 526.712C1183.65 527.058 1181.23 526.365 1179.15 527.058C1177.77 527.404 1177.08 529.136 1176.04 530.175C1177.08 531.213 1178.46 532.945 1179.5 532.945C1181.58 532.945 1183.65 531.906 1185.73 531.906C1187.12 531.906 1188.85 532.599 1190.23 532.945C1189.89 532.945 1189.54 533.637 1189.19 534.33Z" fill="#ADE0F1" stroke="#6DCFF6" stroke-width="0.4252"/>
<path fill-rule="evenodd" clip-rule="evenodd" d="M648.7 279.466C649.739 278.427 650.432 277.042 651.817 276.349C654.933 274.618 657.703 275.657 659.78 278.081C660.473 279.119 660.127 280.851 660.127 282.236C660.127 282.929 659.434 283.621 659.434 283.967C660.819 292.278 653.894 293.663 648.7 295.741C646.969 296.434 644.199 294.702 643.16 294.356C643.507 290.2 643.16 287.084 643.853 284.314C644.545 282.236 646.623 280.851 648.354 279.466H648.7Z" fill="#ADE0F1" stroke="#6DCFF6" stroke-width="0.4252"/>
<path fill-rule="evenodd" clip-rule="evenodd" d="M1400.75 702.277C1398.68 700.892 1397.29 699.507 1396.25 699.161C1396.94 694.659 1398.68 690.157 1397.64 686.694C1396.6 682.885 1393.14 679.423 1390.71 675.96C1391.06 675.613 1391.75 675.267 1392.1 674.921C1394.87 678.384 1397.64 682.193 1400.75 685.656C1401.1 685.656 1402.48 684.963 1402.48 684.963C1404.91 689.811 1408.72 691.196 1413.91 690.157C1412.53 698.122 1403.52 708.51 1398.68 707.471C1399.37 705.394 1400.06 704.009 1400.75 702.277Z" fill="#ADE0F1" stroke="#6DCFF6" stroke-width="0.4252"/>
<path fill-rule="evenodd" clip-rule="evenodd" d="M1091.21 109.441C1082.2 108.402 1073.2 109.095 1066.28 102.169C1071.47 96.9746 1083.59 94.5507 1089.82 98.3598C1091.21 99.0523 1091.9 101.476 1092.25 103.208C1092.59 105.285 1091.55 107.017 1091.21 109.441Z" fill="#ADE0F1" stroke="#6DCFF6" stroke-width="0.4252"/>
<path fill-rule="evenodd" clip-rule="evenodd" d="M392.823 208.131C394.208 208.131 395.593 208.131 396.978 208.131C397.324 211.941 399.401 214.365 403.556 214.365C404.595 214.365 405.634 215.403 406.673 216.096C409.096 217.827 411.52 219.559 413.944 221.636C414.636 222.329 414.636 223.714 415.329 225.099C413.251 225.099 411.866 225.446 410.827 225.099C405.98 222.675 401.825 221.983 397.67 226.484C397.324 226.831 395.593 226.484 394.554 226.138C392.823 225.446 391.091 224.407 389.706 223.368C390.745 218.52 391.784 213.326 392.823 208.131Z" fill="#ADE0F1" stroke="#6DCFF6" stroke-width="0.4252"/>
<path fill-rule="evenodd" clip-rule="evenodd" d="M1115.79 555.107C1118.56 551.298 1122.02 552.337 1125.48 553.376C1129.64 554.414 1133.45 556.838 1138.3 555.107C1140.37 554.414 1143.84 556.146 1146.26 557.531C1149.03 558.916 1151.11 560.994 1153.53 562.379C1154.22 562.725 1155.26 562.033 1155.95 562.033C1155.95 562.379 1156.3 562.725 1156.3 563.072C1155.61 563.418 1154.57 564.11 1153.88 564.11C1143.49 562.725 1133.1 561.34 1122.37 559.262C1120.29 558.57 1118.21 556.492 1115.79 555.107Z" fill="#ADE0F1" stroke="#6DCFF6" stroke-width="0.4252"/>
<path fill-rule="evenodd" clip-rule="evenodd" d="M271.635 122.6C268.173 124.677 268.519 133.334 260.556 128.833C257.786 136.105 250.861 134.373 244.974 134.719C244.282 134.719 243.243 133.681 242.204 132.988C242.897 131.949 243.243 130.91 244.282 130.564C251.553 126.755 258.478 121.561 267.134 120.522C268.519 120.522 269.904 121.214 271.635 121.561C271.289 121.561 271.635 121.907 271.635 122.6Z" fill="#ADE0F1" stroke="#6DCFF6" stroke-width="0.4252"/>
<path fill-rule="evenodd" clip-rule="evenodd" d="M1281.64 332.793C1280.95 341.104 1274.03 341.104 1270.22 344.567C1266.75 342.489 1263.29 339.719 1260.87 345.952C1260.52 346.298 1258.79 346.645 1258.1 346.645C1257.41 346.298 1256.71 344.913 1256.71 344.221C1257.06 342.489 1257.75 339.719 1258.79 339.373C1264.33 337.641 1264.33 333.14 1263.98 327.599C1270.22 330.716 1274.03 338.68 1281.64 332.793Z" fill="#ADE0F1" stroke="#6DCFF6" stroke-width="0.4252"/>
<path fill-rule="evenodd" clip-rule="evenodd" d="M1179.15 477.54C1177.77 473.384 1175.34 469.229 1175 464.727C1174.65 460.572 1176.38 456.07 1177.42 451.568C1184 450.876 1186.42 453.992 1184 459.879C1181.23 466.805 1182.27 468.536 1189.54 471.307C1190.93 471.999 1191.96 473.73 1193 475.462C1181.92 470.614 1181.92 470.614 1179.15 477.54Z" fill="#ADE0F1" stroke="#6DCFF6" stroke-width="0.4252"/>
<path fill-rule="evenodd" clip-rule="evenodd" d="M440.259 444.989C436.796 445.335 432.987 446.028 429.525 445.682C427.101 445.335 425.024 442.219 422.6 441.18C418.099 438.756 413.251 435.986 408.404 434.947C405.634 434.254 402.171 437.024 398.016 437.371C399.401 435.986 400.44 434.254 401.825 433.908C408.75 431.83 415.675 431.484 422.6 435.293C428.486 438.756 434.719 441.526 440.605 444.296C440.259 444.296 440.259 444.643 440.259 444.989Z" fill="#ADE0F1" stroke="#6DCFF6" stroke-width="0.4252"/>
<path fill-rule="evenodd" clip-rule="evenodd" d="M325.304 136.797C326.343 135.066 327.728 132.988 329.113 130.564C330.498 131.257 332.229 131.949 334.307 132.988L334.653 132.642C333.268 131.257 331.883 129.871 329.459 127.101C334.999 128.14 339.5 128.486 343.309 130.218C345.04 130.91 345.733 135.066 345.386 137.49C345.04 138.875 341.924 140.606 339.846 140.953C337.423 141.299 333.96 142.338 332.575 138.182C331.883 136.797 327.728 137.143 325.304 136.797Z" fill="#ADE0F1" stroke="#6DCFF6" stroke-width="0.4252"/>
<path fill-rule="evenodd" clip-rule="evenodd" d="M1091.55 115.674C1094.32 111.865 1096.75 107.017 1100.21 104.593C1101.94 103.208 1106.79 105.978 1109.9 106.671C1110.94 107.017 1111.63 107.363 1112.67 108.056C1113.71 109.095 1114.4 110.133 1115.44 111.172C1114.4 111.865 1113.02 113.25 1111.98 113.25C1105.75 114.635 1099.52 115.674 1092.94 117.059C1092.59 116.713 1091.9 116.02 1091.55 115.674Z" fill="#ADE0F1" stroke="#6DCFF6" stroke-width="0.4252"/>
<path fill-rule="evenodd" clip-rule="evenodd" d="M315.955 112.211C316.994 111.519 318.033 110.826 319.418 110.133C316.994 108.748 314.57 107.363 311.108 105.285C318.379 102.515 323.227 105.632 328.42 106.671C333.614 107.709 336.038 111.519 338.115 116.02C335.691 118.098 335.691 118.098 331.19 116.02C328.767 114.981 325.997 113.942 323.227 113.596C320.803 113.25 318.379 113.596 315.955 113.596C315.955 113.25 315.955 112.904 315.955 112.211Z" fill="#ADE0F1" stroke="#6DCFF6" stroke-width="0.4252"/>
<path fill-rule="evenodd" clip-rule="evenodd" d="M1199.58 488.967C1200.27 492.776 1200.97 496.585 1201.66 500.048C1200.97 500.048 1200.62 499.702 1199.93 499.702C1198.89 501.087 1198.2 502.818 1196.81 504.896C1195.43 503.857 1192.66 502.818 1192.31 501.433C1190.58 494.854 1186.77 497.278 1182.96 499.009C1184.69 495.546 1186.08 492.43 1191.27 493.122C1193.35 493.122 1196.12 490.698 1199.58 488.967Z" fill="#ADE0F1" stroke="#6DCFF6" stroke-width="0.4252"/>
<path fill-rule="evenodd" clip-rule="evenodd" d="M363.045 119.483C355.428 125.023 345.04 119.483 342.27 108.748C346.425 109.787 350.58 111.172 354.389 112.211C354.735 112.211 355.428 112.904 355.428 112.904C355.081 118.098 359.583 118.444 363.045 119.483Z" fill="#ADE0F1" stroke="#6DCFF6" stroke-width="0.4252"/>
<path fill-rule="evenodd" clip-rule="evenodd" d="M1289.95 704.701C1292.38 710.242 1290.99 714.743 1286.49 716.821C1285.45 717.514 1282.68 717.514 1282.34 716.821C1280.95 714.397 1279.91 711.627 1279.57 708.857C1279.57 708.164 1281.99 706.779 1283.37 706.086C1285.45 705.394 1287.53 705.394 1289.95 704.701Z" fill="#ADE0F1" stroke="#6DCFF6" stroke-width="0.4252"/>
<path fill-rule="evenodd" clip-rule="evenodd" d="M440.259 451.568C447.876 449.837 447.876 449.837 445.452 445.682C455.147 445.335 461.034 447.067 464.496 452.261C456.186 452.607 448.222 453.3 440.605 453.646C440.605 452.953 440.605 452.261 440.259 451.568Z" fill="#ADE0F1" stroke="#6DCFF6" stroke-width="0.4252"/>
<path fill-rule="evenodd" clip-rule="evenodd" d="M1013.3 487.582C1015.38 490.698 1017.8 493.815 1018.84 496.931C1019.19 498.317 1016.42 501.087 1015.38 502.818C1013.99 501.779 1011.57 500.741 1011.57 499.702C1011.22 495.893 1011.22 491.737 1011.22 487.928C1011.92 487.928 1012.61 487.582 1013.3 487.582Z" fill="#ADE0F1" stroke="#6DCFF6" stroke-width="0.4252"/>
<path fill-rule="evenodd" clip-rule="evenodd" d="M349.541 143.03C351.273 139.221 352.658 136.797 356.813 137.49C360.968 138.529 361.66 140.953 360.968 145.108C357.159 144.415 353.35 143.723 349.541 143.03Z" fill="#ADE0F1" stroke="#6DCFF6" stroke-width="0.4252"/>
<path fill-rule="evenodd" clip-rule="evenodd" d="M282.023 117.059C286.178 116.713 290.333 116.02 294.834 115.674C293.449 120.868 290.333 123.292 285.485 122.946C283.754 122.946 282.715 120.176 280.984 118.444C281.33 117.752 281.677 117.405 282.023 117.059Z" fill="#ADE0F1" stroke="#6DCFF6" stroke-width="0.4252"/>
<path fill-rule="evenodd" clip-rule="evenodd" d="M532.015 184.584C529.245 184.93 526.475 186.662 524.397 185.623C522.32 184.584 521.281 181.468 519.896 179.044C520.588 178.351 520.935 178.005 521.627 177.312C525.436 179.044 528.898 180.429 532.707 182.16C532.015 183.199 532.015 183.892 532.015 184.584Z" fill="#ADE0F1" stroke="#6DCFF6" stroke-width="0.4252"/>
<path fill-rule="evenodd" clip-rule="evenodd" d="M719.335 360.842C718.643 356.34 718.296 353.917 717.95 350.454C719.335 350.454 721.759 349.761 722.798 350.8C723.836 352.185 724.529 354.955 723.836 356.687C723.49 358.072 721.413 359.111 719.335 360.842Z" fill="#ADE0F1" stroke="#6DCFF6" stroke-width="0.4252"/>
<path fill-rule="evenodd" clip-rule="evenodd" d="M1291.34 550.605C1294.8 550.259 1297.92 550.259 1300.69 549.913C1301.73 549.913 1302.42 548.181 1303.46 547.489C1304.5 546.796 1305.53 546.104 1306.57 545.411C1306.57 546.796 1306.92 548.528 1306.23 549.566C1303.46 553.376 1296.53 554.068 1291.34 550.605Z" fill="#ADE0F1" stroke="#6DCFF6" stroke-width="0.4252"/>
<path fill-rule="evenodd" clip-rule="evenodd" d="M1138.3 446.028C1136.91 448.105 1135.53 450.183 1133.79 451.915C1133.1 452.607 1130.68 452.261 1130.68 451.568C1130.33 450.183 1129.64 447.759 1130.33 447.413C1132.41 446.028 1134.83 445.335 1137.26 444.296C1137.6 444.989 1137.95 445.682 1138.3 446.028Z" fill="#ADE0F1" stroke="#6DCFF6" stroke-width="0.4252"/>
<path fill-rule="evenodd" clip-rule="evenodd" d="M282.715 114.289C288.948 109.094 292.757 108.748 298.643 113.25C292.41 113.596 287.563 113.942 282.715 114.289Z" fill="#ADE0F1" stroke="#6DCFF6" stroke-width="0.4252"/>
<path fill-rule="evenodd" clip-rule="evenodd" d="M1207.89 530.867C1207.55 530.867 1206.51 530.867 1205.47 530.867C1204.43 528.789 1207.55 519.44 1209.62 518.055C1208.93 522.21 1212.39 526.712 1207.89 530.867Z" fill="#ADE0F1" stroke="#6DCFF6" stroke-width="0.4252"/>
<path fill-rule="evenodd" clip-rule="evenodd" d="M746.343 370.538C742.188 368.807 738.725 367.075 735.263 365.69C735.263 365.344 735.263 364.651 735.609 364.305C739.071 364.305 742.534 364.305 745.996 364.305C745.996 366.729 745.996 368.114 746.343 370.538Z" fill="#ADE0F1" stroke="#6DCFF6" stroke-width="0.4252"/>
<path fill-rule="evenodd" clip-rule="evenodd" d="M436.104 192.549C437.489 199.128 434.372 199.821 431.602 199.821C430.91 199.821 430.217 198.089 429.179 197.05C431.256 195.665 433.334 194.28 436.104 192.549Z" fill="#ADE0F1" stroke="#6DCFF6" stroke-width="0.4252"/>
<path fill-rule="evenodd" clip-rule="evenodd" d="M1178.81 435.639C1175.69 429.406 1176.73 425.943 1183.31 422.827C1181.58 427.329 1180.19 431.138 1178.81 435.639Z" fill="#ADE0F1" stroke="#6DCFF6" stroke-width="0.4252"/>
<path fill-rule="evenodd" clip-rule="evenodd" d="M1190.58 567.573C1194.73 565.842 1198.54 564.11 1202.7 562.033C1203.04 562.725 1203.39 563.071 1203.39 563.764C1199.58 565.842 1195.43 567.919 1191.62 569.997C1191.27 569.305 1190.93 568.266 1190.58 567.573Z" fill="#ADE0F1" stroke="#6DCFF6" stroke-width="0.4252"/>
<path fill-rule="evenodd" clip-rule="evenodd" d="M882.418 190.817C882.765 188.047 882.765 186.316 882.765 184.584C885.188 184.931 887.612 185.277 889.69 185.277C889.69 185.969 889.69 186.662 889.69 187.354C887.958 188.393 885.881 189.432 882.418 190.817Z" fill="#ADE0F1" stroke="#6DCFF6" stroke-width="0.4252"/>
<path fill-rule="evenodd" clip-rule="evenodd" d="M119.632 259.381C121.71 264.576 116.516 263.883 114.785 267C113.4 265.614 112.707 264.229 110.976 262.498C114.439 261.113 116.862 260.42 119.632 259.381Z" fill="#ADE0F1" stroke="#6DCFF6" stroke-width="0.4252"/>
<g clip-path="url(#clip0_2001_2)">
<path d="M532.1 108.467C532.1 108.78 532.6 110.655 532.2 111.593C526.7 127.848 528 120.762 527.6 127.848C529.6 128.056 531.3 127.639 532.5 125.659C539.9 112.843 534 115.969 532.1 108.467C531.3 106.696 532.4 106.175 529.8 105.967C530.2 107.009 530.8 107.529 532.1 108.467Z" fill="#D4F0FC"/>
<path d="M336.2 167.963C336.4 167.963 336.5 167.859 336.6 167.859C336.5 167.754 336.4 167.65 336.3 167.65C336.2 167.754 336.2 167.859 336.2 167.963Z" fill="#D4F0FC"/>
<path d="M490.5 188.593C490.5 188.593 490.4 188.593 490.4 188.489C490.4 188.593 490.3 188.593 490.3 188.698L490.5 188.593Z" fill="#D4F0FC"/>
<path d="M396.3 207.869C399.7 203.806 396.6 189.844 406.3 187.135C408.5 186.509 413 186.718 414.8 181.091C419.7 166.191 438.5 172.235 443.1 167.442C457.1 152.75 458.5 145.769 461.5 130.244C461.9 128.056 460.4 127.847 459 127.222C452.8 124.409 455.8 119.512 458.4 111.593C461.5 111.801 463.8 113.26 464.9 117.741C466.1 122.846 471.4 121.908 470.5 126.806C468.5 132.536 470.1 138.996 465.9 143.789C463.4 147.332 470.3 152.854 464.6 157.439C457.8 162.857 464.1 164.628 463.9 170.255C461.7 185.78 483.6 176.09 476.7 191.615V191.719C480.4 187.76 485.5 184.842 490.4 188.489C496.3 179.841 494.6 183.071 496.7 175.777C490.4 169.63 491.3 172.86 502.1 155.98C502.7 155.042 502.6 152.438 501 149.833C497.5 144.31 501.2 142.122 500.4 133.787C500.3 132.953 501.1 131.39 501.8 130.973C505 128.785 504 135.037 507.6 134.308C509.1 133.995 513.1 129.306 513.1 123.159C513.1 117.741 512.9 116.49 514.8 113.677C517 110.343 514.4 105.758 518.4 105.758C524.9 105.862 528.2 105.862 529.9 105.966C529.3 104.508 529.3 102.32 528 97.0057C527.3 93.984 519.4 95.6512 516.5 96.9015C512.3 98.777 510 97.0057 505.6 98.0476C505.9 96.2763 505.3 94.8176 504.2 93.5672C500.5 89.2952 504.1 88.5659 503.4 81.0638C503.6 73.7701 509.3 85.2317 510.6 79.9177C511.4 77.3128 512.2 74.4995 510.6 71.9988C508 68.0394 510.4 65.7471 509.4 62.5171C502.9 42.3032 512.5 55.6402 497 35.0095C496.3 34.0718 496 32.9256 496.5 31.8837C498.1 28.341 498.1 24.3816 499.2 20.839C501 15.2124 497.6 11.9824 501.5 8.43976C510.4 0.312531 493.8 -8.12729 488.9 -15.5251C486.8 -18.651 482.4 -16.4629 481.6 -16.1503C476.8 -14.5874 478.6 -23.6524 483.3 -24.2776C484.1 -24.3817 488.1 -23.6524 489 -25.7363C493.7 -36.5726 491.9 -35.6348 490.4 -41.3656C488.8 -47.6173 492.5 -46.9921 494.7 -48.3466C500.6 -53.4522 489.1 -58.2452 489.9 -61.5794C489.2 -64.0801 490.4 -65.9556 492.9 -65.5389C494.8 -65.2263 495.8 -66.164 496.7 -67.5186C501.7 -75.5416 489.5 -76.4794 482.8 -84.0856C482.1 -84.815 481 -85.2318 480 -85.5443C472.5 -88.3576 473.3 -94.5051 468.3 -90.8583C462.3 -93.4632 455.4 -97.631 450 -102.528C446.6 -105.341 453.9 -112.427 444.7 -113.364C439.3 -113.885 444.9 -115.24 443.3 -118.366C441.4 -122.117 439.5 -123.888 442.1 -125.347C444.9 -126.806 443.6 -130.765 440.6 -131.182C430.5 -130.765 434.4 -136.6 423.6 -141.289C412.4 -147.957 416.2 -152.75 406.6 -160.461C402.5 -162.336 400 -175.882 393.1 -170.463C390.8 -161.19 380.2 -165.149 378.6 -171.61C374.6 -172.964 373.8 -173.485 372.7 -170.359C371.3 -166.191 365.9 -169.421 363 -170.151C357.8 -172.339 341.8 -169.526 341.6 -164.42C341.5 -159.523 340.6 -154.626 342.1 -149.729C339.5 -138.996 326.7 -148.582 337.1 -158.064C338.2 -159.106 338.3 -161.919 336.3 -164.003C333.5 -166.817 333.8 -165.462 326.1 -163.587C317.1 -161.294 326.1 -156.814 318.8 -150.979C307.5 -144.102 311.1 -144.623 318.8 -139.726C322.4 -136.392 324.7 -140.247 326.7 -141.706C331.3 -145.144 330.2 -135.454 338.3 -132.745C346.8 -129.827 344.4 -125.347 336 -115.24C331.9 -110.343 333.3 -105.029 328.4 -103.258C311.8 -96.9016 319.3 -87.0031 311.6 -82.0017C297.8 -79.9178 299.6 -63.8717 290.1 -70.8528C290.6 -69.0815 290.5 -66.9976 291.9 -65.4347C294.6 -60.3291 290.6 -53.348 288.5 -48.4508C285.7 -43.9704 287.1 -39.0733 286.3 -37.4061C284.1 -32.6132 276 -32.1964 272.1 -33.3425C268.9 -34.2803 267.6 -32.0922 269.3 -28.3412C273.9 -18.0258 264.1 -1.66718 259 -1.97977C257.5 -2.08395 251.2 -0.20845 251.3 -0.312653C249.3 1.77126 238.5 -2.18817 240.5 -1.3546C240.4 -1.4588 240.3 -1.2504 240.1 -0.729431L240.8 -1.14621C241.4 6.98102 249.6 0.729309 251.4 -0.20845C250.7 7.81459 257.2 6.66844 256.7 14.6915C256.4 19.3803 255.5 22.2977 260.2 26.6739C264.8 30.425 266.4 21.5684 270.3 21.9851C273.8 23.3397 276.4 21.2558 279.2 19.9012C283.2 16.7754 296 24.7984 293.8 30.0082C284.2 42.199 296.6 37.8228 292.9 48.7633C291.7 51.264 296.3 53.9731 299.1 55.015C312 52.3059 314.7 62.2045 325.3 66.9975C326.5 67.6227 326.4 68.6646 326 69.9149C323.9 74.2911 329 85.5442 320.7 83.8771C314.2 78.1464 305.7 63.038 303.6 83.1477C301.9 89.8162 307.5 93.1505 303.8 93.6714C296.9 90.9624 300 84.5023 288.7 83.9813C279.8 80.2303 281.1 94.0882 273.2 90.9624C267.4 86.3778 266.5 84.1897 262.4 85.2316C259.3 86.0652 259.9 89.191 260.8 92.1085C262.9 99.1938 265.9 96.2763 269.4 101.173C271.6 104.299 270 107.842 269.3 108.884C265.3 114.927 269.5 119.095 268 123.263C266.8 130.036 276 131.703 280.7 132.224C282.7 132.536 283.6 131.078 284.7 130.14C294.7 121.492 303.1 128.577 303.2 129.41C303.6 134.099 307.3 137.017 308.9 141.08C311.3 147.124 315.5 146.603 315.4 151.917C315.3 157.543 319.3 160.356 322.3 162.961C327.1 160.252 329.2 161.711 330.9 160.773V160.669C330.1 160.877 330 160.669 330.7 159.94C330.8 160.252 330.9 160.461 330.9 160.669C331 160.669 331.2 160.565 331.4 160.461C331.2 160.565 331.1 160.669 330.9 160.773C325.4 164.212 324.5 169.213 326.4 176.09C326.9 184.634 318.1 168.275 313.6 172.964C311.4 175.36 309.3 177.757 306.3 179.007C305.9 179.112 305.5 179.945 305.6 180.362C306.3 185.363 303.1 187.447 304.6 191.511C310.4 207.036 313.3 188.593 321.5 192.344C324 193.49 326.3 195.262 330.3 192.344C334.3 189.427 336.1 190.573 336.7 188.072C337.9 182.967 335.8 182.446 334.5 180.779C332.3 177.757 332.8 178.07 336.3 167.65C336.2 167.546 336.1 167.442 336 167.442C336.1 167.442 336.3 167.442 336.4 167.442C336.5 167.233 336.5 167.129 336.6 166.921C336.6 167.129 336.6 167.233 336.5 167.442C337.3 167.546 337.4 167.754 336.8 167.963C339.2 169.63 341.8 170.672 344.8 169.317C351.7 170.984 350.7 177.028 359.7 177.028C365.9 177.653 368.7 175.881 370.5 181.195C373.1 188.176 367.4 186.509 365.9 182.967C353.8 175.777 361 196.929 367 200.784C370.6 205.369 380.8 199.742 380.6 205.473L380.7 205.369C389.5 209.328 392.9 211.933 396.3 207.869ZM478.8 174.735C478 175.256 476.2 172.339 478.4 171.505C479.4 171.089 480.6 173.485 478.8 174.735ZM375.4 -162.649C379.4 -160.669 379.1 -159.21 378.4 -157.856C374.5 -150.25 371.4 -164.733 375.4 -162.649ZM435.3 -109.926C436.4 -109.405 436.4 -109.613 435.3 -109.092V-109.926ZM287.3 10.7321C288.5 11.3572 288.5 11.0446 287.3 11.774V10.7321ZM482.2 1.35448C473.7 -8.12729 486.2 -12.5035 487.1 0.729309C486.8 3.85516 482.8 2.18805 482.2 1.35448ZM310.2 39.6983C308.4 37.1976 310.4 33.9676 313.6 35.8431C317.5 38.1354 312.4 42.8242 310.2 39.6983ZM303.8 42.6158C301.6 43.8661 304.7 42.6158 303 43.6577C302.9 42.5116 302.7 42.8242 303.8 42.6158ZM337.1 55.2234C337 55.4318 336.5 55.536 336.1 55.7444C334.2 51.9934 338.1 52.8269 337.1 55.2234ZM355.4 78.4589C355.4 74.0827 346.9 67.4143 353.1 65.2262C353 65.122 352.9 65.1219 352.8 65.0177C352.9 65.0177 352.9 64.9136 353 64.9136C352 63.2464 351.8 61.3709 351.9 59.3912C352.2 53.9731 358.2 61.4751 353 64.9136C353.1 65.0178 353.1 65.122 353.2 65.2262C353.2 65.2262 353.2 65.2262 353.1 65.2262C355.6 67.1017 358.7 67.5184 361.4 68.7688C366.1 71.1653 357.4 83.7729 355.4 78.4589ZM472.6 43.9703C476.6 38.3438 489.9 49.0759 482 63.3506C478.6 69.2898 466.2 52.9311 472.6 43.9703ZM405.2 83.0435C405.8 82.1058 406.3 82.3142 406.6 83.5645C406.3 83.7729 406 83.8771 405.7 84.0855C405.5 83.7729 405.1 83.2519 405.2 83.0435ZM496.5 74.187V75.1247C495 74.6037 495 74.8121 496.5 74.187ZM481.1 98.256C481.5 96.3805 483.7 97.4225 483.3 99.4022C482.7 101.486 480.7 100.236 481.1 98.256ZM353.9 127.639C353.2 127.222 352.9 126.493 353 125.451C352.9 125.451 352.8 125.555 352.7 125.555C352.7 125.451 352.7 125.347 352.7 125.243C351.6 125.555 351.1 125.138 351.4 124.096C352.2 123.68 352.9 124.305 352.7 125.243C352.8 125.243 352.9 125.243 353 125.138C353 125.243 353 125.243 353 125.347C356.1 123.888 356.6 129.306 353.9 127.639ZM366.8 133.578C368.5 132.432 371.1 133.37 370 136.287C368.3 140.872 363.2 135.975 366.8 133.578ZM360 166.921C357.7 165.879 357.2 162.128 361 161.19C366.8 159.835 365.8 164.316 371.4 162.961C388.5 160.356 378.4 175.777 360 166.921ZM379.1 178.799C379.1 178.799 379.7 178.903 379.8 179.112C381.1 182.029 377.9 181.404 379.1 178.799Z" fill="#D4F0FC"/>
<path d="M336.2 167.338C336.2 167.442 336.2 167.442 336.1 167.546L336.2 167.65C336.2 167.546 336.2 167.442 336.2 167.338Z" fill="#D4F0FC"/>
<path d="M275.2 73.1451C275.1 74.0829 275 74.9164 274.9 75.75C274.9 75.3332 275.2 73.3535 275.2 73.1451C274.3 68.4563 274.8 60.9543 273.3 55.5361C270.2 49.7012 256.7 57.3074 256.9 45.325C257.4 42.0949 258.8 40.532 257.7 39.1775C255.6 36.26 253.3 42.7201 249.7 41.8865C244.4 41.1572 242.4 46.9921 246.4 51.8893C248.8 55.8487 246.8 57.2032 244.7 60.6417C243.4 62.8298 247.4 65.8514 251.4 64.4969C257 62.6214 264.2 65.8515 262.6 66.7892C241.9 79.501 238 80.7514 244.9 84.5024C271.5 79.501 266.9 81.0639 275.2 73.1451Z" fill="#D4F0FC"/>
<path d="M553.3 14.6915C554.2 19.7971 556.5 22.1935 552.9 27.0907C548.6 32.9257 553.2 31.4669 547.6 42.3032C546.1 45.3249 549.8 48.6591 551.6 50.4304C552.6 50.2221 553.1 49.3885 553.2 48.1382C553.8 42.199 554.7 44.1787 557.8 43.762C561.4 43.241 561.5 42.72 562.3 42.4074C566.4 41.2613 564.3 47.4088 571.1 47.6172C573.1 47.7214 575 48.6591 575.9 49.3885C575.8 49.3885 575.8 49.4927 575.9 49.7011C575.9 49.9095 575.9 50.1179 575.9 50.3263C576 50.2221 577.1 50.5346 576.3 50.0137C576.3 50.0137 576.3 49.9095 576.3 49.8053C576.4 49.5969 576.6 49.4927 576.7 49.2843C576.3 49.1801 576.1 49.1801 575.9 49.2843C576 40.8445 580.3 43.1368 587.8 41.4697C595.6 34.2802 577.4 29.5914 572.8 26.7781C561.5 21.6726 563.2 15.7334 553.1 14.3789C553.2 14.5873 553.3 14.6915 553.3 14.6915ZM572.4 33.3424C573.2 35.6347 570 35.7389 570 34.9054C569.9 32.9257 572 31.9879 572.4 33.3424Z" fill="#D4F0FC"/>
<path d="M554.8 130.036C553.5 128.056 548.7 119.72 546 123.055C540.1 130.348 539.4 130.765 539.8 133.682C540.8 142.539 541.2 143.581 543.3 143.477C547.3 143.373 548.3 136.392 551.5 137.121C555.4 136.913 566 133.891 565.7 128.16C561 130.14 557.4 133.891 554.8 130.036Z" fill="#D4F0FC"/>
<path d="M565.6 127.848C565.5 127.848 565.6 127.952 565.6 128.16C565.7 128.16 565.8 128.056 565.9 128.056C565.8 127.952 565.7 127.952 565.7 127.952C565.8 127.952 566 127.848 566.3 127.431C566 127.535 565.8 127.639 565.6 127.848C565.5 127.848 565.5 127.743 565.6 127.848Z" fill="#D4F0FC"/>
<path d="M569 120.762C567.7 124.826 566.8 126.701 566.3 127.431C574.6 123.784 574.9 126.285 578.9 126.076C587.6 125.659 575.3 101.278 569 120.762Z" fill="#D4F0FC"/>
<path d="M253.4 176.507C251.9 176.819 249.9 177.861 249.8 179.112C247.5 186.301 245.1 200.055 254.4 187.135C256.6 187.135 258.1 189.01 260.2 188.802C263.6 184.217 259 175.569 253.4 176.507Z" fill="#D4F0FC"/>
<path d="M519.1 56.057C512.1 51.6808 513.2 53.3479 513.3 62.7255C513.4 66.2682 517.8 66.8933 519.7 64.3926C521.8 61.5794 522.1 57.9325 519.1 56.057Z" fill="#D4F0FC"/>
<path d="M390 230.792C390.1 230.688 390.3 230.584 390.4 230.48C390.1 230.376 389.9 230.271 389.8 230.167C389.6 229.855 389.3 229.542 389.1 229.334C389 230.063 389.1 230.584 389.7 230.897C389.7 230.897 389.6 230.897 389.6 231.001C389.6 231.001 390.2 231.209 390.2 231.105C390.1 231.105 390.1 230.897 390 230.792Z" fill="#D4F0FC"/>
<path d="M389.3 222.248C384.7 220.269 384.3 228.709 389.1 229.438C389.3 227.25 391.6 223.916 389.3 222.248Z" fill="#D4F0FC"/>
<path d="M190.6 46.6795C189 44.804 185.6 45.9502 185.1 49.2844C184.1 54.39 193.3 49.8054 190.6 46.6795Z" fill="#D4F0FC"/>
<path d="M513.4 142.747C512.1 136.079 508 141.185 506.6 144.519C506.6 144.519 506.5 144.519 506.5 144.623C506.5 144.623 506.5 144.623 506.6 144.519C506.4 144.519 506.2 144.415 506.1 144.415C506.1 144.415 505.9 145.248 506.1 144.936C506.1 145.04 506.3 144.936 506.4 144.831C506.5 145.04 506.7 145.248 506.8 145.457C507 145.144 507 144.831 507 144.727C509.6 145.352 513.8 146.498 513.4 142.747Z" fill="#D4F0FC"/>
<path d="M515.2 7.81464C516.8 10.3153 520.1 6.98108 518.6 3.95942C518.1 3.02166 515 -0.729377 514.6 -2.18811C513.4 1.77131 512.9 4.3762 515.2 7.81464Z" fill="#D4F0FC"/>
<path d="M524.5 132.432C522.8 137.225 530.7 131.807 527.4 128.056C524.9 128.056 525.2 130.557 524.5 132.432Z" fill="#D4F0FC"/>
<path d="M527.5 128.056C527.6 128.056 527.6 128.056 527.7 128.056C527.7 127.952 527.7 127.952 527.7 127.848C527.6 127.848 527.4 127.848 527.3 127.743C527.3 127.952 527.4 127.952 527.5 128.056Z" fill="#D4F0FC"/>
<path d="M209 59.9122C207.1 60.4332 208.9 62.5171 209.9 61.0584C209.6 60.6416 209.4 60.1206 209 59.9122Z" fill="#D4F0FC"/>
<path d="M538.7 102.215C537.6 105.654 540.3 104.508 542.5 106.071C542.8 105.237 541.7 97.3183 538.7 102.215Z" fill="#D4F0FC"/>
<path d="M542.7 106.592C542.6 106.592 542.6 106.592 542.7 106.592C542.8 106.696 543 106.696 543.3 106.8C543.2 106.696 543.1 106.488 543 106.383C542.9 106.279 542.7 106.175 542.6 106.071C542.5 106.383 542.6 106.488 542.7 106.592Z" fill="#D4F0FC"/>
<path d="M505 18.7551C505 19.0677 505.8 19.1719 506.2 19.3803C506.6 19.0677 507.1 18.8593 507.5 18.5467C507.2 16.7754 504.5 16.4628 505 18.7551Z" fill="#D4F0FC"/>
<path d="M564.4 59.4955C564.7 57.9325 565.1 58.3493 563.3 57.7241C563 59.4954 562.7 59.0787 564.4 59.4955Z" fill="#D4F0FC"/>
<path d="M484.5 197.658C486.2 193.907 489.9 194.324 484.4 193.907C478.3 193.386 481.9 203.285 484.5 197.658Z" fill="#D4F0FC"/>
<path d="M264.3 192.553C264.8 191.198 265 190.469 265.1 190.156C262.6 190.156 262.2 187.239 260.2 188.906C259 190.365 262.7 196.408 264.3 192.553Z" fill="#D4F0FC"/>
<path d="M260.3 188.698H260.2C260 189.01 260 189.218 260.1 189.01C260.1 189.01 260.1 189.114 260 189.114C260.1 189.01 260.1 189.01 260.2 188.906C260.3 188.802 260.3 188.698 260.3 188.698Z" fill="#D4F0FC"/>
<path d="M590.5 50.4305C591.5 49.8053 591.4 50.2221 590.8 48.8676C589.9 49.3885 589.9 48.9717 590.5 50.4305Z" fill="#D4F0FC"/>
<path d="M381.1 207.765C381.3 206.932 381.1 206.202 380.4 205.473C380.3 206.411 380.6 207.14 381.1 207.765Z" fill="#D4F0FC"/>
<path d="M381.5 208.182C381.4 208.078 381.3 207.974 381.2 207.87C379.5 210.891 383.1 210.37 381.5 208.182Z" fill="#D4F0FC"/>
<path d="M380.4 205.473C380.5 205.473 380.5 205.473 380.5 205.369C380.5 205.369 380.4 205.369 380.4 205.473Z" fill="#D4F0FC"/>
<path d="M278.6 29.383L279.7 29.5914C279.5 28.5495 279.8 28.5495 278.6 29.383Z" fill="#D4F0FC"/>
<path d="M244.3 15.2125L245.5 15.525C245.3 14.2747 245.6 14.3789 244.3 15.2125Z" fill="#D4F0FC"/>
<path d="M238.2 139.413L237.6 138.163C237.1 139.83 236.9 139.517 238.2 139.413Z" fill="#D4F0FC"/>
<path d="M553.2 14.5874C553.1 14.6916 553 14.6916 552.9 14.7958C553 14.7958 553.2 14.7958 553.3 14.6916L553.2 14.5874Z" fill="#D4F0FC"/>
<path d="M547.7 16.7755C547.7 16.7755 547.6 16.1503 547.4 16.1503C548.1 16.2545 551.4 15.7335 552.8 14.7958C549 15.4209 547.5 15.8377 547.3 16.0461C547.2 15.7335 547 15.421 547.7 16.7755Z" fill="#D4F0FC"/>
<path d="M543 106.383C543.2 106.279 543.3 106.175 543.5 106.071C542.8 105.654 542.6 105.758 543 106.383Z" fill="#D4F0FC"/>
<path d="M487.7 194.22C491.2 194.532 492.3 191.302 490.5 188.489C488.2 189.635 486.8 191.407 487.7 194.22Z" fill="#D4F0FC"/>
<path d="M487.8 194.324C487.7 194.22 487.6 194.22 487.5 194.324H487.8Z" fill="#D4F0FC"/>
<path d="M476.7 191.615C476.6 191.615 476.6 191.407 476.4 190.99C476.4 191.719 476.5 191.928 476.7 191.615Z" fill="#D4F0FC"/>
<path d="M314.1 247.672C318.1 247.88 312.4 242.15 313.1 247.464C313.4 247.568 313.7 247.568 313.9 247.672L314 247.776C314.1 247.776 314.1 247.672 314.1 247.672Z" fill="#D4F0FC"/>
<path d="M296.6 184.113H295.8C296.3 185.155 296.1 185.155 296.6 184.113Z" fill="#D4F0FC"/>
<path d="M283 159.627H282.2C282.8 160.565 282.6 160.565 283 159.627Z" fill="#D4F0FC"/>
<path d="M268.1 190.469C268.3 190.365 268.2 189.635 268.2 189.114C267.3 189.427 266.5 189.74 265.6 190.052C266.1 190.365 267.1 190.781 268.1 190.469Z" fill="#D4F0FC"/>
<path d="M265.6 190.156C265.5 190.156 265.3 189.948 265.3 189.948C265.3 189.948 265.2 190.052 265.2 190.26C265.3 190.156 265.5 190.156 265.6 190.156Z" fill="#D4F0FC"/>
</g>
<path d="M2 530.249C22.9 525.561 41.5 510.973 51.6 491.385C61.7 471.796 63.1 447.518 55.4 426.784C48.4 408.133 34.9 393.233 24.8 376.145C14.8 359.161 8.3 337.176 17 319.358C26.9 299.144 52 292.163 64.3 273.408C77.3 253.611 72.3 226.416 62.3 204.744C52.3 183.071 37.8 163.691 31.8 140.559C24.6 112.218 31.8 80.3345 50.6 58.4535C69.3 36.5725 98.9 25.4236 126.7 29.6956C171.6 36.5725 208.8 79.8135 253.9 74.8122C271.5 72.8325 287.4 63.5591 303.8 56.578C320.2 49.5969 338.9 44.6998 355.3 51.785C373.1 59.4955 383 78.8758 396.6 93.1505C424.6 122.742 472.5 129.098 506.7 107.842C541 86.5862 558.5 39.8026 547 0" stroke="#91D6E8" stroke-width="2.4666" stroke-miterlimit="10" stroke-linecap="round" stroke-dasharray="12.33 12.33"/>
<path d="M430.7 116.291L411.9 92.7428L408.6 102.433L426.7 114.832L405.2 112.436L401.8 122.126L430.7 116.291Z" fill="#3D8BC1"/>
<g clip-path="url(#clip1_2001_2)">
<path d="M892.1 -117.01C902.452 -74.5086 912.881 -30.6498 905.99 12.4516C899.173 55.674 870.526 98.4717 827.974 108.193C805.268 113.423 781.579 108.834 758.273 109.385C734.967 109.936 709.046 117.774 698.65 138.696C686.472 163.094 701.015 191.9 716.769 214.104C732.523 236.308 750.834 261.097 745.99 287.916C741.834 310.682 722.203 326.863 704.921 342.282C663.446 379.454 627.493 427.253 621.402 482.599C615.311 537.945 648.075 599.859 702.449 611.581C723.179 616.06 748.496 614.871 760.569 632.359C769.081 644.647 766.77 661.585 761.076 675.529C755.309 689.352 746.627 702.046 742.754 716.541C737.28 737.129 742.876 760.439 757.101 776.295C771.327 792.15 793.769 800.139 814.857 796.88" stroke="#91D6E8" stroke-width="2.4666" stroke-miterlimit="10" stroke-linecap="round" stroke-dasharray="12.33 12.33"/>
<path d="M756.482 685.418L731.341 700.553L740.066 705.273L754.435 689.137L748.986 710.041L757.712 714.761L756.482 685.418Z" fill="#3D8BC1"/>
<path d="M667.456 381.573L640.091 392.351L647.876 398.384L664.874 384.954L655.904 404.683L663.786 410.74L667.456 381.573Z" fill="#3D8BC1"/>
</g>
<g clip-path="url(#clip2_2001_2)">
<path d="M698.1 843.4C659.2 836.1 621.1 820.2 592.4 792.9C563.8 765.6 545.7 725.9 549.8 686.5C553.9 647.1 583 610.1 621.7 601.8C672.3 591 728.9 627.2 774.4 602.6C803 587.1 815.2 553.3 826.3 522.8C837.5 492.3 853.1 458.9 883.8 448.2C915.6 437.1 949.9 455.3 976.6 475.8C1006.5 498.7 1033.5 525.2 1062.8 548.9C1092.1 572.5 1124.6 593.6 1161 603.1C1197.5 612.6 1238.6 609.3 1269.3 587.5C1300 565.7 1317.1 523.5 1303.7 488.3C1295.9 467.7 1279.1 451.5 1271.3 431C1261.6 405.4 1267.8 374.6 1286.7 354.8C1305.6 335 1336.1 327.2 1362.1 335.7" stroke="#91D6E8" stroke-width="2.4666" stroke-miterlimit="10" stroke-linecap="round" stroke-dasharray="12.33 12.33"/>
</g>
<defs>
<clipPath id="clip0_2001_2">
<rect width="406.3" height="440.537" fill="white" transform="translate(185 -192.761)"/>
</clipPath>
<clipPath id="clip1_2001_2">
<rect width="913.1" height="273.6" fill="white" transform="translate(549 737.69) rotate(-76.1861)"/>
</clipPath>
<clipPath id="clip2_2001_2">
<rect width="815.4" height="513.7" fill="white" transform="translate(548 331)"/>
</clipPath>
</defs>
</svg>
