<svg width="1461" height="899" fill="none" xmlns="http://www.w3.org/2000/svg"><path fill-rule="evenodd" clip-rule="evenodd" d="m464.496 783.307-13.504-7.271c2.424-.693 5.54-.693 6.925-2.424.693-1.039-1.038-4.156-1.731-6.926-2.077 3.809-3.462 6.579-4.847 9.35-2.77-3.117-5.887-6.58-9.003-10.043 2.078-1.385 3.116-2.424 3.463-2.77-4.848-3.809-6.233-8.657-5.54-13.851l-3.117 1.039c0-1.039-.692-2.424 0-3.117 1.385-2.424 3.117-4.502 5.194-6.926-1.385-2.077-3.116-4.501-5.194-6.925-.692-.347-1.731-.693-2.423-.693 1.385-1.731 2.77-3.463 4.155-4.848.692.693 1.385 1.039 2.077 1.732.693 1.038 1.039 1.731 2.078 3.462 1.038-2.077 2.77-4.155 2.423-5.194-2.077-5.54 1.732-10.388 2.078-15.236v-2.424c-5.194-1.385-6.233-4.502-4.155-9.35.692-1.385 1.731-3.463 1.039-4.502-1.732-5.194.346-9.349 2.423-13.851 3.463-7.618 5.194-15.236 4.502-24.24-.347-6.925 2.423-13.851 3.462-20.777 1.039-7.272 2.078-14.89 2.424-22.162.692-10.735-1.731-13.851-11.426-18.699-4.155-2.078-8.31-4.848-11.427-8.311-2.423-2.77-2.77-7.272-4.847-10.388a467.984 467.984 0 0 0-15.581-23.894c-2.078-3.116-2.424-7.964.346-10.735 1.039-1.038 2.424-1.731 4.847-3.809-6.232-.692-6.232-3.463-4.847-6.579 1.385-3.463 1.731-6.926 5.886-9.35 3.116-1.731 6.233-5.194 7.271-8.657 1.385-5.194 1.732-10.735-1.731-15.583-.692-1.038-1.385-2.424-2.424-3.116-1.038-1.039-2.423-3.463-3.116-3.117-1.731.693-2.77 2.078-4.155 3.117-1.039 1.039-1.731 2.078-2.77 1.385-2.77-1.039-6.578-1.385-8.31-3.117-4.155-3.809-10.387-4.501-12.465-11.427-1.038-4.155-5.193-8.657-11.772-9.35-6.233-.692-12.811-1.731-16.966-7.618-2.424-3.463-5.887-5.194-10.388-3.116-.692.346-1.731.346-2.424.346-13.157-1.039-24.583-6.233-34.624-14.89-1.732-1.385-2.078-4.848-3.117-7.272-.346-1.039-.692-2.424-1.385-3.117-4.501-5.54-10.387-10.388-13.503-16.621-4.502-8.657-14.889-11.774-16.967-22.162-.346-1.732-2.77-2.771-4.501-4.156-.692.693-1.385 1.039-2.077 1.732 6.925 11.773 13.85 23.201 21.121 34.974-3.809-3.116-11.426-2.077-10.388-10.042 0-.693-1.731-2.078-2.77-2.77-2.77-2.078-5.54-3.809-8.31-5.887 1.039-1.731 1.732-3.117 2.424-4.502-.346 0-1.039.347-1.385.347-3.462-5.887-6.579-12.12-10.041-17.661-1.731-2.77-4.155-6.233-7.271-7.272-7.964-2.424-11.08-8.657-14.196-15.236-.693-1.732-2.424-2.77-3.117-4.502-1.731-4.848-4.501-9.35-4.847-14.198-.693-5.54.692-11.773.346-17.314 0-6.233-.692-12.12-1.385-18.353 4.155-1.039 5.54-.346 8.31 3.809-.346-4.155.693-8.657-5.194-10.734-2.423-.693-4.155-3.463-5.886-5.195-.346.347-.692.347-1.039.693 2.77 3.117 5.194 5.887 7.964 9.003l-1.039 1.039c-7.617-1.385-12.118-8.311-19.39-11.427 1.732-1.385 2.77-2.078 3.809-3.117-2.077-4.501-4.501-9.003-6.925-14.197-7.271 2.077-4.155-8.657-10.041-9.696-.693 1.039-1.385 2.424-2.078 2.77-1.038.346-3.462 0-3.462 0-.346-5.887-3.809-8.311-8.656-10.735-1.039-.692-1.385-2.77-2.424-4.155-1.731-2.77-4.155-4.502-7.271-6.579-7.964-5.195-15.581-9.004-25.276-9.004-4.155 0-8.31-3.463-12.465-4.848-2.078-.692-4.155-.346-6.925-.692 1.731 4.155.692 5.886-3.463 6.579-3.116.693-6.232 2.77-10.041 4.848.346-3.463.693-6.233 1.039-9.696-3.463 2.77-8.31 5.194-8.656 7.965-.693 7.618-6.925 8.31-10.734 12.466-7.964 7.964-17.659 11.081-28.046 14.197-.347 0-.693 0-2.078-.346 1.385-1.039 2.078-1.731 3.116-2.424 5.54-2.424 10.388-6.233 15.582-9.35 3.808-2.424 6.232-5.194 6.925-10.388-5.194.346-10.388 1.039-15.235 1.039-1.385 0-2.77-2.424-3.81-3.809-1.384-2.424-2.423-4.156-5.54-3.809-1.73 0-3.808-1.386-5.193-2.424-2.077-1.732-3.462-4.156-4.847-6.58-.346-.692 0-2.424.346-3.116.692-1.385 2.078-2.771 2.424-4.156.692-4.155 3.116-4.501 6.925-4.501 3.116 0 6.232-1.386 9.002-2.424.693-.347 1.039-1.732 1.039-2.424 0-1.732-.693-3.463-1.039-5.541-9.695 4.502-19.043 4.848-26.661-5.194 5.194-3.117 9.695-7.618 16.62-3.463 1.731 1.039 4.501-.693 6.925-1.039-1.385-1.731-2.77-3.809-4.501-5.194-4.502-3.463-9.349-6.233-15.235-10.042 3.462-2.424 5.886-3.463 7.963-4.502 1.732-.693 4.848-.693 5.194-2.078 2.424-5.194 6.579-7.964 12.119-9.349 2.424-.347 4.847-1.385 7.271-1.732.693-.346 2.078 0 2.424-.346 4.501-4.848 9.695-2.77 14.889-1.385 14.888 4.155 30.123 5.887 45.358 6.926 7.618.692 15.235 2.077 22.16 5.54 3.809 2.078 7.964 2.424 11.773-1.039 1.038-1.039 2.423-1.385 4.847-2.77-1.039 2.078-1.385 3.117-1.731 3.809 6.232-2.424 12.465-4.848 19.043-6.926.347.693.347 1.039.693 1.732-2.078 1.039-4.155 2.424-6.233 3.463.347.346.693 1.038.693 1.385 4.501-2.424 9.002-4.848 14.542-7.618 1.732 1.731 4.502 4.501 7.618 7.272 1.385-1.732 2.424-3.81 4.155-6.234 1.039 2.424 1.385 3.81 2.424 5.887 5.193-5.194 10.733-2.077 15.927-1.039 5.886 1.385 11.426 2.771 17.312 4.156 2.77.692 6.579.692 5.54 5.887 0 .346 2.77 2.077 4.155 2.424 5.194.346 10.388 0 15.235.692 3.117.346 5.54 3.117 9.003 4.848-.346-1.385-1.039-3.116-1.731-5.194 3.462-4.848 7.963-5.887 13.157-2.77 8.31 5.194 23.199 3.116 28.392-3.81-2.423-.692-4.501-1.038-6.578-1.731 2.077-2.424 3.808-4.155 5.886-6.579 1.731.692 4.155 1.039 6.232 2.424 5.194 2.77 4.848 4.848-.692 7.964 1.385 2.424 2.77 5.194 4.155 7.618.692 0 1.039.347 1.731.347-3.809-7.619 4.501-5.195 5.194-7.965-.346-2.77-.346-4.848-.693-7.618-2.077-1.039-5.886-1.385-7.963-3.809-1.732-2.078-1.385-5.887-1.732-9.004 6.925-4.155 7.272-5.194 4.848-12.119-2.078-6.234 1.731-11.774 8.31-10.735 3.809.692 7.964 1.039 11.772 1.385-.346 5.194-5.54 9.35-11.772 10.042-.693 1.732-1.731 3.809-2.424 5.887 2.77 3.809 5.886 7.272 8.31 11.081 1.039 1.385.346 3.809.346 5.887 6.925-1.732 4.502 5.887 7.272 9.349.692-1.385 1.038-3.116 2.077-3.462 1.385-1.039 3.463-2.078 4.155-1.386 1.385 1.039 3.463 3.117 3.116 4.848-.692 4.848-1.038 4.848 3.463 8.311 2.424-4.155 4.847-8.311 7.271-12.12 0 0-.346 0-.346-.346 1.039-1.731 1.385-4.848 3.116-5.54 4.501-2.078 11.772 2.077 13.85 7.271-5.194 4.156-5.194 4.502.692 10.043-4.154 3.462-8.309 6.579-12.118 10.042-.693-.346-2.078-1.039-3.463-1.385h-4.155c-2.077 2.077-4.155 4.155-6.578 6.233 1.731 3.116-.693 6.925-6.233 7.618-3.462.346-6.925.693-6.925 5.541 0 .692-1.385 1.385-2.077 2.077-3.809 3.809-8.657 6.926-11.773 11.081-2.077 3.117-1.385 7.619-1.731 11.774 0 .693 1.385 1.731 2.077 1.731 4.502 0 5.194 3.117 5.887 6.58.346 2.077 1.038 3.463 4.155 3.463 4.847.346 10.387 1.385 14.196 4.155 5.54 3.809 10.734 5.541 16.966 6.233 7.617.693 8.31 1.039 7.964 8.657-.693 6.58 4.155 9.003 7.617 12.466.693.693 3.463 0 4.501-1.038 1.039-.693 1.732-2.425 1.732-3.81 0-1.038-1.039-2.424-1.385-3.809-2.77-7.618-2.424-7.618 3.808-12.812 6.233-5.541 6.925-10.389 1.732-15.929-2.77-3.117-2.77-5.194-1.385-9.35 1.385-3.809.346-8.657 0-12.812-.347-5.195.692-5.887 5.886-4.848 3.809 1.039 7.271 2.424 11.426 0 1.385-.693 5.54 3.116 8.31 5.194 1.731 1.385 3.809 2.77 5.194 4.155 1.385 1.385 2.77 3.117 3.116 4.848.346 6.926 3.116 10.735 9.695 10.389 2.77 0 5.194-3.463 7.618-5.887 1.384-1.385 2.077-3.809 2.769-5.194 2.77 3.809 5.54 7.618 7.964 11.427 2.078 3.463 2.77 7.618 4.848 10.735 2.423 3.116 5.54 7.618 8.656 8.311 6.232 1.385 9.002 6.579 13.504 9.349 3.808 2.424 2.077 7.618-1.732 9.696-4.501 2.424-8.656 5.194-12.811 7.965-.692.346-1.731.692-2.77.692h-11.08c-13.503-1.039-16.966.347-26.315 11.428 7.618-3.809 13.85-8.657 23.199-3.463-2.77 1.731-4.155 2.77-5.886 3.809.692 1.385 1.731 3.116 2.423 4.848 1.732 4.502 5.194 6.579 10.042 5.887 1.385-.347 2.77.692 4.155 1.385-.347 1.039-.693 2.424-1.385 2.77l-15.581 7.272c-.347.346-1.386 0-3.809-.346 2.423-3.809 4.501-6.926 6.578-10.389-7.271 3.463-14.542 6.58-21.813 10.389-3.463 1.731-3.463 6.579.346 9.349-4.155.693-7.964 1.039-13.157 1.732l3.462 1.731c-.346.346-.346.693-.692.693-7.272.346-8.657 6.925-11.427 11.773-.692 1.386-2.077 2.078-3.116 3.117-.346-.346-.692-.346-1.039-.693.347 2.771.693 5.887 1.039 8.657.346 3.117-1.039 4.848-3.809 6.58-6.232 4.501-12.118 9.349-17.312 14.89-1.385 1.385-.346 5.541.692 7.964 2.77 6.58 3.117 12.813.693 20.085-4.155-4.502-7.618-8.657-8.31-14.544 0-1.039-.346-2.424-1.039-2.77-7.963-3.809-15.927-8.311-25.622-5.195 0 1.386.346 2.771.346 4.156-2.424 0-4.847 0-6.925-.693-6.925-1.731-13.504-1.039-19.736 2.424-4.848 2.771-6.579 5.195-5.886 11.081 0 1.039 0 2.078-.347 2.771-3.462 5.54-1.731 11.081.347 16.275 1.385 3.809 2.77 7.618 4.847 10.735 1.385 1.731 4.155 3.809 6.233 3.809 7.271 0 14.196-.346 17.312-9.004 1.385-4.155 7.271-5.194 13.85-3.462-1.731 5.886-3.116 12.12-5.194 18.006-1.038 3.463-.346 4.848 3.463 4.848 3.462-.346 6.579 0 10.041 0 4.848 0 7.271 2.771 6.579 7.619-.347 3.116-.693 6.233-1.385 9.349-1.039 6.58 5.193 12.813 11.772 11.774 4.501-.693 9.349-4.156 13.85 1.039.346.346 4.155-2.424 5.886-3.809 2.078-1.732 3.809-3.81 6.233-4.848 3.116-1.386 6.925-1.386 8.31-5.195.346-.692 2.077-.692 3.809-1.039-.693 2.078-1.385 3.117-2.078 5.195 2.424-.347 3.809-1.039 5.54-.693 3.116 0 6.233-.692 9.695 1.732 3.809 2.424 9.349 1.731 14.196 1.731.693 0 1.385-1.731 2.078-2.77 3.116 1.385 6.232 2.77 9.002 4.501 1.039.693 2.424 1.386 2.77 2.078.693 5.194 4.848 5.541 8.656 6.579.347 0 1.039.347 1.385.693 4.155 6.579 10.734 6.926 17.659 7.965 6.579 1.038 13.504 4.155 14.889 12.466.692 3.116 4.155 5.54 2.77 9.349 0 .347 2.424 1.732 3.462 2.771 1.039 1.038 2.424 2.077 3.809 3.116 4.501-2.77 9.349.346 14.196 2.77 5.194 2.771 10.734 5.195 16.966 4.156 1.039-.346 2.424 0 3.117.346 5.886 3.117 10.387 7.965 17.312 9.696 4.155 1.039 4.501 12.12.693 17.314-3.463 4.848-7.618 9.004-10.734 13.852-1.731 2.077-3.463 5.194-3.116 7.618 1.731 11.773-4.848 21.123-9.349 31.165-1.385 3.117-3.809 4.502-7.964 5.194-7.617 1.039-14.889 4.156-20.429 10.043-1.038 1.039-2.077 2.77-1.731 3.809 1.385 9.696-4.847 15.929-10.387 22.508-2.424 2.77-4.501 5.194-6.233 8.311-3.462 6.233-8.656 8.657-15.581 7.272-2.077-.346-4.155-.693-6.579-.693 6.925 9.35 5.194 14.891-5.886 19.046-1.731.692-3.809 1.385-5.886 1.731-6.233 1.039-7.271 2.771-5.194 9.004-4.501.692-8.656 1.038-13.157 1.731 0 .693-.347 1.039-.347 1.731 2.078 1.386 4.502 2.771 7.272 4.502-1.385.693-2.77 1.039-3.809 1.385 1.039 6.926-5.194 9.35-9.002 13.159-3.117 3.117-2.77 5.541 1.038 7.965 3.809 2.77 3.463 4.501.347 7.618-4.155 4.155-7.618 8.657-11.08 13.159-.693.692.692 2.77.692 3.809.346 1.385.346 2.424.346 3.809-.346 0-1.038.346-1.385.346 4.848 4.502 9.695 9.35 14.543 13.851-2.424.347-5.194.693-7.964 1.732-.692.346-1.039 1.731-1.385 2.77-.346 1.731-1.039 1.731-1.385 1.731ZM615.807 62.693c5.193.692 10.387.692 15.235 2.077 8.31 2.424 16.62 5.54 24.93 8.311 0 .346 0 1.039.346 1.385-6.233 1.039-12.465 2.77-18.698 2.424-7.617-.346-19.39.693-26.661 4.156 9.695-.693 19.044-1.386 28.393-1.732 0 .346.346 1.039.346 1.385-1.039 1.04-2.424 1.732-3.463 2.77 0 .347.347.347.347.693 2.423-1.039 5.193-2.078 7.617-3.116.693-.347 1.385-1.386 2.078-1.386 2.77-.346 5.193-.346 7.963-.692-1.038 2.078-1.731 4.501-2.77 6.58-.346.692-.692 1.038-2.077 2.423 3.116-1.385 5.194-2.77 7.617-3.463 2.424-.692 4.848-.692 7.618-1.038 1.731-.347 3.809-.693 5.194-1.386 8.656-4.847 16.966-2.77 26.314 1.04-9.002 2.77-15.234 10.041-25.968 7.964 2.77 1.731 4.501 2.77 7.617 4.501-5.886 1.04-10.733 1.732-15.235 2.424v.693c3.117-.346 6.579-.693 9.695-1.039-.346 3.809-.346 3.809-5.886 2.424-3.462 5.541-7.271 11.081-10.734 16.622 4.155.692 7.618 1.039 11.427 1.385-1.385 1.731-2.078 2.424-2.77 3.463l1.038 1.039c1.732 1.038 3.463 1.731 5.194 2.77-2.077.346-4.155.692-5.886.692l-10.388 1.039c0 .693-.346 1.385-.346 2.078 3.463 1.039 6.579 2.424 10.388 3.463 2.077 7.272 2.077 7.272-3.809 7.618 2.424 2.424 4.501 4.155 6.579 6.233-3.463 4.848-9.349-4.155-12.119 2.424 2.424.693 4.847 1.385 7.617 2.424-3.462 4.848-9.002 5.887-13.85 3.463-1.385-.693-3.116-1.039-4.847-1.039-3.116 0-3.809 2.078-1.731 4.155a76.046 76.046 0 0 0 7.963 6.926c1.385 1.385 4.155 2.078 4.502 3.809.692 2.424.346 5.194.346 7.965-2.77-.347-5.54.346-7.964-.693-2.077-1.039-3.462-4.502-5.54-5.194-1.731-.346-4.155 2.078-6.232 3.116 1.731.347 3.462.693 6.232 1.039-2.077 1.385-3.462 2.078-4.847 3.117 5.54.346 10.387 1.039 15.581 1.385-9.695 8.311-19.736 15.236-31.855 14.544-7.271-.346-10.041 3.116-13.157 7.618-3.463 4.848-8.657 7.272-14.197 8.657-.692.346-2.077-1.039-3.116-1.731-2.77 1.731-6.232 3.809-9.349 6.233-3.116 2.077-3.462 4.501-2.077 7.964.346.693-.346 2.078-.693 2.424-2.077 2.078-4.501 4.156-7.271 6.233 3.809 5.541-2.77 9.35-2.77 14.544-2.077-.346-4.501 0-6.579-.692-1.385-.693-2.423-2.771-3.462-4.156-7.964 1.385-13.85-.346-16.966-8.657-1.385-3.463-5.194-4.848-5.54-8.657l4.155-5.194c-.346-.346-.693-.693-1.039-1.385-2.077 1.039-3.809 1.731-5.194 2.424-2.077-4.502-4.501-9.004-6.925-14.198 0-.346 1.039-1.039 1.732-1.731-1.039-.693-2.078-1.039-3.117-1.732.693-5.886 3.809-9.003 9.003-11.081 1.385-.346 2.77-2.424 3.462-3.809.347-1.039-.692-2.77-1.731-3.463-4.155-2.77-8.31-5.54-12.465-7.964 4.848-2.77 8.656.346 13.158 2.77-.693-4.502-3.809-6.926-7.964-6.233.346-1.385.346-2.424.692-3.809a646.63 646.63 0 0 1-11.08 1.039c.693-3.117 1.732-4.848 1.732-6.926 0-1.731-.693-3.463-1.385-5.194-1.385-3.117-2.77-6.233-4.502-9.35-1.038-2.078-2.423-4.155-4.155-5.887-2.77-2.77-5.193-5.886-8.31-7.272-3.116-1.731-7.271-2.424-11.08-2.424-6.925 0-13.85 1.039-20.774 1.386-1.039 0-2.424 0-3.463-.347-4.155-2.77-7.964-5.887-13.157-9.349a267.94 267.94 0 0 0 12.811-2.424c-7.271-2.771-14.543-2.424-18.351-9.35 8.656-2.424 16.966-4.155 25.276-6.926 2.77-1.038 4.501-4.155 7.271-6.579-4.501-1.039-7.617-1.731-11.08-2.424v-1.385c7.964-2.77 14.889-8.657 24.93-7.618-.693-9.004 7.271-7.965 12.119-9.696 3.808-1.385 7.963-1.385 11.772-2.078 3.463-.692 6.579-.692 8.656 3.117.347.346 1.385.692 3.117 1.038-1.039-1.731-1.732-2.77-2.078-3.809.346-.346.346-.692.693-1.038 3.808 1.73 7.963 3.462 11.772 5.194.346-.347.693-1.04 1.385-1.385-.692-.347-2.077-.347-2.424-1.04-.692-1.038-.692-2.423-1.038-3.462 1.038-.346 2.077-.693 3.116-.693l16.62 5.195c1.385.346 2.77 1.038 5.193 2.077v-9.696c.347 0 1.385-.346 2.77-.346-2.077-.692-3.808-1.039-5.886-1.731 5.194-2.77 10.041-4.502 15.581-2.078 2.77 1.039 5.887 1.731 8.657 1.731 1.385 0 2.423-2.077 3.808-2.77 1.039-.692 2.424-1.731 3.809-2.078 4.155-.692 7.964-1.385 12.119-1.731 3.809.693 8.31.693 12.465.693ZM662.204 375.732c2.424.693 4.848 1.039 6.925 1.732 10.388 1.731 18.005-6.58 28.046-6.926 10.734-.346 21.468-1.385 31.509-2.078v8.658c.346 0 1.039 0 1.385.346-1.385 1.731-2.77 3.809-4.501 6.579 5.54 2.078 10.387 3.809 15.581 5.541 2.424 1.039 4.501 2.77 6.925 3.809 4.847 2.078 9.695 4.155 14.542 5.887.693.346 3.116-2.424 3.463-3.809 1.038-5.541 3.462-7.272 9.002-6.234 8.31 2.078 16.274 4.156 24.584 5.887 2.424.347 4.847 0 7.271 0 3.116 0 6.233-.346 9.349.347 4.155 1.038 7.271 0 9.348-3.81 3.809-6.233 6.925-12.466 4.502-20.777-1.732.347-4.155.693-6.579 1.039-2.424.347-4.501 1.039-6.579.693-3.462-.693-6.232-2.078-10.041.346s-13.85-6.233-13.85-11.081c0-3.116-1.385-6.579-2.424-9.696-1.038-2.078-6.578-1.731-7.963.693-.693 1.039-1.385 2.077-2.424 3.463 1.039 2.077 2.77 4.501 4.155 7.271-3.116 1.732-6.579 3.463-5.194 7.965-4.847.693-6.579-2.078-7.964-6.233-.692-2.424-2.423-4.155-3.462-6.233-1.385-2.424-3.809-4.848-3.809-7.618-.346-4.848-3.116-7.272-6.925-9.696-4.155-2.771-7.617-6.233-11.426-9.35-2.077-1.731-4.847-3.117-7.271-4.502-.346-.346-2.078.693-2.424 1.039-.346 1.732-.346 4.156.346 5.194 5.194 6.234 10.734 12.813 18.698 16.276 1.731.692 3.116 2.077 4.847 2.77 0 .346-.346.693-.346 1.039-1.039 0-2.078 0-3.116-.346-2.77-.693-4.501-1.039-3.116 3.116.692 1.732-1.039 4.502-2.424 6.579-1.385-9.003-7.964-12.466-14.196-16.275-3.809-2.424-7.272-6.233-9.695-10.042-2.424-3.463-5.194-4.155-8.31-2.078-4.848 3.117-9.349 5.541-15.235 2.078-1.039-.346-5.194 2.424-5.194 3.809-.346 3.463-1.731 4.848-4.501 6.579-4.848 2.771-9.349 6.234-9.003 13.159.346 3.809-6.578 9.004-10.733 9.35-3.117.346-5.887.692-9.003 1.385-2.77.693-5.886 2.078-7.617-2.078-.347-.692-2.77-.692-4.502-.346-2.77.693-3.808 0-4.501-2.77-1.385-4.502-2.077-8.311 0-12.813 1.039-2.424.346-5.887 0-9.003-.692-5.541 1.731-8.311 7.271-7.965 5.194.347 10.734.693 15.928 1.039 5.194.347 7.617-1.385 7.964-6.579.692-5.194-3.117-11.427-7.964-13.505-2.078-1.039-4.155-2.078-6.925-3.809 2.424-1.385 3.462-2.424 4.847-2.771 4.155-1.038 8.657-1.731 12.812-2.77 1.731-.346 4.154-.692 4.847-2.077 4.155-7.272 13.504-9.004 16.62-17.315.692-1.731 4.155-2.77 6.579-3.116 10.041-1.385 10.041-1.039 8.656-10.042-1.731-9.696-1.731-9.696 7.964-13.852.346 4.848.692 9.35 1.038 14.544-.692 0-2.077.346-3.808.693 3.462 3.809 6.578 6.925 11.772 3.463 1.731-1.386 4.155-2.424 5.194 1.385 0 .346 2.77.692 4.155.346 3.116-.693 5.886-2.424 9.002-3.117 2.078-.346 4.502-.692 6.233-.346 5.54 1.732 10.041-1.039 10.387-6.926v-4.155c.693-5.194 4.155-6.926 8.656-4.502 1.039.693 2.078 1.039 3.809 1.732 0-2.424.346-4.502 0-6.233-1.039-5.195.693-7.965 5.886-8.311 3.809-.346 7.964 0 12.119 0 1.385-4.502-.692-6.233-4.501-5.541-4.501.693-9.003 1.732-13.158 2.424-3.808.693-7.617.693-9.002-3.462-1.731-4.502-2.77-9.004-3.463-13.852-.346-1.385 1.732-3.463 3.463-4.501 3.462-3.117 7.617-5.541 11.08-8.311 2.77-2.424 2.424-4.502-1.039-5.887-5.886-2.078-11.426 1.731-12.811 7.618-.693 2.424-3.809 4.848-6.233 6.233-4.155 2.771-9.002 5.195-10.041 11.081-.692 3.809-1.038 6.926 3.117 8.657 1.385.693 2.077 2.078 3.808 3.81-2.424 2.424-5.194 4.155-6.925 6.579-1.731 2.77-3.116 6.233-3.462 9.696-.693 3.463-2.078 5.54-5.54 5.54-1.039 0-2.424.693-2.77 1.385-2.078 4.156-4.501 2.771-6.233.693-1.731 1.385-3.462 2.77-6.232 4.848 1.039-5.887 3.116-10.388 2.424-14.198-.693-4.501-3.117-8.657-4.848-12.466-3.809 2.77-7.271 6.233-11.426 7.965-2.424 1.039-6.233-.693-10.041-1.385 1.385-2.771 2.077-3.81 3.116-5.541h-4.501a38.662 38.662 0 0 1 3.116-3.463c-4.848-6.925-3.463-11.773 3.809-15.582 2.77-1.386 4.501-4.156 6.925-6.234.692-.692 1.385-1.038 2.077-1.731 1.385-1.039 2.77-2.424 4.155-3.463.693-.692 1.385-1.731 2.078-1.731 6.578-.693 7.617-6.58 10.387-10.735 2.078-3.463 4.848-6.579 7.618-9.35 2.423-2.424 5.54-4.848 7.963-7.964-1.731.346-3.808 1.039-5.886 1.731-.692-.692-2.077-1.385-3.116-2.424 1.385-1.385 3.809-1.385 11.08-1.039-.693-3.809.346-4.848 4.501-5.194 4.847-.692 9.695-3.116 14.196-4.848 1.039-.346 1.731-1.731 3.116-3.116 2.77 3.116 7.964-4.848 12.119 1.039 1.039-.693 2.078-1.732 3.463-3.117.692 1.039 1.038 1.731 1.731 2.77 6.579-8.311 10.734 1.732 16.62 1.385-1.039 1.039-2.078 2.078-3.809 3.463 6.925 1.732 13.504 2.77 19.39 4.848 8.31 3.117 16.274 6.58 24.237 10.389 2.77 1.385 3.463 4.155.347 7.272-4.502 4.501-9.003 5.54-14.889 3.809-4.848-1.385-10.041-2.424-15.235-2.771l2.077 2.078c1.385 2.078 3.117 3.809 3.463 5.887 1.039 5.887 5.886 9.696 12.119 9.003-1.385-2.077-3.117-4.155-4.502-6.233l1.039-1.039c4.501 1.385 8.656 2.424 13.158 3.809.346-.346.346-1.038.692-1.385l-2.424-4.848c4.848-2.424 8.657-7.272 15.582-5.54 3.462 1.039 4.501-1.039 3.116-4.156-.346-1.038-1.039-2.424-1.039-3.462v-8.311c2.77.692 6.233 1.385 9.003 2.77.346 0-.693 3.117-.347 4.502 0 2.077.347 3.809.693 5.887 1.731-.347 4.501-.347 5.194-1.386 3.808-7.271 11.772-7.618 18.004-10.734.693-.347 1.732 0 2.424-.347 5.194-2.424 5.194-2.424 7.618 2.078 5.193-1.385 10.041-2.424 15.235-4.155 3.462-1.039 5.54-1.039 5.54 3.116 6.232-1.039 3.462-5.54 4.155-9.696 3.462 0 7.271-1.039 10.733.347 7.618 2.424 15.235 6.233 22.853 9.349 3.116-3.116-.347-5.194-2.078-6.579-3.116-2.078-5.54-4.156-3.809-8.311.347-1.039-1.038-2.424-1.038-2.77 3.116-4.848 5.194-10.735 9.002-13.159 3.463-2.078 9.003-.692 13.504-1.039v9.35h.346c.346 3.463.693 6.926 1.385 10.388.693 3.463 1.039 6.926 2.424 10.389 1.731 4.155-.346 6.925-3.116 9.003-3.463 2.424-7.618 4.156-12.465 6.58 3.808.346 7.963 2.077 10.041.692 4.847-2.77 11.08-5.54 9.695-13.159-.693-5.54 4.155-3.462 7.271-6.233h-4.847c-4.848.347-6.579-1.731-5.887-6.579.347-2.77-.346-5.541-.346-8.311.346-2.078 1.039-4.155 2.078-5.887 1.385-2.077 3.116-3.809 4.847-6.233.346 1.039 1.039 2.77 1.039 4.156-.693 6.233.692 7.618 7.967 7.272-2.08-1.039-3.812-2.078-5.543-3.117v-1.385l6.233-1.039c-.69-2.77 2.42-4.155 7.96-2.424 3.47 1.039 6.93 2.424 10.39 3.463.69-1.039 1.39-1.732 2.08-2.77-1.39-.347-2.77-1.039-3.81-1.039-4.16 0-4.16-2.771-5.19-5.887-1.39-3.809 0-4.502 3.46-4.848 5.88-.346 11.77-1.385 18-2.078 1.04 0 1.73-.346 2.77-.692-.69-4.502 1.39-7.618 5.54-9.35 6.93-2.77 13.85-5.54 20.78-7.618 3.11-1.039 6.58 0 10.04-.346 5.19-.693 10.39-1.732 15.58-2.771 2.42-.346 4.85-1.039 7.27-1.385 2.43-7.964 12.47-11.773 21.47-7.618l-3.12 2.078 8.31 4.155c-.34.346-.34.693-.69 1.039 4.5-.693 9-1.385 13.85-1.732 5.54-.692 8.31 4.848 12.46 6.926.7.346-.69 4.156-1.38 6.233-.35.693-1.73 1.385-2.77 1.732-8.31 4.501-16.62 8.657-24.58 13.158-.7.347-1.74 1.039-2.08 2.424 2.77-.346 5.88-.346 8.31-1.038 2.77-.693 5.54-2.424 8.31-3.463-.69-.347-1.04-.693-3.12-1.732 3.12-.346 5.2-1.039 7.27-.692 9.7 1.039 19.74 1.731 29.09 4.155 4.5 1.385 8.65 3.809 13.85 3.809 3.11 0 7.27 1.385 7.96-4.501 0-.693 4.5-1.732 6.58-1.386 3.46.347 6.93 2.078 10.39 3.117 5.19 1.385 7.27 4.155 7.27 9.35 0 2.77-1.04 5.886 3.12 7.272 4.15 1.731 6.23 0 8.31-3.117.69-.693 1.38-1.385 1.38-1.731 9.7 3.462 19.04 3.462 28.74 1.731-.35-1.731-.69-3.809-1.04-5.541 9.35-6.925 19.39-3.116 29.09-.346 3.11.693 6.57.346 9.69 1.039 1.39.346 2.42 1.731 2.77 3.117 3.81 2.077 6.93 5.194 11.08 6.233 3.46 1.039 7.62.346 11.43.346 3.46 0 6.92-.693 10.38-.693 4.16 0 7.97 1.386 9.7 5.541 1.38 3.116 3.46 4.502 6.92 4.155a275.28 275.28 0 0 1 23.9 0c2.07 0 3.8 2.424 5.88 3.463 1.73.693 3.81 1.039 5.54 1.732.35-2.078.35-3.81.69-6.58 1.74-.346 3.81-.692 5.54-.692 2.77 0 5.2.692 7.97.346 6.23-.693 11.77 1.039 17.31 3.463 6.23 2.77 12.81 4.501 18.7 7.618 3.46 1.731 6.23 5.194 9 8.311 1.04 1.039 1.73 3.116 2.08 3.809 2.42-1.039 4.5-3.117 5.88-2.77 4.16 1.038 9.01 1.731 10.74 6.925.34.693-1.73 2.771-2.77 2.771-5.54.692-6.24 4.501-6.58 9.695-3.12-1.038-5.89-2.077-8.66-3.462a213.61 213.61 0 0 1-12.81-5.887c-1.38-.693-2.42-2.77-4.15-4.502-1.39 2.77-2.08 6.233-4.5 7.965-2.43 2.077-5.89 2.424-9.01 3.809 2.43 3.116 4.85 5.54 6.58 8.657 1.73 3.116 0 5.887-3.11 4.848-7.97-2.424-13.51 3.116-20.09 5.54-3.11 1.039-5.54 3.463-8.31 5.541-3.46 2.424-6.92 4.155-11.08 2.424-.34-.346-1.04-.346-1.38 0-4.5.692-9.35 1.039-13.85 2.424-7.27 1.731-7.97 2.424-10.74 8.657 1.39 5.194 2.43 9.35 3.81 13.851-5.19-.692-6.92 1.732-5.88 6.233.34 1.039-1.39 3.117-2.77 3.463-2.43 1.039-4.85 2.078-4.85 5.541v.346c-4.5 4.155-9 8.311-13.16 12.12-.69 0-1.04-.346-1.73-.346-1.04-8.311-2.77-16.968-2.77-25.279 0-5.887 3.81-10.042 9.7-13.159 4.84-2.424 8.65-7.272 13.15-10.735 2.43-2.077 5.2-3.809 7.62-5.54 4.5-2.77 3.12-7.272 3.81-11.427-1.39.346-2.08.346-2.08.346-.69 5.54-5.54 6.579-9 9.349-1.39 1.039-3.12 1.386-4.85 2.078-.34-2.078-1.04-3.809-1.38-6.233h-.35c-10.39-3.463-15.23 4.155-20.43 10.735-.69 1.039.35 2.77.35 4.501-3.12.693-6.58 2.078-10.39 2.771-1.04.346-3.12 0-3.46-1.039-2.77-5.541-6.58-4.155-11.43-2.77-3.81 1.385-8.65 1.731-12.81 1.038-5.89-1.038-11.08 0-15.58 3.463-4.16 3.463-7.96 7.272-12.47 11.081-4.5 3.809-9.34 7.272-13.5 10.735 2.42 1.385 4.5 2.77 6.93 4.156 0 0 0-.347.34-.347 1.04.693 2.43 1.385 3.81 2.424 8.66-3.116 9-3.116 14.2 7.965 1.38-3.117 2.77-6.926 4.84-11.774 2.43 10.735 4.51 20.431 6.24 29.78-1.04 0-3.81-.346-4.5.693-3.12 4.502-.7 8.657 1.73 12.813-2.08.346-4.5.692-7.27 1.038v-29.434c-.7 0-1.74-.346-2.43-.346-1.04 3.117-1.73 6.233-2.77 9.35-1.38 3.809-2.08 8.31-4.15 11.427-5.2 7.272-11.08 14.198-16.62 21.123-3.47 3.809-7.27 6.233-13.16 5.195-2.77-.347-7.62 3.116-9 5.886-1.73 3.117-3.47 5.541-6.24 6.926-3.46 1.731-4.5 3.809-1.38 6.926 1.73 1.731 2.77 3.809 3.81 5.886 3.81 7.619 0 13.505-8.66 13.852-.69 0-1.73 0-2.77-.347.35-3.809.69-7.271 1.04-10.734 0-.693.69-1.732.35-1.732-4.16-2.77-6.24-7.618-9.7-10.734-1.38-1.386-6.23 1.385-9.69 2.077-1.04.347-1.73.693-2.77 1.039 2.42-2.77 5.19-5.194 1.38-9.35-2.08 1.386-4.5 3.117-6.58 4.502-2.07 1.385-4.15 2.424-6.23 3.463-1.04.693-2.08 1.385-2.42 2.078 0 .692 1.04 2.077 1.73 2.424 1.73 1.385 3.81 2.424 5.54 3.809h12.46c-4.5 3.463-7.96 5.887-11.08 8.657-1.04.692-1.38 3.116-.69 4.155 1.73 3.117 4.16 5.887 5.89 9.35 1.04 1.731 1.04 3.809 1.73 5.887.69 2.424-2.08 5.54 1.04 7.964.69.346-1.04 3.809-2.08 5.541-2.42 3.809-4.85 7.618-7.27 11.427-5.2 7.618-12.47 11.774-21.12 14.198-5.2 1.385-10.39 3.462-15.24 5.54-1.04.346-1.38 2.424-2.08 3.809 0 0-.34 0-.69-.346-3.81-5.887-5.88-6.233-10.39-2.77-6.57 4.848-7.96 9.349-3.8 14.197 2.07 2.424 4.5 4.502 6.57 6.926 4.16 3.809 4.85 8.657 4.85 13.505 0 2.424-1.04 5.194-2.42 6.579-4.85 4.156-10.39 7.619-15.58 11.428-1.73-10.735-11.08-14.198-17.66-20.085-4.85 5.195-5.89 13.159-2.42 18.7 2.77 3.809 5.88 7.618 9.34 11.081 2.77 2.77 5.2 4.848 5.2 9.696 0 3.116 2.07 6.233 3.11 9.349-4.84.347-11.42-3.463-13.5-7.964-2.42-5.541-3.81-11.774-7.62-15.929-3.81-4.848-3.81-9.004-2.77-14.198 1.04-5.54-2.42-18.353-6.58-24.586h-1.03c-7.28 5.194-7.97 4.848-9.7-3.809-.69-4.156-1.38-8.657-6.23-11.081-1.73-1.039-2.43-4.156-3.81-6.233-1.04-1.732-2.42-3.809-4.16-6.233-2.07 5.54-6.23 6.579-10.38 6.233-3.47-.347-4.85 1.039-6.24 3.809-.69 1.731-2.77 3.116-4.5 4.502-3.81 3.116-7.61 6.233-11.42 9.349-1.39 1.385-2.43 3.117-4.16 5.541-6.23 2.077-7.96 1.039-7.96 11.081 0 5.54-2.08 11.773-3.81 16.968-.69 2.077-4.16 4.155-6.93 4.501-1.03.347-3.458-3.116-4.497-5.194-4.848-11.774-9.695-23.547-13.85-35.667-1.731-4.848-1.385-10.389-2.078-15.929-6.232 6.579-7.617 6.579-13.85-1.385l3.117-2.078s0-.346-.346-.346c-3.463-2.424-7.272-4.502-10.734-7.272-3.116-2.424-5.887-3.463-9.695-3.463-9.349 0-18.698-1.039-28.046-1.731-1.039 0-2.078-.693-2.424-1.386-2.078-4.848-5.886-3.462-10.041-3.462-6.579 0-13.158-2.078-16.62-9.004-1.385-2.77-2.424-5.887-6.579-5.54-1.385.346-3.116 0-3.809.692-.692.693-.692 2.771 0 3.809 2.078 3.117 4.501 5.887 6.579 8.658 1.039 1.385 1.731 2.77 2.77 4.847.693 0 2.077-.346 4.155-.346.346 2.77.346 5.541.692 7.965 9.003 2.77 13.504-3.809 19.044-9.696 0 6.579 3.116 10.042 8.31 12.12 2.77 1.039 4.848 3.462 7.618 5.194-7.964 8.311-12.119 17.314-20.775 22.162 0 0-.347 0-.347.346-12.465 5.195-24.929 10.389-37.048 15.583-1.039.346-2.078 1.039-3.463 1.731-3.462 2.078-7.271.693-8.31-3.116-2.077-7.618-2.423-16.275-8.656-22.508-8.31-8.311-10.041-20.777-18.005-29.435-3.809-4.155-5.194-10.734-13.157-9.349 2.077 4.155 4.847 8.657 6.232 13.159 2.424 8.31 10.388 13.851 9.695 23.201 0 1.038 1.385 2.424 2.424 3.462 2.77 3.117 5.886 5.887 5.54 10.735 0 1.039 2.077 2.424 3.116 3.463 3.809 3.463 7.964 6.579 11.773 10.042.692.693 1.731 1.732 2.077 2.77 2.424 7.272 2.77 7.619 10.041 5.887 6.925-1.385 13.504-2.77 21.814-4.501-.692 3.462-.693 6.579-1.385 9.349-4.501 12.466-11.772 23.201-22.506 31.166-8.656 6.925-16.62 14.544-22.16 24.239-2.424 4.156-5.54 7.965-2.078 13.506.693 1.385 2.424 3.116.347 5.194-.693.692.346 3.809 1.385 4.848 5.193 6.233 3.116 14.197 3.808 21.123.347 4.848-4.847 7.272-9.002 10.042-4.501 3.117-9.349 6.58-13.504 10.389-1.039 1.039-1.385 3.809-1.039 5.886.347 4.156 1.385 8.311 1.039 12.12-.346 2.078-3.116 4.156-5.194 5.195-3.116 1.731-5.539 3.116-5.193 7.618 0 2.424-.693 5.194-2.424 6.926-5.886 6.925-11.772 13.851-18.351 20.43-3.809 4.156-9.349 5.541-14.889 5.541-3.809 0-7.964 1.039-11.772 1.385-2.77.346-6.233.692-8.657-.346-1.731-.347-3.808-3.463-3.462-4.848 1.731-7.965-3.116-13.852-6.925-19.738-4.501-6.926-6.579-13.852-8.31-21.816-1.385-6.233-4.155-12.466-7.271-18.007-6.233-11.427-4.501-21.47 2.77-31.512.692-1.039 1.039-2.424 1.039-3.809-2.424-13.159-3.463-27.01-15.235-36.36-3.117-2.77-6.233-5.886-3.117-11.081 1.039-1.731 1.039-4.155 1.385-6.233 2.424-7.964-1.038-12.466-9.002-12.12-1.731 0-3.463.693-5.886 1.039-5.54-11.427-14.197-9.349-23.545-5.194-.693.346-1.732.693-2.424 1.039-4.501 1.731-9.002 2.77-14.196 1.731-3.463-.692-7.618-.346-10.734 1.039-4.501 1.731-8.31.346-11.772-2.078-3.809-2.424-7.618-5.194-11.08-8.31-1.732-1.732-2.424-4.502-4.155-6.58-3.463-4.501-7.618-8.311-11.427-12.812-1.038-1.039-2.423-2.424-2.423-3.809-.347-10.389 0-20.777 0-31.166.346 0 1.039-.346 1.385-.346-1.385-.693-2.77-1.732-4.848-3.117L621 426.982c1.732-3.463 3.117-7.272 5.54-10.042 3.463-3.809 7.618-6.579 11.427-10.042 3.116-2.77 6.578-5.194 6.232-10.735-.346-3.809 1.385-7.618 5.194-9.696 4.501-2.77 7.964-5.887 10.041-10.735.346-1.038 1.731-1.731 2.77-2.77v2.77Zm134.691-23.893c.346.692.692 1.385.692 2.078 1.732-1.039 3.809-1.732 5.54-2.771 1.039-.346 1.732-1.385 2.77-1.385 3.117-.692 6.233-1.039 9.003-2.078 6.232-2.424 11.772-2.423 17.312 1.386 5.54 3.809 16.62 2.424 21.468-2.424-3.809-8.311-11.773-12.12-19.737-16.622 4.155-1.731 6.925-3.463 5.194-8.657-4.155 1.385-7.617 3.117-12.465 4.848 2.77 1.385 4.501 2.424 6.925 3.463-3.809 1.385-7.271 2.77-10.387 4.155a341.031 341.031 0 0 1-4.502-5.54c.347-.693.693-1.732 1.732-3.117-3.463-.346-6.925-1.731-9.349-.692-2.77 1.385-4.155 4.847-5.886 7.618-1.731 2.77-.693 7.272-5.54 8.311-.346 0-.346 3.462.346 4.848.693 1.731 1.731 3.116 2.77 4.501-2.424.693-4.155 1.385-5.886 2.078ZM1154.57 673.882c2.42-12.812 2.42-12.812-7.96-38.091 3.46 1.039 4.15.692 3.46-3.117-1.04-3.462 0-7.618 0-11.427 0-.693.69-1.385 1.04-1.385 6.58-2.77 12.81-5.887 19.39-7.965 6.58-2.077 11.42-4.848 14.19-11.427.7-1.731 1.39-3.809 4.5-2.424.7.346 3.12-2.77 4.51-4.502 2.42-2.424 4.84-5.886 7.96-7.618 1.38-.692 4.85.693 6.92 1.732 2.43 1.385 4.16 1.731 5.2-1.386 2.08-5.886 6.58-8.31 12.81-8.657-1.04-1.731-1.73-2.77-2.42-3.809 6.57 1.385 13.15 2.771 20.42 4.502-1.03 1.731-1.73 3.116-2.77 4.155-2.42 3.809-2.07 7.619 1.74 10.043 4.5 2.77 9.34 5.194 13.85 7.964 3.8-3.117 5.54-6.579 5.88-11.427.35-5.541 1.39-11.081 2.43-16.968h2.07a78.447 78.447 0 0 0 3.47 7.964c3.11 5.887 7.61 11.081 9.34 17.314 2.08 7.272 6.93 11.082 12.12 15.237 1.39 1.039 2.08 3.463 3.12 4.848 1.04 1.385 2.42 2.77 4.5 3.809 1.39 2.424 2.08 5.194 3.81 6.579 8.66 8.311 9.35 18.353 6.58 29.088-1.04 4.156-3.81 7.965-5.54 12.12-2.43 5.541-4.5 11.081-7.27 16.275-1.04 2.078-2.77 4.502-4.85 5.541-5.54 2.77-10.73 4.155-17.31 3.463-5.89-.347-11.08-1.039-16.28-3.463-1.04-.346-2.42-1.039-2.77-1.732-2.42-4.155-4.5-8.657-6.58-13.158-2.07 1.039-3.46 1.385-5.19 2.077.69-2.424 1.39-4.501 2.08-6.579-.35-.346-.69-.346-1.04-.693-1.39 1.386-2.77 3.117-4.5 4.156-1.04.692-3.46.346-3.81 0-5.54-12.12-12.81-13.159-23.55-12.12-5.54.346-11.77 1.385-16.27 4.155-6.92 4.156-14.2 6.233-22.16 7.272-.69 0-1.38.693-2.42 1.039-8.66 3.117-10.04 3.117-18.7-1.385ZM407.711 72.388c28.046-5.886 56.093-5.54 84.485 2.078-1.731 4.502-6.233 4.502-9.695 5.54-3.809 1.04-7.618 2.078-11.08 3.81h8.31c0 .346 0 .346.346.692-2.424 1.04-5.194 2.078-7.617 3.117-5.886 2.77-13.504 4.848-17.313 9.35-4.155 4.847-7.271 3.462-11.426 2.77-1.731 5.54-6.925 2.77-11.426 4.501 2.077.693 3.462.693 5.886 1.386-2.077.692-3.462 1.038-4.501 1.038 1.731 1.039 3.116 2.078 6.579 3.81-4.502 2.77-8.31 4.501-11.427 6.579-2.77 1.731-5.54 4.155-8.31 6.233.347.346.347.693.693 1.385 1.731.346 3.462.346 5.194.693-1.385 3.463-10.388 7.964-12.119 5.54-4.501-5.194-9.695-1.039-14.542-1.731-5.54-1.039-11.427-.693-16.967-.693h-3.116c.346-2.077.693-3.463 1.039-5.194 2.077 0 4.155-.346 5.886-.346v-5.194c2.078.346 4.848-.347 6.233 1.038 4.155 3.463 7.617 3.117 12.465-.346-4.155.346-7.964 2.078-9.695-2.77-.347-1.039-3.463-.693-5.194-1.039-1.385-.346-2.77-.346-4.501-.693 5.886-6.925 13.157-5.886 20.428-4.848 0-.346 0-1.038-.346-1.385-2.078 0-4.501-.346-6.232-.346-1.039-1.731-1.732-3.463-2.424-4.848-2.77 2.078-4.501 3.809-6.579 4.848-2.77 1.385-5.54 2.77-8.31 5.194-2.424 2.078-7.271 1.732-11.08 1.732-1.385 0-3.116-1.039-4.501-1.732-5.886-2.77-6.233-4.501-.693-9.003-2.423.346-3.808.346-5.193 1.039-5.194 1.731-7.964-1.385-10.042-5.195-.692-1.385 0-4.501 1.039-5.54 2.078-2.078 4.848-3.463 7.271-5.194 6.579-5.887 10.042-1.732 14.197 3.116.346 1.385 2.423 1.385 3.808 2.078l4.155 2.078c6.925-5.54 4.848 7.272 9.695 5.886-.346-1.731-1.038-3.462-1.731-5.886 11.773 1.038 22.852 0 32.894-5.195-6.925-1.731-13.158 6.58-20.083 1.04-4.501 3.116-8.31 3.116-13.503.346-3.809-2.424-9.003-2.77-12.812-6.233-1.731-1.732-4.155-2.425-6.578-3.81 0 0 .346-.692 1.038-.692 4.502-1.039 9.003-3.463 13.158-2.77 4.847.692 7.964-2.078 11.772-2.77 2.424-.693 5.54.346 8.31 1.038 3.116.693 5.886 1.731 9.349 1.731-1.731-1.385-3.463-2.77-5.194-3.809v-2.424Z" fill="#ADE0F1" stroke="#6DCFF6" stroke-width=".425"/><path fill-rule="evenodd" clip-rule="evenodd" d="M463.457 225.446c3.463 2.77 6.925 5.54 10.042 8.31-.347.693-.347 1.385-.693 1.732-3.809-1.385-7.964-2.771-11.772-4.156-1.039-.346-2.424-1.731-3.117-1.385-5.193 2.77-5.886-2.424-7.271-4.501-2.424-2.771-7.964-7.619-11.426-6.926-2.424.346-4.501.692-6.925 1.385-3.463.693-6.233-.346-7.618-3.809 4.502-5.887 11.773-2.77 17.313-5.541-2.078-3.116-.693-4.848 2.424-6.579 1.385-.693 2.77-4.155 2.423-4.848-2.423-3.463-5.193-6.926-8.31-9.696-1.385-1.039-4.155 0-7.271.346 1.385-1.385 2.078-2.424 3.463-3.462-3.463-2.424-7.272-5.195-11.08-7.965-.693 4.502-3.809 5.541-7.618 4.848-3.462-.693-6.579-2.424-10.041-2.77-3.809-.347-7.964.346-12.465.346-1.385-4.848-11.772 2.078-12.811-7.272 1.731-.346 3.462-.346 4.847-.692 0-.347 0-.347-.346-.693-4.501-1.385-9.695-1.731-7.617-9.35 1.731-6.579 4.847-10.388 11.772-11.081 2.424-.346 4.501 0 6.579 0-1.385 3.463-2.424 6.926-3.809 10.389-1.731 5.194 4.155 5.887 5.54 10.735 0-2.078.346-3.117 0-3.463-4.155-3.117-3.462-9.35-2.077-11.081 2.77-3.463 7.963-5.195 12.465-6.926 1.385-.346 3.462 2.078 5.539 3.463 4.155-5.541 15.235-3.463 20.429 3.809-1.385.346-2.77.346-4.847.692 5.54 1.386 10.733 1.732 12.118 7.965.347 1.039 4.155 1.385 6.579 1.731 1.385.347 4.155-.346 4.501.693 2.424 3.809 6.579 3.463 9.695 5.194 1.039.346 2.078 1.039 3.117 1.385-.347 1.039-.693 2.078-1.385 3.463 7.963-3.116 5.886 2.078 6.232 6.233-1.385 0-2.424.347-3.809.347 0 1.385-.346 2.77-.346 4.155 9.349 4.155 18.697 8.657 28.046 12.812-1.731 2.771-3.116 4.848-4.155 7.272l-4.155 3.117c-2.077 1.731-5.886.346-6.925-2.77-1.039-3.809-5.193-3.117-7.271-5.541-.692 2.078-2.424 4.848-1.731 6.233 1.385 2.77 3.809 4.848 6.579 6.58 3.808 2.77 5.886 6.233 3.462 9.695-.693 1.039-2.77 1.732-4.155 1.386-3.462-1.039-6.925-2.771-10.387-4.502-1.385 0-1.385.346-1.732.693Zm-38.433-64.409c-4.502-1.732-7.618-2.77-10.388-3.809v7.964c3.463-1.385 6.579-2.424 10.388-4.155ZM269.558 156.535c6.925-2.424 6.925-2.424 9.002 3.809 3.117-3.116 6.233-2.077 9.349.347 3.809 2.77 4.848 2.424 5.194-2.771 5.54.693 7.617 5.541 9.349 10.389.692-.346 1.038-.693 1.731-1.039-.693-2.078-1.385-4.155-2.078-5.887-1.731-5.194-1.038-5.887 4.155-5.194h2.078c-.346-1.385-.346-2.424-1.039-4.848 3.463 1.039 6.233 1.731 9.003 2.424-1.039 1.731-2.424 3.463-3.809 5.887 1.385 3.463 3.116 8.311 5.886 12.812 1.039 2.078 3.809 3.117 6.233 4.502 2.077 1.385 4.501 2.77 6.578 4.155-.346.347-.346 1.039-.692 1.385h-4.155c-1.039 5.887-4.501 8.311-9.695 6.234-5.194-2.078-9.695-2.424-15.235 0-5.54 2.424-12.119 2.424-18.005 3.116-1.039 0-2.77-.346-3.116-1.039-1.039-4.501-4.848-3.463-7.964-4.501-3.116-1.039-5.886-2.424-8.656-3.81 0-.692.346-1.731.346-2.424l19.736-2.077v-1.039H273.02c-2.077 0-4.501.692-6.578 0-3.116-.693-6.233-2.078-3.463-6.579-2.077-1.039-3.808-2.424-6.232-3.463 1.385-2.078 2.424-3.463 3.809-5.541-1.039-.692-2.424-1.385-2.77-1.385-2.424 2.078-5.194 4.155-6.579 6.579-2.424 4.502-9.003 6.926-13.158 3.463-7.271-5.54-7.617-8.657-3.462-16.968 1.731-3.462 1.385-8.31 6.925-7.964 2.77 0 5.54.346 8.31.692 3.462.347 6.925 0 10.387 1.039 3.463 1.039 6.579 3.117 9.349 5.195 1.039.692.346 3.116 0 4.501ZM1247.71 560.301c1.39-1.039 2.42-2.424 4.16-3.809-1.04-4.155-3.12-7.272-7.62-8.657-3.46-1.039-6.58-2.424-9.7-3.809-1.04-.346-2.42-1.039-3.11-.693-5.2 2.424-4.5-1.731-5.2-4.848 2.08-.346 3.81-.692 5.54-1.038v-1.386c-2.07 0-4.15.347-6.92.347-.35-1.385-1.04-3.117-1.73-5.194 2.42-.347 5.19-1.732 7.61-1.039 1.39.346 2.43 2.77 3.12 4.501.69 1.732.35 1.732 5.19 5.887 4.85-6.579 10.74-7.964 18.01-4.155 3.81 2.077 8.31 2.077 12.12 4.155 6.92 3.463 13.16 7.618 20.08 11.774-1.04 1.731-2.08 2.77-3.12 4.501 4.85 4.502 9.7 9.004 15.24 13.852-7.62-1.039-13.85-2.078-18.01-8.311-2.77-4.155-8.65-4.155-12.11-.346-2.77 3.116-5.89 3.116-9.35 2.077-2.08-.692-4.16-2.077-6.58-2.77-2.08-.346-4.16 0-6.58 0-.69 0-.69-.346-1.04-1.039ZM1170.15 507.32c-5.19 4.502-7.27 10.388-1.38 15.236-3.12 5.887-6.58 11.428-9.01 16.968-1.73 4.156-2.42 4.848-6.58 3.463-2.07-1.039-4.84-1.039-7.27-1.385-3.11-.346-6.58-.693-9.69-1.039-.35 0-1.04-.346-1.39-.692-3.46-3.463-5.19-14.891-3.11-19.739 6.92 2.078 10.04-4.155 14.89-6.925 5.19-2.77 9-7.618 13.85-11.428 1.03-.692 3.46-1.038 4.5-.346 2.07 1.385 3.46 3.463 5.19 5.887ZM884.496 579c4.501 1.386 6.925 7.619 5.193 13.159-1.038 3.117-2.077 6.58-3.116 9.696l-7.271 23.894c-1.385 5.194-5.54 7.618-10.387 7.964-1.732 0-4.155-1.039-4.848-2.424-2.424-4.848-4.501-10.042-1.385-14.89 2.77-4.155 3.116-8.311 1.385-13.159-1.385-4.501 1.039-7.964 5.54-9.696 2.77-1.038 5.886-2.424 7.618-4.501 3.116-3.117 4.847-6.58 7.271-10.043ZM666.013 295.395v-8.311c2.424-1.385 5.54-2.424 5.194-3.117-1.039-3.809-3.117-6.579-8.31-5.194.692-2.424 1.038-4.155 1.731-6.579-2.078 1.385-3.116 2.077-3.463 2.424-1.038-.693-1.731-1.385-2.77-2.078.693-3.463 1.732-7.272 2.77-11.427 1.385-6.233 6.579-4.156 10.734-5.887-1.039 2.078-1.731 3.463-2.77 5.194 2.77.346 5.194 1.039 7.964 1.385-1.385 2.77-2.77 5.541-3.809 7.272 4.155 5.541 7.964 10.735 11.426 15.929 1.039 1.385 1.732 2.77 3.117 3.463 3.116 1.385 2.423 2.77 1.731 5.887-1.731 6.579-6.579 6.233-11.426 6.925-5.194.693-10.388 1.732-16.274 1.732 2.424-1.732 4.847-3.809 7.617-5.541-1.385-1.038-2.423-1.731-3.462-2.077ZM1244.94 369.153c1.73-.693 4.16-.693 5.19-1.731 2.43-3.463 4.51-7.272 5.89-11.081 1.04-3.463 2.08-6.58 6.23-7.619 2.77 5.195 4.5 10.042.35 15.237-1.73 2.077-2.42 5.194-2.08 7.964.35 6.58-4.15 7.272-8.31 7.965-4.15.692-8.31.346-10.73 4.501-.35.347-1.39 1.039-1.73.693-4.16-2.078-6.58 1.731-10.04 2.77-1.39.347-2.77 0-4.16 0 0-.346 0-1.039-.35-1.385 1.39-1.039 2.77-2.424 4.85-4.502a553.963 553.963 0 0 1-8.31 2.424c3.12 3.463 2.43 9.004-1.38 11.081-.35.347-1.73.347-1.73 0-1.04-3.116-3.81-7.964-3.12-8.657 4.85-4.501 9.35-10.042 16.62-11.081.35 0 .69-.346 1.04-.346 6.92 2.078 9-2.77 11.77-6.233ZM1073.2 506.627c10.04-2.077 14.54 4.848 20.08 9.696 1.04 1.039 2.08 2.078 3.47 2.424 3.11 1.732 6.57 3.463 9.69 5.194.35 0 .69.693.69 1.039.7 6.233 5.2 9.35 9.35 13.852 2.08 2.424.35 7.618.69 11.773-2.77-.346-6.57.347-7.96-1.385-5.19-5.194-9.69-10.735-14.19-16.621-4.51-5.887-7.97-12.12-12.12-18.007-1.04-1.385-2.77-1.732-3.81-2.77-2.43-1.732-3.81-3.463-5.89-5.195ZM347.81 128.486c2.77-3.809 8.656-4.155 13.504-2.077 2.424 1.038 5.194 1.038 7.617 1.731 2.77.693 5.54 2.078 8.657 3.117-1.039.346-1.385.692-2.424 1.038 2.424 2.771 4.155 5.887 9.002 5.195 3.463-.693 6.579 1.385 10.388-.347 7.617-3.116 15.927-2.77 23.545 1.039-2.77 8.311-3.463 8.657-11.773 7.272-3.116-.346-6.578.693-9.695.346l-24.93-1.038c-4.501 0-5.886-2.424-5.54-5.887.693-4.848-2.077-6.233-5.54-7.272-3.808-.693-7.963-2.078-12.811-3.117ZM646.969 216.442c2.078-.692 3.809-1.039 5.886-1.731 0-5.541-4.501-1.039-6.925-3.117 2.078-1.731 3.809-3.463 6.233-5.54 2.077 1.731 4.155 3.809 6.579 5.886 3.462-5.54 9.002-4.155 14.542-4.155 2.77 0 5.54-4.848 8.656-1.385 2.424 2.078 5.194 4.848 5.887 7.618.346 1.732-3.463 4.502-5.887 6.233-3.808 2.424-8.31 4.502-12.465 6.233-1.038.347-2.077.693-3.116.347-4.847-1.385-9.695-3.117-14.542-4.502.346-.346 1.038-1.385 2.423-2.77-2.423-1.385-4.501-2.078-7.271-3.117ZM297.258 136.797c-3.809-5.887-3.463-7.272 2.077-10.735.347 1.039 1.039 2.078 1.385 3.117 1.039 3.809 3.463 5.54 7.272 4.848 1.385-.346 3.116 1.039 4.501 1.385-1.039 1.731-2.078 4.502-3.463 5.194-2.077 1.039-5.193.693-7.963 1.385-4.502.693-9.349 1.732-13.85 2.771-2.424.346-4.848 1.039-7.272 1.385-.346-.693-.346-1.385-.692-2.078 2.077-1.039 4.501-1.731 6.579-2.77-3.809.346-7.272-2.078-11.773.346-2.77 1.385-7.271-.346-11.426-1.039 2.077-3.116 3.462-6.233 5.886-8.311 3.463-3.116 12.119-2.077 16.966 1.039 3.463 2.078 7.272 3.117 10.734 4.848.346-.346.693-1.039 1.039-1.385ZM1365.78 728.941c2.43-2.77 4.5-7.272 7.62-8.657 7.62-3.809 12.12-10.389 16.62-16.275 2.42.692 4.5 1.385 6.92 2.077-1.38 5.887-3.11 11.774-9.69 15.237-1.73 1.039-2.77 3.463-3.81 5.54-4.5 8.311-10.39 9.35-17.66 2.078ZM514.01 302.667c1.731 2.424 2.423 3.809 3.808 5.54 3.463-.692 6.925-2.078 7.618 3.463.346 2.078 2.77 4.155 4.155 6.233-3.116 5.541-3.463 5.541-7.271 1.385-1.732.693-3.117 1.039-4.848 1.732-3.462-7.272-10.734-1.386-15.927-5.541 3.808-5.887 7.271-11.774 11.08-17.66.346-.693 1.731-.347 2.423-.693 0 1.039.693 1.731.347 2.77-.347 1.039-1.039 2.424-1.385 2.771ZM324.958 157.92c1.385 0 2.77.347 4.155.347 1.039 0 2.424.346 3.462.346-.346-1.039-1.038-2.078-1.385-3.117-.346-.346-.692-.692-.692-1.038 3.809-4.502 14.196-4.848 17.312 0-1.385 1.038-2.423 1.731-3.808 2.77.346.346.346.692.692 1.039 2.077 1.731 5.194 3.116 5.54 4.848.346 4.155-3.116 5.886-6.579 6.925-2.077.347-4.501-.346-6.578-1.039-2.078-1.038-4.155-2.77-6.233-4.155-2.077-1.385-3.809-2.77-5.886-4.502-.346-1.385-.346-2.077 0-2.424ZM1189.19 534.33c-5.88-.693-5.88-.693-4.5 5.194.7 2.078 1.04 4.502 2.43 8.311-2.43-.693-4.85-1.039-5.89-2.078-1.38-1.385-1.73-3.809-3.81-5.54-.34 3.463-.69 7.272-1.04 11.081-1.38-.346-2.77-.693-2.77-1.039-2.42-8.311-3.81-16.622 1.39-24.24 1.04-1.731 4.85-2.424 7.27-2.424 4.15-.346 7.96.347 13.5.693-3.81 1.039-6.92 1.731-10.04 2.424-2.08.346-4.5-.347-6.58.346-1.38.346-2.07 2.078-3.11 3.117 1.04 1.038 2.42 2.77 3.46 2.77 2.08 0 4.15-1.039 6.23-1.039 1.39 0 3.12.693 4.5 1.039-.34 0-.69.692-1.04 1.385Z" fill="#ADE0F1" stroke="#6DCFF6" stroke-width=".425"/><path fill-rule="evenodd" clip-rule="evenodd" d="M648.7 279.466c1.039-1.039 1.732-2.424 3.117-3.117 3.116-1.731 5.886-.692 7.963 1.732.693 1.038.347 2.77.347 4.155 0 .693-.693 1.385-.693 1.731 1.385 8.311-5.54 9.696-10.734 11.774-1.731.693-4.501-1.039-5.54-1.385.347-4.156 0-7.272.693-10.042.692-2.078 2.77-3.463 4.501-4.848h.346ZM1400.75 702.277c-2.07-1.385-3.46-2.77-4.5-3.116.69-4.502 2.43-9.004 1.39-12.467-1.04-3.809-4.5-7.271-6.93-10.734.35-.347 1.04-.693 1.39-1.039 2.77 3.463 5.54 7.272 8.65 10.735.35 0 1.73-.693 1.73-.693 2.43 4.848 6.24 6.233 11.43 5.194-1.38 7.965-10.39 18.353-15.23 17.314.69-2.077 1.38-3.462 2.07-5.194ZM1091.21 109.441c-9.01-1.039-18.01-.346-24.93-7.272 5.19-5.194 17.31-7.618 23.54-3.81 1.39.693 2.08 3.117 2.43 4.849.34 2.077-.7 3.809-1.04 6.233ZM392.823 208.131h4.155c.346 3.81 2.423 6.234 6.578 6.234 1.039 0 2.078 1.038 3.117 1.731 2.423 1.731 4.847 3.463 7.271 5.54.692.693.692 2.078 1.385 3.463-2.078 0-3.463.347-4.502 0-4.847-2.424-9.002-3.116-13.157 1.385-.346.347-2.077 0-3.116-.346-1.731-.692-3.463-1.731-4.848-2.77 1.039-4.848 2.078-10.042 3.117-15.237ZM1115.79 555.107c2.77-3.809 6.23-2.77 9.69-1.731 4.16 1.038 7.97 3.462 12.82 1.731 2.07-.693 5.54 1.039 7.96 2.424 2.77 1.385 4.85 3.463 7.27 4.848.69.346 1.73-.346 2.42-.346 0 .346.35.692.35 1.039-.69.346-1.73 1.038-2.42 1.038-10.39-1.385-20.78-2.77-31.51-4.848-2.08-.692-4.16-2.77-6.58-4.155ZM271.635 122.6c-3.462 2.077-3.116 10.734-11.079 6.233-2.77 7.272-9.695 5.54-15.582 5.886-.692 0-1.731-1.038-2.77-1.731.693-1.039 1.039-2.078 2.078-2.424 7.271-3.809 14.196-9.003 22.852-10.042 1.385 0 2.77.692 4.501 1.039-.346 0 0 .346 0 1.039ZM1281.64 332.793c-.69 8.311-7.61 8.311-11.42 11.774-3.47-2.078-6.93-4.848-9.35 1.385-.35.346-2.08.693-2.77.693-.69-.347-1.39-1.732-1.39-2.424.35-1.732 1.04-4.502 2.08-4.848 5.54-1.732 5.54-6.233 5.19-11.774 6.24 3.117 10.05 11.081 17.66 5.194ZM1179.15 477.54c-1.38-4.156-3.81-8.311-4.15-12.813-.35-4.155 1.38-8.657 2.42-13.159 6.58-.692 9 2.424 6.58 8.311-2.77 6.926-1.73 8.657 5.54 11.428 1.39.692 2.42 2.423 3.46 4.155-11.08-4.848-11.08-4.848-13.85 2.078ZM440.259 444.989c-3.463.346-7.272 1.039-10.734.693-2.424-.347-4.501-3.463-6.925-4.502-4.501-2.424-9.349-5.194-14.196-6.233-2.77-.693-6.233 2.077-10.388 2.424 1.385-1.385 2.424-3.117 3.809-3.463 6.925-2.078 13.85-2.424 20.775 1.385 5.886 3.463 12.119 6.233 18.005 9.003-.346 0-.346.347-.346.693ZM325.304 136.797c1.039-1.731 2.424-3.809 3.809-6.233 1.385.693 3.116 1.385 5.194 2.424l.346-.346a98.747 98.747 0 0 1-5.194-5.541c5.54 1.039 10.041 1.385 13.85 3.117 1.731.692 2.424 4.848 2.077 7.272-.346 1.385-3.462 3.116-5.54 3.463-2.423.346-5.886 1.385-7.271-2.771-.692-1.385-4.847-1.039-7.271-1.385ZM1091.55 115.674c2.77-3.809 5.2-8.657 8.66-11.081 1.73-1.385 6.58 1.385 9.69 2.078 1.04.346 1.73.692 2.77 1.385 1.04 1.039 1.73 2.077 2.77 3.116-1.04.693-2.42 2.078-3.46 2.078-6.23 1.385-12.46 2.424-19.04 3.809-.35-.346-1.04-1.039-1.39-1.385ZM315.955 112.211c1.039-.692 2.078-1.385 3.463-2.078-2.424-1.385-4.848-2.77-8.31-4.848 7.271-2.77 12.119.347 17.312 1.386 5.194 1.038 7.618 4.848 9.695 9.349-2.424 2.078-2.424 2.078-6.925 0-2.423-1.039-5.193-2.078-7.963-2.424-2.424-.346-4.848 0-7.272 0v-1.385ZM1199.58 488.967c.69 3.809 1.39 7.618 2.08 11.081-.69 0-1.04-.346-1.73-.346-1.04 1.385-1.73 3.116-3.12 5.194-1.38-1.039-4.15-2.078-4.5-3.463-1.73-6.579-5.54-4.155-9.35-2.424 1.73-3.463 3.12-6.579 8.31-5.887 2.08 0 4.85-2.424 8.31-4.155ZM363.045 119.483c-7.617 5.54-18.005 0-20.775-10.735 4.155 1.039 8.31 2.424 12.119 3.463.346 0 1.039.693 1.039.693-.347 5.194 4.155 5.54 7.617 6.579ZM1289.95 704.701c2.43 5.541 1.04 10.042-3.46 12.12-1.04.693-3.81.693-4.15 0-1.39-2.424-2.43-5.194-2.77-7.964 0-.693 2.42-2.078 3.8-2.771 2.08-.692 4.16-.692 6.58-1.385ZM440.259 451.568c7.617-1.731 7.617-1.731 5.193-5.886 9.695-.347 15.582 1.385 19.044 6.579-8.31.346-16.274 1.039-23.891 1.385 0-.693 0-1.385-.346-2.078ZM1013.3 487.582c2.08 3.116 4.5 6.233 5.54 9.349.35 1.386-2.42 4.156-3.46 5.887-1.39-1.039-3.81-2.077-3.81-3.116-.35-3.809-.35-7.965-.35-11.774.7 0 1.39-.346 2.08-.346ZM349.541 143.03c1.732-3.809 3.117-6.233 7.272-5.54 4.155 1.039 4.847 3.463 4.155 7.618l-11.427-2.078ZM282.023 117.059c4.155-.346 8.31-1.039 12.811-1.385-1.385 5.194-4.501 7.618-9.349 7.272-1.731 0-2.77-2.77-4.501-4.502.346-.692.693-1.039 1.039-1.385ZM532.015 184.584c-2.77.346-5.54 2.078-7.618 1.039-2.077-1.039-3.116-4.155-4.501-6.579l1.731-1.732c3.809 1.732 7.271 3.117 11.08 4.848-.692 1.039-.692 1.732-.692 2.424ZM719.335 360.842c-.692-4.502-1.039-6.925-1.385-10.388 1.385 0 3.809-.693 4.848.346 1.038 1.385 1.731 4.155 1.038 5.887-.346 1.385-2.423 2.424-4.501 4.155ZM1291.34 550.605c3.46-.346 6.58-.346 9.35-.692 1.04 0 1.73-1.732 2.77-2.424 1.04-.693 2.07-1.385 3.11-2.078 0 1.385.35 3.117-.34 4.155-2.77 3.81-9.7 4.502-14.89 1.039ZM1138.3 446.028c-1.39 2.077-2.77 4.155-4.51 5.887-.69.692-3.11.346-3.11-.347-.35-1.385-1.04-3.809-.35-4.155 2.08-1.385 4.5-2.078 6.93-3.117.34.693.69 1.386 1.04 1.732ZM282.715 114.289c6.233-5.195 10.042-5.541 15.928-1.039-6.233.346-11.08.692-15.928 1.039ZM1207.89 530.867h-2.42c-1.04-2.078 2.08-11.427 4.15-12.812-.69 4.155 2.77 8.657-1.73 12.812ZM746.343 370.538c-4.155-1.731-7.618-3.463-11.08-4.848 0-.346 0-1.039.346-1.385h10.387c0 2.424 0 3.809.347 6.233ZM436.104 192.549c1.385 6.579-1.732 7.272-4.502 7.272-.692 0-1.385-1.732-2.423-2.771 2.077-1.385 4.155-2.77 6.925-4.501ZM1178.81 435.639c-3.12-6.233-2.08-9.696 4.5-12.812-1.73 4.502-3.12 8.311-4.5 12.812ZM1190.58 567.573c4.15-1.731 7.96-3.463 12.12-5.54.34.692.69 1.038.69 1.731-3.81 2.078-7.96 4.155-11.77 6.233-.35-.692-.69-1.731-1.04-2.424ZM882.418 190.817c.347-2.77.347-4.501.347-6.233 2.423.347 4.847.693 6.925.693v2.077c-1.732 1.039-3.809 2.078-7.272 3.463ZM119.632 259.381c2.078 5.195-3.116 4.502-4.847 7.619-1.385-1.386-2.078-2.771-3.809-4.502 3.463-1.385 5.886-2.078 8.656-3.117Z" fill="#ADE0F1" stroke="#6DCFF6" stroke-width=".425"/><g clip-path="url(#a)" fill="#D4F0FC"><path d="M532.1 108.467c0 .313.5 2.188.1 3.126-5.5 16.255-4.2 9.169-4.6 16.255 2 .208 3.7-.209 4.9-2.189 7.4-12.816 1.5-9.69-.4-17.192-.8-1.771.3-2.292-2.3-2.5.4 1.042 1 1.562 2.3 2.5ZM336.2 167.963c.2 0 .3-.104.4-.104-.1-.105-.2-.209-.3-.209-.1.104-.1.209-.1.313ZM490.5 188.593s-.1 0-.1-.104c0 .104-.1.104-.1.209l.2-.105Z"/><path d="M396.3 207.869c3.4-4.063.3-18.025 10-20.734 2.2-.626 6.7-.417 8.5-6.044 4.9-14.9 23.7-8.856 28.3-13.649 14-14.692 15.4-21.673 18.4-37.198.4-2.188-1.1-2.397-2.5-3.022-6.2-2.813-3.2-7.71-.6-15.629 3.1.208 5.4 1.667 6.5 6.148 1.2 5.105 6.5 4.167 5.6 9.065-2 5.73-.4 12.19-4.6 16.983-2.5 3.543 4.4 9.065-1.3 13.65-6.8 5.418-.5 7.189-.7 12.816-2.2 15.525 19.7 5.835 12.8 21.36v.104c3.7-3.959 8.8-6.877 13.7-3.23 5.9-8.648 4.2-5.418 6.3-12.712-6.3-6.147-5.4-2.917 5.4-19.797.6-.938.5-3.542-1.1-6.147-3.5-5.523.2-7.711-.6-16.046-.1-.834.7-2.397 1.4-2.814 3.2-2.188 2.2 4.064 5.8 3.335 1.5-.313 5.5-5.002 5.5-11.149 0-5.418-.2-6.669 1.7-9.482 2.2-3.334-.4-7.919 3.6-7.919 6.5.104 9.8.104 11.5.208-.6-1.458-.6-3.646-1.9-8.96-.7-3.022-8.6-1.355-11.5-.105-4.2 1.876-6.5.105-10.9 1.147.3-1.772-.3-3.23-1.4-4.48-3.7-4.273-.1-5.002-.8-12.504.2-7.294 5.9 4.168 7.2-1.146.8-2.605 1.6-5.419 0-7.92-2.6-3.959-.2-6.25-1.2-9.48-6.5-20.215 3.1-6.878-12.4-27.508-.7-.938-1-2.084-.5-3.126 1.6-3.543 1.6-7.502 2.7-11.045 1.8-5.627-1.6-8.857 2.3-12.4 8.9-8.126-7.7-16.566-12.6-23.964-2.1-3.126-6.5-.938-7.3-.625-4.8 1.563-3-7.502 1.7-8.128.8-.104 4.8.626 5.7-1.458 4.7-10.837 2.9-9.899 1.4-15.63-1.6-6.251 2.1-5.626 4.3-6.98 5.9-5.106-5.6-9.9-4.8-13.233-.7-2.501.5-4.377 3-3.96 1.9.313 2.9-.625 3.8-1.98 5-8.023-7.2-8.96-13.9-16.567-.7-.729-1.8-1.146-2.8-1.458-7.5-2.814-6.7-8.961-11.7-5.314-6-2.605-12.9-6.773-18.3-11.67-3.4-2.813 3.9-9.899-5.3-10.836-5.4-.521.2-1.876-1.4-5.002-1.9-3.751-3.8-5.522-1.2-6.981 2.8-1.459 1.5-5.418-1.5-5.835-10.1.417-6.2-5.418-17-10.107-11.2-6.668-7.4-11.461-17-19.172-4.1-1.875-6.6-15.421-13.5-10.002-2.3 9.273-12.9 5.314-14.5-1.147-4-1.354-4.8-1.875-5.9 1.251-1.4 4.168-6.8.938-9.7.208-5.2-2.188-21.2.625-21.4 5.731-.1 4.897-1 9.794.5 14.691-2.6 10.733-15.4 1.147-5-8.335 1.1-1.042 1.2-3.855-.8-5.939-2.8-2.814-2.5-1.459-10.2.416-9 2.293 0 6.773-7.3 12.608-11.3 6.877-7.7 6.356 0 11.253 3.6 3.334 5.9-.521 7.9-1.98 4.6-3.438 3.5 6.252 11.6 8.961 8.5 2.918 6.1 7.398-2.3 17.505-4.1 4.897-2.7 10.211-7.6 11.982-16.6 6.356-9.1 16.255-16.8 21.256-13.8 2.084-12 18.13-21.5 11.15.5 1.77.4 3.854 1.8 5.417 2.7 5.106-1.3 12.087-3.4 16.984-2.8 4.48-1.4 9.378-2.2 11.045-2.2 4.793-10.3 5.21-14.2 4.063-3.2-.937-4.5 1.25-2.8 5.002 4.6 10.315-5.2 26.674-10.3 26.361-1.5-.104-7.8 1.772-7.7 1.667-2 2.084-12.8-1.875-10.8-1.042-.1-.104-.2.105-.4.626l.7-.417c.6 8.127 8.8 1.875 10.6.938-.7 8.023 5.8 6.876 5.3 14.9-.3 4.688-1.2 7.606 3.5 11.982 4.6 3.751 6.2-5.106 10.1-4.689 3.5 1.355 6.1-.73 8.9-2.084 4-3.126 16.8 4.897 14.6 10.107-9.6 12.191 2.8 7.815-.9 18.755-1.2 2.501 3.4 5.21 6.2 6.252 12.9-2.71 15.6 7.19 26.2 11.983 1.2.625 1.1 1.667.7 2.917-2.1 4.376 3 15.63-5.3 13.962-6.5-5.73-15-20.839-17.1-.73-1.7 6.67 3.9 10.003.2 10.524-6.9-2.709-3.8-9.169-15.1-9.69-8.9-3.75-7.6 10.107-15.5 6.981-5.8-4.584-6.7-6.772-10.8-5.73-3.1.833-2.5 3.959-1.6 6.877 2.1 7.085 5.1 4.167 8.6 9.064 2.2 3.126.6 6.669-.1 7.711-4 6.043.2 10.211-1.3 14.379-1.2 6.773 8 8.44 12.7 8.961 2 .312 2.9-1.146 4-2.084 10-8.648 18.4-1.563 18.5-.73.4 4.689 4.1 7.607 5.7 11.67 2.4 6.044 6.6 5.523 6.5 10.837-.1 5.626 3.9 8.439 6.9 11.044 4.8-2.709 6.9-1.25 8.6-2.188v-.104c-.8.208-.9 0-.2-.729.1.312.2.521.2.729.1 0 .3-.104.5-.208-.2.104-.3.208-.5.312-5.5 3.439-6.4 8.44-4.5 15.317.5 8.544-8.3-7.815-12.8-3.126-2.2 2.396-4.3 4.793-7.3 6.043-.4.105-.8.938-.7 1.355.7 5.001-2.5 7.085-1 11.149 5.8 15.525 8.7-2.918 16.9.833 2.5 1.146 4.8 2.918 8.8 0 4-2.917 5.8-1.771 6.4-4.272 1.2-5.105-.9-5.626-2.2-7.293-2.2-3.022-1.7-2.709 1.8-13.129-.1-.104-.2-.208-.3-.208h.4c.1-.209.1-.313.2-.521 0 .208 0 .312-.1.521.8.104.9.312.3.521 2.4 1.667 5 2.709 8 1.354 6.9 1.667 5.9 7.711 14.9 7.711 6.2.625 9-1.147 10.8 4.167 2.6 6.981-3.1 5.314-4.6 1.772-12.1-7.19-4.9 13.962 1.1 17.817 3.6 4.585 13.8-1.042 13.6 4.689l.1-.104c8.8 3.959 12.2 6.564 15.6 2.5Zm82.5-33.134c-.8.521-2.6-2.396-.4-3.23 1-.416 2.2 1.98.4 3.23ZM375.4-162.649c4 1.98 3.7 3.439 3 4.793-3.9 7.606-7-6.877-3-4.793Zm59.9 52.723c1.1.521 1.1.313 0 .834v-.834Zm-148 120.658c1.2.625 1.2.313 0 1.042v-1.042Zm194.9-9.378c-8.5-9.481 4-13.858 4.9-.625-.3 3.126-4.3 1.459-4.9.625Zm-172 38.344c-1.8-2.5.2-5.73 3.4-3.855 3.9 2.292-1.2 6.981-3.4 3.855Zm-6.4 2.918c-2.2 1.25.9 0-.8 1.042-.1-1.146-.3-.834.8-1.042Zm33.3 12.607c-.1.209-.6.313-1 .521-1.9-3.75 2-2.917 1-.52Zm18.3 23.236c0-4.376-8.5-11.045-2.3-13.233-.1-.104-.2-.104-.3-.208.1 0 .1-.104.2-.104-1-1.668-1.2-3.543-1.1-5.523.3-5.418 6.3 2.084 1.1 5.523.1.104.1.208.2.312h-.1c2.5 1.876 5.6 2.292 8.3 3.543 4.7 2.396-4 15.004-6 9.69ZM472.6 43.97c4-5.626 17.3 5.106 9.4 19.38-3.4 5.94-15.8-10.419-9.4-19.38Zm-67.4 39.073c.6-.937 1.1-.729 1.4.521-.3.209-.6.313-.9.522-.2-.313-.6-.834-.5-1.043Zm91.3-8.856v.938c-1.5-.521-1.5-.313 0-.938Zm-15.4 24.069c.4-1.876 2.6-.834 2.2 1.146-.6 2.084-2.6.834-2.2-1.146Zm-127.2 29.383c-.7-.417-1-1.146-.9-2.188-.1 0-.2.104-.3.104v-.312c-1.1.312-1.6-.105-1.3-1.147.8-.416 1.5.209 1.3 1.147.1 0 .2 0 .3-.105v.209c3.1-1.459 3.6 3.959.9 2.292Zm12.9 5.939c1.7-1.146 4.3-.208 3.2 2.709-1.7 4.585-6.8-.312-3.2-2.709Zm-6.8 33.343c-2.3-1.042-2.8-4.793 1-5.731 5.8-1.355 4.8 3.126 10.4 1.771 17.1-2.605 7 12.816-11.4 3.96Zm19.1 11.878s.6.104.7.313c1.3 2.917-1.9 2.292-.7-.313Z"/><path d="M336.2 167.338c0 .104 0 .104-.1.208l.1.104v-.312ZM275.2 73.145c-.1.938-.2 1.771-.3 2.605 0-.417.3-2.397.3-2.605-.9-4.689-.4-12.19-1.9-17.609-3.1-5.835-16.6 1.771-16.4-10.211.5-3.23 1.9-4.793.8-6.148-2.1-2.917-4.4 3.543-8 2.71-5.3-.73-7.3 5.105-3.3 10.002 2.4 3.96.4 5.314-1.7 8.753-1.3 2.188 2.7 5.21 6.7 3.855 5.6-1.876 12.8 1.355 11.2 2.292-20.7 12.712-24.6 13.962-17.7 17.713 26.6-5.001 22-3.438 30.3-11.357ZM553.3 14.691c.9 5.106 3.2 7.502-.4 12.4-4.3 5.835.3 4.376-5.3 15.212-1.5 3.022 2.2 6.356 4 8.127 1-.208 1.5-1.041 1.6-2.292.6-5.939 1.5-3.96 4.6-4.376 3.6-.521 3.7-1.042 4.5-1.355 4.1-1.146 2 5.002 8.8 5.21 2 .104 3.9 1.042 4.8 1.772-.1 0-.1.104 0 .312v.625c.1-.104 1.2.209.4-.312v-.209c.1-.208.3-.312.4-.52-.4-.105-.6-.105-.8 0 .1-8.44 4.4-6.148 11.9-7.815 7.8-7.19-10.4-11.879-15-14.692-11.3-5.105-9.6-11.045-19.7-12.4.1.21.2.313.2.313Zm19.1 18.651c.8 2.293-2.4 2.397-2.4 1.563-.1-1.98 2-2.917 2.4-1.563ZM554.8 130.036c-1.3-1.98-6.1-10.316-8.8-6.981-5.9 7.293-6.6 7.71-6.2 10.627 1 8.857 1.4 9.899 3.5 9.795 4-.104 5-7.085 8.2-6.356 3.9-.208 14.5-3.23 14.2-8.961-4.7 1.98-8.3 5.731-10.9 1.876Z"/><path d="M565.6 127.848c-.1 0 0 .104 0 .312.1 0 .2-.104.3-.104-.1-.104-.2-.104-.2-.104.1 0 .3-.104.6-.521-.3.104-.5.208-.7.417-.1 0-.1-.105 0 0ZM569 120.762c-1.3 4.064-2.2 5.939-2.7 6.669 8.3-3.647 8.6-1.146 12.6-1.355 8.7-.417-3.6-24.798-9.9-5.314ZM253.4 176.507c-1.5.312-3.5 1.354-3.6 2.605-2.3 7.189-4.7 20.943 4.6 8.023 2.2 0 3.7 1.875 5.8 1.667 3.4-4.585-1.2-13.233-6.8-12.295ZM519.1 56.057c-7-4.376-5.9-2.71-5.8 6.668.1 3.543 4.5 4.168 6.4 1.668 2.1-2.814 2.4-6.46-.6-8.336ZM390 230.792c.1-.104.3-.208.4-.312-.3-.104-.5-.209-.6-.313-.2-.312-.5-.625-.7-.833-.1.729 0 1.25.6 1.563 0 0-.1 0-.1.104 0 0 .6.208.6.104-.1 0-.1-.208-.2-.313Z"/><path d="M389.3 222.248c-4.6-1.979-5 6.461-.2 7.19.2-2.188 2.5-5.522.2-7.19ZM190.6 46.68c-1.6-1.876-5-.73-5.5 2.604-1 5.106 8.2.521 5.5-2.605ZM513.4 142.747c-1.3-6.668-5.4-1.562-6.8 1.772 0 0-.1 0-.1.104l.1-.104c-.2 0-.4-.104-.5-.104 0 0-.2.833 0 .521 0 .104.2 0 .3-.105.1.209.3.417.4.626.2-.313.2-.626.2-.73 2.6.625 6.8 1.771 6.4-1.98ZM515.2 7.815c1.6 2.5 4.9-.834 3.4-3.856-.5-.937-3.6-4.688-4-6.147-1.2 3.96-1.7 6.564.6 10.003ZM524.5 132.432c-1.7 4.793 6.2-.625 2.9-4.376-2.5 0-2.2 2.501-2.9 4.376ZM527.5 128.056h.2v-.208c-.1 0-.3 0-.4-.105 0 .209.1.209.2.313ZM209 59.912c-1.9.521-.1 2.605.9 1.146-.3-.416-.5-.937-.9-1.146ZM538.7 102.215c-1.1 3.439 1.6 2.293 3.8 3.856.3-.834-.8-8.753-3.8-3.856ZM542.7 106.592c-.1 0-.1 0 0 0 .1.104.3.104.6.208-.1-.104-.2-.312-.3-.417-.1-.104-.3-.208-.4-.312-.1.312 0 .417.1.521ZM505 18.755c0 .313.8.417 1.2.625.4-.312.9-.52 1.3-.833-.3-1.772-3-2.084-2.5.208ZM564.4 59.495c.3-1.563.7-1.146-1.1-1.77-.3 1.77-.6 1.354 1.1 1.77ZM484.5 197.658c1.7-3.751 5.4-3.334-.1-3.751-6.1-.521-2.5 9.378.1 3.751ZM264.3 192.553c.5-1.355.7-2.084.8-2.397-2.5 0-2.9-2.917-4.9-1.25-1.2 1.459 2.5 7.502 4.1 3.647Z"/><path d="M260.3 188.698h-.1c-.2.312-.2.52-.1.312 0 0 0 .104-.1.104l.2-.208c.1-.104.1-.208.1-.208ZM590.5 50.43c1-.625.9-.208.3-1.562-.9.52-.9.104-.3 1.563ZM381.1 207.765c.2-.833 0-1.563-.7-2.292-.1.938.2 1.667.7 2.292ZM381.5 208.182l-.3-.312c-1.7 3.021 1.9 2.5.3.312Z"/><path d="M380.4 205.473c.1 0 .1 0 .1-.104 0 0-.1 0-.1.104ZM278.6 29.383l1.1.208c-.2-1.042.1-1.042-1.1-.208ZM244.3 15.213l1.2.312c-.2-1.25.1-1.146-1.2-.313ZM238.2 139.413l-.6-1.25c-.5 1.667-.7 1.354.6 1.25ZM553.2 14.587c-.1.105-.2.105-.3.209.1 0 .3 0 .4-.104l-.1-.105ZM547.7 16.776s-.1-.626-.3-.626c.7.105 4-.416 5.4-1.354-3.8.625-5.3 1.042-5.5 1.25-.1-.313-.3-.625.4.73ZM543 106.383c.2-.104.3-.208.5-.312-.7-.417-.9-.313-.5.312ZM487.7 194.22c3.5.312 4.6-2.918 2.8-5.731-2.3 1.146-3.7 2.918-2.8 5.731ZM487.8 194.324c-.1-.104-.2-.104-.3 0h.3ZM476.7 191.615c-.1 0-.1-.208-.3-.625 0 .729.1.938.3.625ZM314.1 247.672c4 .208-1.7-5.522-1-.208.3.104.6.104.8.208l.1.104c.1 0 .1-.104.1-.104ZM296.6 184.113h-.8c.5 1.042.3 1.042.8 0ZM283 159.627h-.8c.6.938.4.938.8 0ZM268.1 190.469c.2-.104.1-.834.1-1.355-.9.313-1.7.626-2.6.938.5.313 1.5.729 2.5.417ZM265.6 190.156c-.1 0-.3-.208-.3-.208s-.1.104-.1.312c.1-.104.3-.104.4-.104Z"/></g><path d="M2 530.249c20.9-4.688 39.5-19.276 49.6-38.864 10.1-19.589 11.5-43.867 3.8-64.601-7-18.651-20.5-33.551-30.6-50.639-10-16.984-16.5-38.969-7.8-56.787 9.9-20.214 35-27.195 47.3-45.95 13-19.797 8-46.992-2-68.664-10-21.673-24.5-41.053-30.5-64.185-7.2-28.341 0-60.224 18.8-82.106 18.7-21.88 48.3-33.03 76.1-28.757 44.9 6.876 82.1 50.118 127.2 45.116 17.6-1.98 33.5-11.253 49.9-18.234 16.4-6.981 35.1-11.878 51.5-4.793 17.8 7.71 27.7 27.09 41.3 41.365 28 29.592 75.9 35.948 110.1 14.692C541 86.586 558.5 39.802 547 0" stroke="#91D6E8" stroke-width="2.467" stroke-miterlimit="10" stroke-linecap="round" stroke-dasharray="12.33 12.33"/><path d="m430.7 116.291-18.8-23.548-3.3 9.69 18.1 12.399-21.5-2.396-3.4 9.69 28.9-5.835Z" fill="#3D8BC1"/><g clip-path="url(#b)"><path d="M892.1-117.01c10.352 42.501 20.781 86.36 13.89 129.462-6.817 43.222-35.464 86.02-78.016 95.741-22.706 5.23-46.395.641-69.701 1.192-23.306.551-49.227 8.389-59.623 29.311-12.178 24.398 2.365 53.204 18.119 75.408s34.065 46.993 29.221 73.812c-4.156 22.766-23.787 38.947-41.069 54.366-41.475 37.172-77.428 84.971-83.519 140.317-6.091 55.346 26.673 117.26 81.047 128.982 20.73 4.479 46.047 3.29 58.12 20.778 8.512 12.288 6.201 29.226.507 43.17-5.767 13.823-14.449 26.517-18.322 41.012-5.474 20.588.122 43.898 14.347 59.754 14.226 15.855 36.668 23.844 57.756 20.585" stroke="#91D6E8" stroke-width="2.467" stroke-miterlimit="10" stroke-linecap="round" stroke-dasharray="12.33 12.33"/><path d="m756.482 685.418-25.141 15.135 8.725 4.72 14.369-16.136-5.449 20.904 8.726 4.72-1.23-29.343ZM667.456 381.573l-27.365 10.778 7.785 6.033 16.998-13.43-8.97 19.729 7.882 6.057 3.67-29.167Z" fill="#3D8BC1"/></g><g clip-path="url(#c)"><path d="M698.1 843.4c-38.9-7.3-77-23.2-105.7-50.5-28.6-27.3-46.7-67-42.6-106.4 4.1-39.4 33.2-76.4 71.9-84.7 50.6-10.8 107.2 25.4 152.7.8 28.6-15.5 40.8-49.3 51.9-79.8 11.2-30.5 26.8-63.9 57.5-74.6 31.8-11.1 66.1 7.1 92.8 27.6 29.9 22.9 56.9 49.4 86.2 73.1 29.3 23.6 61.8 44.7 98.2 54.2 36.5 9.5 77.6 6.2 108.3-15.6 30.7-21.8 47.8-64 34.4-99.2-7.8-20.6-24.6-36.8-32.4-57.3-9.7-25.6-3.5-56.4 15.4-76.2 18.9-19.8 49.4-27.6 75.4-19.1" stroke="#91D6E8" stroke-width="2.467" stroke-miterlimit="10" stroke-linecap="round" stroke-dasharray="12.33 12.33"/></g><defs><clipPath id="a"><path fill="#fff" transform="translate(185 -192.761)" d="M0 0h406.3v440.537H0z"/></clipPath><clipPath id="b"><path fill="#fff" transform="rotate(-76.186 745.023 18.675)" d="M0 0h913.1v273.6H0z"/></clipPath><clipPath id="c"><path fill="#fff" transform="translate(548 331)" d="M0 0h815.4v513.7H0z"/></clipPath></defs></svg>