<svg width="895" height="660" viewBox="0 0 895 660" fill="none" xmlns="http://www.w3.org/2000/svg">
<g clip-path="url(#clip0_11_1606)">
<path fill-rule="evenodd" clip-rule="evenodd" d="M879.626 347.637C876.676 345.425 875.447 355.991 876.922 360.414C877.536 362.257 875.693 363.485 873.603 362.011C872.005 360.905 871.759 358.817 868.809 358.694C866.965 358.571 865.982 356.114 866.473 355.254C873.849 351.077 866.719 346.654 867.826 338.668C868.071 337.194 863.892 332.648 861.311 332.279C860.696 330.682 859.59 329.208 860.204 327.242C860.942 325.031 860.942 322.696 862.171 320.608C862.54 319.993 862.171 319.133 861.311 318.519C860.081 317.536 858.975 313.482 857.377 315.079C851.477 320.853 847.666 316.43 844.593 323.311C836.48 341.248 833.038 325.399 821.73 337.071C817.919 341.002 811.65 339.036 803.291 341.371C794.932 343.705 794.564 340.142 789.77 337.931C787.434 336.825 786.943 340.019 784.976 339.159C776.617 335.228 790.384 330.682 785.344 328.471C779.69 326.013 782.026 324.416 778.338 322.328C774.773 320.239 776.617 316.922 775.757 314.465C775.142 312.867 774.159 311.27 771.946 311.516C770.471 310.165 768.75 309.059 768.75 306.725C768.75 302.302 765.062 304.022 764.325 302.793C761.866 303.53 758.056 293.824 753.999 290.876C753.63 289.156 753.016 287.313 755.228 286.33C757.072 285.47 757.81 283.381 760.268 283.013C762.358 282.644 766.906 280.555 769.61 282.521C772.683 284.733 773.421 288.541 772.069 291.981C771.086 294.316 769.365 295.79 767.767 297.51C766.169 299.107 772.069 301.81 776.002 298.37C778.461 296.281 781.288 294.684 782.763 291.613C783.132 290.876 783.992 290.384 784.73 289.893C789.032 287.067 786.82 283.258 791.614 281.17C793.212 280.433 794.318 278.958 795.547 277.73C796.653 276.501 798.497 275.887 799.972 275.027C802.431 273.43 797.76 268.515 793.334 271.71C787.68 275.764 787.803 266.795 782.64 269.375C777.109 272.201 774.159 267.041 770.594 264.461C769.242 263.478 768.996 262.127 768.996 260.652C769.119 258.932 769.119 259.301 762.973 255.124C758.302 255.984 752.524 250.946 747.484 253.158C746.993 253.404 746.501 254.264 746.501 254.386C748.468 256.352 748.959 259.055 750.434 261.144C751.541 262.741 751.787 264.215 751.295 266.058C750.557 268.638 752.647 272.57 755.843 272.201C757.564 271.955 759.408 269.498 762.112 272.447C763.587 273.921 765.431 274.781 765.185 276.501C764.693 279.695 761.375 282.89 758.056 283.381C757.072 283.504 755.843 282.644 754.737 282.276C754.245 281.661 753.999 281.907 749.205 282.03C748.345 280.31 747.73 278.344 745.763 277.361C745.886 276.255 745.149 276.255 744.411 276.255C743.428 274.29 741.83 273.184 739.617 272.815C738.757 272.692 737.896 272.693 737.528 271.71C736.175 267.778 728.431 272.57 726.464 274.658C723.391 277.853 718.106 280.924 716.262 276.87C712.206 267.41 709.01 261.389 716.139 258.687C718.843 257.704 720.073 252.789 717.983 252.544C717.122 252.421 716.262 252.544 715.401 252.421C712.328 252.175 710.362 248.858 711.591 246.155C712.943 243.083 714.541 242.223 716.754 240.381C717.614 239.643 717.122 238.046 715.77 237.8C714.049 237.555 712.328 237.186 710.608 236.695C708.272 236.08 706.428 232.64 708.641 230.429C713.189 225.76 708.518 229.937 701.757 223.549C700.036 221.952 699.299 222.689 695.488 221.337C695.242 218.389 696.717 211.263 694.136 210.894C692.907 210.649 692.415 212 691.923 212.983C689.711 217.652 686.515 212.123 686.023 216.054C686.023 216.177 686.392 216.423 686.638 216.546C687.867 217.037 688.727 216.054 689.711 215.44C690.325 215.072 691.677 215.44 691.8 216.054C691.8 216.177 692.538 222.689 692.538 222.812C691.8 223.18 691.555 224.04 692.169 225.023C690.94 226.62 689.711 228.217 688.358 229.815C688.481 233.132 683.81 238.046 684.179 240.258C684.671 243.821 682.335 245.663 680.368 247.752C679.016 249.226 677.418 249.472 675.575 248.612C671.887 247.138 673.116 252.421 668.937 250.824C662.914 248.612 661.93 252.175 658.734 250.455C655.661 248.735 654.924 247.138 655.661 243.943C656.276 241.118 656.89 238.046 658.98 235.835C661.07 233.5 659.226 228.709 656.03 228.586C635.87 227.603 645.458 217.037 650.498 216.423C650.621 216.423 650.867 215.686 650.867 215.686C649.146 214.089 649.023 215.317 647.056 215.317C646.565 215.317 645.458 214.334 645.827 213.474C647.917 208.683 654.186 209.174 650.867 205.98C650.13 205.243 648.532 204.874 648.654 203.523C648.777 201.434 650.253 200.82 651.85 198.363C654.555 193.94 649.515 195.168 651.605 189.271C652.096 187.797 651.973 188.042 647.056 184.725C643.246 185.462 641.648 179.319 639.681 182.145C637.591 185.094 633.289 187.551 629.847 185.708C628.372 184.848 627.512 185.217 626.774 186.077C616.695 198.24 623.332 196.151 614.728 199.1C610.917 200.451 618.17 204.997 613.744 209.789C607.107 216.914 618.538 218.757 612.761 227.357C612.515 227.726 612.515 228.586 612.761 228.955C614.236 230.675 614.359 232.518 614.113 234.729C613.744 237.678 616.695 239.398 613.007 242.838C610.425 245.295 612.638 246.523 613.867 251.806C614.974 256.475 612.884 259.547 611.901 259.792C606.984 260.652 610.425 264.461 608.09 270.112C606.861 272.938 607.352 275.887 606.861 278.835C606.738 279.941 607.475 281.17 607.352 282.276C607.23 283.381 606 287.436 602.804 284.733C602.19 284.118 601.575 283.136 600.838 283.013C598.01 282.276 596.289 280.433 595.183 277.975C588.299 263.478 589.037 265.321 584.243 270.727C583.26 271.832 580.187 271.832 579.449 270.604C576.253 264.829 572.319 264.707 574.286 263.355C575.884 262.372 575.638 261.021 575.515 259.547C575.147 253.895 586.21 260.038 578.834 244.803C577.728 242.592 578.589 238.906 582.645 237.186C583.997 236.572 584.12 235.466 583.751 234.238C586.456 230.06 581.17 230.92 585.349 225.515C585.964 224.655 584.858 223.18 583.628 223.303C582.03 223.549 580.432 224.532 579.08 222.32C577.482 219.74 574.04 226.62 579.203 229.2C579.818 229.446 579.326 231.658 578.466 232.272C576.499 233.623 576.622 232.518 573.917 231.166C570.721 229.569 571.951 226.989 571.951 226.006C571.459 220.109 563.346 230.797 560.519 225.269C558.306 221.952 558.798 222.197 562.24 221.46C568.263 220.232 563.1 216.792 566.665 210.526C568.263 207.7 564.821 208.683 565.313 204.26C565.559 202.786 563.715 202.54 563.715 201.434C563.592 199.96 564.084 198.485 563.961 197.134C563.715 195.168 560.519 192.465 559.904 193.571C557.815 197.748 561.502 202.171 557.446 207.577C555.848 209.789 558.552 212.123 556.094 217.774C553.266 224.409 554.496 227.357 556.34 229.323C559.167 232.518 562.363 238.906 558.552 239.275C548.964 240.258 552.898 238.046 548.595 235.098C547.858 236.572 546.506 241.609 548.472 246.032C548.35 247.138 547.12 246.401 547.858 248.366C546.997 249.595 546.875 255.492 548.841 259.178C551.054 263.109 551.423 267.532 552.898 271.587C553.881 274.535 554.25 277.975 551.668 280.678C549.579 282.89 551.914 285.101 551.914 286.33C552.037 291.121 544.293 285.593 542.695 278.59C542.203 276.501 538.885 271.464 538.516 273.798C537.778 279.081 539.13 278.59 540.974 280.678C541.712 281.538 541.343 282.398 539.991 283.258C538.639 284.118 539.253 282.398 536.549 281.538C536.426 280.678 535.811 280.31 535.074 279.941C534.951 283.013 534.459 287.927 531.509 287.19C523.765 285.101 524.871 285.838 524.134 279.818C524.503 279.081 525.117 278.221 525.117 277.484C524.503 270.112 531.017 267.41 523.765 266.55C523.519 266.55 523.15 266.672 523.028 266.918C521.921 269.498 519.586 271.587 519.34 274.535C519.094 276.993 517.496 277.607 515.652 278.221C515.283 276.501 513.808 274.535 510.981 274.413C503.974 274.044 509.752 267.041 504.097 265.935C498.074 264.707 498.935 258.809 497.828 254.632C497.337 252.912 497.951 251.806 499.058 250.701C500.164 249.472 500.041 249.718 497.828 242.715C493.649 240.503 492.174 232.886 487.011 231.535C486.519 231.412 485.536 231.78 485.536 231.903C485.905 234.606 484.553 237.063 484.307 239.643C484.061 241.609 483.446 242.961 481.971 244.066C479.759 245.663 479.021 250.086 481.725 251.684C483.201 252.544 486.274 251.806 486.519 255.738C486.642 257.827 487.626 259.669 486.397 260.775C484.061 262.864 479.39 263.478 476.563 261.758C475.702 261.267 475.333 259.792 474.719 258.809C474.719 258.072 474.35 258.072 470.539 255.124C470.908 253.281 471.646 251.315 470.785 249.349C471.523 248.612 471.031 248.121 470.417 247.629C470.908 245.418 470.417 243.575 468.819 241.978C468.204 241.363 467.589 240.872 467.958 239.766C469.31 235.835 460.337 234.729 457.387 235.098C452.962 235.712 446.938 234.852 448.045 230.552C450.749 220.6 451.978 213.966 459.231 216.3C461.935 217.16 465.991 214.211 464.516 212.614C463.902 212 463.164 211.509 462.55 210.894C460.337 208.806 460.829 204.997 463.533 203.646C466.483 202.048 468.327 202.417 471.154 202.294C472.26 202.294 472.875 200.697 472.015 199.714C470.908 198.363 469.679 197.011 468.696 195.66C467.221 193.817 467.958 189.885 471.031 189.517C477.546 188.657 471.154 189.025 469.925 179.934C469.556 177.599 468.573 177.722 466.36 174.282C467.958 171.825 473.613 167.156 471.769 165.191C470.908 164.208 469.679 164.945 468.696 165.436C464.025 167.771 465.008 161.382 462.181 164.208C462.058 164.331 462.181 164.822 462.427 165.068C463.164 166.174 464.393 165.928 465.5 166.051C466.237 166.174 467.098 167.279 466.729 167.771C466.606 167.894 463.164 173.422 463.041 173.545C462.181 173.422 461.443 173.914 461.32 175.019C459.354 175.511 457.387 176.002 455.42 176.371C453.453 179.074 446.693 179.934 445.586 181.899C443.742 184.971 440.792 184.971 437.842 185.462C435.875 185.708 434.523 184.971 433.54 183.128C431.573 179.688 429.237 184.48 426.902 180.794C423.583 175.265 420.51 177.477 419.158 174.159C417.806 170.842 418.174 169.245 420.756 167.156C423.091 165.313 425.427 163.348 428.377 162.856C431.45 162.365 433.048 157.45 430.59 155.362C415.47 141.97 429.483 139.759 433.786 142.339C433.909 142.462 434.523 142.093 434.523 141.97C434.154 139.636 433.294 140.619 431.696 139.39C431.327 139.022 431.081 137.67 431.942 137.179C436.613 134.722 441.161 139.022 440.546 134.476C440.423 133.493 439.44 132.264 440.301 131.159C441.776 129.561 443.251 130.053 445.955 129.07C450.872 127.35 446.078 125.138 451.486 121.821C452.716 121.084 452.47 121.084 450.749 115.433C447.307 113.59 449.888 107.815 446.57 108.798C443.005 109.781 438.211 109.044 436.613 105.358C435.998 103.761 435.138 103.515 434.031 103.761C418.543 106.955 425.058 109.413 416.454 106.464C412.643 105.112 415.47 113.221 408.955 114.204C399.244 115.678 407.111 124.156 397.155 127.35C396.663 127.473 396.171 128.21 396.171 128.701C396.294 130.913 395.188 132.51 393.59 134.107C391.5 136.196 392.729 139.267 387.69 139.759C384.125 140.127 384.985 142.462 382.773 147.376C380.683 151.799 377.118 152.782 376.258 152.413C371.956 150.079 372.201 155.239 366.793 158.065C364.088 159.539 362.613 162.119 360.401 164.085C359.54 164.822 359.417 166.296 358.68 167.034C357.942 167.771 354.378 170.228 353.64 166.174C353.517 165.313 353.763 164.208 353.271 163.593C351.427 161.259 351.427 158.802 352.042 156.099C355.607 140.496 355.115 142.462 347.986 143.69C346.511 143.936 344.052 141.97 344.298 140.619C345.404 134.107 342.454 131.527 344.79 131.773C346.633 132.019 347.248 130.79 348.108 129.561C351.427 124.893 356.098 136.687 359.909 120.224C360.524 117.767 363.351 115.433 367.653 116.661C369.005 117.03 369.866 116.293 370.235 115.064C374.906 113.344 370.235 110.764 376.872 109.167C377.856 108.921 377.979 106.955 376.872 106.341C375.52 105.481 373.553 105.358 373.922 102.778C374.414 99.7066 367.284 103.024 369.743 108.184C369.989 108.798 368.268 110.15 367.284 110.027C364.949 109.904 365.564 109.044 364.334 106.341C362.859 103.147 365.441 101.918 365.932 101.058C369.128 96.1437 356.221 99.3381 357.451 93.3179C357.696 89.3865 358.065 89.8779 361.138 91.3522C366.67 94.178 364.703 88.2807 371.464 85.455C374.414 84.2264 371.095 82.8749 374.291 79.6806C375.397 78.6977 374.168 77.3462 374.783 76.3634C375.52 75.1348 376.872 74.3976 377.61 73.169C378.593 71.449 377.856 67.3946 376.627 67.8861C372.324 69.729 372.57 75.6262 365.932 77.3462C363.228 78.0834 363.843 81.6463 358.557 84.4721C352.165 87.9121 351.305 90.9836 351.55 93.6865C351.796 97.9866 350.321 104.867 347.125 102.901C339.012 97.7409 343.437 98.3552 341.962 93.4408C340.487 94.0551 336.185 97.2494 334.956 101.918C334.218 102.655 333.727 101.304 333.112 103.392C331.637 103.884 327.826 108.307 327.212 112.484C326.474 116.907 324.016 120.593 322.664 124.77C321.68 127.719 319.836 130.544 316.026 131.159C313.076 131.527 313.444 134.722 312.707 135.704C309.88 139.513 307.175 130.421 310.248 123.91C311.109 122.067 311.723 115.924 310.002 117.521C306.192 121.207 307.421 121.576 307.544 124.401C307.544 125.507 306.806 125.999 305.086 125.753C303.488 125.63 305.086 124.647 303.488 122.313C303.979 121.453 303.61 120.838 303.365 120.224C301.398 122.558 297.833 126.121 296.112 123.664C291.441 117.276 291.81 118.504 294.883 113.344C295.621 112.975 296.604 112.73 297.096 112.115C301.275 105.972 308.036 107.938 302.873 102.655C302.75 102.532 302.258 102.41 302.012 102.41C299.554 103.761 296.358 103.884 294.268 105.972C292.425 107.938 290.581 107.078 288.737 106.341C287.999 103.761 286.401 101.672 284.435 99.8295C284.557 98.3552 284.066 99.2152 281.607 97.3723C279.149 95.4066 277.92 96.2666 275.461 92.8265C258.375 68.9918 262.186 83.4892 263.538 68.9918C263.538 68.3775 263.046 64.8146 262.554 64.9375C260.71 65.4289 258.867 69.2375 256.9 65.1832C254.196 59.5316 257.514 57.443 258.129 56.3373C259.358 54.1258 258.129 53.6344 251.368 47C249.156 54.4944 253.089 54.4944 252.475 60.3917C251.983 64.3232 254.564 73.9062 254.933 74.029C257.76 75.3805 257.883 79.1891 260.956 80.172C262.554 80.6634 263.538 81.7692 263.784 83.2435C264.89 88.6493 268.086 86.6835 270.913 91.4751C276.568 101.181 275.584 99.5838 272.265 107.324C269.069 107.447 266.611 105.358 263.784 104.375C263.906 100.567 261.94 96.8809 262.923 93.0722C263.292 91.7208 259.481 89.0179 258.252 88.1579C254.933 85.5778 254.073 95.2837 257.637 100.321C258.744 101.795 258.498 103.638 257.023 105.112C253.581 108.43 253.335 110.641 250.262 109.044C245.591 106.587 246.574 101.672 246.329 97.2494C246.206 93.9322 246.329 93.9322 241.903 88.035C241.535 87.6664 240.92 87.4207 240.428 87.175C239.691 86.8064 239.199 86.9293 239.076 87.6664C238.339 95.038 238.339 95.1608 240.428 96.3894C240.92 96.6351 241.412 97.3723 241.412 97.7409C240.674 101.304 241.78 104.744 241.412 108.307C241.166 110.641 237.601 110.027 236.003 107.57C234.774 105.481 233.176 103.147 230.84 103.884C229.857 104.252 231.947 113.221 227.153 109.904C225.677 108.921 223.219 105.604 221.498 106.341C215.967 108.921 216.827 103.761 212.771 107.324C208.222 111.255 203.674 105.235 204.658 101.672C206.01 96.3894 196.053 96.1437 199.003 93.3179C200.478 91.9665 201.953 90.4922 203.429 89.1407C209.82 83.2435 221.006 98.3552 223.465 97.8637C227.03 97.1266 218.671 87.9121 218.302 84.9635C217.688 80.0491 215.352 75.3805 215.967 70.2204C216.09 69.1147 216.09 66.6575 214.983 64.2003C213.262 60.5145 207.854 68.7461 204.904 68.6232C202.076 68.6232 206.379 73.7833 202.814 77.1005C201.462 78.3291 201.093 82.1378 195.684 80.2949C192.12 79.0663 190.645 77.592 188.186 78.8205C184.13 80.7863 185.359 80.7863 179.704 74.3976C175.894 70.2204 173.927 74.7662 170.977 71.9404C169.01 70.0975 162.864 67.8861 161.512 70.4661C159.668 74.1519 151.186 74.3976 147.867 73.9062C143.319 73.2919 157.455 84.9635 150.941 86.1921C146.147 87.0521 138.894 82.6292 139.509 88.5264C139.632 90.615 139.755 90.615 137.419 91.3522C135.452 91.9665 135.698 93.8094 137.542 93.6865C138.648 93.6865 138.648 94.3008 139.509 97.2494C140.123 99.4609 137.788 99.8295 136.927 99.3381C134.715 98.1095 133.486 95.2837 130.535 95.038C130.044 95.038 129.429 94.5465 129.06 94.0551C124.758 87.7893 121.439 86.9293 121.193 83.8578C120.947 81.5235 119.841 80.0491 117.506 79.4348C108.163 76.8548 112.22 77.3462 105.828 81.5235C101.034 84.5949 102.632 76.2405 93.2898 79.312C86.8978 81.4006 86.2832 85.5778 85.2998 90.7379C84.6852 93.8094 90.9542 94.3008 94.1502 92.9494C100.296 90.2465 107.426 97.1266 103.369 98.9695C87.6353 106.218 104.845 103.884 109.393 107.57C113.818 106.464 116.03 112.73 117.383 114.573C119.226 117.03 117.506 118.136 117.26 121.207C117.137 122.436 119.226 124.033 120.333 123.664C122.177 122.927 124.143 122.19 125.618 120.716C128.077 118.381 133.854 120.347 129.675 125.016C128.937 125.753 127.462 126.49 128.937 127.719C133.363 131.404 134.469 133.002 137.05 131.896C140.369 130.544 143.073 133.862 146.269 133.124C147.007 133.002 147.99 133.493 148.728 133.862C153.276 136.442 151.678 139.267 157.455 140.619C160.406 141.356 159.053 145.41 156.472 145.165C152.784 144.796 149.097 146.27 145.286 145.533C144.794 145.41 144.549 146.393 145.163 146.885C148.851 149.342 146.515 151.922 144.426 156.099C142.828 159.416 153.645 160.891 151.186 164.453C149.465 167.034 144.426 164.331 145.409 169.122C145.532 169.736 146.024 170.351 145.901 170.719C145.409 172.439 145.409 173.791 146.515 175.634C149.465 180.548 143.934 180.917 145.901 186.322C147.13 189.762 141.844 190.008 140.492 188.288C137.05 183.742 135.329 186.937 128.814 182.882C123.775 179.688 118.243 185.585 114.678 184.971C111.236 184.357 107.918 187.551 107.426 185.094C106.811 181.654 100.788 179.074 103.247 177.845C107.918 175.634 107.303 177.599 109.639 181.654C111.114 184.234 115.908 177.722 110.868 176.494C105.09 175.019 103.738 177.354 98.6984 173.299C96.2399 171.334 93.0439 175.388 91.4459 174.897L91.0772 175.634C88.7416 176.617 88.6187 181.285 85.5457 180.057C82.1038 178.828 82.8414 183.251 78.4161 183.988C71.4095 184.971 75.0972 183.005 66.0009 180.794C61.9445 179.811 69.3199 176.617 70.3032 176.002C71.7783 176.248 73.4992 176.617 74.2368 175.142C75.466 172.685 78.2932 172.562 80.0141 170.842C75.9577 166.911 73.868 174.651 67.476 173.791C65.3863 173.545 66.8614 171.456 64.4029 170.105C61.9445 168.754 62.4362 176.494 58.011 175.265C56.2901 174.774 56.6588 173.422 56.5359 172.439C55.1837 164.453 44.6124 180.917 45.1041 162.365C45.1041 161.996 43.9978 161.873 43.7519 162.242C42.5227 164.822 41.9081 163.962 42.8915 172.194C42.8915 172.439 45.5958 175.142 45.8416 175.388C46.9479 176.862 45.3499 177.968 41.7852 181.285C39.4496 183.497 38.0975 186.568 35.762 188.657C33.9181 190.254 33.6723 191.974 34.041 194.063C34.6557 197.625 27.8949 194.308 26.2969 193.08C23.3468 190.991 29.9846 183.374 15.8485 187.551C14.4963 187.92 13.2671 188.78 12.0379 189.517C10.317 190.622 10.6857 191.237 10.6857 193.08C10.5628 196.028 13.7588 197.38 13.513 200.206C13.513 200.574 14.0046 201.188 14.4963 201.434C15.4797 201.803 23.8385 199.591 29.7388 206.348C31.8284 208.806 36.0078 208.069 36.0078 204.751C36.0078 198.608 47.5625 200.697 43.2602 206.594C42.031 208.314 39.9413 209.543 42.031 212.614C45.5958 217.897 37.8517 215.932 38.5892 217.774C40.0643 221.46 38.2204 224.655 36.9912 227.972C36.0078 230.552 33.6723 228.463 32.4431 227.357C30.7221 229.446 28.1408 229.937 25.8052 230.92C24.6989 231.412 26.2969 230.675 25.8052 231.78C25.0677 233.255 28.0178 235.835 25.1906 237.063C24.9448 237.186 24.576 237.186 24.3302 237.309C23.9614 237.678 24.0843 238.169 24.6989 238.292C28.0178 238.783 27.0345 240.012 33.0577 240.258C34.9015 240.381 30.968 239.275 30.2304 237.309C29.9846 236.695 30.3534 235.466 31.2138 235.343C35.3932 234.483 33.4264 237.063 36.2537 237.432C39.5726 238.046 42.031 240.012 44.7353 241.732C45.9645 242.469 45.7187 245.172 44.4895 245.295C40.3101 245.786 36.9912 251.069 36.3766 248.981C35.1474 244.312 30.968 244.681 25.3135 244.926C24.9448 244.926 24.3302 246.769 24.8218 247.138C28.0178 249.104 28.1408 248.243 29.6158 248.981C30.4763 249.349 30.4763 251.438 29.6158 251.929C28.3866 252.666 25.1906 253.158 26.0511 254.755C28.2637 258.441 29.37 259.301 30.968 258.318C33.9181 256.598 31.8284 253.526 36.1307 253.035C39.8184 252.666 35.2703 258.072 40.6789 258.687C41.7852 258.809 41.7852 262.618 44.3666 261.267C49.1605 258.809 52.4795 256.229 53.5858 256.475C56.1671 257.089 58.8714 255.615 61.3299 257.335C61.3299 255.738 65.1405 251.929 66.8614 253.895C67.476 254.632 65.878 256.967 63.9113 256.598C63.5425 257.581 62.9279 258.195 61.8216 258.072C62.1903 261.389 59.9777 261.144 55.5525 262.741C54.5691 263.109 54.3233 265.198 55.1837 265.69C59.1173 268.147 61.207 267.778 63.4196 271.71C63.7883 272.447 62.805 273.553 62.4362 273.553C51.3731 272.447 51.8648 272.324 50.021 270.358C46.825 267.041 43.9978 274.535 40.9247 271.955C38.2204 269.621 34.6557 270.85 31.7055 269.744C30.1075 269.13 29.0012 272.324 29.7388 273.798C33.3035 281.784 36.7453 278.221 34.9015 282.767C31.0909 291.859 31.9514 287.313 28.0178 289.156C24.2072 290.999 28.3866 290.753 20.3966 292.964C7.85852 296.404 0.114387 291.49 0.851923 296.281C1.46654 299.722 -1.23776 301.196 0.729 302.67C0.483154 302.916 0.114387 303.039 0.851923 303.284C0.974846 304.882 0.851923 306.602 1.22069 308.199C1.34361 309.182 4.41668 312.253 2.44992 315.816C2.327 316.062 2.81869 316.676 3.06453 317.168C2.327 317.413 2.08115 318.028 2.69576 318.396C4.29376 319.256 6.26052 319.01 7.98144 320.116C8.59605 320.485 9.57943 320.362 10.4399 320.485C12.5296 320.73 10.194 317.905 9.45651 316.922C11.3004 314.587 13.39 314.956 15.7256 316.308C18.4299 317.782 17.5694 319.133 17.8153 320.608C19.0445 326.505 24.0843 323.925 27.8949 324.539C30.2304 324.908 31.2138 328.225 29.7388 329.331C24.6989 333.262 29.1241 333.999 28.7554 339.159C28.3866 345.057 30.4763 342.231 32.4431 352.428C32.6889 353.411 31.7055 353.902 30.968 354.271C29.2471 355.131 29.9846 359.554 33.5494 361.274C36.4995 362.748 40.3101 363.117 41.0476 365.206C42.7686 369.997 45.3499 369.506 45.3499 373.56C45.3499 375.28 46.0875 377 45.9645 378.72C45.5958 383.143 55.1837 386.583 60.1007 382.406C61.084 383.143 59.9777 382.037 61.3299 382.283C61.6987 381.423 65.6322 380.809 66.4926 380.686C68.4594 380.563 69.074 382.652 70.5491 383.266C71.6554 383.634 72.6388 383.88 73.7451 384.249C73.9909 388.672 73.7451 387.443 74.8514 388.917C74.8514 388.917 74.9743 389.532 75.2201 389.655C79.6454 391.375 78.7849 390.883 79.7683 390.023C83.7018 386.337 81.9809 385.969 89.1104 393.217C93.2898 397.395 87.5124 399.36 95.0107 403.046C99.313 405.135 100.173 403.906 107.057 404.766C110.868 405.258 106.565 408.452 108.778 411.278C109.516 412.261 108.286 414.841 110.007 414.964C118.366 415.701 117.26 415.578 120.21 414.349C123.775 412.752 121.931 417.175 129.306 420.124C134.715 422.335 134.715 419.386 141.23 421.721C147.253 423.809 151.678 426.881 154.505 425.529C153.276 414.103 153.153 414.718 153.768 411.523C154.137 409.435 158.316 409.189 159.791 412.752C161.389 416.561 155.12 415.824 157.578 421.229C160.528 427.618 157.947 433.392 156.964 436.71C155.12 442.853 160.283 450.47 159.053 457.473C158.439 460.79 168.518 472.462 165.077 478.727C163.847 480.939 161.881 481.185 163.479 483.028C168.764 489.539 161.512 483.396 162.126 499.859C162.249 502.316 165.937 502.194 166.92 502.685C173.681 506.248 175.156 499.736 182.286 502.808C190.645 506.371 195.684 502.316 196.176 510.302C196.176 511.285 197.651 512.268 198.389 512.759C203.428 515.708 198.88 515.585 199.372 522.711C199.618 525.537 196.914 526.397 199.864 528.731C204.166 532.048 205.027 530.328 211.418 530.083C213.877 529.96 214.369 528.731 217.196 525.168C220.761 520.622 223.219 526.643 227.644 523.694C230.226 521.974 232.561 527.257 235.388 526.643C239.568 525.783 240.92 529.1 241.903 527.011C243.501 523.571 247.189 519.517 249.647 522.097C252.475 525.045 251.86 526.028 249.279 533.523C248.049 537.086 247.312 542.123 250.508 540.157C252.352 541.017 252.843 542.614 253.089 544.457C253.335 546.546 255.425 544.457 256.408 542.737C257.514 540.894 258.744 541.386 261.817 542.246C266.857 543.597 260.833 548.389 260.71 551.829C260.71 556.006 257.146 557.849 255.056 561.535C253.827 563.746 255.671 564.975 256.039 565.958C256.162 565.712 260.219 563.255 261.202 562.149C262.677 560.429 263.906 555.392 268.332 551.214C274.601 545.317 269.93 548.143 274.232 542C279.026 534.997 278.534 530.82 284.312 531.803C285.049 531.926 285.787 530.943 286.647 530.697C300.046 526.52 296.973 532.171 301.767 536.963C303.979 539.174 301.767 541.386 301.521 543.474C301.275 544.949 305.946 548.88 307.052 543.597C309.265 532.786 302.012 535.488 309.511 526.397C310.002 525.783 312.215 525.414 312.83 525.905C322.418 533.031 313.936 535.611 322.295 539.543C323.647 540.157 328.318 541.509 329.793 539.911C335.079 534.137 338.643 536.963 341.717 536.226C347.125 534.997 343.806 526.52 352.288 527.994C353.148 528.117 354.132 528.117 354.869 527.748C357.819 526.765 360.647 527.011 363.597 527.748C370.849 529.345 370.235 525.66 371.71 519.517C371.956 518.411 373.185 517.428 374.414 517.182C374.66 517.182 374.906 517.182 375.151 517.305C375.397 517.305 375.52 517.305 375.766 517.305C375.889 517.305 375.889 517.428 376.012 517.428C377.364 518.534 379.085 519.148 380.683 519.64C380.068 520.254 380.56 523.571 379.945 524.677C378.716 527.011 379.945 528.485 381.298 529.96C382.65 531.434 384.739 530.574 385.846 529.223C385.846 529.837 385.969 530.328 385.969 530.328C386.092 531.311 388.058 529.345 388.058 528.731C391.746 528.854 392.361 526.52 392.484 523.94C393.467 525.783 393.959 527.871 394.573 529.837C395.434 532.417 392.361 532.294 390.64 532.171C390.64 534.874 388.796 536.84 387.69 539.051C387.075 540.034 387.935 538.56 388.181 539.789C388.55 541.509 392.361 541.631 391.009 544.334C390.886 544.58 390.64 544.826 390.517 545.072C390.394 545.563 390.886 545.931 391.5 545.563C394.327 543.843 394.45 545.44 399.244 541.877C400.719 540.771 396.909 542.369 395.188 541.386C394.573 541.017 394.082 539.789 394.696 539.174C397.401 535.98 397.523 539.051 399.982 537.7C402.932 536.103 406.128 536.103 409.324 535.734C410.676 535.611 412.274 537.823 411.291 538.683C408.341 541.754 409.078 547.897 407.234 546.669C403.301 543.843 400.228 546.669 396.048 550.354C395.802 550.6 396.417 552.443 397.032 552.32C400.842 551.829 400.351 551.092 401.826 550.723C402.686 550.477 404.038 552.074 403.67 553.057C403.178 554.409 400.965 556.866 402.563 557.48C406.62 558.955 407.972 558.955 408.586 557.235C409.816 554.04 406.374 552.934 409.324 549.863C411.905 547.283 411.782 554.286 416.454 551.46C417.314 550.846 419.772 553.917 421.002 551.214C423.214 546.3 424.198 542.246 425.304 541.754C427.639 540.649 428.869 537.823 431.819 537.577C430.835 536.348 431.327 530.943 434.031 531.557C435.015 531.803 435.261 534.628 433.417 535.488C433.786 536.471 433.663 537.331 432.679 537.946C435.015 540.28 433.171 541.386 430.713 545.44C430.221 546.3 431.327 548.143 432.311 548.02C436.859 547.529 438.334 545.932 442.513 547.529C443.251 547.897 443.128 549.372 442.882 549.617C433.417 555.637 433.786 555.146 431.204 554.9C426.656 554.286 429.237 561.903 425.058 561.78C421.493 561.658 419.527 564.852 416.454 565.835C414.856 566.326 415.962 569.521 417.437 570.258C425.181 574.312 425.796 569.398 427.148 574.066C429.852 583.526 427.762 579.472 425.796 583.404C423.952 587.212 427.025 584.386 422.231 591.144C414.61 601.587 405.39 602.57 409.078 605.887C411.66 608.221 410.43 611.047 412.889 610.924C412.889 611.293 412.643 611.661 413.38 611.293C414.487 612.521 415.47 613.873 416.699 614.978C417.437 615.593 421.616 616.207 422.477 620.139C422.6 620.507 423.337 620.63 423.829 620.876C423.46 621.49 423.583 622.104 424.321 621.981C426.164 621.613 427.517 620.261 429.483 620.139C430.221 620.139 430.958 619.401 431.573 618.91C433.294 617.804 429.729 617.067 428.623 616.821C428.623 613.873 430.59 612.89 433.171 612.398C436.244 611.907 436.367 613.504 437.596 614.487C442.267 618.418 444.603 613.258 447.922 611.293C449.888 610.187 452.716 612.153 452.347 613.873C450.872 620.138 454.682 617.927 457.633 622.227C460.952 627.141 460.829 623.579 468.819 630.336C469.679 631.073 469.187 631.933 468.819 632.67C467.958 634.513 471.277 637.339 475.211 636.602C478.53 635.864 481.725 633.776 483.569 635.004C487.872 637.707 489.715 635.619 492.174 638.813C493.28 640.165 494.878 641.025 495.862 642.499C498.32 646.185 508.031 642.867 509.26 636.602C510.489 636.602 509.014 636.356 510.121 635.742C509.875 634.882 512.456 631.933 513.194 631.319C514.546 629.967 516.513 631.319 517.988 630.827C519.094 630.459 520.077 629.967 521.061 629.599C524.011 632.916 523.028 632.056 524.871 632.547C524.871 632.547 525.363 632.916 525.609 632.916C530.157 631.442 529.174 631.687 529.419 630.336C530.157 625.053 528.559 625.79 538.639 627.019C544.539 627.756 541.22 632.793 549.456 631.073C554.127 630.09 554.127 628.493 559.904 624.807C563.223 622.719 561.748 628.001 565.313 628.862C566.542 629.23 567.157 631.933 568.632 630.95C575.638 626.404 574.655 627.019 576.253 624.07C578.097 620.63 579.326 625.176 586.947 622.964C592.602 621.367 590.758 619.033 597.273 616.698C603.296 614.61 608.582 614.241 609.934 611.416C601.821 603.307 602.19 603.798 600.715 600.972C599.731 599.13 602.927 596.304 606.246 598.147C609.811 600.112 604.525 603.43 609.811 606.133C616.08 609.327 617.678 615.347 618.907 618.541C621.243 624.561 630.093 627.264 633.412 633.407C635.01 636.356 650.13 639.182 651.482 646.308C651.973 648.888 650.498 650.239 652.834 650.73C661.07 652.45 651.482 652.328 662.299 664.736C663.897 666.579 666.724 664.122 667.83 663.999C675.329 662.648 672.501 656.628 679.877 654.539C688.727 652.082 690.079 645.816 695.365 651.713C695.98 652.451 697.701 652.328 698.561 652.205C704.339 651.468 700.651 654.17 705.568 659.331C707.534 661.419 705.936 663.754 709.747 663.754C715.156 663.754 714.787 661.788 719.581 657.611C721.425 656.013 721.056 654.785 721.056 650.116C720.933 644.342 726.71 647.536 728.185 642.499C729.169 639.427 734.209 642.253 736.053 640.042C738.757 636.847 741.953 638.445 741.338 636.356C740.478 632.67 740.846 627.264 744.288 627.756C748.345 628.37 748.468 629.476 751.049 636.97C752.278 640.533 754.983 644.956 756.089 641.393C758.056 640.902 759.408 641.885 760.76 643.113C762.235 644.588 762.604 641.639 762.235 639.796C761.866 637.707 763.218 637.339 766.169 635.987C770.84 633.899 769.242 641.393 771.331 644.096C773.913 647.413 772.192 651.099 772.929 655.153C773.298 657.611 775.634 657.488 776.494 658.102C776.494 657.856 778.092 653.433 778.215 651.836C778.338 649.502 776.125 644.833 776.986 638.813C778.215 630.336 776.248 635.496 775.757 627.879C775.142 619.401 772.192 616.453 777.232 613.627C777.846 613.258 777.846 612.03 778.338 611.293C786.205 599.621 787.311 606.01 794.072 606.747C797.268 607.115 796.899 610.187 797.883 612.03C798.62 613.381 804.766 613.504 802.308 608.713C797.268 598.884 793.334 605.518 793.457 593.724C793.457 592.864 794.932 591.267 795.67 591.267C807.716 590.898 802.554 598.147 811.527 596.058C812.879 595.69 817.427 593.847 817.673 591.758C818.288 584.018 822.836 583.895 824.68 581.438C828.122 577.015 820.255 572.592 827.753 568.538C828.49 568.169 829.228 567.432 829.72 566.695C831.44 564.115 833.776 562.518 836.48 561.166C843.118 557.849 840.414 555.515 837.71 549.74C836.972 548.143 838.078 545.44 839.676 545.44C845.331 545.44 849.756 539.543 853.812 545.686C853.935 545.932 853.198 546.792 853.075 547.037L855.288 549.372C856.025 550.109 856.271 547.283 855.902 546.792C862.294 542.123 850.494 537.331 853.935 533.646C855.533 531.926 853.689 530.083 853.075 527.994C851.846 523.571 847.297 526.643 844.102 527.503C842.135 527.994 843.733 522.22 845.085 517.182C845.945 514.111 849.264 513.497 848.896 515.462C848.158 519.148 849.141 518.902 851.231 520.254C851.477 519.517 852.337 518.411 851.969 517.92C849.141 512.882 845.7 508.091 846.191 501.825C846.314 500.105 842.872 498.999 846.314 491.751C847.42 489.416 855.533 481.185 845.331 482.413C841.889 482.782 839.43 477.499 838.324 474.427C837.341 471.725 839.43 470.742 841.397 467.67C847.052 458.824 850.371 460.913 849.756 457.35C849.018 453.418 846.068 457.35 842.135 455.63C841.397 455.261 840.168 454.893 840.045 454.279C839.43 451.33 835.866 450.101 835.866 446.661C835.866 445.433 834.514 445.064 833.039 445.555C832.547 445.678 832.055 446.293 831.563 446.415C829.228 446.784 830.457 443.713 827.63 442.238C822.221 439.413 829.965 437.447 821.607 429.584C816.813 425.161 816.69 425.407 816.198 422.949C815.952 421.844 816.444 417.912 813.494 418.404C803.414 420.001 803.291 420.738 800.833 418.772C799.849 418.035 797.514 417.421 796.899 418.404C793.58 424.178 793.089 425.529 794.072 427.004C796.53 431.058 794.195 431.304 793.58 435.235C793.212 437.57 793.212 437.57 792.474 438.552C792.105 439.044 791.736 439.535 791.614 440.027C791.245 441.255 792.474 443.467 790.138 441.993C784.73 438.675 778.092 439.044 779.321 443.59C780.059 446.17 779.198 447.89 777.232 448.627C776.248 448.996 775.019 448.504 773.913 448.504C773.052 447.03 771.331 447.521 770.102 446.784C768.135 445.555 766.169 446.047 764.202 446.784C761.252 447.89 762.481 451.453 760.268 450.47C758.67 449.856 756.458 450.224 755.597 448.504C753.753 444.941 750.066 446.293 750.926 444.327C753.139 438.921 753.385 440.641 748.222 434.99C746.501 433.147 749.943 428.724 753.753 429.707C761.989 431.918 761.743 427.495 757.441 425.652C749.943 422.335 748.836 426.758 744.903 428.969C745.395 429.584 744.903 430.935 744.657 430.812C743.428 432.655 742.69 434.375 741.092 433.147C741.092 433.147 741.707 433.761 741.707 434.13C741.707 435.235 739.863 434.744 740.355 434.13C740.478 434.007 740.969 433.515 741.215 433.27C741.215 433.27 741.215 433.27 741.338 433.147C738.88 430.567 741.092 429.338 742.69 429.829C743.059 429.952 744.903 430.812 744.903 430.812C744.165 427.864 746.624 430.075 741.953 426.758C740.969 424.915 740.969 425.652 742.199 422.827C742.936 423.195 743.428 422.949 743.797 422.335C744.657 422.335 745.641 422.704 746.255 422.335C754.122 417.666 758.793 418.772 759.531 415.578C759.654 414.964 758.424 414.104 757.687 414.226C756.089 414.472 757.564 413.735 755.72 415.701C753.63 417.912 750.926 417.298 748.959 415.086C747.607 413.489 747.976 411.892 748.222 410.172C750.312 408.821 750.557 408.452 749.943 406.978C747.976 402.186 743.059 397.026 750.68 399.238C753.262 399.975 755.474 398.009 755.351 396.657C753.753 379.334 759.162 392.235 761.62 385.969C761.866 385.477 761.743 384.74 762.112 384.249C763.71 381.792 768.258 385.6 768.012 382.897C767.644 379.089 771.454 380.194 772.56 377.491C772.806 376.877 766.537 375.771 765.923 375.649C762.973 375.28 760.391 373.806 757.687 372.823C757.441 372.7 757.441 371.717 757.687 371.226C759.654 366.68 764.079 372.454 772.929 365.328C773.79 364.591 775.265 364.223 775.634 363.363C776.371 361.151 778.092 362.871 779.198 362.134C779.813 361.765 779.567 362.625 779.813 363.117C780.182 364.1 781.165 365.206 782.517 364.714C784.976 363.854 787.68 364.1 789.77 362.134C790.138 361.765 790.876 361.52 791.368 361.643C795.916 362.257 800.833 360.905 805.135 362.994C811.404 365.943 811.65 359.554 815.215 366.188C816.321 368.154 817.673 367.294 820.623 366.311C821.607 367.663 826.401 370.488 829.351 368.768C832.424 366.926 842.995 366.311 841.028 370.12C838.078 375.894 836.234 377.737 838.447 379.457C842.749 382.529 839.922 384.126 841.643 386.214C845.822 391.497 843.856 394.077 850.862 397.395C853.321 398.623 852.706 397.763 853.935 394.077C854.304 393.095 855.779 391.989 856.517 392.112C859.959 392.972 857.623 400.343 859.098 401.695C861.311 403.783 859.59 406.363 861.188 408.206C862.663 409.803 864.507 408.206 864.384 407.223C864.138 405.38 862.909 405.012 863.4 400.466C863.523 399.36 862.54 398.623 864.63 397.763C866.719 396.78 864.63 401.203 869.055 402.186C870.161 402.432 871.144 403.169 872.128 403.66C874.218 401.326 875.693 398.992 874.709 395.675C874.463 394.692 874.095 389.9 875.201 389.04C876.799 387.812 878.274 390.76 879.134 391.62C886.018 397.64 880.978 371.717 881.839 362.503C879.503 357.465 888.845 354.271 879.626 347.637ZM42.6456 331.419C42.5227 331.051 42.3998 330.682 42.5227 330.682C42.5227 330.805 42.5227 331.051 42.6456 331.419ZM39.4496 282.276C39.6955 282.276 39.9413 282.153 40.1872 282.153C39.8184 282.276 39.4496 282.276 39.4496 282.276ZM51.0044 218.634C45.3499 213.106 53.8316 215.809 51.1273 209.789C49.2835 205.734 53.4628 199.837 56.6588 201.066C63.7883 203.891 66.9843 199.591 70.5491 204.506C72.0242 206.471 73.3763 207.086 72.3929 208.929C70.0574 212.983 68.2135 214.826 72.6388 216.3C73.1305 216.423 73.1305 217.529 72.7617 217.529C71.1637 217.897 71.2866 218.02 70.5491 215.686C69.9345 215.563 69.3199 214.334 69.3199 214.211C69.5657 213.72 69.8116 213.597 69.074 213.597C67.2302 213.474 65.6322 213.597 65.0176 215.809C63.9113 219.494 61.084 220.477 59.2402 219.126C54.0774 215.072 53.9545 221.46 51.0044 218.634ZM78.1703 232.149C77.8015 232.64 77.3098 232.886 76.9411 233.378C74.7284 236.203 78.5391 236.203 78.2932 238.415C78.0474 241.363 76.0806 241.855 74.4826 243.943C71.7783 247.261 73.1305 247.506 70.4262 248.121C67.9677 248.735 70.672 240.258 67.5989 241.363C66.7385 241.732 66.1239 242.346 65.3863 242.715C63.1737 243.698 61.6987 240.872 62.1903 239.889C63.2966 237.8 66.8614 234.606 62.805 231.658C61.6987 230.92 63.0508 228.832 63.7883 227.849C67.2302 223.057 69.9345 226.62 77.6786 229.937C78.4161 230.183 78.662 231.289 78.1703 232.149ZM156.964 340.265C157.333 340.142 157.578 340.019 157.578 340.019C157.455 340.142 157.21 340.265 156.964 340.265ZM154.751 121.084C153.891 120.961 145.04 119.364 144.549 118.504C143.073 115.924 140.369 114.327 139.14 111.624C138.894 111.01 139.632 109.535 140.246 109.535C142.09 109.535 143.319 110.027 143.688 110.027C146.024 110.15 148.359 106.832 146.638 104.252C144.426 101.058 140.984 101.304 144.794 96.758C148.113 92.8265 154.505 93.4408 155.243 94.178C163.724 101.304 162.741 100.321 162.495 102.041C162.004 106.095 165.322 105.358 167.781 105.972C171.96 107.078 177.123 113.221 168.887 115.31C166.92 115.801 166.183 117.03 166.06 119.118C166.06 122.558 161.389 120.961 160.528 120.224C158.193 117.767 157.21 121.453 154.751 121.084ZM167.043 143.076C164.093 141.233 164.462 136.196 165.445 135.459C166.675 134.599 169.133 136.319 170.731 133.493C171.1 132.756 174.542 132.879 177 135.09C179.336 137.179 178.106 136.196 180.688 136.564C170.854 137.547 172.083 146.147 167.043 143.076ZM169.379 88.2807C167.289 86.0693 170.485 81.4006 171.837 83.8578C173.681 87.2978 171.223 90.1236 169.379 88.2807ZM199.987 123.173C198.635 124.278 199.003 126.736 197.159 127.35C193.472 128.701 192.12 131.773 191.013 135.09C190.767 135.827 190.276 136.073 189.661 135.704C189.415 135.582 189.047 135.459 188.924 135.336C185.851 128.824 185.605 128.456 185.973 126.367C186.834 121.576 181.179 125.507 178.721 117.767C177.246 113.221 178.721 115.31 181.302 112.73C182.163 111.87 183.023 111.255 184.375 111.624C188.555 112.73 188.063 114.081 188.801 116.293C191.136 122.436 194.332 115.555 199.495 121.576C199.987 121.821 199.987 122.558 199.987 123.173ZM253.827 125.999C256.039 133.493 256.531 132.387 255.056 133.862C254.933 133.984 254.441 134.107 254.196 133.984C246.451 130.053 246.574 130.421 246.329 129.193C245.96 127.104 246.451 124.893 249.279 123.418C252.475 121.576 248.664 118.873 252.72 118.504C256.162 118.381 252.352 121.207 253.827 125.999ZM429.483 570.626C429.606 570.503 429.852 570.258 429.975 570.135C429.729 570.38 429.483 570.626 429.483 570.626ZM427.148 398.623C427.025 398.623 427.025 398.746 427.025 398.746C425.058 397.64 424.689 397.026 424.321 395.183C424.075 393.955 422.6 391.989 421.493 392.48C415.347 394.937 414.118 395.675 413.872 397.517C413.258 402.186 411.291 400.958 408.341 403.66C406.62 405.258 406.62 405.258 405.39 405.626C404.776 405.749 404.161 405.872 403.793 406.241C402.809 406.978 402.317 409.435 401.334 406.855C399.244 400.835 393.713 397.026 391.869 401.326C391.746 401.449 391.746 401.695 391.623 401.818C391.623 401.08 391.009 400.466 389.165 400.22C386.952 399.852 385.969 401.94 386.46 403.538C385.846 403.046 385.231 402.309 384.617 401.695C384.862 399.975 383.141 399.238 382.65 398.009C381.789 395.797 380.068 394.937 378.102 394.323C375.152 393.34 373.799 396.903 372.693 394.815C372.324 394.077 371.464 393.34 370.972 392.603C372.447 391.866 373.922 391.375 375.029 391.375C377.856 387.812 383.51 391.252 385.6 391.866C388.55 392.603 387.935 394.569 389.656 397.149C390.394 398.255 392.975 398.132 393.59 397.026C394.573 395.306 395.557 393.586 395.925 391.497C396.417 388.18 402.194 386.092 401.826 392.357C401.826 393.463 400.965 394.937 402.932 394.937C408.709 395.06 410.553 395.675 411.905 393.217C413.626 390.023 417.806 391.006 419.895 388.426C420.387 387.812 421.493 387.689 422.354 387.566C427.517 386.829 428.008 389.9 433.417 387.443C436.121 386.214 437.719 390.269 435.507 391.62C432.556 393.463 430.59 396.903 427.148 398.623ZM431.573 401.203C430.467 400.589 429.483 400.098 428.746 399.606C430.221 399.729 431.081 400.343 431.573 401.203ZM278.165 167.402C278.411 167.279 278.78 167.156 278.78 167.156C278.534 167.279 278.288 167.279 278.165 167.402ZM364.826 397.272C366.916 399.36 363.72 401.326 362.859 402.186C362.49 402.555 362.122 401.818 361.876 401.08C361.261 398.5 363.474 395.797 364.826 397.272ZM362.368 405.38C361.999 404.889 362.122 404.889 361.507 405.135C362.613 403.783 361.876 402.8 362.368 405.38ZM419.404 411.155C418.174 412.752 416.331 407.101 417.068 405.012C417.683 403.169 415.839 399.115 418.174 398.623C420.633 398.132 422.354 407.223 419.404 411.155ZM394.45 345.917C395.311 346.654 395.434 347.514 394.45 348.742C393.959 349.357 393.344 349.848 392.607 350.34C392.975 347.882 393.344 345.794 394.45 345.917ZM468.081 274.658C471.031 273.921 473.613 276.87 476.563 275.641C478.038 275.027 479.513 275.273 480.742 276.255C481.111 276.624 481.48 276.87 481.848 277.115C481.603 277.361 481.234 277.484 480.988 277.73C478.775 278.958 476.44 278.958 474.227 279.327C472.26 279.573 474.227 283.873 478.038 284.856C478.038 286.944 481.357 290.999 485.167 292.841C483.815 293.21 482.586 292.596 481.603 293.456C479.759 294.93 482.094 297.141 482.955 297.51C485.29 298.739 487.503 299.107 488.978 299.967C488.855 302.916 489.101 304.267 486.274 304.882C481.111 305.987 478.775 301.442 475.825 298.124C474.104 296.159 473.736 295.667 470.171 294.684C469.925 294.07 469.556 293.579 468.819 293.087C468.45 291.121 467.958 289.156 469.31 287.313C472.015 283.75 468.204 282.89 468.327 281.538C467.098 281.047 467.344 277.975 467.712 274.413C467.835 274.535 467.958 274.658 468.081 274.658ZM505.45 320.239C505.45 320.485 505.081 320.853 504.958 320.853C496.476 322.573 496.845 322.819 495.862 321.959C494.264 320.485 493.28 318.642 494.509 315.57C495.862 312.13 491.191 312.376 494.141 309.55C496.722 307.339 495.493 312.007 499.672 314.833C506.064 319.256 505.695 318.028 505.45 320.239ZM501.762 303.653C501.762 303.653 503.483 305.742 504.343 306.847C504.589 307.216 503.852 307.83 503.36 307.83C499.672 307.585 503.36 303.776 498.935 301.564C497.214 300.704 500.778 299.844 499.918 297.019C498.566 292.964 501.762 293.824 504.22 294.07C506.064 297.387 507.539 295.299 509.998 294.93C512.579 294.439 512.702 295.299 519.34 303.899C517.004 308.69 518.234 308.936 514.546 309.796C512.948 308.567 510.981 308.199 509.998 305.987C507.416 300.704 500.656 299.599 501.762 303.653ZM502.499 289.893C500.041 291.981 496.845 291.859 494.018 292.841C491.805 289.893 488.363 288.296 486.519 284.978C487.626 284.856 488.609 284.61 489.715 283.996C490.453 283.627 491.436 283.75 492.297 283.873C495.493 284.118 496.968 282.521 498.935 281.538C501.147 283.013 501.024 284.733 502.499 289.893ZM427.025 364.1C429.115 366.803 424.566 368.4 423.337 368.4C419.527 368.031 421.125 371.594 419.035 372.823C418.174 373.314 410.43 377.491 409.447 377.123C406.743 376.017 403.67 376.509 400.965 375.157C400.351 374.911 400.105 373.191 400.596 372.823C402.072 371.717 403.301 371.226 403.547 371.103C405.513 369.751 405.268 365.697 402.194 364.714C398.507 363.608 395.925 365.943 396.048 359.923C396.171 354.885 401.58 351.322 402.563 351.322C413.626 351.691 412.274 351.445 413.258 352.92C415.347 356.483 417.437 353.78 419.895 352.674C423.952 350.954 431.819 352.551 426.656 359.308C425.673 361.028 425.796 362.503 427.025 364.1ZM468.696 319.87C466.852 319.993 462.918 319.01 462.058 320.608C461.812 321.099 461.566 321.468 461.32 321.836C458.985 315.079 471.154 319.379 468.696 314.71C468.573 314.465 468.45 314.342 468.327 314.096C469.925 316.062 473.244 319.502 468.696 319.87ZM467.958 312.867C466.606 309.305 468.573 308.936 467.221 305.496C466.36 303.284 467.098 301.933 468.081 300.704C468.941 301.442 469.556 301.442 470.785 301.196C471.277 301.073 472.26 301.319 472.383 301.687C473.981 304.882 477.054 306.847 479.021 309.919C480.25 311.885 477.054 313.727 474.35 312.745C472.015 311.639 469.31 310.902 467.958 312.867ZM391.992 364.223C391.746 364.345 391.377 364.345 390.886 364.468C389.411 364.714 388.304 364.223 387.444 363.485C387.813 363.485 388.181 363.363 388.673 362.994C389.533 362.257 389.902 362.625 391.992 364.223ZM471.4 262.864C473.367 263.355 475.211 262.127 477.423 263.355C479.267 264.338 484.184 265.444 485.044 268.761C485.536 270.481 485.413 272.201 484.676 273.675C471.154 270.85 478.284 275.395 471.646 265.198C471.4 264.829 470.294 263.724 469.31 263.109C469.925 262.741 470.54 262.618 471.4 262.864ZM341.594 119.856C342.823 112.484 348.846 114.695 349.461 107.692C348.723 108.061 347.863 108.675 347.494 109.535C347.863 108.675 348.354 108.061 349.461 107.692C350.321 107.201 350.936 106.955 350.567 106.587C348.723 105.972 346.388 105.235 346.142 105.235C348.969 105.85 350.198 106.341 350.567 106.587C351.673 106.955 352.534 107.324 352.534 107.447C353.148 109.413 351.305 111.501 353.148 111.133C354.992 110.764 356.344 109.535 359.294 112.115C356.344 114.941 353.763 118.013 352.042 121.821C351.796 122.436 350.813 123.05 350.075 123.296C346.879 124.401 345.035 121.33 343.437 126.736C343.192 127.596 342.946 127.596 341.348 127.841C339.381 128.087 340.61 125.753 341.594 119.856ZM385.969 359.8C385.969 358.817 386.215 358.08 386.706 357.465C386.829 357.588 386.829 357.711 386.952 357.834C388.427 359.308 388.427 359.431 387.075 361.397C386.829 361.765 386.706 362.134 386.706 362.503C386.337 361.643 386.092 360.783 385.969 359.8ZM379.331 363.731C386.952 364.837 390.271 367.663 392.607 367.294C392.361 367.54 391.992 367.786 391.746 367.786C389.165 368.154 386.46 366.803 384.002 368.4C383.633 368.646 382.773 368.646 382.281 368.523C378.593 367.417 376.012 367.294 374.045 367.048C373.922 366.557 373.676 365.82 373.308 364.591C373.676 362.503 373.185 362.994 375.889 361.643C376.258 362.38 376.75 362.503 377.487 362.257C377.979 362.748 378.593 363.731 379.331 363.731ZM261.571 115.31C260.71 113.59 264.152 115.187 265.136 112.361C266.611 108.307 268.578 111.01 270.298 112.73C269.684 116.538 272.019 115.801 274.355 116.907C276.69 118.136 276.199 118.873 275.953 129.684C271.159 132.019 271.896 132.879 268.455 131.281C267.963 129.439 266.611 127.841 267.225 125.507C268.7 119.733 264.029 114.573 262.431 118.627C262.431 118.627 262.554 121.33 262.431 122.804C262.431 123.173 261.448 123.296 261.079 122.927C258.375 120.47 263.661 119.733 261.571 115.31ZM386.337 527.38C386.337 527.503 385.969 527.625 385.723 527.748C385.6 527.625 385.6 527.38 385.354 527.257C383.141 523.571 381.912 521.605 381.052 520.868C384.125 521.851 386.706 522.834 386.337 527.38ZM410.43 498.754C410.307 498.262 410.43 498.016 409.816 498.385C408.218 499.491 407.111 500.596 407.972 502.685C409.447 506.248 407.726 508.828 405.513 508.828C398.999 508.951 402.932 513.988 398.753 513.62C397.892 513.497 397.278 513.374 396.786 513.251C396.786 513.128 396.786 513.128 396.909 513.005C397.769 511.039 397.032 509.934 395.68 509.074C395.557 508.214 395.065 507.354 393.344 506.494C392.484 506.002 391.746 505.265 391.254 504.528C392.729 503.054 395.188 501.334 397.401 499.614C399.982 497.771 402.932 499.368 401.457 500.596C401.211 500.719 401.088 500.965 400.965 501.088C400.474 501.088 399.367 501.456 397.523 502.194C396.663 502.562 397.032 503.791 397.892 503.299C398.753 502.931 399.367 502.562 399.859 502.316C399.121 503.422 399.736 504.159 400.351 505.757C401.088 505.265 402.317 505.019 402.44 504.405C403.178 499.614 403.547 494.699 406.251 490.522C407.972 490.891 409.201 490.891 409.447 492.611C410.184 497.279 409.939 499.859 414.364 498.262C414.856 498.139 415.47 498.876 415.347 499.122C414.364 500.474 414.487 500.474 412.397 499.122C411.66 499.368 410.43 498.876 410.43 498.754ZM432.802 518.78C432.679 522.957 433.909 522.342 432.188 524.554C430.59 526.52 427.517 518.288 425.796 521.114C425.304 521.851 425.304 522.834 424.935 523.571C423.829 525.783 420.879 524.431 420.633 523.448C420.264 521.114 421.002 516.322 415.962 516.568C414.61 516.568 414.487 514.234 414.364 513.005C413.995 507.108 418.543 508.214 426.533 506.002C427.394 505.757 428.254 506.494 428.254 507.477C428.254 508.091 428.131 508.582 428.131 509.197C428.254 512.759 431.204 510.425 432.311 512.268C434.031 514.48 432.925 516.2 432.802 518.78ZM461.935 606.501C462.181 606.624 462.304 606.87 462.55 606.993C462.181 606.87 461.935 606.501 461.935 606.501ZM450.134 434.99C444.603 433.638 445.217 437.201 437.596 438.061C435.998 438.184 434.646 439.044 433.663 440.027C433.786 439.658 434.031 439.167 434.277 438.798C435.015 437.938 434.154 436.71 432.802 436.218C432.311 435.972 431.573 436.218 431.204 435.972C429.115 434.744 432.065 433.27 430.713 430.321C428.992 426.389 432.065 426.758 433.54 423.318C433.663 424.424 432.433 427.127 436.121 425.775C439.44 423.441 437.105 421.352 434.154 420.124C434.154 419.141 434.154 418.035 433.909 416.684C433.048 410.295 432.679 410.418 433.786 408.206C435.998 409.803 443.497 405.872 443.742 409.558C443.988 412.629 438.457 413.612 442.144 416.806C442.636 417.175 443.374 417.298 443.497 417.789C444.111 419.509 445.095 420.492 446.938 421.229C452.347 423.318 448.168 427.004 453.085 429.952C456.158 431.918 452.224 435.481 450.134 434.99ZM442.39 382.283C438.948 382.774 435.998 378.597 436.367 377.369C436.736 376.017 439.809 375.771 439.194 372.577C439.071 371.717 441.776 369.751 445.095 369.997C448.168 370.243 446.693 370.243 448.905 368.768C441.898 375.526 448.29 381.546 442.39 382.283ZM456.158 351.2C454.068 354.517 454.928 357.834 456.158 361.028C456.403 361.765 456.158 362.134 455.543 362.257H455.42C455.543 360.905 455.174 358.448 454.56 354.517C454.191 352.182 446.447 353.78 448.536 359.063C447.799 358.571 447.43 358.08 447.061 357.22C446.693 356.483 446.201 355.991 445.832 355.868C445.955 355.5 445.955 355.131 445.586 354.64C443.497 350.954 437.105 349.357 438.334 352.428C439.194 354.64 440.915 355.868 442.513 356.483C441.038 356.851 438.948 357.097 435.998 355.131C432.065 352.428 434.523 353.288 434.892 349.602C435.015 348.374 435.384 347.391 436.49 346.777C440.423 345.057 440.915 346.408 442.882 347.637C447.922 350.708 446.938 344.934 452.593 344.934C453.699 346.039 454.805 346.9 456.035 347.76C456.28 348.865 456.895 349.971 456.158 351.2ZM557.569 542.737C557.692 542.491 557.938 542.123 557.938 542.123C557.815 542.369 557.692 542.614 557.569 542.737ZM544.416 332.156C544.539 331.911 544.785 331.665 544.785 331.665C544.662 331.788 544.539 331.911 544.416 332.156ZM569.984 259.547C570.353 260.407 570.107 260.529 569.124 261.758C567.771 263.232 567.403 260.652 564.452 255.369C560.765 248.858 566.788 246.769 562.977 240.995C562.609 241.732 562.363 242.715 562.609 243.698C562.363 242.838 562.363 241.978 562.977 240.995C563.346 240.135 563.715 239.52 563.1 239.398C561.379 240.012 559.044 240.995 558.798 241.118C561.379 239.889 562.609 239.398 563.1 239.398C564.207 239.029 565.067 238.783 565.19 238.906C566.911 240.135 566.665 242.838 568.017 241.363C569.246 239.889 569.615 238.169 573.426 238.292C572.811 242.346 572.811 246.401 573.795 250.332C573.917 251.069 573.549 252.052 573.057 252.666C571.213 255.615 567.894 254.264 569.984 259.547ZM798.251 425.652C799.849 423.687 806.733 429.707 806.979 434.744C807.102 436.832 802.062 433.515 801.447 431.427C800.71 429.584 796.776 427.495 798.251 425.652ZM757.81 466.073C757.81 464.23 756.826 463.984 758.67 465.704C758.056 465.582 758.179 465.459 757.81 466.073ZM755.597 457.719C758.547 458.087 757.318 461.65 757.195 462.756C757.072 463.247 756.458 462.879 755.72 462.387C753.63 461.036 753.63 457.596 755.597 457.719ZM754.983 377.491C754.368 376.017 753.63 375.157 755.597 374.911C758.67 374.42 756.089 376.386 754.983 377.491ZM762.112 349.725C762.358 349.971 762.481 350.217 762.481 350.217C762.358 350.094 762.235 349.848 762.112 349.725ZM853.198 390.392C852.46 390.515 851.354 390.392 851.231 389.163C851.231 388.672 850.985 387.934 851.231 387.566C853.935 382.529 856.885 390.023 853.198 390.392Z" fill="#3D8BC1"/>
<path fill-rule="evenodd" clip-rule="evenodd" d="M729.915 202.226C731.144 201.489 732.619 201.121 733.48 200.138C734.709 198.663 734.955 196.943 736.307 194.732C736.676 194.24 738.274 194.118 738.642 194.732C739.134 195.469 739.872 196.206 739.872 196.943C739.749 198.049 739.38 208.861 743.314 206.649C744.051 206.281 744.666 205.544 745.403 205.175C749.214 202.841 744.912 216.969 749.46 208.861C753.27 199.278 752.533 201.735 749.337 199.646C748.353 199.032 748.107 197.312 748.968 196.698C751.918 194.363 753.639 195.223 752.779 193.995C751.672 192.398 749.828 191.046 750.566 188.712C749.214 186.255 750.566 183.429 749.706 180.972C748.722 178.146 745.403 177.163 743.559 174.952C739.626 169.914 738.888 169.177 735.446 169.054C734.955 169.054 734.094 169.3 733.971 169.669C732.865 172.617 730.53 175.197 732.005 178.76C733.111 181.463 728.932 185.149 731.39 188.835C731.021 200.261 728.071 193.995 727.702 202.841C727.579 205.052 729.177 202.718 729.915 202.226Z" fill="#3D8BC1"/>
<path fill-rule="evenodd" clip-rule="evenodd" d="M798.506 291.668C797.031 291.545 796.539 292.282 796.17 293.511C795.556 295.968 793.589 295.845 793.22 297.565C792.728 299.899 795.924 300.145 796.785 299.899C801.948 298.917 805.021 295.599 806.865 301.374C807.725 304.322 808.094 307.025 809.2 302.971C806.373 299.162 805.512 299.408 805.881 296.459C806.496 292.036 802.931 292.159 798.506 291.668Z" fill="#3D8BC1"/>
<path fill-rule="evenodd" clip-rule="evenodd" d="M420.027 611.102C416.954 609.259 414.004 611.471 414.495 612.576C416.708 616.753 418.92 616.139 423.346 620.562C424.575 621.791 428.017 618.596 430.598 616.631C421.625 614.665 421.256 611.839 420.027 611.102Z" fill="#3D8BC1"/>
<path fill-rule="evenodd" clip-rule="evenodd" d="M410.193 536.158C410.316 536.158 410.562 536.158 410.685 536.158C410.439 535.912 410.562 535.912 410.193 536.158Z" fill="#3D8BC1"/>
<path fill-rule="evenodd" clip-rule="evenodd" d="M722.048 221.392C723.154 220.164 722.908 218.689 722.294 219.058C721.31 219.55 721.556 221.27 722.048 221.392Z" fill="#3D8BC1"/>
<path fill-rule="evenodd" clip-rule="evenodd" d="M723.892 218.444C728.194 216.847 721.802 214.758 725.49 211.318C726.227 210.704 726.473 208.124 724.26 208.492C722.048 208.861 721.925 208.861 721.925 210.212C721.802 214.758 719.221 215.004 722.171 218.198C722.54 218.689 722.417 219.058 723.892 218.444Z" fill="#3D8BC1"/>
<path fill-rule="evenodd" clip-rule="evenodd" d="M808.585 369.806C811.29 371.158 813.625 371.895 815.715 369.806C817.067 368.455 815.346 366.981 810.183 362.312C808.34 360.715 803.177 367.103 808.585 369.806Z" fill="#3D8BC1"/>
<path fill-rule="evenodd" clip-rule="evenodd" d="M495.87 646.977C495.378 647.714 495.87 648.206 496.362 648.083C498.943 647.468 501.77 648.82 502.262 644.028C498.943 643.906 498.697 643.414 495.87 646.977Z" fill="#3D8BC1"/>
<path fill-rule="evenodd" clip-rule="evenodd" d="M601.215 238.224C601.215 237.733 600.6 237.241 600.354 236.873C596.544 239.576 599.617 256.284 601.215 238.224Z" fill="#3D8BC1"/>
<path fill-rule="evenodd" clip-rule="evenodd" d="M610.68 269.062C612.77 269.676 612.155 265.867 612.032 264.393C610.188 262.796 608.713 261.322 608.099 263.779C606.992 268.202 609.451 268.693 610.68 269.062Z" fill="#3D8BC1"/>
<path fill-rule="evenodd" clip-rule="evenodd" d="M844.848 429.27C846.323 430.376 848.044 430.253 849.765 430.376C850.01 430.376 850.379 429.516 850.748 429.025C850.748 426.444 848.044 427.182 844.971 427.673C844.479 427.796 844.233 428.779 844.848 429.27Z" fill="#3D8BC1"/>
<path fill-rule="evenodd" clip-rule="evenodd" d="M796.17 370.912C801.087 373.738 806.496 369.438 803.177 368.086C799.243 366.489 793.22 369.192 796.17 370.912Z" fill="#3D8BC1"/>
<path fill-rule="evenodd" clip-rule="evenodd" d="M542.458 268.693C541.597 270.29 543.195 272.502 544.916 273.608C547.989 275.573 543.81 266.113 542.458 268.693Z" fill="#3D8BC1"/>
<path fill-rule="evenodd" clip-rule="evenodd" d="M425.927 551.27C425.681 550.41 423.714 549.427 423.1 551.761C422.854 552.867 426.419 552.867 425.927 551.27Z" fill="#3D8BC1"/>
<path fill-rule="evenodd" clip-rule="evenodd" d="M425.927 358.503C426.542 361.083 430.106 359.363 429 357.275C427.771 354.818 425.435 356.538 425.927 358.503Z" fill="#3D8BC1"/>
<path fill-rule="evenodd" clip-rule="evenodd" d="M218.188 17.2003C220.646 20.1489 221.998 19.4118 223.105 21.9918C223.842 23.589 230.972 37.3492 236.626 38.5778C240.683 39.4378 240.806 48.4065 240.437 50.3723C239.453 55.1638 244.124 53.9352 244.985 65.1154C245.722 74.8213 244.862 76.2956 246.706 75.1899C249.779 73.347 257.892 83.1757 253.835 73.2241C251.377 67.3269 258.261 65.9754 252.606 61.1839C251.254 60.0782 250.271 54.5495 250.025 52.9523C249.164 46.8094 245.354 49.6351 244.616 45.8265C243.387 39.1921 247.812 38.4549 250.148 42.2636C251.131 43.7379 252.36 42.0179 252.237 41.035C251.623 36.7349 248.795 35.0149 251.623 32.0663C252.114 31.5748 252.483 30.3462 252.36 29.7319C251.377 27.029 253.344 24.5718 252.975 21.8689C252.729 20.3946 254.327 18.5517 256.294 20.6403C257.031 21.5004 257.769 22.3604 258.629 23.0975C259.49 23.8347 261.211 23.3433 261.457 22.2375C262.194 19.0432 266.619 20.7632 265.513 18.6746C260.227 9.09158 257.031 1.96574 257.892 12.7774C258.015 14.2517 256.048 14.6202 255.433 14.1288C252.852 12.1631 253.344 10.5659 250.885 13.3916C249.533 14.9888 247.935 15.1117 246.091 14.3745C237.61 10.8116 244.493 6.38867 239.699 2.70289C239.33 2.45718 238.347 2.94861 238.47 3.19433C241.912 11.7945 236.134 15.8488 235.028 14.0059C231.34 7.24869 231.463 2.70289 225.317 3.31719C218.925 0.245709 218.311 -0.614306 216.59 0.491427C213.885 2.45718 220.032 4.54578 218.557 8.96872C216.713 13.5145 215.975 14.6202 218.188 17.2003ZM241.912 31.2062C240.314 32.0663 240.928 32.312 239.576 30.5919C241.666 29.7319 241.051 29.7319 241.912 31.2062Z" fill="#3D8BC1"/>
<path fill-rule="evenodd" clip-rule="evenodd" d="M502.754 173.109C504.106 173.232 505.581 173.969 506.81 173.723C508.777 173.354 510.006 172.126 512.342 171.266C512.956 171.02 514.186 172.003 514.186 172.74C514.063 173.6 514.186 174.706 513.694 175.197C512.956 176.057 505.95 184.166 510.375 185.026C511.235 185.149 512.096 185.026 512.956 185.149C517.382 185.763 505.212 194.118 513.817 190.555C522.667 185.395 520.7 186.869 519.471 183.306C519.102 182.2 519.84 180.726 521.069 180.726C524.88 180.726 525.617 182.446 525.74 180.972C525.863 179.006 525.249 176.794 527.338 175.443C527.83 172.74 530.657 171.266 531.395 168.809C532.378 165.983 530.411 163.157 530.411 160.208C530.411 153.82 530.288 152.714 527.707 150.503C527.338 150.134 526.478 149.888 526.232 150.011C523.528 151.608 520.086 152.223 518.98 155.908C518.119 158.611 512.588 158.98 512.096 163.403C504.721 172.126 506.319 165.369 500.418 172.126C499.189 173.846 501.893 172.986 502.754 173.109Z" fill="#3D8BC1"/>
<path fill-rule="evenodd" clip-rule="evenodd" d="M83.4645 157.014C89.8565 157.383 90.594 151.608 95.6338 154.68C97.7235 156.031 98.9527 154.434 98.584 158.611C98.3381 160.823 99.4444 159.348 103.378 158.366C105.468 157.874 104.116 160.946 108.172 161.191C112.72 161.56 112.72 160.823 116.162 158.611C117.022 157.997 117.145 156.523 116.531 155.54C115.179 153.328 112.105 152.591 111.614 149.643C111.491 149.274 110.753 148.66 110.262 148.66C107.557 148.66 106.328 147.185 104.976 144.851C103.009 141.288 103.132 142.64 105.836 138.708C105.959 136.497 103.624 133.671 101.657 136.742C101.288 137.234 101.288 138.094 100.797 138.217C96.986 139.445 94.7734 142.762 91.3316 144.36C88.3814 145.711 79.531 156.768 83.4645 157.014Z" fill="#3D8BC1"/>
<path fill-rule="evenodd" clip-rule="evenodd" d="M96.2485 133.057C100.182 127.774 103.747 128.388 117.76 124.702C119.481 124.211 117.391 122.859 116.162 120.525C114.81 118.068 115.916 117.085 117.637 115.365C119.727 113.399 117.145 111.188 115.424 111.679C106.943 114.136 105.099 118.436 100.92 123.596C101.288 127.282 97.6006 127.159 93.5442 129.985C88.6273 133.302 89.2419 142.517 96.2485 133.057Z" fill="#3D8BC1"/>
<path fill-rule="evenodd" clip-rule="evenodd" d="M5.4086 299.777C4.17937 296.459 0.368766 296.337 0.245843 297.442C-0.614616 302.111 1.59799 302.971 2.21261 309.237C2.33553 310.957 7.00659 310.711 10.2026 310.711C4.42521 303.462 5.90029 301.128 5.4086 299.777Z" fill="#3D8BC1"/>
<path fill-rule="evenodd" clip-rule="evenodd" d="M44.498 235.03C44.6212 235.153 44.7444 235.153 44.8676 235.276C44.7444 234.907 44.8676 235.03 44.498 235.03Z" fill="#3D8BC1"/>
<path fill-rule="evenodd" clip-rule="evenodd" d="M94.4046 165.246C94.8963 164.877 95.1422 165 95.1422 165.123C94.8963 164.386 95.0192 164.754 94.2817 164.509C88.7502 163.157 90.9628 167.826 94.4046 165.246Z" fill="#3D8BC1"/>
<path fill-rule="evenodd" clip-rule="evenodd" d="M484.684 183.183C486.282 182.815 487.02 181.586 486.405 181.463C485.299 181.217 484.315 182.815 484.684 183.183Z" fill="#3D8BC1"/>
<path fill-rule="evenodd" clip-rule="evenodd" d="M487.88 182.077C492.305 183.552 488.495 177.9 493.535 177.532C494.518 177.409 496.362 175.566 494.395 174.583C492.428 173.477 492.428 173.354 491.445 174.46C488.495 177.9 486.282 176.549 486.651 180.849C486.774 181.34 486.282 181.586 487.88 182.077Z" fill="#3D8BC1"/>
<path fill-rule="evenodd" clip-rule="evenodd" d="M43.2688 214.635C45.3585 199.769 41.7937 208.615 39.4582 209.598C36.9997 210.704 37.1227 212.547 37.2456 214.512C37.4914 217.829 43.3917 217.461 43.2688 214.635Z" fill="#3D8BC1"/>
<path fill-rule="evenodd" clip-rule="evenodd" d="M155.251 44.1065C147.507 40.6664 148.368 42.755 151.072 50.618C152.424 54.4266 158.201 45.4579 155.251 44.1065Z" fill="#3D8BC1"/>
<path fill-rule="evenodd" clip-rule="evenodd" d="M146.278 166.966C153.653 167.457 145.909 157.014 144.188 156.523C143.328 156.277 142.467 156.768 142.713 157.874C143.451 160.7 146.77 160.454 145.663 163.28C145.54 164.14 142.222 165.614 146.278 166.966Z" fill="#3D8BC1"/>
<path fill-rule="evenodd" clip-rule="evenodd" d="M75.5974 136.988C76.2121 136.374 76.7037 135.637 77.1954 135.022C73.0161 135.759 71.1722 133.179 71.0493 135.145C70.8035 136.251 72.7702 139.937 75.5974 136.988Z" fill="#3D8BC1"/>
<path fill-rule="evenodd" clip-rule="evenodd" d="M42.4083 374.966C41.5479 375.212 41.6708 375.949 42.1625 376.195C44.6209 377.301 45.9731 380.127 49.292 376.686C46.7106 374.475 46.8335 373.984 42.4083 374.966Z" fill="#3D8BC1"/>
<path fill-rule="evenodd" clip-rule="evenodd" d="M379.585 121.016C379.831 120.648 379.708 119.911 379.831 119.419C375.16 119.173 367.17 134.162 379.585 121.016Z" fill="#3D8BC1"/>
<path fill-rule="evenodd" clip-rule="evenodd" d="M369.137 145.342C365.449 148.168 367.047 150.011 367.785 151.117C369.014 152.96 370.858 149.52 371.718 148.291C371.349 145.834 371.104 143.868 369.137 145.342Z" fill="#3D8BC1"/>
<path fill-rule="evenodd" clip-rule="evenodd" d="M451.987 421.039C451.618 420.793 450.757 421.53 451.003 422.144C451.495 423.864 452.97 424.97 454.199 426.076C454.445 426.322 455.183 425.83 455.797 425.707C457.272 423.619 454.691 422.513 451.987 421.039Z" fill="#3D8BC1"/>
<path fill-rule="evenodd" clip-rule="evenodd" d="M125.75 117.699C123.906 115.611 120.833 117.945 121.325 120.033C121.693 121.753 129.806 122.368 125.75 117.699Z" fill="#3D8BC1"/>
<path fill-rule="evenodd" clip-rule="evenodd" d="M103.87 110.082C103.501 109.099 104.116 109.345 100.551 108.362C99.6903 108.116 99.8132 109.713 100.182 110.082C101.534 111.065 102.64 111.31 103.87 110.082Z" fill="#3D8BC1"/>
<path fill-rule="evenodd" clip-rule="evenodd" d="M313.576 113.645C314.805 117.085 317.386 107.133 314.682 108.362C312.961 108.976 312.838 111.802 313.576 113.645Z" fill="#3D8BC1"/>
<path fill-rule="evenodd" clip-rule="evenodd" d="M47.4481 256.53C47.8169 255.67 46.8335 253.704 44.9897 255.179C44.0063 255.916 46.7106 258.25 47.4481 256.53Z" fill="#3D8BC1"/>
<path fill-rule="evenodd" clip-rule="evenodd" d="M170.74 106.888C171.354 104.185 168.404 104.062 167.544 105.905C166.437 108.239 170.371 109.099 170.74 106.888Z" fill="#3D8BC1"/>
<path fill-rule="evenodd" clip-rule="evenodd" d="M67.9762 203.946C72.6473 205.052 73.5078 204.192 68.345 202.841C67.3616 202.472 66.9929 203.701 67.9762 203.946Z" fill="#3D8BC1"/>
</g>
<defs>
<clipPath id="clip0_11_1606">
<rect width="895" height="660" fill="white"/>
</clipPath>
</defs>
</svg>
