<svg width="913" height="254" viewBox="0 0 913 254" fill="none" xmlns="http://www.w3.org/2000/svg">
<g clip-path="url(#clip0_11_1651)">
<path d="M911.8 134.148C873.004 115.395 832.909 96.2711 789.414 92.929C745.818 89.4941 697.424 105.833 677.826 142.039C667.327 161.349 666.127 183.723 660.028 204.611C653.928 225.499 640.13 247.13 617.332 251.865C590.735 257.435 566.238 237.939 548.44 218.815C530.642 199.691 510.944 177.689 483.747 176.11C460.65 174.811 440.252 188.922 421.154 201.083C375.159 230.234 320.165 252.05 264.971 245.273C209.777 238.496 157.483 195.235 159.083 143.618C159.683 123.936 166.882 101.377 152.783 86.6162C142.884 76.2185 125.886 74.5475 110.988 76.5899C96.1895 78.7251 81.7911 83.7382 66.7927 84.0168C45.495 84.3881 24.1974 74.1761 12.1987 57.8369C0.199982 41.4977 -2.19976 19.4956 5.99935 1.20683" stroke="#91D6E8" stroke-width="2.4666" stroke-miterlimit="10" stroke-linecap="round" stroke-dasharray="12.33 12.33"/>
<path d="M100.289 78.5395L79.5913 97.8494L77.0916 88.9371L96.1895 79.5607L74.5918 79.8392L72.0921 70.9269L100.289 78.5395Z" fill="#3D8BC1"/>
<path d="M374.059 226.149L357.061 248.43L353.061 240.075L370.159 227.727L348.862 231.441L344.862 222.993L374.059 226.149Z" fill="#3D8BC1"/>
</g>
<defs>
<clipPath id="clip0_11_1651">
<rect width="913" height="254" fill="white" transform="matrix(1 0 0 -1 0 254)"/>
</clipPath>
</defs>
</svg>
