<svg width="318" height="617" viewBox="0 0 318 617" fill="none" xmlns="http://www.w3.org/2000/svg">
<g clip-path="url(#clip0_4_1412)">
<path d="M0.841557 37.2121C33.9775 11.8039 77.212 -1.40043 119.605 1.10038C161.998 3.60119 203.234 21.607 232.793 50.7165C252.675 70.3228 267.823 98.9321 257.619 124.34C252.78 136.444 242.576 146.648 240.157 159.452C236.37 179.658 253.096 197.864 270.242 210.268C287.283 222.772 307.165 234.476 314.423 253.682C322.839 275.99 310.742 301.098 293.28 318.003C275.817 334.909 253.306 346.212 233.95 361.117C214.595 376.022 197.343 396.729 197.448 420.436C197.448 440.643 209.861 458.649 218.277 477.355C226.587 495.961 230.058 520.069 215.016 534.373C204.496 544.377 188.086 546.377 173.359 544.477C158.632 542.576 144.431 537.574 129.704 535.674C104.352 532.473 77.738 539.375 57.646 554.28C37.4489 569.185 23.8789 591.992 20.9335 616.2" stroke="#91D6E8" stroke-width="1.6444" stroke-miterlimit="10" stroke-linecap="round" stroke-dasharray="8.22 8.22"/>
<path d="M277.606 215.57L297.908 219.271L293.28 224.273L279.815 217.47L288.546 229.274L283.917 234.276L277.606 215.57Z" fill="#3D8BC1"/>
<path d="M210.071 460.249L227.639 470.452L221.538 473.554L211.439 462.75L215.226 476.755L209.02 479.856L210.071 460.249Z" fill="#3D8BC1"/>
</g>
<defs>
<clipPath id="clip0_4_1412">
<rect width="318" height="617" fill="white" transform="matrix(-1 0 0 1 318 0)"/>
</clipPath>
</defs>
</svg>
