<svg width="553" height="619" viewBox="0 0 553 619" fill="none" xmlns="http://www.w3.org/2000/svg">
<path d="M580.434 201.145C564.323 161.632 532.947 127.126 494.162 106.495C455.378 85.8639 409.567 79.1064 368.317 88.1104C340.559 94.1898 312.312 110.506 308.145 137.703C306.14 150.647 309.866 164.848 305.359 177.091C298.218 196.396 273.977 202.973 252.375 204.366C230.815 205.9 207.159 205.226 190.77 217.743C171.748 232.289 169.411 260.246 176.076 284.074C182.741 307.901 196.779 329.653 206.157 352.788C215.535 375.922 220.041 402.886 207.641 423.092C197.151 440.363 176.827 449.086 159.675 460.554C142.668 471.993 127.083 490.734 132.959 511.039C137.068 525.239 150.54 535.762 164.55 542.047C178.559 548.333 193.713 551.685 207.722 557.97C231.801 568.85 251.752 589.043 261.781 612.573C271.903 636.16 272.063 662.942 262.1 685.214" stroke="#91D6E8" stroke-width="1.6444" stroke-miterlimit="10" stroke-linecap="round" stroke-dasharray="8.22 8.22"/>
<path d="M243.112 204.942L223.238 197.201L224.734 203.962L240.172 205.38L226.323 210.78L227.82 217.54L243.112 204.942Z" fill="white"/>
<path d="M175.81 450.34L154.98 449.626L158.765 455.553L173.303 451.743L162.684 461.679L166.563 467.663L175.81 450.34Z" fill="white"/>
</svg>
