<svg width="232" height="617" viewBox="0 0 232 617" fill="none" xmlns="http://www.w3.org/2000/svg">
<g clip-path="url(#clip0_28_1669)">
<path d="M328.129 37.2121C293.847 11.8038 249.117 -1.40046 205.258 1.10035C161.398 3.60116 118.736 21.607 88.1542 50.7164C67.5849 70.3228 51.9131 98.9321 62.4698 124.34C67.4761 136.444 78.0328 146.648 80.5359 159.452C84.4539 179.658 67.1496 197.864 49.4099 210.268C31.7791 222.772 11.2098 234.476 3.70035 253.682C-5.00624 275.989 7.50948 301.098 25.5756 318.003C43.6418 334.909 66.9319 346.212 86.957 361.117C106.982 376.022 124.831 396.729 124.722 420.436C124.722 440.643 111.88 458.649 103.173 477.355C94.5753 495.961 90.9838 520.069 106.547 534.373C117.43 544.377 134.408 546.377 149.644 544.477C164.881 542.576 179.573 537.574 194.81 535.674C221.038 532.473 248.573 539.375 269.36 554.28C290.256 569.185 304.295 591.992 307.342 616.2" stroke="#91D6E8" stroke-width="1.6444" stroke-miterlimit="10" stroke-linecap="round" stroke-dasharray="8.22 8.22"/>
<path d="M41.7916 215.57L20.787 219.271L25.5756 224.273L39.5061 217.47L30.4731 229.274L35.2617 234.276L41.7916 215.57Z" fill="#3D8BC1"/>
<path d="M111.662 460.249L93.4869 470.452L99.7992 473.554L110.247 462.75L106.329 476.755L112.75 479.856L111.662 460.249Z" fill="#3D8BC1"/>
</g>
<defs>
<clipPath id="clip0_28_1669">
<rect width="329" height="617" fill="white"/>
</clipPath>
</defs>
</svg>
