<svg width="551" height="512" viewBox="0 0 551 512" fill="none" xmlns="http://www.w3.org/2000/svg">
<g clip-path="url(#clip0_11_1655)">
<path d="M1.20001 510.1C22.1 505.6 40.7 491.6 50.8 472.8C60.9 454 62.3 430.7 54.6 410.8C47.6 392.9 34.1 378.6 24 362.2C14 345.9 7.50001 324.8 16.2 307.7C26.1 288.3 51.2 281.6 63.5 263.6C76.5 244.6 71.5 218.5 61.5 197.7C51.5 176.9 37 158.3 31 136.1C23.8 108.9 31 78.3 49.8 57.3C68.5 36.3 98.1 25.6 125.9 29.7C170.8 36.3 208 77.8 253.1 73C270.7 71.1 286.6 62.2 303 55.5C319.4 48.8 338.1 44.1 354.5 50.9C372.3 58.3 382.2 76.9 395.8 90.6C423.8 119 471.7 125.1 505.9 104.7C540.2 84.3 557.7 39.4 546.2 1.20001" stroke="#91D6E8" stroke-width="2.4666" stroke-miterlimit="10" stroke-linecap="round" stroke-dasharray="12.33 12.33"/>
<path d="M446.2 116.2L427.4 93.6L424.1 102.9L442.2 114.8L420.7 112.5L417.3 121.8L446.2 116.2Z" fill="#3D8BC1"/>
</g>
<defs>
<clipPath id="clip0_11_1655">
<rect width="550.9" height="511.3" fill="white"/>
</clipPath>
</defs>
</svg>
