<svg width="423" height="536" viewBox="0 0 423 536" fill="none" xmlns="http://www.w3.org/2000/svg">
<path d="M450.434 118.145C434.323 78.6323 402.947 44.1261 364.162 23.495C325.378 2.86392 279.567 -3.89358 238.317 5.11037C210.559 11.1898 182.312 27.5065 178.145 54.7031C176.14 67.6472 179.866 81.8482 175.359 94.0914C168.218 113.396 143.977 119.973 122.375 121.366C100.815 122.9 77.1588 122.226 60.7701 134.743C41.7483 149.289 39.4112 177.246 46.0763 201.074C52.7413 224.901 66.7793 246.653 76.1573 269.788C85.5352 292.922 90.0409 319.886 77.6407 340.092C67.1509 357.363 46.8274 366.086 29.6751 377.554C12.6678 388.993 -2.91684 407.734 2.95894 428.039C7.06788 442.239 20.5402 452.762 34.5495 459.047C48.5588 465.333 63.7128 468.685 77.7221 474.97C101.801 485.85 121.752 506.043 131.781 529.573C141.903 553.16 142.063 579.942 132.1 602.214" stroke="#91D6E8" stroke-width="1.6444" stroke-miterlimit="10" stroke-linecap="round" stroke-dasharray="8.22 8.22"/>
</svg>
