<svg width="130" height="136" viewBox="0 0 130 136" fill="none" xmlns="http://www.w3.org/2000/svg">
<path d="M61.5066 135.224L67.7501 135.263C102.684 133.763 129.963 104.295 129.963 68.0569C130 31.8188 102.684 2.35127 67.7501 0.850969L61.5809 0.8125C61.5437 0.8125 61.5437 0.850969 61.5066 0.850969C26.9811 2.73597 0 32.2035 0 68.0184C0 103.833 26.9811 133.339 61.5066 135.224ZM22.2613 111.527C26.3865 108.411 30.8462 105.757 35.566 103.603C40.0257 113.258 46.2321 121.799 54.0738 129.031C42.0698 126.761 30.9205 120.606 22.2613 111.527ZM62.4728 129.492C52.9588 122.106 45.303 112.527 40.2115 101.679C47.3471 98.9862 54.817 97.4475 62.4728 97.1012V129.492ZM62.4728 91.9079C54.1109 92.2926 45.972 93.9468 38.2047 96.9089C35.2316 89.292 33.4849 81.1749 33.0017 72.8656H62.4728V91.9079ZM62.4728 67.6337H32.8531C32.8902 59.0935 34.2653 50.7072 36.9039 42.7441C45.08 46.0524 53.665 47.9759 62.4728 48.3606V67.6337ZM75.0715 129.223C83.2476 121.722 89.677 112.797 94.211 102.679C99.2653 104.795 104.059 107.488 108.519 110.719C99.5254 120.491 87.7816 126.992 75.0715 129.223ZM111.827 106.796C106.958 103.218 101.718 100.256 96.1435 97.9091C99.1166 89.9459 100.863 81.5212 101.346 72.8271H124.797C123.868 85.2912 119.408 96.9858 111.827 106.796ZM113.685 31.8573C120.969 42.3209 124.871 54.6696 124.946 67.5953H101.458C101.421 58.7473 100.046 50.0148 97.3328 41.7054C103.168 39.128 108.631 35.8196 113.685 31.8573ZM110.6 27.741C105.955 31.3571 100.938 34.4347 95.6232 36.8198C91.1264 25.4329 84.0652 15.1616 75.0715 6.85219C88.8965 9.27575 101.384 16.6234 110.6 27.741ZM67.5272 7.12147C78.0074 15.4693 86.072 26.3561 90.9777 38.7433C83.4334 41.5515 75.5546 43.0518 67.5272 43.2057V7.12147ZM67.5272 48.4375C76.1492 48.2452 84.5855 46.6679 92.6872 43.6289C95.1401 51.3612 96.4037 59.4013 96.4408 67.5953H67.49V48.4375H67.5272ZM67.5272 72.8271H96.2922C95.8462 80.8672 94.1738 88.6765 91.4237 96.101C83.7307 93.4466 75.7033 92.0233 67.5272 91.8694V72.8271ZM67.5272 97.0243C75.0343 97.1782 82.3928 98.4861 89.454 100.871C84.5112 111.758 76.9668 121.414 67.5272 128.915V97.0243ZM62.4728 6.5829V43.1672C54.2967 42.7825 46.3065 41.013 38.6878 37.8969C43.7421 25.5868 51.9182 14.7769 62.4728 6.5829ZM54.0738 7.00606C45.4145 15.0077 38.5763 24.8943 34.1166 35.8196C29.1738 33.396 24.4911 30.3954 20.1801 26.8562C29.0995 16.4695 40.992 9.50657 54.0738 7.00606ZM16.984 30.8955C21.741 34.7425 26.8696 38.0508 32.2584 40.6667C29.3596 49.2839 27.8731 58.3626 27.8359 67.6337H5.01715C5.09148 54.2849 9.2167 41.59 16.984 30.8955ZM5.20297 72.8656H27.9846C28.4677 81.8674 30.3259 90.6384 33.5592 98.8708C28.3562 101.256 23.4134 104.218 18.8794 107.68C10.8891 97.7167 6.16924 85.7143 5.20297 72.8656Z" fill="white"/>
</svg>
